<svg width="109" height="26" fill="none" xmlns="http://www.w3.org/2000/svg"><path d="M12.014 7.795a1.007 1.007 0 0 0 1.424 0l2.846-2.846a1.004 1.004 0 0 0 0-1.423L13.438.68a1.005 1.005 0 0 0-1.424 0L9.17 3.526a1.006 1.006 0 0 0 0 1.423l2.845 2.846Zm12.806 4.269-2.846-2.846a1.005 1.005 0 0 0-1.423 0l-2.846 2.846a1.005 1.005 0 0 1-1.423 0l-2.846-2.846a1.005 1.005 0 0 0-1.424 0l-2.845 2.846a1.006 1.006 0 0 1-1.424 0L4.898 9.218a1.006 1.006 0 0 0-1.424 0L.628 12.064a1.006 1.006 0 0 0 0 1.424l3.558 3.557 4.269 4.27 3.557 3.557a1.007 1.007 0 0 0 1.424 0l3.557-3.558 4.27-4.269 3.557-3.558a1.004 1.004 0 0 0 0-1.423Z" fill="#00AAD5"/><path d="M48.27 13a4.187 4.187 0 1 0-8.372 0v6.15a.45.45 0 0 0 .45.45h.897a.449.449 0 0 0 .45-.45v-1.917a.452.452 0 0 1 .646-.404 4.238 4.238 0 0 0 4.708-.862 4.051 4.051 0 0 0 1.222-2.968m-1.795 0a2.397 2.397 0 1 1-.7-1.696 2.313 2.313 0 0 1 .7 1.696ZM70.997 6.85v1.913a.45.45 0 0 1-.647.404A4.226 4.226 0 1 0 72.792 13V6.85a.45.45 0 0 0-.45-.45h-.897a.448.448 0 0 0-.447.45m0 6.148a2.396 2.396 0 1 1-.701-1.696 2.312 2.312 0 0 1 .7 1.696Zm11.362 0a4.184 4.184 0 1 0-1.227 2.972 4.056 4.056 0 0 0 1.227-2.972Zm-1.795 0a2.395 2.395 0 1 1-.7-1.696 2.312 2.312 0 0 1 .7 1.696Zm-48.439 0a2.392 2.392 0 0 0 4.784 0V9.25a.45.45 0 0 1 .45-.451h.897a.45.45 0 0 1 .45.45V13a4.187 4.187 0 1 1-8.373 0V9.25a.45.45 0 0 1 .449-.45h.896a.45.45 0 0 1 .45.45V13h-.003Zm58.904 2.607A4.187 4.187 0 0 1 83.554 13V9.25a.449.449 0 0 1 .449-.45h.896a.449.449 0 0 1 .45.45V13a2.392 2.392 0 1 0 4.783 0V9.25a.45.45 0 0 1 .45-.45h.896a.449.449 0 0 1 .449.45V13a2.392 2.392 0 1 0 4.783 0V9.25a.449.449 0 0 1 .45-.45h.896a.449.449 0 0 1 .45.45V13a4.186 4.186 0 0 1-7.475 2.604h-.001Zm10.018 1.592h-.896a.45.45 0 0 1-.45-.451v-3.749a4.183 4.183 0 0 1 2.572-3.919 4.182 4.182 0 0 1 4.595.922 4.18 4.18 0 0 1 1.206 2.997v3.749a.443.443 0 0 1-.131.318.448.448 0 0 1-.318.133h-.899a.45.45 0 0 1-.449-.451v-3.749a2.39 2.39 0 0 0-4.083-1.691 2.39 2.39 0 0 0-.701 1.691v3.749a.44.44 0 0 1-.275.415.445.445 0 0 1-.172.034M51.709 10.6a.45.45 0 0 0-.45.45V13a2.41 2.41 0 0 0 2.015 2.377.46.46 0 0 1 .378.46v.896a.454.454 0 0 1-.507.447 4.203 4.203 0 0 1-3.68-4.176v-6.15a.449.449 0 0 1 .45-.45h.897a.449.449 0 0 1 .45.45v1.5a.45.45 0 0 0 .449.452h1.495a.45.45 0 0 1 .45.45v.9a.45.45 0 0 1-.45.451h-1.498l.001-.007Zm10.288-.573a4.217 4.217 0 1 0 1.227 2.972 4.032 4.032 0 0 0-1.227-2.972Zm-1.27 4.667a2.404 2.404 0 1 1 .7-1.697 2.3 2.3 0 0 1-.7 1.698v-.001Z" fill="#5A78A6"/></svg>