<svg width="50" height="51" fill="none" xmlns="http://www.w3.org/2000/svg"><path d="M25 .965c-13.809 0-25 11.191-25 25 0 9.238 5.03 17.295 12.48 21.611l5.01-8.642C13.018 36.336 10 31.512 10 25.964c0-8.28 6.719-15 15-15 8.281 0 15 6.72 15 15 0 5.548-3.018 10.372-7.49 12.97l5.01 8.642C44.97 43.26 50 35.203 50 25.965c0-13.809-11.191-25-25-25Z" fill="#FF7A24"/><path d="M17.5 25.965c0-4.14 3.36-7.5 7.5-7.5 4.14 0 7.5 3.36 7.5 7.5 0 3.213-2.041 5.937-4.883 7.002l3.272 17.275a24.932 24.932 0 0 1-5.889.723 24.79 24.79 0 0 1-5.879-.723l3.262-17.275c-2.852-1.065-4.883-3.79-4.883-7.002Z" fill="#2E3C6D"/></svg>