<svg width="151" height="71" fill="none" xmlns="http://www.w3.org/2000/svg"><ellipse cx="35.009" cy="35.273" rx="23.749" ry="24.037" fill="url(#a)"/><path fill-rule="evenodd" clip-rule="evenodd" d="M8.2 43.826c.41-.514 1.205-.437 1.53.136a.978.978 0 0 1-.124 1.125c-1.616 1.844-2.313 3.28-1.85 4.098 1.49 2.623 14.371-2.11 28.773-10.57.496-.292.988-.584 1.474-.877a.568.568 0 0 0 .269-.49c0-3.369 2.698-6.1 6.026-6.1 1.783 0 3.717.054 5.15-1.008 7.183-5.324 11.45-9.858 10.463-11.597-.442-.778-1.885-.91-4.073-.488a.957.957 0 0 1-1.017-.458c-.314-.554.01-1.254.64-1.347 4.31-.637 7.367-.104 8.439 1.785 2.007 3.538-3.516 10.838-13.132 18.26a1.195 1.195 0 0 0-.443.953c0 3.369-2.698 6.1-6.027 6.1-.165 0-.329-.007-.491-.02-1.485-.122-3.07-.185-4.354.57-16.204 9.52-31.53 13.376-34.234 8.613-1.108-1.953.079-5.052 2.98-8.685Z" fill="#fff"/><ellipse cx="44.298" cy="37.248" rx="3.013" ry="3.05" fill="#70AF09"/><path d="M22.839 27.052c-1.462 3.653-1 7.505-2.793 6.77-1.793-.735-2.061-4.292-.6-7.944 1.462-3.653 4.1-6.019 5.893-5.284 1.792.735-1.038 2.805-2.5 6.458Zm-1.126 10.399c.131 1.203-.42 2.251-1.229 2.341-.809.09-1.57-.812-1.702-2.015-.13-1.203.42-2.251 1.23-2.341.809-.09 1.571.812 1.701 2.015Z" opacity=".32" fill="#E5E5E5"/><path d="M27.997 53.585c-.825-.482-.43-1.291 1.575-1.964 4.227-.939 3.514.96 9.596.23 6.082-.731 9.289-3.269 10.904-4.938 1.292-1.336 2.486-3.143 2.429-2.506-.275 1.357-2.495 4.932-9.175 8.382-8.35 4.313-14.063 1.536-15.329.796Z" fill="#080F1B" fill-opacity=".11"/><path d="M54.867 21.954c.778-.522.995-1.576.432-2.324a25.478 25.478 0 0 0-14.7-9.545 25.245 25.245 0 0 0-18.784 3.095c-5.632 3.445-9.73 8.961-11.438 15.394a26.103 26.103 0 0 0 1.503 17.582c.396.863 1.449 1.166 2.279.704.818-.454 1.111-1.48.728-2.335a22.62 22.62 0 0 1-1.222-15.056c1.48-5.575 5.03-10.354 9.911-13.34a21.875 21.875 0 0 1 16.276-2.682 22.073 22.073 0 0 1 12.579 8.061c.58.754 1.646.976 2.436.446ZM20.46 54.35c-.574.75-.442 1.83.333 2.357a25.307 25.307 0 0 0 12.297 4.309c4.97.38 9.941-.723 14.3-3.172a25.674 25.674 0 0 0 10.22-10.606 26.072 26.072 0 0 0 2.89-12.842c-.03-.945-.866-1.628-1.798-1.533-.939.095-1.619.942-1.597 1.893a22.592 22.592 0 0 1-2.511 10.885 22.247 22.247 0 0 1-8.857 9.19 21.883 21.883 0 0 1-12.39 2.748 21.926 21.926 0 0 1-10.457-3.6c-.785-.52-1.855-.385-2.43.37Z" fill="#fff"/><path d="M74.532 53.425c-.582 0-.873-.158-.873-.472v-9.28c0-.207.044-.355.131-.443.097-.098.248-.147.451-.147h4.79c.154 0 .266.059.334.177.068.117.102.304.102.56v.456c0 .255-.034.442-.102.56-.068.118-.18.177-.335.177H75.9v2.593h3.028c.155 0 .267.058.335.176s.102.305.102.56v.457c0 .255-.034.442-.102.56-.068.117-.18.176-.335.176h-3.027v3.418c0 .314-.291.472-.874.472h-.495Zm9.184 0c-.582 0-.873-.158-.873-.472v-9.28c0-.207.043-.355.13-.443.097-.098.248-.147.452-.147h2.838c2.416 0 3.624.923 3.624 2.77 0 .55-.155 1.03-.466 1.443-.3.403-.713.702-1.237.899v.059c.185.068.374.235.568.5.194.256.354.54.48.855l1.281 3.241a.908.908 0 0 1 .073.28c0 .088-.073.162-.218.22-.146.05-.364.075-.655.075h-.597c-.476 0-.757-.103-.844-.31l-1.15-2.873c-.165-.324-.345-.55-.539-.677-.184-.138-.495-.206-.931-.206h-.568v3.594c0 .314-.291.472-.873.472h-.495Zm2.75-6.026c.302 0 .564-.123.787-.368a1.29 1.29 0 0 0 .335-.899c0-.343-.112-.613-.335-.81-.214-.206-.51-.31-.888-.31h-1.281V47.4h1.383Zm7.924 5.996c-.204 0-.354-.044-.451-.133-.088-.098-.131-.25-.131-.456v-9.134c0-.206.043-.353.13-.442.098-.098.248-.147.452-.147h5.109c.155 0 .267.059.335.177.067.117.101.304.101.56v.456c0 .255-.034.442-.102.56-.067.118-.179.177-.334.177h-3.45v2.136h3.057c.155 0 .267.059.335.177.067.117.101.304.101.56v.456c0 .255-.034.442-.101.56-.068.118-.18.177-.335.177h-3.057v2.386h3.464c.156 0 .267.06.335.177.068.118.102.304.102.56v.456c0 .256-.034.442-.102.56-.068.118-.18.177-.335.177H94.39Zm9.911 0c-.204 0-.355-.044-.452-.133-.087-.098-.131-.25-.131-.456v-9.134c0-.206.044-.353.131-.442.097-.098.248-.147.452-.147h5.108c.156 0 .267.059.335.177.068.117.102.304.102.56v.456c0 .255-.034.442-.102.56-.068.118-.179.177-.335.177h-3.449v2.136h3.056c.156 0 .267.059.335.177.068.117.102.304.102.56v.456c0 .255-.034.442-.102.56-.068.118-.179.177-.335.177h-3.056v2.386h3.464c.155 0 .267.06.335.177.068.118.102.304.102.56v.456c0 .256-.034.442-.102.56-.068.118-.18.177-.335.177h-5.123Zm17.788.03c-.476 0-.747-.103-.815-.31l-3.144-9.472a1.32 1.32 0 0 1-.058-.266c0-.216.296-.324.888-.324h.509c.485 0 .771.143.859.428l1.805 5.848c.184.6.291 1.046.32 1.34h.058c.029-.294.136-.74.32-1.34l1.863-5.848c.097-.285.384-.428.859-.428h.422c.582 0 .873.108.873.324 0 .07-.014.158-.043.266l-3.144 9.472c-.068.206-.34.31-.815.31h-.757Zm8.707 0c-.583 0-.874-.158-.874-.472v-9.28c0-.207.044-.355.131-.443.097-.098.248-.147.452-.147h3.056c.912 0 1.718.226 2.416.678.699.441 1.048 1.291 1.048 2.548 0 .864-.203 1.537-.611 2.018-.408.472-.864.791-1.368.958-.505.167-.951.25-1.339.25h-1.543v3.418c0 .314-.291.472-.873.472h-.495Zm2.663-5.834c.35 0 .646-.093.888-.28.252-.187.379-.52.379-1.002 0-.481-.127-.815-.379-1.002a1.364 1.364 0 0 0-.888-.294h-1.295v2.578h1.295Zm7.603 5.834c-.583 0-.874-.158-.874-.472v-9.428c0-.314.291-.472.874-.472h.626c.232 0 .426.03.582.089a.68.68 0 0 1 .378.31l3.275 5.111c.194.285.369.575.524.87l.058-.016a12.9 12.9 0 0 1-.029-1.001v-4.891c0-.314.291-.472.873-.472h.423c.582 0 .873.158.873.472v9.428c0 .314-.291.472-.873.472h-.554c-.232 0-.426-.025-.582-.074a.756.756 0 0 1-.378-.324l-3.348-5.186a8.922 8.922 0 0 1-.524-.869l-.058.015c.019.226.029.56.029 1.002v4.964c0 .314-.291.472-.873.472h-.422Z" fill="#7FB02E"/><path d="M75.304 37.89c-1.097 0-1.645-.297-1.645-.889V19.52c0-.388.082-.666.247-.832.183-.185.466-.278.85-.278h5.757c1.718 0 3.236.426 4.551 1.277 1.317.832 1.975 2.433 1.975 4.8 0 1.628-.384 2.896-1.152 3.802-.768.888-1.627 1.49-2.577 1.804-.95.314-1.791.472-2.523.472h-2.906v6.438c0 .591-.548.887-1.645.887h-.932Zm5.017-10.99c.658 0 1.216-.175 1.673-.527.475-.351.713-.98.713-1.887 0-.906-.238-1.535-.713-1.887-.457-.37-1.015-.555-1.673-.555h-2.44v4.857h2.44Zm12.813 11.156c-2.669 0-4.003-1.498-4.003-4.495V17.798c0-.592.548-.888 1.645-.888h.767c1.097 0 1.645.296 1.645.888v15.817c0 .425.073.73.22.916.164.185.42.277.767.277.092 0 .21-.018.357-.055a1.88 1.88 0 0 1 .384-.056c.164 0 .31.139.438.416.128.278.229.583.302.916.073.333.11.555.11.666 0 .907-.878 1.36-2.632 1.36Zm7.618 0c-1.407 0-2.44-.37-3.098-1.11-.64-.74-.96-1.72-.96-2.941 0-1.48.53-2.71 1.59-3.691 1.079-.98 3.172-1.47 6.279-1.47v-.917c0-.536-.174-.934-.521-1.193-.329-.259-.868-.388-1.618-.388-.621 0-1.169.064-1.645.194a8.7 8.7 0 0 0-1.233.444c-.366.166-.576.25-.63.25-.184 0-.385-.14-.604-.417a4.788 4.788 0 0 1-.576-.943c-.164-.37-.247-.657-.247-.86 0-.315.229-.62.686-.916.457-.296 1.087-.537 1.892-.721.804-.185 1.69-.278 2.659-.278 2.065 0 3.564.416 4.496 1.249.933.814 1.399 1.942 1.399 3.385v5.217c0 .851.018 1.498.054 1.942.055.444.119.935.192 1.471.055.24.083.444.083.61 0 .297-.375.519-1.124.667-.732.148-1.38.222-1.947.222-.329 0-.558-.13-.685-.389a4.594 4.594 0 0 1-.302-.888l-.11-.638c-.109.203-.329.472-.658.805-.329.314-.786.61-1.371.888-.584.277-1.252.416-2.001.416Zm1.343-3.247c.512 0 .997-.166 1.454-.5a3.04 3.04 0 0 0 1.014-1.248v-1.526c-2.559 0-3.838.684-3.838 2.053 0 .37.118.666.356.888.238.222.576.333 1.014.333Zm11.733 3.081c-1.097 0-1.645-.297-1.645-.889v-8.796c0-.814-.028-1.434-.083-1.86a27.464 27.464 0 0 0-.164-1.47 3.082 3.082 0 0 1-.082-.583c0-.296.365-.518 1.096-.666.75-.148 1.408-.222 1.974-.222.329 0 .558.13.686.389.128.24.219.509.274.805a9.4 9.4 0 0 1 .137.61c.439-.592 1.024-1.091 1.755-1.498a4.718 4.718 0 0 1 2.33-.611c1.371 0 2.385.37 3.043 1.11.658.721.987 1.85.987 3.385v9.407c0 .593-.548.889-1.645.889h-.767c-1.097 0-1.645-.297-1.645-.889v-8.796c0-.574-.128-1-.384-1.277-.256-.296-.676-.444-1.261-.444a1.95 1.95 0 0 0-1.316.5 3.675 3.675 0 0 0-.878 1.11V37c0 .593-.548.889-1.645.889h-.767Zm20.223.166c-2.412 0-4.213-.648-5.401-1.942-1.17-1.314-1.754-3.127-1.754-5.44 0-2.608.584-4.523 1.754-5.744 1.188-1.22 2.824-1.831 4.908-1.831 2.029 0 3.518.666 4.469 1.998.968 1.332 1.453 3.052 1.453 5.161 0 .222-.192.555-.576 1-.366.425-.64.638-.822.638h-6.992c.092 1.054.402 1.803.932 2.247.531.444 1.271.666 2.221.666a5.47 5.47 0 0 0 1.398-.166c.421-.13.86-.287 1.316-.472.293-.148.494-.222.604-.222.182 0 .383.139.603.416.237.26.429.564.576.916.164.333.246.592.246.777 0 .425-.283.795-.85 1.11-.566.296-1.243.518-2.028.666-.786.148-1.472.222-2.057.222Zm1.481-8.908c0-.85-.165-1.526-.494-2.025-.329-.518-.822-.777-1.48-.777-1.353 0-2.175.934-2.468 2.802h4.442Zm11.105 8.908c-2.668 0-4.003-1.498-4.003-4.495v-6.993h-.438c-.293 0-.503-.111-.631-.333-.128-.222-.192-.574-.192-1.055v-.471c0-.482.064-.833.192-1.055.128-.222.338-.333.631-.333h.438l.357-2.636c.091-.592.585-.888 1.48-.888h.85c.914 0 1.371.296 1.371.888v2.636h1.344c.292 0 .502.111.63.333.128.222.192.573.192 1.055v.471c0 .481-.064.833-.192 1.055-.128.222-.338.333-.63.333h-1.344v7.048c0 .425.073.73.219.916.165.185.421.277.768.277.091 0 .21-.018.357-.055.164-.037.292-.056.383-.056.165 0 .311.139.439.416.128.278.228.583.302.916.073.333.109.555.109.666 0 .907-.877 1.36-2.632 1.36Z" fill="#fff"/><defs><linearGradient id="a" x1="9.823" y1="-5.837" x2="46.399" y2="55.73" gradientUnits="userSpaceOnUse"><stop offset=".395" stop-color="#E35959"/><stop offset=".72" stop-color="#E26630"/><stop offset=".75" stop-color="#95DB24"/></linearGradient></defs></svg>