<svg width="50" height="51" fill="none" xmlns="http://www.w3.org/2000/svg"><g clip-path="url(#a)"><path d="M48.167 16.591H25.001a9.375 9.375 0 0 0-8.187 13.958L5.231 10.675C13.668-.245 29.36-2.257 40.278 6.18a24.984 24.984 0 0 1 7.889 10.411Z" fill="#F44336"/><path d="M50 25.965c-.012 13.802-11.197 24.988-25 25a22.293 22.293 0 0 1-3.124-.209l11.25-20.103a9.397 9.397 0 0 0-3.438-12.812 9.287 9.287 0 0 0-4.666-1.25h23.144A24.647 24.647 0 0 1 50 25.965Z" fill="#FFC107"/><path d="m33.126 30.653-11.25 20.103h-.02C8.165 49.026-1.53 36.527.2 22.837c.56-4.43 2.297-8.63 5.03-12.162l11.584 19.874.062.104a9.375 9.375 0 0 0 16.25 0Z" fill="#4CAF50"/><path d="M33.125 30.653a9.375 9.375 0 0 1-16.249 0l-.062-.104A9.375 9.375 0 0 1 25 16.59h.02a9.287 9.287 0 0 1 4.667 1.25 9.397 9.397 0 0 1 3.437 12.812Z" fill="#F44336"/><path d="M33.125 30.653a9.375 9.375 0 0 1-16.249 0l-.062-.104A9.375 9.375 0 0 1 25 16.59h.02a9.287 9.287 0 0 1 4.667 1.25 9.397 9.397 0 0 1 3.437 12.812Z" fill="#2196F3"/><path d="M24.966 36.382c-1.817 0-3.6-.479-5.173-1.387a10.454 10.454 0 0 1-3.819-3.82 10.417 10.417 0 0 1 9.027-15.624c5.753-.006 10.42 4.654 10.424 10.407.002 1.831-.48 3.63-1.395 5.216a10.475 10.475 0 0 1-9.064 5.208Zm.054-18.749a8.31 8.31 0 0 0-7.248 4.166 8.34 8.34 0 0 0 14.45 8.334 8.333 8.333 0 0 0-7.2-12.5h-.002Z" fill="#FAFAFA"/></g><defs><clipPath id="a"><path fill="#fff" transform="translate(0 .965)" d="M0 0h50v50H0z"/></clipPath></defs></svg>