<svg width="104" height="17" fill="none" xmlns="http://www.w3.org/2000/svg"><path fill-rule="evenodd" clip-rule="evenodd" d="M52.905 5.914v3.91c.806.003 1.561-.03 2.24-.218.512-.14.801-.332.969-.531.15-.18.344-.53.344-1.29 0-.682-.178-.986-.31-1.14-.156-.18-.437-.365-.95-.505-.684-.186-1.459-.225-2.293-.226Zm0 7.374c.985-.003 2.14-.065 3.16-.346.934-.257 1.936-.734 2.698-1.64.78-.928 1.155-2.122 1.155-3.517 0-1.346-.376-2.505-1.153-3.403-.755-.873-1.742-1.331-2.657-1.58-1.439-.393-3.15-.362-4.314-.342-.23.004-.438.008-.619.008h-1.73V16.7h3.46v-3.412ZM87.786 2.663V16.7h-3.46V2.663h3.46Zm-27.02.149h9.11v3.46h-5.649v1.685h3.7v3.46h-3.7v1.674h5.649v3.46h-6.12a2.99 2.99 0 0 1-2.99-2.99V2.811Zm14.037 3.424v7.026c1.005-.02 1.994-.105 2.855-.424.617-.229 1.068-.55 1.38-.994.31-.444.59-1.166.59-2.386 0-.906-.242-1.447-.526-1.802-.302-.379-.769-.692-1.431-.932-.867-.313-1.878-.438-2.868-.488Zm7.004-.738c.835 1.046 1.28 2.375 1.28 3.96 0 1.76-.408 3.22-1.215 4.372-.807 1.152-1.905 1.842-3.011 2.252-1.845.685-3.988.66-5.309.645a43.63 43.63 0 0 0-.48-.004h-1.73V2.743h1.82c1.352 0 3.674 0 5.686.727 1.06.383 2.143 1.004 2.96 2.028Z" fill="#5A78A6"/><path d="M10.657 2.755V6.4H4.664c.619.71 2.177.87 3.896 1.478 1.718.607 3.403 1.398 2.658 4.859-.596 2.768-5.702 3.796-8.181 3.964H0v-3.38c3.724.011 8.056-.653 8.101-1.673.046-1.02-1.57-.997-4.285-1.902-2.173-.724-2.609-2.38-2.556-3.117v-.802c0-2.163 1.612-2.949 2.418-3.07h6.979Z" fill="#5A78A6"/><path fill-rule="evenodd" clip-rule="evenodd" d="M18.987 16.803a7.024 7.024 0 1 0 0-14.048 7.024 7.024 0 0 0 0 14.049Zm0-3.78a3.243 3.243 0 1 0 0-6.486 3.243 3.243 0 0 0 0 6.485Z" fill="#5A78A6"/><path d="M36.6 2.755v3.506h-6.143v1.72h4.653v3.506h-4.653v5.202h-3.506V5.826a3.071 3.071 0 0 1 3.071-3.07h6.577Z" fill="#5A78A6"/><path fill-rule="evenodd" clip-rule="evenodd" d="M48.448 2.755H37.676v3.552h3.61V16.69h3.552V6.307h3.61V2.755Zm45.952.137a2.91 2.91 0 0 0-2.813 2.16L88.485 16.69h3.501l1.036-3.507h4.126l1.088 3.507h3.541L98.221 4.96a2.91 2.91 0 0 0-2.785-2.067h-1.037Zm1.67 6.772h-2.12l1.066-3.403 1.054 3.403Z" fill="#5A78A6"/><path d="m102.689 3.881-.392-.562a.568.568 0 0 0 .359-.552c0-.392-.292-.634-.759-.634h-.757V3.88h.405v-.487h.372l.337.487h.435Zm-.442-1.114c0 .19-.125.305-.372.305h-.33v-.61h.33c.247 0 .372.113.372.305Z" fill="#5A78A6"/><path fill-rule="evenodd" clip-rule="evenodd" d="M100.196 3.007a1.719 1.719 0 1 0 3.437 0 1.719 1.719 0 0 0-3.437 0ZM101.915.92a2.086 2.086 0 1 0 0 4.172 2.086 2.086 0 0 0 0-4.172Z" fill="#5A78A6"/></svg>