<svg width="20" height="20" fill="none" xmlns="http://www.w3.org/2000/svg"><g clip-path="url(#a)"><path d="M10 2a8 8 0 1 0 0 16 8 8 0 0 0 0-16Zm3.606 7.108c-.713.08-1.325-.203-1.937-.563 0 .06.018 1.887-.012 2.758-.03.896-.35 1.684-1.053 2.273-1.488 1.25-3.6.574-4.105-1.336-.274-1.041-.036-1.979.781-2.721.46-.421 1.027-.608 1.636-.686.13-.017.262-.025.403-.037v1.415c-.179.044-.36.083-.538.135a2.432 2.432 0 0 0-.36.136A1.158 1.158 0 0 0 8 12.272a1.263 1.263 0 0 0 1.207.51c.46-.057.749-.346.92-.762a2.66 2.66 0 0 0 .15-1.027c-.006-1.718-.006-3.435-.01-5.153a.466.466 0 0 1 .008-.053h1.373c.154 1.15.737 1.878 1.958 1.981v1.34Z" fill="#5A78A6"/></g><defs><clipPath id="a"><path fill="#fff" transform="translate(2 2)" d="M0 0h16v16H0z"/></clipPath></defs></svg>