<svg width="670" height="422" fill="none" xmlns="http://www.w3.org/2000/svg"><path fill-rule="evenodd" clip-rule="evenodd" d="M313.626 9.456H24.562a6.74 6.74 0 0 0-6.745 6.736v29.486a5.41 5.41 0 0 1-5.413 5.405 3.724 3.724 0 0 0-3.727 3.722v34.79a6.74 6.74 0 0 0 6.745 6.736h571.4a6.74 6.74 0 0 0 6.745-6.736V57.82a6.74 6.74 0 0 0-6.745-6.736h-258.02c-4.656 0-8.431-3.77-8.431-8.42v-26.47a6.74 6.74 0 0 0-6.745-6.737Zm0-.842c4.19 0 7.588 3.393 7.588 7.578v26.471c0 4.185 3.397 7.578 7.588 7.578h258.02c4.191 0 7.589 3.393 7.589 7.578v31.776c0 4.185-3.398 7.578-7.589 7.578h-571.4c-4.19 0-7.588-3.393-7.588-7.578v-34.79a4.567 4.567 0 0 1 4.57-4.564 4.567 4.567 0 0 0 4.57-4.563V16.192c0-4.185 3.397-7.578 7.588-7.578h289.064Z" fill="#879EC1"/><path fill-rule="evenodd" clip-rule="evenodd" d="m33.844 80.673-6.707-6.698a1.052 1.052 0 0 1 0-1.488l6.707-6.698a1.055 1.055 0 0 1 1.49 0 1.051 1.051 0 0 1 0 1.488l-4.907 4.901h12.505v2.105H30.427l4.908 4.902a1.052 1.052 0 0 1 0 1.488 1.055 1.055 0 0 1-1.49 0Zm42.761 0 6.707-6.698a1.052 1.052 0 0 0 0-1.488l-6.707-6.698a1.055 1.055 0 0 0-1.49 0 1.051 1.051 0 0 0 0 1.488l4.907 4.901H67.518v2.105h12.504l-4.907 4.902a1.052 1.052 0 0 0 0 1.488 1.055 1.055 0 0 0 1.49 0Zm46.203-15.987.66 7.263-6.628-3.06 2.154-1.517c-.854-.382-1.903-.624-3.202-.624-3.791 0-6.865 3.07-6.865 6.856a6.861 6.861 0 0 0 6.865 6.857c2.186 0 4.833-.94 6.68-4.575l1.128.572c-2.077 4.087-5.178 5.266-7.808 5.266-4.49 0-8.13-3.636-8.13-8.12 0-4.484 3.64-8.119 8.13-8.119 1.795 0 3.228.413 4.371 1.064l2.645-1.863Zm37.911 6.175h3.677V69.67a1.837 1.837 0 0 0-1.839-1.836 1.837 1.837 0 0 0-1.838 1.836v1.192Zm-1.686 0h-.743a.843.843 0 0 0-.843.842v7.5c0 .464.378.841.843.841h8.531a.843.843 0 0 0 .844-.842v-7.499a.843.843 0 0 0-.844-.842h-.739V69.67a3.522 3.522 0 0 0-3.525-3.52 3.522 3.522 0 0 0-3.524 3.52v1.192Z" fill="#879EC1"/><path d="M180.406 68.444c-.399 0-.702.108-.91.325-.199.217-.299.537-.299.962v.806h2.106v.78h-2.08v6.058h-.923v-6.058h-1.222v-.78h1.222v-.845c0-.624.178-1.118.533-1.482.364-.364.875-.546 1.534-.546.26 0 .511.04.754.117.243.07.446.173.611.312l-.312.69c-.269-.226-.607-.339-1.014-.339Zm4.068 3.432a2.25 2.25 0 0 1 .962-1.04c.434-.234.967-.35 1.599-.35v.896l-.221-.013c-.719 0-1.282.221-1.69.663-.407.442-.611 1.062-.611 1.86v3.483h-.923v-6.838h.884v1.34Zm10.123 2.366h-5.72c.052.71.325 1.287.819 1.73.494.432 1.118.65 1.872.65a3.03 3.03 0 0 0 1.17-.222 2.63 2.63 0 0 0 .923-.676l.52.598a2.92 2.92 0 0 1-1.144.832c-.451.19-.949.286-1.495.286-.702 0-1.326-.147-1.872-.442a3.292 3.292 0 0 1-1.261-1.248c-.303-.529-.455-1.127-.455-1.794s.143-1.265.429-1.794c.295-.529.693-.94 1.196-1.235a3.372 3.372 0 0 1 1.716-.442c.633 0 1.2.147 1.703.442a3.12 3.12 0 0 1 1.183 1.235c.286.52.429 1.118.429 1.794l-.013.286Zm-3.302-2.964c-.659 0-1.213.212-1.664.637-.442.416-.693.962-.754 1.638h4.849c-.061-.676-.316-1.222-.767-1.638-.442-.425-.997-.637-1.664-.637Zm11.148 2.964h-5.72c.052.71.325 1.287.819 1.73.494.432 1.118.65 1.872.65a3.03 3.03 0 0 0 1.17-.222 2.63 2.63 0 0 0 .923-.676l.52.598a2.92 2.92 0 0 1-1.144.832c-.451.19-.949.286-1.495.286-.702 0-1.326-.147-1.872-.442a3.292 3.292 0 0 1-1.261-1.248c-.303-.529-.455-1.127-.455-1.794s.143-1.265.429-1.794c.295-.529.693-.94 1.196-1.235a3.372 3.372 0 0 1 1.716-.442c.633 0 1.2.147 1.703.442a3.12 3.12 0 0 1 1.183 1.235c.286.52.429 1.118.429 1.794l-.013.286Zm-3.302-2.964c-.659 0-1.213.212-1.664.637-.442.416-.693.962-.754 1.638h4.849c-.061-.676-.316-1.222-.767-1.638-.442-.425-.997-.637-1.664-.637Zm10.813-.741-3.042 6.838h-.949l-3.029-6.838h.962l2.561 5.824 2.587-5.824h.91Zm4.823-.052c.641 0 1.222.147 1.742.442.52.286.927.693 1.222 1.222.294.529.441 1.131.441 1.807 0 .685-.147 1.291-.441 1.82-.295.529-.702.94-1.222 1.235-.512.286-1.092.43-1.742.43a3.322 3.322 0 0 1-1.508-.339 2.913 2.913 0 0 1-1.093-1.014v3.81h-.923v-9.36h.885v1.351c.277-.45.641-.797 1.091-1.04.46-.243.976-.364 1.548-.364Zm-.066 6.136a2.63 2.63 0 0 0 1.301-.325c.39-.225.693-.542.91-.949.225-.407.337-.87.337-1.39 0-.52-.112-.98-.337-1.379a2.344 2.344 0 0 0-.91-.949 2.554 2.554 0 0 0-1.301-.338 2.58 2.58 0 0 0-1.313.338 2.466 2.466 0 0 0-.91.95c-.216.398-.325.857-.325 1.377s.109.984.325 1.391c.226.407.529.724.91.95.39.216.828.324 1.313.324Zm8.837-6.136c.858 0 1.538.251 2.041.754.511.494.767 1.218.767 2.171v3.965h-.923v-3.874c0-.71-.178-1.252-.533-1.625-.355-.373-.862-.559-1.521-.559-.737 0-1.322.221-1.755.663-.425.433-.637 1.036-.637 1.807v3.588h-.923v-6.838h.884v1.261a2.531 2.531 0 0 1 1.04-.962c.451-.234.971-.35 1.56-.35Zm8.837 0c.641 0 1.222.147 1.742.442.52.286.927.693 1.222 1.222.295.529.442 1.131.442 1.807 0 .685-.147 1.291-.442 1.82-.295.529-.702.94-1.222 1.235-.511.286-1.092.43-1.742.43a3.325 3.325 0 0 1-1.508-.339 2.91 2.91 0 0 1-1.092-1.014v3.81h-.923v-9.36h.884v1.351a2.85 2.85 0 0 1 1.092-1.04 3.259 3.259 0 0 1 1.547-.364Zm-.065 6.136c.477 0 .91-.108 1.3-.325.39-.225.693-.542.91-.949.225-.407.338-.87.338-1.39 0-.52-.113-.98-.338-1.379a2.344 2.344 0 0 0-.91-.949 2.55 2.55 0 0 0-1.3-.338 2.58 2.58 0 0 0-1.313.338 2.46 2.46 0 0 0-.91.95c-.217.398-.325.857-.325 1.377s.108.984.325 1.391c.225.407.529.724.91.95.39.216.828.324 1.313.324Zm5.352-8.891h.923v9.645h-.923V67.73Zm5.884 2.755c.892 0 1.577.225 2.054.676.476.442.715 1.1.715 1.976v4.238h-.884V76.31a2.112 2.112 0 0 1-.923.832c-.399.2-.876.3-1.43.3-.763 0-1.37-.183-1.82-.547-.451-.364-.676-.845-.676-1.443 0-.58.208-1.049.624-1.404.424-.355 1.096-.533 2.015-.533h2.171v-.416c0-.59-.165-1.036-.494-1.339-.33-.312-.811-.468-1.443-.468-.434 0-.85.074-1.248.221a3.052 3.052 0 0 0-1.027.585l-.416-.689c.346-.295.762-.52 1.248-.676a4.736 4.736 0 0 1 1.534-.247Zm-.325 6.227c.52 0 .966-.117 1.339-.35.372-.244.65-.59.832-1.04v-1.119h-2.145c-1.17 0-1.755.407-1.755 1.222 0 .399.151.715.455.95.303.224.728.337 1.274.337Zm9.085-6.227c.858 0 1.538.251 2.041.754.511.494.767 1.218.767 2.171v3.965h-.923v-3.874c0-.71-.178-1.252-.533-1.625-.356-.373-.863-.559-1.521-.559-.737 0-1.322.221-1.755.663-.425.433-.637 1.036-.637 1.807v3.588h-.923v-6.838h.884v1.261a2.531 2.531 0 0 1 1.04-.962c.45-.234.97-.35 1.56-.35Zm11.293 3.757h-5.72c.052.71.325 1.287.819 1.73.494.432 1.118.65 1.872.65a3.03 3.03 0 0 0 1.17-.222 2.63 2.63 0 0 0 .923-.676l.52.598a2.92 2.92 0 0 1-1.144.832c-.451.19-.949.286-1.495.286-.702 0-1.326-.147-1.872-.442a3.292 3.292 0 0 1-1.261-1.248c-.303-.529-.455-1.127-.455-1.794s.143-1.265.429-1.794c.295-.529.693-.94 1.196-1.235a3.372 3.372 0 0 1 1.716-.442c.633 0 1.2.147 1.703.442a3.12 3.12 0 0 1 1.183 1.235c.286.52.429 1.118.429 1.794l-.013.286Zm-3.302-2.964c-.659 0-1.213.212-1.664.637-.442.416-.693.962-.754 1.638h4.849c-.061-.676-.316-1.222-.767-1.638-.442-.425-.997-.637-1.664-.637Zm8.795 5.682a1.84 1.84 0 0 1-.65.363 2.665 2.665 0 0 1-.793.117c-.642 0-1.136-.173-1.482-.52-.347-.347-.52-.836-.52-1.469v-4.134h-1.222v-.78h1.222v-1.495h.923v1.495h2.08v.78h-2.08V75.4c0 .407.099.72.299.936.208.208.502.312.884.312.19 0 .372-.03.546-.09.182-.062.338-.148.468-.26l.325.662Zm1.898.48a.674.674 0 0 1-.494-.208.714.714 0 0 1-.195-.507c0-.2.065-.364.195-.494a.673.673 0 0 1 .494-.208c.19 0 .355.07.494.208a.65.65 0 0 1 .208.494c0 .2-.07.368-.208.507a.677.677 0 0 1-.494.208Zm5.307 0c-.676 0-1.282-.147-1.82-.442a3.234 3.234 0 0 1-1.248-1.235 3.615 3.615 0 0 1-.455-1.807c0-.667.152-1.265.455-1.794.304-.529.72-.94 1.248-1.235.538-.295 1.144-.442 1.82-.442.59 0 1.114.117 1.573.351.468.225.837.56 1.105 1.001l-.689.468a2.102 2.102 0 0 0-.858-.754 2.489 2.489 0 0 0-1.131-.26c-.494 0-.94.113-1.339.338-.39.217-.697.529-.923.936a2.924 2.924 0 0 0-.325 1.391c0 .529.109.997.325 1.404.226.399.533.71.923.936a2.76 2.76 0 0 0 1.339.325c.408 0 .785-.082 1.131-.247.347-.165.633-.416.858-.754l.689.468c-.268.442-.637.78-1.105 1.014a3.579 3.579 0 0 1-1.573.338Zm7.172 0a3.596 3.596 0 0 1-1.781-.442 3.314 3.314 0 0 1-1.248-1.248c-.303-.529-.455-1.127-.455-1.794s.152-1.265.455-1.794a3.22 3.22 0 0 1 1.248-1.235 3.595 3.595 0 0 1 1.781-.442c.659 0 1.252.147 1.781.442.529.295.94.706 1.235 1.235.303.529.455 1.127.455 1.794s-.152 1.265-.455 1.794a3.225 3.225 0 0 1-1.235 1.248 3.596 3.596 0 0 1-1.781.442Zm0-.819c.485 0 .919-.108 1.3-.325.39-.225.693-.542.91-.949.217-.407.325-.87.325-1.39 0-.52-.108-.985-.325-1.392a2.258 2.258 0 0 0-.91-.936 2.506 2.506 0 0 0-1.3-.338 2.58 2.58 0 0 0-1.313.338 2.365 2.365 0 0 0-.91.936 2.912 2.912 0 0 0-.325 1.391c0 .52.108.984.325 1.391.225.407.529.724.91.95.39.216.828.324 1.313.324Zm13.884-6.136c.858 0 1.529.247 2.015.741.494.494.741 1.222.741 2.184v3.965h-.923v-3.874c0-.71-.174-1.252-.52-1.625-.338-.373-.819-.559-1.443-.559-.711 0-1.27.221-1.677.663-.408.433-.611 1.036-.611 1.807v3.588h-.923v-3.874c0-.71-.174-1.252-.52-1.625-.338-.373-.824-.559-1.456-.559-.702 0-1.261.221-1.677.663-.408.433-.611 1.036-.611 1.807v3.588h-.923v-6.838h.884v1.248c.242-.416.58-.737 1.014-.962.433-.225.931-.338 1.495-.338.572 0 1.066.121 1.482.364.424.243.741.602.949 1.08a2.63 2.63 0 0 1 1.079-1.054c.476-.26 1.018-.39 1.625-.39Z" fill="#879EC1"/><rect x="144.676" y="56.757" width="369.98" height="32.68" rx="16.34" stroke="#879EC1"/><g clip-path="url(#a)"><ellipse cx="43" cy="29.313" rx="7.471" ry="7.461" fill="url(#b)"/><path fill-rule="evenodd" clip-rule="evenodd" d="M34.57 31.964a.29.29 0 0 1 .476.042.306.306 0 0 1-.04.355c-.506.571-.725 1.016-.579 1.27.468.814 4.52-.655 9.051-3.282.157-.09.312-.181.465-.272a.175.175 0 0 0 .084-.152c0-1.045.849-1.893 1.896-1.893.561 0 1.169.017 1.622-.315 2.258-1.651 3.6-3.058 3.289-3.598-.14-.242-.595-.282-1.286-.15a.297.297 0 0 1-.314-.141.28.28 0 0 1 .199-.42c1.356-.198 2.319-.033 2.656.554.631 1.098-1.107 3.364-4.132 5.669a.368.368 0 0 0-.139.294 1.895 1.895 0 0 1-2.052 1.887c-.466-.038-.963-.057-1.368.177-5.097 2.956-9.919 4.152-10.769 2.674-.349-.607.025-1.57.94-2.7Z" fill="#879EC1"/><ellipse cx="45.922" cy="29.925" rx=".948" ry=".947" fill="#879EC1"/><path d="M39.17 26.76c-.46 1.135-.314 2.33-.878 2.102-.564-.228-.649-1.332-.189-2.466.46-1.134 1.29-1.868 1.854-1.64.564.229-.327.871-.787 2.005Zm-.354 3.229c.041.373-.132.698-.386.726-.255.028-.495-.252-.536-.625-.04-.374.132-.699.387-.727.255-.028.494.252.535.626Z" opacity=".32" fill="#E5E5E5"/><path d="M40.793 34.996c-.26-.15-.135-.4.496-.61 1.33-.29 1.105.298 3.018.072 1.914-.227 2.922-1.015 3.43-1.533.407-.414.783-.975.765-.778-.087.422-.785 1.531-2.887 2.602-2.627 1.339-4.424.477-4.822.247Z" fill="#080F1B" fill-opacity=".11"/><path d="M49.242 25.181a.509.509 0 0 0 .136-.732 8.033 8.033 0 0 0-10.528-1.995 8.003 8.003 0 0 0-3.124 10.237.509.509 0 0 0 .71.22.57.57 0 0 0 .23-.736 6.935 6.935 0 0 1 2.738-8.805 6.96 6.96 0 0 1 9.08 1.673.57.57 0 0 0 .758.138Zm-10.818 10.05a.508.508 0 0 0 .108.737 8.032 8.032 0 0 0 11.578-2.942 8.003 8.003 0 0 0 .91-3.981.509.509 0 0 0-.57-.48.569.569 0 0 0-.499.586 6.935 6.935 0 0 1-3.576 6.232 6.96 6.96 0 0 1-7.187-.265.57.57 0 0 0-.764.113Z" fill="#879EC1"/></g><g clip-path="url(#c)"><path d="M523.588 74.781c0-6.045 4.915-10.946 10.961-10.946 6.045 0 10.96 4.9 10.96 10.946 0 6.045-4.915 10.946-10.96 10.946-6.046 0-10.961-4.9-10.961-10.946Z" fill="#fff"/><ellipse cx="534.549" cy="74.781" rx="7.471" ry="7.461" fill="url(#d)"/><path fill-rule="evenodd" clip-rule="evenodd" d="M526.118 77.432a.29.29 0 0 1 .477.043.307.307 0 0 1-.039.355c-.507.571-.726 1.016-.58 1.27.468.814 4.521-.655 9.051-3.282.157-.09.312-.181.465-.272a.176.176 0 0 0 .084-.152c0-1.046.848-1.893 1.895-1.893.562 0 1.17.016 1.623-.315 2.258-1.652 3.599-3.058 3.289-3.598-.139-.242-.595-.282-1.286-.15a.297.297 0 0 1-.314-.141.28.28 0 0 1 .199-.42c1.356-.198 2.318-.033 2.656.554.631 1.098-1.107 3.364-4.132 5.669a.368.368 0 0 0-.139.294 1.895 1.895 0 0 1-2.052 1.887c-.466-.038-.963-.057-1.368.177-5.097 2.955-9.919 4.152-10.769 2.674-.349-.607.025-1.57.94-2.7Z" fill="#5A78A6"/><ellipse cx="537.471" cy="75.394" rx=".948" ry=".947" fill="#879EC1"/><path d="M530.719 72.23c-.46 1.133-.315 2.33-.879 2.101-.563-.228-.648-1.332-.188-2.466.46-1.134 1.29-1.868 1.854-1.64.564.228-.327.87-.787 2.005Zm-.354 3.227c.041.374-.132.7-.386.727-.255.028-.495-.252-.536-.625-.041-.374.132-.7.387-.727.254-.028.494.252.535.625Z" opacity=".32" fill="#E5E5E5"/><path d="M532.342 80.465c-.26-.15-.135-.4.496-.61 1.329-.291 1.105.298 3.018.072 1.914-.227 2.922-1.015 3.43-1.533.407-.415.783-.976.765-.778-.087.421-.785 1.531-2.887 2.602-2.627 1.339-4.424.477-4.822.247Z" fill="#080F1B" fill-opacity=".11"/><path d="M540.791 70.65a.509.509 0 0 0 .136-.732 8.032 8.032 0 0 0-10.528-1.995 8.002 8.002 0 0 0-3.125 10.237.51.51 0 0 0 .711.22.57.57 0 0 0 .23-.737 6.935 6.935 0 0 1 2.738-8.805 6.96 6.96 0 0 1 9.079 1.673.57.57 0 0 0 .759.139ZM529.973 80.7a.508.508 0 0 0 .108.736 8.028 8.028 0 0 0 11.578-2.941 7.992 7.992 0 0 0 .909-3.982.509.509 0 0 0-.569-.48.568.568 0 0 0-.499.587 6.935 6.935 0 0 1-3.576 6.232 6.961 6.961 0 0 1-7.188-.265.57.57 0 0 0-.763.113Z" fill="#5A78A6"/></g><path d="M576.772 75.59c0 4.597-3.731 8.324-8.335 8.324-4.604 0-8.335-3.727-8.335-8.323s3.731-8.323 8.335-8.323c4.604 0 8.335 3.727 8.335 8.323Z" stroke="#879EC1"/><path fill-rule="evenodd" clip-rule="evenodd" d="M515.242 26.641h-14.025v-1.684h14.025v1.684Zm35.894-11.321h-9.756v9.637h9.756v-9.636Zm-11.443-1.683V26.64h13.129V13.637h-13.129Zm38.987.707 11.122 11.106-1.193 1.191-11.121-11.106 1.192-1.191Z" fill="#879EC1"/><path fill-rule="evenodd" clip-rule="evenodd" d="M588.393 14.344 577.271 25.45l1.193 1.191 11.121-11.106-1.192-1.191Z" fill="#879EC1"/><path d="M64.341 26.956v3.172h4.563v1.118h-4.563v3.68h-1.3v-9.1h6.422v1.13h-5.122Zm7.839 2.236a2.13 2.13 0 0 1 .962-.91c.425-.208.94-.312 1.547-.312v1.21a2.43 2.43 0 0 0-.286-.014c-.676 0-1.209.204-1.599.611-.381.399-.572.971-.572 1.716v3.432h-1.248v-6.89h1.196v1.157Zm10.21 2.328c0 .095-.008.22-.025.376h-5.59c.078.607.342 1.097.793 1.47.459.363 1.027.545 1.703.545.823 0 1.486-.277 1.989-.832l.689.806a3.009 3.009 0 0 1-1.17.832 4 4 0 0 1-1.547.286c-.728 0-1.374-.147-1.937-.442a3.286 3.286 0 0 1-1.313-1.26c-.304-.538-.455-1.145-.455-1.82 0-.668.147-1.27.442-1.808a3.226 3.226 0 0 1 1.235-1.248 3.514 3.514 0 0 1 1.78-.455c.66 0 1.244.152 1.756.455.52.295.923.711 1.209 1.248.294.538.442 1.153.442 1.846Zm-3.405-2.497c-.598 0-1.101.182-1.508.546-.399.364-.633.841-.702 1.43h4.42c-.07-.58-.308-1.053-.715-1.417-.399-.372-.897-.559-1.495-.559ZM90.35 31.52c0 .095-.008.22-.025.376h-5.59c.078.607.342 1.097.793 1.47.459.363 1.027.545 1.703.545.823 0 1.486-.277 1.989-.832l.689.806a3.009 3.009 0 0 1-1.17.832 4 4 0 0 1-1.547.286c-.728 0-1.374-.147-1.937-.442a3.286 3.286 0 0 1-1.313-1.26c-.304-.538-.455-1.145-.455-1.82 0-.668.147-1.27.442-1.808a3.226 3.226 0 0 1 1.235-1.248 3.514 3.514 0 0 1 1.78-.455c.66 0 1.244.152 1.756.455.52.295.923.711 1.209 1.248.294.538.442 1.153.442 1.846Zm-3.405-2.497c-.598 0-1.101.182-1.508.546-.399.364-.633.841-.702 1.43h4.42c-.07-.58-.308-1.053-.715-1.417-.399-.372-.897-.559-1.495-.559Zm16.716-3.198-3.991 9.1h-1.287l-4.004-9.1h1.404l3.276 7.475 3.302-7.475h1.3Zm4.709 0c1.179 0 2.106.282 2.782.845.676.564 1.014 1.34 1.014 2.327 0 .988-.338 1.764-1.014 2.327-.676.564-1.603.845-2.782.845h-2.249v2.756h-1.3v-9.1h3.549Zm-.039 5.213c.824 0 1.452-.173 1.885-.52.434-.355.65-.862.65-1.52 0-.66-.216-1.162-.65-1.509-.433-.355-1.061-.533-1.885-.533h-2.21v4.082h2.21Zm13.571-5.213v9.1h-1.066l-5.46-6.786v6.786h-1.3v-9.1h1.066l5.46 6.786v-6.786h1.3Zm9.764 0c1.179 0 2.106.282 2.782.845.676.564 1.014 1.34 1.014 2.327 0 .988-.338 1.764-1.014 2.327-.676.564-1.603.845-2.782.845h-2.249v2.756h-1.3v-9.1h3.549Zm-.039 5.213c.824 0 1.452-.173 1.885-.52.434-.355.65-.862.65-1.52 0-.66-.216-1.162-.65-1.509-.433-.355-1.061-.533-1.885-.533h-2.21v4.082h2.21Zm5.69-5.758h1.248v9.645h-1.248V25.28Zm6.14 2.69c.953 0 1.681.234 2.184.702.511.468.767 1.166.767 2.093v4.16h-1.183v-.91a2.003 2.003 0 0 1-.897.741c-.381.165-.836.247-1.365.247-.771 0-1.391-.186-1.859-.559-.459-.372-.689-.862-.689-1.469 0-.606.221-1.092.663-1.456.442-.372 1.144-.559 2.106-.559h1.976v-.247c0-.537-.156-.949-.468-1.235-.312-.286-.771-.429-1.378-.429-.407 0-.806.07-1.196.208a3 3 0 0 0-.988.533l-.52-.936c.355-.286.78-.502 1.274-.65a5.192 5.192 0 0 1 1.573-.234Zm-.286 6.071c.477 0 .888-.104 1.235-.312.347-.216.598-.52.754-.91v-.962h-1.924c-1.057 0-1.586.356-1.586 1.066 0 .347.134.62.403.82.269.199.641.298 1.118.298Zm9.225-6.071c.876 0 1.569.256 2.08.767.52.503.78 1.244.78 2.223v3.965h-1.248v-3.822c0-.667-.16-1.17-.481-1.508-.32-.338-.78-.507-1.378-.507-.676 0-1.209.2-1.599.598-.39.39-.585.954-.585 1.69v3.55h-1.248v-6.89h1.196v1.04c.252-.356.59-.629 1.014-.82.434-.19.923-.286 1.469-.286Zm11.435 3.55c0 .095-.009.22-.026.376h-5.59c.078.607.342 1.097.793 1.47.459.363 1.027.545 1.703.545.823 0 1.486-.277 1.989-.832l.689.806a3.009 3.009 0 0 1-1.17.832 3.993 3.993 0 0 1-1.547.286c-.728 0-1.374-.147-1.937-.442a3.288 3.288 0 0 1-1.313-1.26c-.303-.538-.455-1.145-.455-1.82 0-.668.147-1.27.442-1.808a3.224 3.224 0 0 1 1.235-1.248 3.514 3.514 0 0 1 1.781-.455c.659 0 1.244.152 1.755.455.52.295.923.711 1.209 1.248.295.538.442 1.153.442 1.846Zm-3.406-2.497c-.598 0-1.101.182-1.508.546-.399.364-.633.841-.702 1.43h4.42c-.069-.58-.308-1.053-.715-1.417-.399-.372-.897-.559-1.495-.559Zm9.013 5.499a1.937 1.937 0 0 1-.676.364 2.97 2.97 0 0 1-.832.117c-.693 0-1.231-.186-1.612-.559-.381-.372-.572-.905-.572-1.599v-3.783h-1.17v-1.027h1.17v-1.508h1.248v1.508h1.976v1.027h-1.976v3.731c0 .373.091.659.273.858.191.2.459.3.806.3.381 0 .706-.109.975-.326l.39.897Z" fill="#879EC1"/><rect x=".5" y="1.185" width="601" height="420" rx="7.5" stroke="#879EC1"/><g filter="url(#e)"><g clip-path="url(#f)"><path d="M270.5 126.891c0-5.523 4.477-10 10-10h139c5.523 0 10 4.477 10 10v245c0 5.522-4.477 10-10 10h-139c-5.523 0-10-4.478-10-10v-245Z" fill="#fff"/><path fill="#F1F4FB" d="M270.5 116.891h159v27.077h-159z"/><path fill-rule="evenodd" clip-rule="evenodd" d="M290.772 130.119h-4.849l2.226-2.237-.557-.56-3.18 3.196 3.18 3.196.557-.559-2.226-2.237h4.849v-.799Z" fill="#233654"/><rect x="304.504" y="127.322" width="97.351" height="7.099" rx="3.549" fill="#E0E7F5"/><path d="M418.968 175.199c0-.333.282-.603.629-.603.347 0 .628.27.628.603v44.404a.616.616 0 0 1-.628.603.617.617 0 0 1-.629-.603v-44.404Zm-139.193 4.488c0-2.812 2.376-5.091 5.306-5.091h58.056c2.93 0 5.306 2.279 5.306 5.091 0 2.812-2.376 5.091-5.306 5.091h-58.056c-2.93 0-5.306-2.279-5.306-5.091Zm0 18.735c0-2.812 2.376-5.092 5.306-5.092h35.259c2.93 0 5.306 2.28 5.306 5.092s-2.376 5.091-5.306 5.091h-35.259c-2.93 0-5.306-2.279-5.306-5.091Zm0 18.734c0-2.811 2.376-5.091 5.306-5.091h72.937c2.931 0 5.306 2.28 5.306 5.091 0 2.812-2.375 5.092-5.306 5.092h-72.937c-2.93 0-5.306-2.28-5.306-5.092Zm0 18.735c0-2.812 2.376-5.091 5.306-5.091H369.1c2.931 0 5.306 2.279 5.306 5.091 0 2.812-2.375 5.091-5.306 5.091h-84.019c-2.93 0-5.306-2.279-5.306-5.091Zm0 18.735c0-2.812 2.376-5.092 5.306-5.092h67.361c2.931 0 5.306 2.28 5.306 5.092s-2.375 5.091-5.306 5.091h-67.361c-2.93 0-5.306-2.279-5.306-5.091Zm0 18.734c0-2.812 2.376-5.091 5.306-5.091h58.056c2.93 0 5.306 2.279 5.306 5.091 0 2.812-2.376 5.092-5.306 5.092h-58.056c-2.93 0-5.306-2.28-5.306-5.092Zm0 18.735c0-2.812 2.376-5.091 5.306-5.091h93.777c2.93 0 5.306 2.279 5.306 5.091 0 2.812-2.376 5.091-5.306 5.091h-93.777c-2.93 0-5.306-2.279-5.306-5.091Zm0 18.735c0-2.812 2.376-5.092 5.306-5.092h67.631c2.931 0 5.306 2.28 5.306 5.092s-2.375 5.091-5.306 5.091h-67.631c-2.93 0-5.306-2.279-5.306-5.091Zm0 18.734c0-2.812 2.376-5.091 5.306-5.091h97.629c2.931 0 5.306 2.279 5.306 5.091 0 2.812-2.375 5.092-5.306 5.092h-97.629c-2.93 0-5.306-2.28-5.306-5.092Zm0 18.735c0-2.812 2.376-5.091 5.306-5.091h85.807c2.93 0 5.306 2.279 5.306 5.091 0 2.812-2.376 5.091-5.306 5.091h-85.807c-2.93 0-5.306-2.279-5.306-5.091Zm0 18.735c0-2.812 2.376-5.092 5.306-5.092h65.63c2.93 0 5.306 2.28 5.306 5.092s-2.376 5.091-5.306 5.091h-65.63c-2.93 0-5.306-2.279-5.306-5.091Z" fill="#F1F4FB"/><path fill="#fff" d="M270.5 143.968h159v20.419h-159z"/><path fill="#fff" d="M270.5 143.968H350v20.419h-79.5z"/><path d="M292.023 154.962a.61.61 0 0 1 .622-.597.61.61 0 0 1 .621.597v1.068a.61.61 0 0 1-.621.597.61.61 0 0 1-.622-.597v-1.068Zm2.485-1.508a.61.61 0 0 1 .621-.597.61.61 0 0 1 .621.597v2.576a.61.61 0 0 1-.621.597.61.61 0 0 1-.621-.597v-2.576Zm2.484-1.131c0-.329.278-.596.621-.596.343 0 .621.267.621.596v3.707a.61.61 0 0 1-.621.597.61.61 0 0 1-.621-.597v-3.707Zm7.697 3.369c-.417 0-.794-.087-1.131-.263a2.026 2.026 0 0 1-.786-.732 1.984 1.984 0 0 1-.286-1.052 1.958 1.958 0 0 1 1.078-1.778 2.372 2.372 0 0 1 1.13-.268c.326 0 .623.053.893.16.27.103.5.257.691.463l-.387.36a1.588 1.588 0 0 0-1.173-.475c-.309 0-.589.067-.839.201-.25.133-.446.318-.589.554a1.499 1.499 0 0 0-.208.783c0 .29.069.553.208.789.143.233.339.416.589.549.25.134.53.2.839.2.465 0 .855-.16 1.173-.48l.387.36a1.855 1.855 0 0 1-.697.469 2.4 2.4 0 0 1-.892.16Zm5.031-1.543c0 .041-.004.097-.012.165h-2.559a.95.95 0 0 0 .363.646c.21.16.47.241.779.241.377 0 .681-.122.911-.366l.315.354c-.142.16-.321.282-.535.366a1.901 1.901 0 0 1-.709.126c-.333 0-.629-.065-.886-.195a1.48 1.48 0 0 1-.602-.554 1.56 1.56 0 0 1-.208-.801c0-.293.068-.558.202-.794.139-.237.328-.42.566-.549.242-.134.514-.2.815-.2.302 0 .57.066.804.2.238.129.422.312.553.549.135.236.203.507.203.812Zm-1.56-1.098c-.273 0-.504.08-.69.24a.955.955 0 0 0-.321.629h2.023a.946.946 0 0 0-.327-.623.988.988 0 0 0-.685-.246Zm4.119-.463c.305 0 .579.065.821.194.242.13.43.311.565.543.139.233.209.501.209.806 0 .305-.07.576-.209.812a1.4 1.4 0 0 1-.565.543c-.242.13-.516.195-.821.195-.227 0-.435-.042-.625-.126a1.283 1.283 0 0 1-.476-.366v1.567h-.572v-4.14h.548v.481c.127-.168.287-.294.482-.378.194-.087.408-.131.643-.131Zm-.048 2.613c.202 0 .383-.044.542-.132a.993.993 0 0 0 .381-.377c.095-.164.142-.351.142-.561 0-.209-.047-.394-.142-.554a.95.95 0 0 0-.381-.378 1.112 1.112 0 0 0-.542-.131c-.198 0-.379.046-.542.137a1.014 1.014 0 0 0-.381.372c-.091.16-.136.345-.136.554 0 .21.045.397.136.561.092.16.219.286.381.377.163.088.344.132.542.132Zm4.621-1.127c.409.099.614.345.614.738a.706.706 0 0 1-.316.617c-.206.145-.516.217-.928.217h-1.518v-3.03h1.464c.373 0 .665.069.875.206a.64.64 0 0 1 .315.572c0 .16-.045.299-.137.417a.813.813 0 0 1-.369.263Zm-1.589-.154h.857c.219 0 .383-.038.494-.115a.372.372 0 0 0 .173-.331c0-.29-.222-.435-.667-.435h-.857v.881Zm.917 1.303c.238 0 .417-.036.536-.108.119-.073.178-.185.178-.338 0-.156-.055-.272-.167-.348-.107-.077-.277-.115-.511-.115h-.953v.909h.917Zm5.031-1.074c0 .041-.004.097-.012.165h-2.559a.95.95 0 0 0 .363.646c.21.16.47.241.779.241.377 0 .681-.122.911-.366l.315.354c-.142.16-.321.282-.535.366a1.901 1.901 0 0 1-.709.126c-.333 0-.628-.065-.886-.195a1.471 1.471 0 0 1-.601-.554 1.551 1.551 0 0 1-.209-.801c0-.293.068-.558.203-.794.138-.237.327-.42.565-.549.242-.134.514-.2.815-.2.302 0 .57.066.804.2.238.129.422.312.553.549.135.236.203.507.203.812Zm-1.56-1.098c-.273 0-.504.08-.69.24a.955.955 0 0 0-.321.629h2.023a.946.946 0 0 0-.327-.623.988.988 0 0 0-.685-.246Zm4.119-.463c.305 0 .579.065.821.194.242.13.431.311.565.543.139.233.209.501.209.806 0 .305-.07.576-.209.812a1.394 1.394 0 0 1-.565.543c-.242.13-.516.195-.821.195-.227 0-.435-.042-.625-.126a1.291 1.291 0 0 1-.476-.366v1.567h-.572v-4.14h.548v.481c.127-.168.287-.294.482-.378.194-.087.409-.131.643-.131Zm-.048 2.613c.202 0 .383-.044.542-.132a.993.993 0 0 0 .381-.377c.095-.164.142-.351.142-.561 0-.209-.047-.394-.142-.554a.95.95 0 0 0-.381-.378 1.112 1.112 0 0 0-.542-.131c-.198 0-.379.046-.542.137a1.005 1.005 0 0 0-.38.372c-.092.16-.137.345-.137.554 0 .21.045.397.137.561.091.16.218.286.38.377.163.088.344.132.542.132Zm3.569-2.613c.436 0 .77.103 1 .308.234.206.351.513.351.921v1.829h-.542v-.4a.91.91 0 0 1-.41.326 1.618 1.618 0 0 1-.625.109c-.354 0-.637-.082-.852-.246a.78.78 0 0 1-.315-.646c0-.267.101-.48.304-.64.202-.164.523-.246.964-.246h.904v-.109c0-.236-.071-.417-.214-.543-.143-.126-.353-.189-.631-.189a1.68 1.68 0 0 0-.547.092c-.179.057-.33.135-.453.234l-.238-.412c.163-.125.357-.221.584-.285.226-.069.466-.103.72-.103Zm-.131 2.67c.218 0 .407-.046.565-.138a.817.817 0 0 0 .345-.4v-.423h-.88c-.485 0-.727.156-.727.469 0 .152.062.273.185.36.123.088.294.132.512.132Z" fill="#C8D3EB"/><rect x="283.719" y="150.829" width="55.052" height="7.074" rx="3.537" fill="#F1F4FB"/><path d="M350 143.968h79.5v20.419H353a3 3 0 0 1-3-3v-17.419Z" fill="#F1F4FB"/><rect x="359.576" y="150.641" width="60.348" height="7.074" rx="3.537" fill="#D9E0EF"/></g></g><g filter="url(#g)"><g clip-path="url(#h)"><path d="M487.5 126.891c0-5.523 4.477-10 10-10h140c5.523 0 10 4.477 10 10v245c0 5.522-4.477 10-10 10h-140c-5.523 0-10-4.478-10-10v-245Z" fill="#F1F4FB"/><g filter="url(#i)"><rect x="495.055" y="306.874" width="144.889" height="62.588" rx="8" fill="#fff"/><path d="M521.195 341.164c-.014-1.297 1.106-1.917 1.156-1.949-.629-.878-1.608-.999-1.958-1.012-.832-.082-1.626.468-2.05.468-.422 0-1.075-.457-1.766-.445a2.642 2.642 0 0 0-2.215 1.282c-.944 1.566-.242 3.886.678 5.157.45.622.987 1.319 1.691 1.295.678-.026.934-.42 1.754-.42s1.05.42 1.767.407c.73-.013 1.191-.634 1.637-1.256.517-.722.729-1.421.743-1.456-.017-.009-1.422-.523-1.437-2.071Zm-1.348-3.803c.373-.432.626-1.035.557-1.634-.539.02-1.19.341-1.577.774-.347.384-.648.995-.568 1.583.601.046 1.215-.292 1.588-.723Zm36.117 5.254-1.221-1.146-4.481 4.221 5.702-3.075Zm0-3.121-5.702-3.075 4.481 4.222 1.221-1.147Zm1.786 2.14c.365-.273.365-.887-.024-1.16l-1.196-.65-1.335 1.231 1.335 1.23 1.22-.651Zm-8.657 4.302 5.211-4.883-5.211-4.882c-.264.13-.441.366-.441.673v8.419c0 .307.177.544.441.673Zm30.044-30.159h1.419v1.357h-1.419v-1.357Zm1.419 0h1.42v1.357h-1.42v-1.357Zm1.42 0h1.42v1.357h-1.42v-1.357Zm1.42 0h1.42v1.357h-1.42v-1.357Zm1.42 0h1.419v1.357h-1.419v-1.357Zm1.419 0h1.42v1.357h-1.42v-1.357Zm1.42 0h1.42v1.357h-1.42v-1.357Zm4.259 0h1.42v1.357h-1.42v-1.357Zm1.42 0h1.419v1.357h-1.419v-1.357Zm2.839 0h1.42v1.357h-1.42v-1.357Zm1.42 0h1.419v1.357h-1.419v-1.357Zm1.419 0h1.42v1.357h-1.42v-1.357Zm1.42 0h1.42v1.357h-1.42v-1.357Zm4.259 0h1.42v1.357h-1.42v-1.357Zm1.42 0h1.42v1.357h-1.42v-1.357Zm4.259 0h1.42v1.357h-1.42v-1.357Zm1.42 0h1.419v1.357h-1.419v-1.357Zm4.259 0h1.42v1.357h-1.42v-1.357Zm1.42 0h1.419v1.357h-1.419v-1.357Zm1.419 0h1.42v1.357h-1.42v-1.357Zm1.42 0h1.42v1.357h-1.42v-1.357Zm1.42 0h1.419v1.357h-1.419v-1.357Zm1.419 0h1.42v1.357h-1.42v-1.357Zm1.42 0h1.42v1.357h-1.42v-1.357Zm-45.43 1.357h1.419v1.357h-1.419v-1.357Zm8.518 0h1.42v1.357h-1.42v-1.357Zm2.839 0h1.42v1.357h-1.42v-1.357Zm5.679 0h1.42v1.357h-1.42v-1.357Zm4.259 0h1.42v1.357h-1.42v-1.357Zm2.84 0h1.419v1.357h-1.419v-1.357Zm4.259 0h1.419v1.357h-1.419v-1.357Zm1.419 0h1.42v1.357h-1.42v-1.357Zm1.42 0h1.42v1.357h-1.42v-1.357Zm1.42 0h1.419v1.357h-1.419v-1.357Zm4.259 0h1.42v1.357h-1.42v-1.357Zm8.518 0h1.42v1.357h-1.42v-1.357Zm-45.43 1.357h1.419v1.357h-1.419v-1.357Zm2.839 0h1.42v1.357h-1.42v-1.357Zm1.42 0h1.42v1.357h-1.42v-1.357Zm1.42 0h1.419v1.357h-1.419v-1.357Zm2.839 0h1.42v1.357h-1.42v-1.357Zm2.839 0h1.42v1.357h-1.42v-1.357Zm2.84 0h1.419v1.357h-1.419v-1.357Zm1.419 0h1.42v1.357h-1.42v-1.357Zm2.84 0h1.419v1.357h-1.419v-1.357Zm2.839 0h1.42v1.357h-1.42v-1.357Zm4.259 0h1.42v1.357h-1.42v-1.357Zm1.42 0h1.42v1.357h-1.42v-1.357Zm1.42 0h1.419v1.357h-1.419v-1.357Zm4.259 0h1.419v1.357h-1.419v-1.357Zm1.419 0h1.42v1.357h-1.42v-1.357Zm2.84 0h1.42v1.357h-1.42v-1.357Zm2.839 0h1.42v1.357h-1.42v-1.357Zm1.42 0h1.42v1.357h-1.42v-1.357Zm1.42 0h1.419v1.357h-1.419v-1.357Zm2.839 0h1.42v1.357h-1.42v-1.357Zm-45.43 1.357h1.419v1.357h-1.419v-1.357Zm2.839 0h1.42v1.357h-1.42v-1.357Zm1.42 0h1.42v1.357h-1.42v-1.357Zm1.42 0h1.419v1.357h-1.419v-1.357Zm2.839 0h1.42v1.357h-1.42v-1.357Zm8.518 0h1.42v1.357h-1.42v-1.357Zm1.42 0h1.419v1.357h-1.419v-1.357Zm1.419 0h1.42v1.357h-1.42v-1.357Zm5.679 0h1.42v1.357h-1.42v-1.357Zm5.679 0h1.42v1.357h-1.42v-1.357Zm2.839 0h1.42v1.357h-1.42v-1.357Zm2.84 0h1.42v1.357h-1.42v-1.357Zm2.839 0h1.42v1.357h-1.42v-1.357Zm1.42 0h1.42v1.357h-1.42v-1.357Zm1.42 0h1.419v1.357h-1.419v-1.357Zm2.839 0h1.42v1.357h-1.42v-1.357Zm-45.43 1.357h1.419v1.357h-1.419v-1.357Zm2.839 0h1.42v1.357h-1.42v-1.357Zm1.42 0h1.42v1.357h-1.42v-1.357Zm1.42 0h1.419v1.357h-1.419v-1.357Zm2.839 0h1.42v1.357h-1.42v-1.357Zm5.679 0h1.419v1.357h-1.419v-1.357Zm1.419 0h1.42v1.357h-1.42v-1.357Zm2.84 0h1.419v1.357h-1.419v-1.357Zm2.839 0h1.42v1.357h-1.42v-1.357Zm1.42 0h1.42v1.357h-1.42v-1.357Zm2.839 0h1.42v1.357h-1.42v-1.357Zm5.679 0h1.42v1.357h-1.42v-1.357Zm2.839 0h1.42v1.357h-1.42v-1.357Zm2.84 0h1.42v1.357h-1.42v-1.357Zm2.839 0h1.42v1.357h-1.42v-1.357Zm1.42 0h1.42v1.357h-1.42v-1.357Zm1.42 0h1.419v1.357h-1.419v-1.357Zm2.839 0h1.42v1.357h-1.42v-1.357Zm-45.43 1.357h1.419v1.357h-1.419v-1.357Zm8.518 0h1.42v1.357h-1.42v-1.357Zm5.679 0h1.419v1.357h-1.419v-1.357Zm1.419 0h1.42v1.357h-1.42v-1.357Zm4.259 0h1.42v1.357h-1.42v-1.357Zm4.26 0h1.419v1.357h-1.419v-1.357Zm1.419 0h1.42v1.357h-1.42v-1.357Zm5.679 0h1.42v1.357h-1.42v-1.357Zm5.679 0h1.42v1.357h-1.42v-1.357Zm8.518 0h1.42v1.357h-1.42v-1.357Zm-45.43 1.357h1.419v1.358h-1.419v-1.358Zm1.419 0h1.42v1.358h-1.42v-1.358Zm1.42 0h1.42v1.358h-1.42v-1.358Zm1.42 0h1.42v1.358h-1.42v-1.358Zm1.42 0h1.419v1.358h-1.419v-1.358Zm1.419 0h1.42v1.358h-1.42v-1.358Zm1.42 0h1.42v1.358h-1.42v-1.358Zm2.839 0h1.42v1.358h-1.42v-1.358Zm2.84 0h1.419v1.358h-1.419v-1.358Zm2.839 0h1.42v1.358h-1.42v-1.358Zm2.839 0h1.42v1.358h-1.42v-1.358Zm2.84 0h1.42v1.358h-1.42v-1.358Zm2.839 0h1.42v1.358h-1.42v-1.358Zm2.84 0h1.419v1.358h-1.419v-1.358Zm2.839 0h1.42v1.358h-1.42v-1.358Zm2.839 0h1.42v1.358h-1.42v-1.358Zm2.84 0h1.42v1.358h-1.42v-1.358Zm1.42 0h1.419v1.358h-1.419v-1.358Zm1.419 0h1.42v1.358h-1.42v-1.358Zm1.42 0h1.42v1.358h-1.42v-1.358Zm1.42 0h1.419v1.358h-1.419v-1.358Zm1.419 0h1.42v1.358h-1.42v-1.358Zm1.42 0h1.42v1.358h-1.42v-1.358Zm-28.394 1.358h1.42v1.357h-1.42v-1.357Zm1.42 0h1.419v1.357h-1.419v-1.357Zm1.419 0h1.42v1.357h-1.42v-1.357Zm1.42 0h1.42v1.357h-1.42v-1.357Zm2.84 0h1.419v1.357h-1.419v-1.357Zm2.839 0h1.42v1.357h-1.42v-1.357Zm7.098 0h1.42v1.357h-1.42v-1.357Zm-32.653 1.357h1.42v1.357h-1.42v-1.357Zm1.42 0h1.42v1.357h-1.42v-1.357Zm1.42 0h1.42v1.357h-1.42v-1.357Zm2.839 0h1.42v1.357h-1.42v-1.357Zm1.42 0h1.42v1.357h-1.42v-1.357Zm5.679 0h1.419v1.357h-1.419v-1.357Zm5.678 0h1.42v1.357h-1.42v-1.357Zm1.42 0h1.42v1.357h-1.42v-1.357Zm2.84 0h1.419v1.357h-1.419v-1.357Zm1.419 0h1.42v1.357h-1.42v-1.357Zm2.84 0h1.419v1.357h-1.419v-1.357Zm1.419 0h1.42v1.357h-1.42v-1.357Zm4.259 0h1.42v1.357h-1.42v-1.357Zm8.519 0h1.419v1.357h-1.419v-1.357Zm1.419 0h1.42v1.357h-1.42v-1.357Zm-39.751 1.357h1.42v1.357h-1.42v-1.357Zm1.42 0h1.419v1.357h-1.419v-1.357Zm4.259 0h1.419v1.357h-1.419v-1.357Zm2.839 0h1.42v1.357h-1.42v-1.357Zm5.679 0h1.419v1.357h-1.419v-1.357Zm1.419 0h1.42v1.357h-1.42v-1.357Zm2.84 0h1.42v1.357h-1.42v-1.357Zm1.42 0h1.419v1.357h-1.419v-1.357Zm1.419 0h1.42v1.357h-1.42v-1.357Zm1.42 0h1.42v1.357h-1.42v-1.357Zm1.42 0h1.419v1.357h-1.419v-1.357Zm1.419 0h1.42v1.357h-1.42v-1.357Zm2.84 0h1.419v1.357h-1.419v-1.357Zm4.259 0h1.42v1.357h-1.42v-1.357Zm1.42 0h1.419v1.357h-1.419v-1.357Zm2.839 0h1.42v1.357h-1.42v-1.357Zm1.42 0h1.419v1.357h-1.419v-1.357Zm2.839 0h1.42v1.357h-1.42v-1.357Zm-45.43 1.357h1.419v1.357h-1.419v-1.357Zm1.419 0h1.42v1.357h-1.42v-1.357Zm2.84 0h1.42v1.357h-1.42v-1.357Zm1.42 0h1.419v1.357h-1.419v-1.357Zm1.419 0h1.42v1.357h-1.42v-1.357Zm1.42 0h1.42v1.357h-1.42v-1.357Zm5.679 0h1.419v1.357h-1.419v-1.357Zm1.419 0h1.42v1.357h-1.42v-1.357Zm2.84 0h1.419v1.357h-1.419v-1.357Zm4.259 0h1.42v1.357h-1.42v-1.357Zm2.839 0h1.42v1.357h-1.42v-1.357Zm4.259 0h1.42v1.357h-1.42v-1.357Zm2.84 0h1.419v1.357h-1.419v-1.357Zm1.419 0h1.42v1.357h-1.42v-1.357Zm1.42 0h1.42v1.357h-1.42v-1.357Zm2.84 0h1.419v1.357h-1.419v-1.357Zm1.419 0h1.42v1.357h-1.42v-1.357Zm1.42 0h1.42v1.357h-1.42v-1.357Zm4.259 0h1.42v1.357h-1.42v-1.357Zm-42.591 1.357h1.42v1.357h-1.42v-1.357Zm8.518 0h1.42v1.357h-1.42v-1.357Zm1.42 0h1.42v1.357h-1.42v-1.357Zm1.42 0h1.419v1.357h-1.419v-1.357Zm1.419 0h1.42v1.357h-1.42v-1.357Zm1.42 0h1.42v1.357h-1.42v-1.357Zm1.42 0h1.419v1.357h-1.419v-1.357Zm1.419 0h1.42v1.357h-1.42v-1.357Zm1.42 0h1.42v1.357h-1.42v-1.357Zm2.84 0h1.419v1.357h-1.419v-1.357Zm2.839 0h1.42v1.357h-1.42v-1.357Zm1.42 0h1.419v1.357h-1.419v-1.357Zm2.839 0h1.42v1.357h-1.42v-1.357Zm2.839 0h1.42v1.357h-1.42v-1.357Zm2.84 0h1.42v1.357h-1.42v-1.357Zm1.42 0h1.419v1.357h-1.419v-1.357Zm2.839 0h1.42v1.357h-1.42v-1.357Zm-41.171 1.357h1.419v1.357h-1.419v-1.357Zm1.419 0h1.42v1.357h-1.42v-1.357Zm1.42 0h1.42v1.357h-1.42v-1.357Zm4.259 0h1.42v1.357h-1.42v-1.357Zm1.42 0h1.42v1.357h-1.42v-1.357Zm1.42 0h1.419v1.357h-1.419v-1.357Zm2.839 0h1.42v1.357h-1.42v-1.357Zm1.42 0h1.419v1.357h-1.419v-1.357Zm7.098 0h1.42v1.357h-1.42v-1.357Zm7.099 0h1.419v1.357h-1.419v-1.357Zm2.839 0h1.42v1.357h-1.42v-1.357Zm2.839 0h1.42v1.357h-1.42v-1.357Zm1.42 0h1.42v1.357h-1.42v-1.357Zm2.84 0h1.419v1.357h-1.419v-1.357Zm1.419 0h1.42v1.357h-1.42v-1.357Zm1.42 0h1.42v1.357h-1.42v-1.357Zm2.839 0h1.42v1.357h-1.42v-1.357Zm1.42 0h1.42v1.357h-1.42v-1.357Zm-41.171 1.357h1.42v1.357h-1.42v-1.357Zm2.839 0h1.42v1.357h-1.42v-1.357Zm2.84 0h1.419v1.357h-1.419v-1.357Zm2.839 0h1.42v1.357h-1.42v-1.357Zm1.42 0h1.419v1.357h-1.419v-1.357Zm1.419 0h1.42v1.357h-1.42v-1.357Zm1.42 0h1.42v1.357h-1.42v-1.357Zm2.839 0h1.42v1.357h-1.42v-1.357Zm2.84 0h1.42v1.357h-1.42v-1.357Zm5.679 0h1.419v1.357h-1.419v-1.357Zm1.419 0h1.42v1.357h-1.42v-1.357Zm4.259 0h1.42v1.357h-1.42v-1.357Zm1.42 0h1.42v1.357h-1.42v-1.357Zm7.099 0h1.419v1.357h-1.419v-1.357Zm1.419 0h1.42v1.357h-1.42v-1.357Zm-42.591 1.357h1.42v1.357h-1.42v-1.357Zm1.42 0h1.42v1.357h-1.42v-1.357Zm5.679 0h1.42v1.357h-1.42v-1.357Zm5.679 0h1.419v1.357h-1.419v-1.357Zm2.839 0h1.42v1.357h-1.42v-1.357Zm1.42 0h1.419v1.357h-1.419v-1.357Zm2.839 0h1.42v1.357h-1.42v-1.357Zm2.84 0h1.419v1.357h-1.419v-1.357Zm2.839 0h1.42v1.357h-1.42v-1.357Zm1.42 0h1.419v1.357h-1.419v-1.357Zm1.419 0h1.42v1.357h-1.42v-1.357Zm7.099 0h1.42v1.357h-1.42v-1.357Zm1.42 0h1.419v1.357h-1.419v-1.357Zm2.839 0h1.42v1.357h-1.42v-1.357Zm1.42 0h1.419v1.357h-1.419v-1.357Zm-42.591 1.357h1.419v1.357h-1.419v-1.357Zm4.259 0h1.42v1.357h-1.42v-1.357Zm7.098 0h1.42v1.357h-1.42v-1.357Zm2.84 0h1.419v1.357h-1.419v-1.357Zm4.259 0h1.419v1.357h-1.419v-1.357Zm1.419 0h1.42v1.357h-1.42v-1.357Zm2.84 0h1.42v1.357h-1.42v-1.357Zm1.42 0h1.419v1.357h-1.419v-1.357Zm1.419 0h1.42v1.357h-1.42v-1.357Zm4.259 0h1.42v1.357h-1.42v-1.357Zm5.679 0h1.42v1.357h-1.42v-1.357Zm1.42 0h1.42v1.357h-1.42v-1.357Zm1.42 0h1.419v1.357h-1.419v-1.357Zm1.419 0h1.42v1.357h-1.42v-1.357Zm1.42 0h1.42v1.357h-1.42v-1.357Zm1.42 0h1.419v1.357h-1.419v-1.357Zm-41.172 1.357h1.42v1.357h-1.42v-1.357Zm1.42 0h1.42v1.357h-1.42v-1.357Zm1.42 0h1.42v1.357h-1.42v-1.357Zm2.839 0h1.42v1.357h-1.42v-1.357Zm1.42 0h1.42v1.357h-1.42v-1.357Zm1.42 0h1.419v1.357h-1.419v-1.357Zm1.419 0h1.42v1.357h-1.42v-1.357Zm1.42 0h1.42v1.357h-1.42v-1.357Zm1.42 0h1.419v1.357h-1.419v-1.357Zm1.419 0h1.42v1.357h-1.42v-1.357Zm1.42 0h1.42v1.357h-1.42v-1.357Zm1.42 0h1.419v1.357h-1.419v-1.357Zm2.839 0h1.42v1.357h-1.42v-1.357Zm1.42 0h1.42v1.357h-1.42v-1.357Zm5.679 0h1.419v1.357h-1.419v-1.357Zm1.419 0h1.42v1.357h-1.42v-1.357Zm1.42 0h1.42v1.357h-1.42v-1.357Zm1.42 0h1.419v1.357h-1.419v-1.357Zm2.839 0h1.42v1.357h-1.42v-1.357Zm1.42 0h1.42v1.357h-1.42v-1.357Zm2.839 0h1.42v1.357h-1.42v-1.357Zm1.42 0h1.42v1.357h-1.42v-1.357Zm1.42 0h1.419v1.357h-1.419v-1.357Zm-42.591 1.357h1.419v1.357h-1.419v-1.357Zm1.419 0h1.42v1.357h-1.42v-1.357Zm2.84 0h1.42v1.357h-1.42v-1.357Zm1.42 0h1.419v1.357h-1.419v-1.357Zm1.419 0h1.42v1.357h-1.42v-1.357Zm7.099 0h1.419v1.357h-1.419v-1.357Zm7.098 0h1.42v1.357h-1.42v-1.357Zm2.84 0h1.419v1.357h-1.419v-1.357Zm1.419 0h1.42v1.357h-1.42v-1.357Zm2.84 0h1.419v1.357h-1.419v-1.357Zm1.419 0h1.42v1.357h-1.42v-1.357Zm2.84 0h1.419v1.357h-1.419v-1.357Zm1.419 0h1.42v1.357h-1.42v-1.357Zm1.42 0h1.42v1.357h-1.42v-1.357Zm1.42 0h1.42v1.357h-1.42v-1.357Zm2.839 0h1.42v1.357h-1.42v-1.357Zm1.42 0h1.42v1.357h-1.42v-1.357Zm2.839 0h1.42v1.357h-1.42v-1.357Zm1.42 0h1.42v1.357h-1.42v-1.357Zm-45.43 1.357h1.419v1.357h-1.419v-1.357Zm1.419 0h1.42v1.357h-1.42v-1.357Zm1.42 0h1.42v1.357h-1.42v-1.357Zm1.42 0h1.42v1.357h-1.42v-1.357Zm2.839 0h1.42v1.357h-1.42v-1.357Zm1.42 0h1.42v1.357h-1.42v-1.357Zm8.518 0h1.42v1.357h-1.42v-1.357Zm2.839 0h1.42v1.357h-1.42v-1.357Zm1.42 0h1.42v1.357h-1.42v-1.357Zm1.42 0h1.42v1.357h-1.42v-1.357Zm1.42 0h1.419v1.357h-1.419v-1.357Zm5.678 0h1.42v1.357h-1.42v-1.357Zm1.42 0h1.42v1.357h-1.42v-1.357Zm7.099 0h1.419v1.357h-1.419v-1.357Zm1.419 0h1.42v1.357h-1.42v-1.357Zm2.84 0h1.419v1.357h-1.419v-1.357Zm1.419 0h1.42v1.357h-1.42v-1.357Zm-44.01 1.357h1.419v1.357h-1.419v-1.357Zm1.419 0h1.42v1.357h-1.42v-1.357Zm2.84 0h1.42v1.357h-1.42v-1.357Zm1.42 0h1.419v1.357h-1.419v-1.357Zm4.259 0h1.419v1.357h-1.419v-1.357Zm1.419 0h1.42v1.357h-1.42v-1.357Zm2.84 0h1.419v1.357h-1.419v-1.357Zm1.419 0h1.42v1.357h-1.42v-1.357Zm1.42 0h1.42v1.357h-1.42v-1.357Zm2.839 0h1.42v1.357h-1.42v-1.357Zm1.42 0h1.42v1.357h-1.42v-1.357Zm2.84 0h1.419v1.357h-1.419v-1.357Zm1.419 0h1.42v1.357h-1.42v-1.357Zm1.42 0h1.42v1.357h-1.42v-1.357Zm4.259 0h1.42v1.357h-1.42v-1.357Zm1.42 0h1.419v1.357h-1.419v-1.357Zm1.419 0h1.42v1.357h-1.42v-1.357Zm2.84 0h1.42v1.357h-1.42v-1.357Zm2.839 0h1.42v1.357h-1.42v-1.357Zm4.259 0h1.42v1.357h-1.42v-1.357Zm-42.591 1.357h1.42v1.357h-1.42v-1.357Zm2.84 0h1.42v1.357h-1.42v-1.357Zm4.259 0h1.42v1.357h-1.42v-1.357Zm4.259 0h1.42v1.357h-1.42v-1.357Zm7.098 0h1.42v1.357h-1.42v-1.357Zm4.26 0h1.419v1.357h-1.419v-1.357Zm7.098 0h1.42v1.357h-1.42v-1.357Zm2.839 0h1.42v1.357h-1.42v-1.357Zm7.099 0h1.42v1.357h-1.42v-1.357Zm1.42 0h1.419v1.357h-1.419v-1.357Zm2.839 0h1.42v1.357h-1.42v-1.357Zm-45.43 1.357h1.419v1.357h-1.419v-1.357Zm4.259 0h1.42v1.357h-1.42v-1.357Zm1.42 0h1.419v1.357h-1.419v-1.357Zm4.259 0h1.419v1.357h-1.419v-1.357Zm1.419 0h1.42v1.357h-1.42v-1.357Zm5.679 0h1.42v1.357h-1.42v-1.357Zm1.42 0h1.419v1.357h-1.419v-1.357Zm9.938 0h1.419v1.357h-1.419v-1.357Zm1.419 0h1.42v1.357h-1.42v-1.357Zm2.84 0h1.419v1.357h-1.419v-1.357Zm4.259 0h1.42v1.357h-1.42v-1.357Zm4.259 0h1.42v1.357h-1.42v-1.357Zm4.259 0h1.42v1.357h-1.42v-1.357Zm-42.591 1.357h1.42v1.357h-1.42v-1.357Zm1.42 0h1.42v1.357h-1.42v-1.357Zm4.259 0h1.42v1.357h-1.42v-1.357Zm1.42 0h1.419v1.357h-1.419v-1.357Zm8.518 0h1.419v1.357h-1.419v-1.357Zm2.839 0h1.42v1.357h-1.42v-1.357Zm5.679 0h1.42v1.357h-1.42v-1.357Zm1.42 0h1.419v1.357h-1.419v-1.357Zm4.259 0h1.419v1.357h-1.419v-1.357Zm1.419 0h1.42v1.357h-1.42v-1.357Zm1.42 0h1.42v1.357h-1.42v-1.357Zm1.42 0h1.42v1.357h-1.42v-1.357Zm2.839 0h1.42v1.357h-1.42v-1.357Zm1.42 0h1.42v1.357h-1.42v-1.357Zm2.839 0h1.42v1.357h-1.42v-1.357Zm1.42 0h1.42v1.357h-1.42v-1.357Zm-44.011 1.357h1.42v1.357h-1.42v-1.357Zm2.84 0h1.42v1.357h-1.42v-1.357Zm1.42 0h1.419v1.357h-1.419v-1.357Zm1.419 0h1.42v1.357h-1.42v-1.357Zm5.679 0h1.42v1.357h-1.42v-1.357Zm1.42 0h1.419v1.357h-1.419v-1.357Zm1.419 0h1.42v1.357h-1.42v-1.357Zm4.259 0h1.42v1.357h-1.42v-1.357Zm5.679 0h1.42v1.357h-1.42v-1.357Zm2.84 0h1.419v1.357h-1.419v-1.357Zm2.839 0h1.42v1.357h-1.42v-1.357Zm4.259 0h1.42v1.357h-1.42v-1.357Zm1.42 0h1.42v1.357h-1.42v-1.357Zm1.42 0h1.419v1.357h-1.419v-1.357Zm2.839 0h1.42v1.357h-1.42v-1.357Zm4.259 0h1.42v1.357h-1.42v-1.357Zm-45.43 1.357h1.419v1.357h-1.419v-1.357Zm4.259 0h1.42v1.357h-1.42v-1.357Zm1.42 0h1.419v1.357h-1.419v-1.357Zm1.419 0h1.42v1.357h-1.42v-1.357Zm1.42 0h1.42v1.357h-1.42v-1.357Zm2.839 0h1.42v1.357h-1.42v-1.357Zm2.84 0h1.419v1.357h-1.419v-1.357Zm5.678 0h1.42v1.357h-1.42v-1.357Zm1.42 0h1.42v1.357h-1.42v-1.357Zm1.42 0h1.42v1.357h-1.42v-1.357Zm1.42 0h1.419v1.357h-1.419v-1.357Zm1.419 0h1.42v1.357h-1.42v-1.357Zm1.42 0h1.42v1.357h-1.42v-1.357Zm4.259 0h1.42v1.357h-1.42v-1.357Zm2.839 0h1.42v1.357h-1.42v-1.357Zm1.42 0h1.42v1.357h-1.42v-1.357Zm1.42 0h1.42v1.357h-1.42v-1.357Zm1.42 0h1.419v1.357h-1.419v-1.357Zm1.419 0h1.42v1.357h-1.42v-1.357Zm4.259 0h1.42v1.357h-1.42v-1.357Zm-32.653 1.357h1.42v1.357h-1.42v-1.357Zm1.42 0h1.42v1.357h-1.42v-1.357Zm8.518 0h1.42v1.357h-1.42v-1.357Zm2.84 0h1.419v1.357h-1.419v-1.357Zm2.839 0h1.42v1.357h-1.42v-1.357Zm2.839 0h1.42v1.357h-1.42v-1.357Zm2.84 0h1.419v1.357h-1.419v-1.357Zm1.419 0h1.42v1.357h-1.42v-1.357Zm5.679 0h1.42v1.357h-1.42v-1.357Zm1.42 0h1.42v1.357h-1.42v-1.357Zm-41.171 1.357h1.419v1.357h-1.419v-1.357Zm1.419 0h1.42v1.357h-1.42v-1.357Zm1.42 0h1.42v1.357h-1.42v-1.357Zm1.42 0h1.42v1.357h-1.42v-1.357Zm1.42 0h1.419v1.357h-1.419v-1.357Zm1.419 0h1.42v1.357h-1.42v-1.357Zm1.42 0h1.42v1.357h-1.42v-1.357Zm8.518 0h1.42v1.357h-1.42v-1.357Zm1.42 0h1.419v1.357h-1.419v-1.357Zm1.419 0h1.42v1.357h-1.42v-1.357Zm7.099 0h1.42v1.357h-1.42v-1.357Zm1.42 0h1.419v1.357h-1.419v-1.357Zm1.419 0h1.42v1.357h-1.42v-1.357Zm2.84 0h1.419v1.357h-1.419v-1.357Zm1.419 0h1.42v1.357h-1.42v-1.357Zm2.84 0h1.42v1.357h-1.42v-1.357Zm2.839 0h1.42v1.357h-1.42v-1.357Zm-39.751 1.357h1.419v1.357h-1.419v-1.357Zm8.518 0h1.42v1.357h-1.42v-1.357Zm2.839 0h1.42v1.357h-1.42v-1.357Zm1.42 0h1.42v1.357h-1.42v-1.357Zm1.42 0h1.419v1.357h-1.419v-1.357Zm2.839 0h1.42v1.357h-1.42v-1.357Zm5.679 0h1.42v1.357h-1.42v-1.357Zm9.938 0h1.419v1.357h-1.419v-1.357Zm1.419 0h1.42v1.357h-1.42v-1.357Zm5.679 0h1.42v1.357h-1.42v-1.357Zm1.42 0h1.42v1.357h-1.42v-1.357Zm1.42 0h1.419v1.357h-1.419v-1.357Zm1.419 0h1.42v1.357h-1.42v-1.357Zm1.42 0h1.42v1.357h-1.42v-1.357Zm-45.43 1.357h1.419v1.357h-1.419v-1.357Zm2.839 0h1.42v1.357h-1.42v-1.357Zm1.42 0h1.42v1.357h-1.42v-1.357Zm1.42 0h1.419v1.357h-1.419v-1.357Zm2.839 0h1.42v1.357h-1.42v-1.357Zm9.938 0h1.419v1.357h-1.419v-1.357Zm1.419 0h1.42v1.357h-1.42v-1.357Zm11.358 0h1.42v1.357h-1.42v-1.357Zm1.42 0h1.419v1.357h-1.419v-1.357Zm1.419 0h1.42v1.357h-1.42v-1.357Zm1.42 0h1.42v1.357h-1.42v-1.357Zm1.42 0h1.42v1.357h-1.42v-1.357Zm1.42 0h1.419v1.357h-1.419v-1.357Zm1.419 0h1.42v1.357h-1.42v-1.357Zm2.84 0h1.419v1.357h-1.419v-1.357Zm2.839 0h1.42v1.357h-1.42v-1.357Zm-45.43 1.357h1.419v1.357h-1.419v-1.357Zm2.839 0h1.42v1.357h-1.42v-1.357Zm1.42 0h1.42v1.357h-1.42v-1.357Zm1.42 0h1.419v1.357h-1.419v-1.357Zm2.839 0h1.42v1.357h-1.42v-1.357Zm2.839 0h1.42v1.357h-1.42v-1.357Zm1.42 0h1.42v1.357h-1.42v-1.357Zm4.259 0h1.42v1.357h-1.42v-1.357Zm1.42 0h1.419v1.357h-1.419v-1.357Zm2.839 0h1.42v1.357h-1.42v-1.357Zm4.259 0h1.42v1.357h-1.42v-1.357Zm1.42 0h1.42v1.357h-1.42v-1.357Zm2.839 0h1.42v1.357h-1.42v-1.357Zm1.42 0h1.42v1.357h-1.42v-1.357Zm2.839 0h1.42v1.357h-1.42v-1.357Zm4.26 0h1.419v1.357h-1.419v-1.357Zm4.259 0h1.419v1.357h-1.419v-1.357Zm1.419 0h1.42v1.357h-1.42v-1.357Zm1.42 0h1.42v1.357h-1.42v-1.357Zm-45.43 1.357h1.419v1.357h-1.419v-1.357Zm2.839 0h1.42v1.357h-1.42v-1.357Zm1.42 0h1.42v1.357h-1.42v-1.357Zm1.42 0h1.419v1.357h-1.419v-1.357Zm2.839 0h1.42v1.357h-1.42v-1.357Zm2.839 0h1.42v1.357h-1.42v-1.357Zm1.42 0h1.42v1.357h-1.42v-1.357Zm1.42 0h1.419v1.357h-1.419v-1.357Zm1.419 0h1.42v1.357h-1.42v-1.357Zm1.42 0h1.42v1.357h-1.42v-1.357Zm1.42 0h1.419v1.357h-1.419v-1.357Zm1.419 0h1.42v1.357h-1.42v-1.357Zm1.42 0h1.42v1.357h-1.42v-1.357Zm2.84 0h1.419v1.357h-1.419v-1.357Zm1.419 0h1.42v1.357h-1.42v-1.357Zm2.84 0h1.419v1.357h-1.419v-1.357Zm1.419 0h1.42v1.357h-1.42v-1.357Zm1.42 0h1.42v1.357h-1.42v-1.357Zm2.839 0h1.42v1.357h-1.42v-1.357Zm1.42 0h1.42v1.357h-1.42v-1.357Zm1.42 0h1.42v1.357h-1.42v-1.357Zm1.42 0h1.419v1.357h-1.419v-1.357Zm2.839 0h1.42v1.357h-1.42v-1.357Zm1.42 0h1.419v1.357h-1.419v-1.357Zm-42.591 1.357h1.419v1.357h-1.419v-1.357Zm8.518 0h1.42v1.357h-1.42v-1.357Zm2.839 0h1.42v1.357h-1.42v-1.357Zm1.42 0h1.42v1.357h-1.42v-1.357Zm1.42 0h1.419v1.357h-1.419v-1.357Zm1.419 0h1.42v1.357h-1.42v-1.357Zm2.84 0h1.419v1.357h-1.419v-1.357Zm1.419 0h1.42v1.357h-1.42v-1.357Zm1.42 0h1.42v1.357h-1.42v-1.357Zm1.42 0h1.42v1.357h-1.42v-1.357Zm1.42 0h1.419v1.357h-1.419v-1.357Zm1.419 0h1.42v1.357h-1.42v-1.357Zm2.84 0h1.419v1.357h-1.419v-1.357Zm4.259 0h1.419v1.357h-1.419v-1.357Zm1.419 0h1.42v1.357h-1.42v-1.357Zm1.42 0h1.42v1.357h-1.42v-1.357Zm2.84 0h1.419v1.357h-1.419v-1.357Zm1.419 0h1.42v1.357h-1.42v-1.357Zm5.679 0h1.42v1.357h-1.42v-1.357Zm-45.43 1.357h1.419v1.357h-1.419v-1.357Zm1.419 0h1.42v1.357h-1.42v-1.357Zm1.42 0h1.42v1.357h-1.42v-1.357Zm1.42 0h1.42v1.357h-1.42v-1.357Zm1.42 0h1.419v1.357h-1.419v-1.357Zm1.419 0h1.42v1.357h-1.42v-1.357Zm1.42 0h1.42v1.357h-1.42v-1.357Zm4.259 0h1.42v1.357h-1.42v-1.357Zm1.42 0h1.419v1.357h-1.419v-1.357Zm1.419 0h1.42v1.357h-1.42v-1.357Zm1.42 0h1.42v1.357h-1.42v-1.357Zm4.259 0h1.42v1.357h-1.42v-1.357Zm1.42 0h1.42v1.357h-1.42v-1.357Zm1.42 0h1.419v1.357h-1.419v-1.357Zm2.839 0h1.42v1.357h-1.42v-1.357Zm2.839 0h1.42v1.357h-1.42v-1.357Zm2.84 0h1.419v1.357h-1.419v-1.357Zm2.839 0h1.42v1.357h-1.42v-1.357Zm4.259 0h1.42v1.357h-1.42v-1.357Zm2.84 0h1.419v1.357h-1.419v-1.357Zm-108.566-35.385c-.344 0-.678-.046-1.002-.137a2.386 2.386 0 0 1-.771-.367l.342-.758c.187.137.408.247.666.329.257.083.514.125.771.125.286 0 .498-.042.635-.125.137-.087.205-.2.205-.341a.31.31 0 0 0-.124-.255.86.86 0 0 0-.311-.168 6.174 6.174 0 0 0-.511-.137 6.98 6.98 0 0 1-.815-.236 1.35 1.35 0 0 1-.547-.379c-.15-.174-.224-.406-.224-.696 0-.253.068-.48.205-.683.137-.208.342-.371.616-.491.278-.121.616-.181 1.014-.181.278 0 .55.034.815.1.266.066.498.161.697.286l-.311.764c-.402-.228-.805-.342-1.207-.342-.282 0-.491.046-.628.137a.417.417 0 0 0-.199.36c0 .15.076.261.23.336.157.07.396.141.715.211.332.079.604.158.815.236.212.079.392.203.542.373.153.17.23.4.23.69 0 .249-.071.477-.212.684-.136.203-.344.364-.622.484-.278.121-.616.181-1.014.181Zm4.621 0a2.55 2.55 0 0 1-1.207-.286 2.212 2.212 0 0 1-.846-.802 2.243 2.243 0 0 1-.305-1.162c0-.431.102-.816.305-1.156.207-.344.489-.611.846-.802a2.52 2.52 0 0 1 1.213-.292c.378 0 .718.067 1.021.199.307.133.564.323.771.572l-.647.597a1.39 1.39 0 0 0-1.095-.51c-.269 0-.51.06-.722.18-.211.116-.377.28-.497.491a1.474 1.474 0 0 0-.175.721c0 .269.059.51.175.721.12.211.286.377.497.497.212.116.453.174.722.174.436 0 .801-.172 1.095-.516l.647.597a2.013 2.013 0 0 1-.771.578 2.573 2.573 0 0 1-1.027.199Zm5.263-1.007h-2.023l-.385.932h-1.033l1.941-4.35h.996l1.947 4.35h-1.058l-.385-.932Zm-.318-.764-.69-1.666-.691 1.666h1.381Zm6.208-2.654v4.35h-.828l-2.171-2.641v2.641h-.996v-4.35h.834l2.165 2.641v-2.641h.996Zm7.503 4.816a1.397 1.397 0 0 1-.517.398 1.567 1.567 0 0 1-.659.137c-.324 0-.616-.071-.878-.212-.261-.136-.56-.381-.896-.733a2.484 2.484 0 0 1-1.058-.379 2.174 2.174 0 0 1-.721-.783 2.262 2.262 0 0 1-.255-1.069c0-.427.101-.81.304-1.15.208-.344.492-.613.853-.808a2.57 2.57 0 0 1 1.226-.292c.452 0 .858.098 1.219.292.361.195.645.464.853.808.207.34.311.723.311 1.15 0 .505-.143.949-.43 1.33a2.185 2.185 0 0 1-1.126.795c.104.108.203.185.299.23.099.05.205.075.317.075a.95.95 0 0 0 .71-.323l.448.534Zm-3.964-2.641c0 .269.058.51.174.721.12.211.284.377.492.497a1.4 1.4 0 0 0 .697.174c.257 0 .489-.058.697-.174.207-.12.369-.286.485-.497.12-.211.18-.452.18-.721 0-.269-.06-.51-.18-.721a1.232 1.232 0 0 0-.485-.491c-.208-.12-.44-.18-.697-.18-.258 0-.49.06-.697.18-.208.116-.372.28-.492.491a1.474 1.474 0 0 0-.174.721Zm7.278 2.175-.84-1.212h-.927v1.212h-1.008v-4.35h1.886c.385 0 .719.064 1.001.193.287.128.506.31.66.546.153.237.23.516.23.839 0 .324-.079.603-.236.839a1.47 1.47 0 0 1-.66.535l.977 1.398h-1.083Zm-.018-2.772c0-.244-.079-.43-.237-.559-.157-.132-.388-.199-.69-.199h-.822v1.517h.822c.302 0 .533-.067.69-.199.158-.133.237-.319.237-.56Zm7.576-1.578v4.35h-.828l-2.171-2.641v2.641h-.996v-4.35h.834l2.165 2.641v-2.641h.996Zm3.139 4.425c-.452 0-.86-.098-1.225-.292a2.21 2.21 0 0 1-.853-.802 2.231 2.231 0 0 1-.305-1.156c0-.427.102-.81.305-1.15.208-.344.492-.613.853-.808a2.569 2.569 0 0 1 1.225-.292c.453 0 .859.098 1.22.292a2.187 2.187 0 0 1 1.164 1.958c0 .427-.104.812-.312 1.156a2.2 2.2 0 0 1-.852.802 2.535 2.535 0 0 1-1.22.292Zm0-.858a1.4 1.4 0 0 0 .697-.174c.208-.12.37-.286.486-.497.12-.211.18-.452.18-.721 0-.269-.06-.51-.18-.721a1.228 1.228 0 0 0-.486-.491 1.363 1.363 0 0 0-.697-.18c-.257 0-.489.06-.696.18-.208.116-.372.28-.492.491a1.474 1.474 0 0 0-.174.721c0 .269.058.51.174.721.12.211.284.377.492.497.207.116.439.174.696.174Zm9.578-3.567-1.424 4.35h-1.083l-.958-2.946-.99 2.946h-1.076l-1.431-4.35h1.045l.983 3.057 1.027-3.057h.933l.996 3.082 1.014-3.082h.964Z" fill="#879EC1"/></g><path fill-rule="evenodd" clip-rule="evenodd" d="M504.701 132.249h-4.88l2.24-2.238-.56-.559-3.2 3.196 3.2 3.196.56-.559-2.24-2.237h4.88v-.799Z" fill="#233654"/><path fill="#fff" d="M495.055 148.851h144.889v22.194H495.055z"/><g clip-path="url(#j)" fill="#C4D0EA"><path d="M503.056 156.396a3.557 3.557 0 0 0-3.556 3.551 3.557 3.557 0 0 0 3.556 3.551 3.557 3.557 0 0 0 3.555-3.551 3.557 3.557 0 0 0-3.555-3.551Zm0 6.457a2.911 2.911 0 0 1-2.91-2.906 2.91 2.91 0 0 1 5.819 0 2.911 2.911 0 0 1-2.909 2.906Z"/><path d="M503.056 159.194a.324.324 0 0 0-.324.323v2.152a.324.324 0 0 0 .647 0v-2.152a.323.323 0 0 0-.323-.323Zm0-1.291a.325.325 0 0 0-.324.323.325.325 0 0 0 .324.323.325.325 0 0 0 .323-.323.325.325 0 0 0-.323-.323Z"/></g><rect width="29.333" height="15.98" rx="7.99" transform="matrix(1 0 0 -1 606.166 167.938)" fill="#87AB49"/><rect width="11.556" height="11.541" rx="5.771" transform="matrix(1 0 0 -1 621.721 165.718)" fill="#fff"/><rect x="508.832" y="154.746" width="53.879" height="4.236" rx="2.118" fill="#E0E7F5"/><rect x="508.832" y="161.992" width="53.879" height="4.236" rx="2.118" fill="#E0E7F5"/><path fill="#fff" d="M495.055 171.489h144.889v22.194H495.055z"/><g clip-path="url(#k)" fill="#C4D0EA"><path d="M503.056 179.035a3.557 3.557 0 0 0-3.556 3.551 3.557 3.557 0 0 0 3.556 3.551 3.557 3.557 0 0 0 3.555-3.551 3.557 3.557 0 0 0-3.555-3.551Zm0 6.456a2.91 2.91 0 0 1-2.91-2.905 2.91 2.91 0 0 1 5.819 0 2.91 2.91 0 0 1-2.909 2.905Z"/><path d="M503.056 181.833a.324.324 0 0 0-.324.323v2.152a.323.323 0 0 0 .647 0v-2.152a.323.323 0 0 0-.323-.323Zm0-1.291a.326.326 0 0 0-.229.094.325.325 0 0 0 .229.552.325.325 0 0 0 .323-.323.324.324 0 0 0-.323-.323Z"/></g><rect width="29.333" height="15.98" rx="7.99" transform="matrix(1 0 0 -1 606.166 190.576)" fill="#87AB49"/><rect width="11.556" height="11.541" rx="5.771" transform="matrix(1 0 0 -1 621.721 188.356)" fill="#fff"/><rect x="508.832" y="180.865" width="69.762" height="4.236" rx="2.118" fill="#E0E7F5"/><path fill="#fff" d="M495.055 194.127h144.889v22.194H495.055z"/><g clip-path="url(#l)" fill="#C4D0EA"><path d="M503.056 201.673a3.557 3.557 0 0 0-3.556 3.551 3.557 3.557 0 0 0 3.556 3.551 3.557 3.557 0 0 0 3.555-3.551 3.557 3.557 0 0 0-3.555-3.551Zm0 6.456a2.91 2.91 0 0 1-2.91-2.905 2.91 2.91 0 0 1 5.819 0 2.91 2.91 0 0 1-2.909 2.905Z"/><path d="M503.056 204.471a.323.323 0 0 0-.324.323v2.151a.323.323 0 0 0 .647 0v-2.151a.323.323 0 0 0-.323-.323Zm0-1.291a.326.326 0 0 0-.229.094.325.325 0 0 0 .229.551.324.324 0 0 0 .323-.322.324.324 0 0 0-.323-.323Z"/></g><rect width="29.333" height="15.98" rx="7.99" transform="matrix(1 0 0 -1 606.166 213.214)" fill="#879EC1"/><rect width="11.556" height="11.541" rx="5.771" transform="matrix(1 0 0 -1 608.389 210.994)" fill="#fff"/><rect x="508.832" y="203.106" width="49.162" height="4.236" rx="2.118" fill="#E0E7F5"/><path fill="#fff" d="M495.055 216.766h144.889v22.194H495.055z"/><g clip-path="url(#m)" fill="#C4D0EA"><path d="M503.056 224.312a3.557 3.557 0 0 0-3.556 3.55 3.557 3.557 0 0 0 3.556 3.551 3.557 3.557 0 0 0 3.555-3.551 3.556 3.556 0 0 0-3.555-3.55Zm0 6.456a2.911 2.911 0 0 1-2.91-2.906 2.91 2.91 0 0 1 5.819 0 2.911 2.911 0 0 1-2.909 2.906Z"/><path d="M503.056 227.109a.324.324 0 0 0-.324.323v2.152a.324.324 0 0 0 .647 0v-2.152a.323.323 0 0 0-.323-.323Zm0-1.291a.325.325 0 0 0-.229.552.326.326 0 0 0 .457 0 .325.325 0 0 0-.228-.552Z"/></g><rect width="29.333" height="15.98" rx="7.99" transform="matrix(1 0 0 -1 606.166 235.853)" fill="#87AB49"/><rect width="11.556" height="11.541" rx="5.771" transform="matrix(1 0 0 -1 621.721 233.633)" fill="#fff"/><rect x="508.832" y="225.818" width="69.852" height="4.236" rx="2.118" fill="#E0E7F5"/><path fill="#fff" d="M495.055 239.403h144.889v22.194H495.055z"/><g clip-path="url(#n)" fill="#C4D0EA"><path d="M503.056 246.949a3.557 3.557 0 0 0-3.556 3.551 3.557 3.557 0 0 0 3.556 3.551 3.557 3.557 0 0 0 3.555-3.551 3.557 3.557 0 0 0-3.555-3.551Zm0 6.456a2.91 2.91 0 0 1-2.91-2.905 2.91 2.91 0 0 1 5.819 0 2.91 2.91 0 0 1-2.909 2.905Z"/><path d="M503.056 249.747a.324.324 0 0 0-.324.323v2.152a.324.324 0 0 0 .647 0v-2.152a.323.323 0 0 0-.323-.323Zm0-1.291a.323.323 0 1 0 0 .646.323.323 0 0 0 0-.646Z"/></g><rect width="29.333" height="15.98" rx="7.99" transform="matrix(1 0 0 -1 606.166 258.49)" fill="#87AB49"/><rect width="11.556" height="11.541" rx="5.771" transform="matrix(1 0 0 -1 621.721 256.271)" fill="#fff"/><rect x="508.832" y="248.383" width="71.455" height="4.236" rx="2.118" fill="#E0E7F5"/><path fill="#fff" d="M495.055 262.042h144.889v35.955H495.055z"/><rect width="29.333" height="15.98" rx="7.99" transform="matrix(1 0 0 -1 606.166 282.238)" fill="#879EC1"/><rect width="11.556" height="11.541" rx="5.771" transform="matrix(1 0 0 -1 608.389 280.019)" fill="#fff"/><rect x="499.5" y="272.746" width="79.349" height="4.236" rx="2.118" fill="#E0E7F5"/><rect x="499.5" y="288.212" width="27.718" height="4.236" rx="2.118" fill="#E0E7F5"/><rect x="607.338" y="288.212" width="27.718" height="4.236" rx="2.118" fill="#E0E7F5"/><rect x="539.256" y="351.142" width="27.718" height="4.236" rx="2.118" fill="#E0E7F5"/><rect x="504.414" y="351.142" width="27.718" height="4.236" rx="2.118" fill="#E0E7F5"/><rect x="526.611" y="129.099" width="81.778" height="7.099" rx="3.549" fill="#E0E7F5"/></g></g><g filter="url(#o)"><path d="M361.5 113.891c0-5.523 4.477-10 10-10h154c5.523 0 10 4.477 10 10v271c0 5.522-4.477 10-10 10h-154c-5.523 0-10-4.478-10-10v-271Z" fill="#F1F4FB"/><path d="M378.474 120.422c.367 0 .669-.299.624-.663a5.282 5.282 0 0 0-1.443-3.027 4.992 4.992 0 0 0-3.582-1.529c-1.344 0-2.633.55-3.583 1.529a5.282 5.282 0 0 0-1.443 3.027c-.045.364.257.663.624.663s.659-.3.721-.662a3.883 3.883 0 0 1 1.038-2.059 3.684 3.684 0 0 1 2.643-1.128c.99 0 1.941.406 2.642 1.128a3.883 3.883 0 0 1 1.038 2.059c.062.362.354.662.721.662Z" fill="#87AB49"/><path d="M376.789 113.546c0 1.514-1.216 2.74-2.717 2.74-1.5 0-2.717-1.226-2.717-2.74 0-1.513 1.217-2.739 2.717-2.739a2.728 2.728 0 0 1 2.717 2.739Zm-4.347 0c0 .908.73 1.644 1.63 1.644.901 0 1.63-.736 1.63-1.644 0-.907-.729-1.643-1.63-1.643-.9 0-1.63.736-1.63 1.643Z" fill="#87AB49"/><mask id="p" fill="#fff"><path d="M522.696 119.993c-.055.225-.281.364-.498.289a4.811 4.811 0 0 1-2.367-1.783 4.874 4.874 0 0 1-.864-3.26 4.863 4.863 0 0 1 1.454-3.039 4.78 4.78 0 0 1 6.265-.344 4.878 4.878 0 0 1 1.265 6.197 4.83 4.83 0 0 1-2.161 2.032c-.208.098-.447-.016-.526-.233a.456.456 0 0 1 .239-.557 3.989 3.989 0 0 0 1.722-1.649 4.04 4.04 0 0 0 .421-2.76 4.016 4.016 0 0 0-1.467-2.367 3.954 3.954 0 0 0-5.182.285 4.022 4.022 0 0 0-1.204 2.514 4.04 4.04 0 0 0 .716 2.697 3.97 3.97 0 0 0 1.89 1.45.457.457 0 0 1 .297.528Z"/></mask><path d="m519.831 118.499-1.227.863 1.227-.863Zm8.12-.446-1.313-.725 1.313.725Zm-.726-.407-1.313-.725 1.313.725Zm-6.716.369 1.227-.863-1.227.863Zm1.89 1.45-.514 1.41.514-1.41Zm2.865.387 1.41-.512-1.41.512Zm.239-.557-.665-1.345.665 1.345Zm.287.79-.64-1.357.64 1.357Zm-3.592.197-.488 1.418.488-1.418Zm.489-1.418a3.316 3.316 0 0 1-1.629-1.228l-2.454 1.726a6.31 6.31 0 0 0 3.106 2.338l.977-2.836Zm-1.629-1.228a3.378 3.378 0 0 1-.598-2.257l-2.987-.28a6.382 6.382 0 0 0 1.131 4.263l2.454-1.726Zm-.598-2.257a3.365 3.365 0 0 1 1.005-2.102l-2.088-2.154a6.365 6.365 0 0 0-1.904 3.976l2.987.28Zm1.005-2.102a3.287 3.287 0 0 1 2.108-.924l-.165-2.996a6.289 6.289 0 0 0-4.031 1.766l2.088 2.154Zm2.108-.924a3.27 3.27 0 0 1 2.192.687l1.842-2.368a6.277 6.277 0 0 0-4.199-1.315l.165 2.996Zm2.192.687a3.352 3.352 0 0 1 1.225 1.978l2.939-.6a6.346 6.346 0 0 0-2.322-3.746l-1.842 2.368Zm1.225 1.978a3.385 3.385 0 0 1-.352 2.31l2.626 1.45a6.383 6.383 0 0 0 .665-4.36l-2.939.6Zm-.352 2.31a3.323 3.323 0 0 1-1.488 1.4l1.281 2.713a6.323 6.323 0 0 0 2.833-2.663l-2.626-1.45Zm-.47 3.311a5.492 5.492 0 0 0 2.371-2.268l-2.627-1.45a2.485 2.485 0 0 1-1.074 1.029l1.33 2.689Zm2.371-2.268a5.543 5.543 0 0 0 .577-3.785l-2.94.6a2.54 2.54 0 0 1-.264 1.735l2.627 1.45Zm.577-3.785a5.516 5.516 0 0 0-2.016-3.251l-1.842 2.368c.471.366.798.891.918 1.483l2.94-.6Zm-2.016-3.251a5.453 5.453 0 0 0-3.647-1.142l.165 2.996a2.448 2.448 0 0 1 1.64.514l1.842-2.368Zm-3.647-1.142a5.46 5.46 0 0 0-3.5 1.534l2.088 2.154c.428-.416.988-.66 1.577-.692l-.165-2.996Zm-3.5 1.534a5.52 5.52 0 0 0-1.653 3.451l2.987.28a2.52 2.52 0 0 1 .754-1.577l-2.088-2.154Zm-1.653 3.451a5.537 5.537 0 0 0 .982 3.7l2.454-1.726a2.528 2.528 0 0 1-.449-1.694l-2.987-.28Zm.982 3.7a5.48 5.48 0 0 0 2.603 1.997l1.028-2.819a2.468 2.468 0 0 1-1.177-.904l-2.454 1.726Zm2.603 1.997a1.045 1.045 0 0 1-.646-1.239l2.914.715c.258-1.051-.39-1.985-1.24-2.295l-1.028 2.819Zm4.789-1.535a1.044 1.044 0 0 1-.506 1.299l-1.33-2.689c-.81.401-1.354 1.397-.984 2.415l2.82-1.025Zm-1.524-.612c.678-.32 1.335.093 1.524.612l-2.82 1.025c.347.953 1.483 1.592 2.577 1.076l-1.281-2.713Zm-3.44 2.972c1.144.394 2.202-.366 2.443-1.349l-2.914-.715c.131-.534.737-1.017 1.448-.772l-.977 2.836Z" fill="#87AB49" mask="url(#p)"/><path d="M522.377 113.636a2.413 2.413 0 0 1 .633-.426 2.133 2.133 0 0 1 .873-.18c.225 0 .431.034.617.1.19.064.352.158.488.28.138.12.244.266.32.439.076.169.114.36.114.572 0 .211-.03.395-.089.551a1.53 1.53 0 0 1-.228.401 1.934 1.934 0 0 1-.3.3l-.309.238a2.094 2.094 0 0 0-.247.221.448.448 0 0 0-.122.243l-.085.626h-.593l-.061-.689a.547.547 0 0 1 .061-.338c.054-.095.126-.184.215-.267.092-.084.192-.163.3-.238.111-.078.214-.165.309-.259a1.43 1.43 0 0 0 .24-.318.862.862 0 0 0 .097-.421.677.677 0 0 0-.231-.518.808.808 0 0 0-.256-.142.984.984 0 0 0-.317-.05 1.232 1.232 0 0 0-.69.188 1.63 1.63 0 0 0-.195.125.243.243 0 0 1-.13.054.2.2 0 0 1-.187-.112l-.227-.38Zm.779 4.956c0-.081.014-.156.041-.226a.632.632 0 0 1 .118-.188.551.551 0 0 1 .621-.125c.07.031.131.072.183.125a.584.584 0 0 1 .121.188c.03.07.045.145.045.226a.588.588 0 0 1-.166.413.527.527 0 0 1-.183.121.551.551 0 0 1-.621-.121.637.637 0 0 1-.118-.184.626.626 0 0 1-.041-.229Z" fill="#87AB49"/><path d="M423.984 112.957c.509 0 .95.086 1.323.257.378.171.668.414.871.729.202.315.304.688.304 1.119 0 .425-.102.798-.304 1.118a1.98 1.98 0 0 1-.871.73c-.373.165-.814.248-1.323.248h-1.159v1.6h-1.331v-5.801h2.49Zm-.074 3.107c.4 0 .704-.085.912-.256.208-.177.312-.426.312-.746 0-.326-.104-.575-.312-.746-.208-.177-.512-.265-.912-.265h-1.085v2.013h1.085Zm3.522-3.107h1.331v4.707h2.884v1.094h-4.215v-5.801Zm8.795 4.558h-2.671l-.509 1.243h-1.364l2.564-5.801h1.314l2.572 5.801h-1.397l-.509-1.243Zm-.419-1.02-.912-2.22-.912 2.22h1.824Zm8.197-3.538v5.801h-1.093l-2.867-3.522v3.522h-1.315v-5.801h1.101l2.859 3.522v-3.522h1.315Zm5.814 4.723v1.078h-4.453v-5.801h4.346v1.077h-3.023v1.26h2.67v1.044h-2.67v1.342h3.13Zm2.251-3.629h-1.841v-1.094h5.012v1.094h-1.84v4.707h-1.331v-4.707Zm11.744-1.094-2.489 5.801h-1.315l-2.481-5.801h1.438l1.75 4.143 1.775-4.143h1.322Zm2.97 0c.51 0 .951.086 1.323.257.378.171.668.414.871.729.203.315.304.688.304 1.119 0 .425-.101.798-.304 1.118a1.98 1.98 0 0 1-.871.73c-.372.165-.813.248-1.323.248h-1.158v1.6h-1.331v-5.801h2.489Zm-.074 3.107c.4 0 .704-.085.912-.256.209-.177.313-.426.313-.746 0-.326-.104-.575-.313-.746-.208-.177-.512-.265-.912-.265h-1.084v2.013h1.084Zm8.798-3.107v5.801h-1.093l-2.868-3.522v3.522h-1.315v-5.801h1.101l2.86 3.522v-3.522h1.315Z" fill="#3B577F"/><rect x="378.416" y="334.936" width="139.683" height="24.372" rx="8" fill="#87AB49"/><ellipse cx="448.499" cy="267.907" rx="42.829" ry="43.192" fill="url(#q)"/><path fill-rule="evenodd" clip-rule="evenodd" d="M400.155 283.27c.74-.922 2.167-.783 2.752.245a1.759 1.759 0 0 1-.224 2.029c-2.911 3.314-4.167 5.892-3.331 7.36 2.684 4.715 25.915-3.789 51.887-18.993.895-.524 1.782-1.05 2.66-1.576.307-.183.483-.522.483-.879 0-6.053 4.866-10.96 10.868-10.96 3.216 0 6.703.096 9.29-1.815 12.952-9.565 20.644-17.712 18.865-20.836-.796-1.399-3.402-1.634-7.351-.876a1.719 1.719 0 0 1-1.825-.821c-.567-.996.016-2.255 1.15-2.423 7.773-1.146 13.287-.187 15.219 3.207 3.621 6.359-6.34 19.475-23.682 32.813-.524.404-.798 1.05-.798 1.711 0 6.053-4.866 10.96-10.868 10.96-.299 0-.595-.013-.888-.036-2.678-.219-5.531-.332-7.85 1.025-29.222 17.107-56.862 24.036-61.736 15.476-1.998-3.51.142-9.08 5.379-15.611Z" fill="#D7DEED"/><ellipse cx="465.25" cy="271.456" rx="5.434" ry="5.48" fill="#70AF09"/><path d="M426.552 253.135c-2.636 6.563-1.804 13.485-5.037 12.165-3.233-1.321-3.717-7.712-1.081-14.276 2.635-6.563 7.393-10.814 10.626-9.494 3.233 1.321-1.872 5.041-4.508 11.605Zm-2.029 18.685c.235 2.162-.757 4.045-2.217 4.207-1.46.162-2.834-1.46-3.069-3.621-.236-2.162.757-4.045 2.216-4.207 1.46-.161 2.834 1.46 3.07 3.621Z" opacity=".32" fill="#E5E5E5"/><path d="M435.854 300.812c-1.488-.867-.774-2.321 2.84-3.529 7.623-1.687 6.337 1.724 17.305.412 10.969-1.313 16.752-5.873 19.664-8.873 2.33-2.4 4.484-5.647 4.381-4.502-.496 2.438-4.499 8.862-16.546 15.062-15.059 7.75-25.361 2.76-27.644 1.43Z" fill="#080F1B" fill-opacity=".11"/><path d="M484.302 243.98c1.406-.94 1.799-2.844.779-4.193-6.539-8.653-15.913-14.741-26.502-17.14a45.669 45.669 0 0 0-33.874 5.561c-10.157 6.192-17.548 16.103-20.628 27.663a46.751 46.751 0 0 0 2.713 31.594c.715 1.551 2.607 2.095 4.1 1.268 1.479-.819 2.008-2.673 1.315-4.215a40.513 40.513 0 0 1-2.198-27.041c2.669-10.016 9.073-18.604 17.874-23.969a39.57 39.57 0 0 1 29.352-4.819 39.82 39.82 0 0 1 22.688 14.49c1.046 1.352 2.96 1.751 4.381.801Zm-62.041 58.202c-1.034 1.351-.795 3.294.606 4.243a45.755 45.755 0 0 0 22.17 7.738 45.679 45.679 0 0 0 25.787-5.699 46.206 46.206 0 0 0 18.433-19.058 46.708 46.708 0 0 0 5.213-23.068c-.057-1.701-1.567-2.933-3.25-2.762-1.691.171-2.914 1.693-2.875 3.402a40.466 40.466 0 0 1-4.529 19.558 40.032 40.032 0 0 1-15.972 16.514 39.586 39.586 0 0 1-22.345 4.938 39.636 39.636 0 0 1-18.856-6.468c-1.417-.937-3.343-.694-4.382.662Z" fill="#D7DEED"/><rect x="379.225" y="137.036" width="138.233" height="19.01" rx="9.505" fill="#D7DEED"/><rect x="404.275" y="166.77" width="88.45" height="10.236" rx="5.118" fill="#D7DEED"/><rect x="429.408" y="180.905" width="38.183" height="13.161" rx="6.58" fill="#87AB49"/></g><defs><clipPath id="a"><path d="M32.04 29.312c0-6.045 4.915-10.946 10.96-10.946 6.045 0 10.96 4.9 10.96 10.946 0 6.046-4.915 10.946-10.96 10.946-6.045 0-10.96-4.9-10.96-10.946Z" fill="#fff"/></clipPath><clipPath id="c"><path d="M523.588 74.781c0-6.045 4.915-10.946 10.961-10.946 6.045 0 10.96 4.9 10.96 10.946 0 6.045-4.915 10.946-10.96 10.946-6.046 0-10.961-4.9-10.961-10.946Z" fill="#fff"/></clipPath><clipPath id="f"><path d="M270.5 126.891c0-5.523 4.477-10 10-10h139c5.523 0 10 4.477 10 10v245c0 5.522-4.477 10-10 10h-139c-5.523 0-10-4.478-10-10v-245Z" fill="#fff"/></clipPath><clipPath id="h"><path d="M487.5 126.891c0-5.523 4.477-10 10-10h140c5.523 0 10 4.477 10 10v245c0 5.522-4.477 10-10 10h-140c-5.523 0-10-4.478-10-10v-245Z" fill="#fff"/></clipPath><clipPath id="j"><path fill="#fff" transform="translate(499.5 156.396)" d="M0 0h7.111v7.102H0z"/></clipPath><clipPath id="k"><path fill="#fff" transform="translate(499.5 179.035)" d="M0 0h7.111v7.102H0z"/></clipPath><clipPath id="l"><path fill="#fff" transform="translate(499.5 201.673)" d="M0 0h7.111v7.102H0z"/></clipPath><clipPath id="m"><path fill="#fff" transform="translate(499.5 224.312)" d="M0 0h7.111v7.102H0z"/></clipPath><clipPath id="n"><path fill="#fff" transform="translate(499.5 246.949)" d="M0 0h7.111v7.102H0z"/></clipPath><filter id="e" x="248.5" y="98.891" width="203" height="309" filterUnits="userSpaceOnUse" color-interpolation-filters="sRGB"><feFlood flood-opacity="0" result="BackgroundImageFix"/><feColorMatrix in="SourceAlpha" values="0 0 0 0 0 0 0 0 0 0 0 0 0 0 0 0 0 0 127 0" result="hardAlpha"/><feOffset dy="4"/><feGaussianBlur stdDeviation="11"/><feColorMatrix values="0 0 0 0 0.0925174 0 0 0 0 0.176063 0 0 0 0 0.304167 0 0 0 0.17 0"/><feBlend in2="BackgroundImageFix" result="effect1_dropShadow_9406_182262"/><feBlend in="SourceGraphic" in2="effect1_dropShadow_9406_182262" result="shape"/></filter><filter id="g" x="465.5" y="98.891" width="204" height="309" filterUnits="userSpaceOnUse" color-interpolation-filters="sRGB"><feFlood flood-opacity="0" result="BackgroundImageFix"/><feColorMatrix in="SourceAlpha" values="0 0 0 0 0 0 0 0 0 0 0 0 0 0 0 0 0 0 127 0" result="hardAlpha"/><feOffset dy="4"/><feGaussianBlur stdDeviation="11"/><feColorMatrix values="0 0 0 0 0.0925174 0 0 0 0 0.176063 0 0 0 0 0.304167 0 0 0 0.17 0"/><feBlend in2="BackgroundImageFix" result="effect1_dropShadow_9406_182262"/><feBlend in="SourceGraphic" in2="effect1_dropShadow_9406_182262" result="shape"/></filter><filter id="i" x="492.055" y="305.874" width="150.889" height="68.588" filterUnits="userSpaceOnUse" color-interpolation-filters="sRGB"><feFlood flood-opacity="0" result="BackgroundImageFix"/><feColorMatrix in="SourceAlpha" values="0 0 0 0 0 0 0 0 0 0 0 0 0 0 0 0 0 0 127 0" result="hardAlpha"/><feOffset dy="2"/><feGaussianBlur stdDeviation="1.5"/><feColorMatrix values="0 0 0 0 0.101961 0 0 0 0 0.211765 0 0 0 0 0.533333 0 0 0 0.09 0"/><feBlend in2="BackgroundImageFix" result="effect1_dropShadow_9406_182262"/><feBlend in="SourceGraphic" in2="effect1_dropShadow_9406_182262" result="shape"/></filter><filter id="o" x="339.5" y="85.891" width="218" height="335" filterUnits="userSpaceOnUse" color-interpolation-filters="sRGB"><feFlood flood-opacity="0" result="BackgroundImageFix"/><feColorMatrix in="SourceAlpha" values="0 0 0 0 0 0 0 0 0 0 0 0 0 0 0 0 0 0 127 0" result="hardAlpha"/><feOffset dy="4"/><feGaussianBlur stdDeviation="11"/><feColorMatrix values="0 0 0 0 0.0925174 0 0 0 0 0.176063 0 0 0 0 0.304167 0 0 0 0.17 0"/><feBlend in2="BackgroundImageFix" result="effect1_dropShadow_9406_182262"/><feBlend in="SourceGraphic" in2="effect1_dropShadow_9406_182262" result="shape"/></filter><linearGradient id="b" x1="35.077" y1="16.552" x2="46.357" y2="35.795" gradientUnits="userSpaceOnUse"><stop offset=".395" stop-color="#FF3A3A"/><stop offset=".72" stop-color="#D64D12"/><stop offset=".75" stop-color="#87AB49"/></linearGradient><linearGradient id="d" x1="526.626" y1="62.021" x2="537.906" y2="81.264" gradientUnits="userSpaceOnUse"><stop offset=".395" stop-color="#FF3A3A"/><stop offset=".72" stop-color="#D64D12"/><stop offset=".75" stop-color="#87AB49"/></linearGradient><linearGradient id="q" x1="403.079" y1="194.037" x2="468.688" y2="304.874" gradientUnits="userSpaceOnUse"><stop offset=".395" stop-color="#FF3A3A"/><stop offset=".72" stop-color="#D64D12"/><stop offset=".75" stop-color="#87AB49"/></linearGradient></defs></svg>