<svg width="50" height="51" fill="none" xmlns="http://www.w3.org/2000/svg"><g clip-path="url(#a)" fill="#879EC1"><path d="M45.605 30.457H4.395A4.4 4.4 0 0 0 0 34.852v8.789a4.4 4.4 0 0 0 4.395 4.394h4.394V49.5a1.464 1.464 0 1 0 2.93 0v-1.465H38.28V49.5a1.464 1.464 0 1 0 2.93 0v-1.465h4.395A4.4 4.4 0 0 0 50 43.641v-8.79a4.4 4.4 0 0 0-4.395-4.394ZM25.098 42.176H7.324a1.464 1.464 0 1 1 0-2.93h17.774a1.464 1.464 0 1 1 0 2.93Zm5.856 0a1.465 1.465 0 1 1 0-2.93 1.465 1.465 0 0 1 0 2.93Zm5.86 0a1.465 1.465 0 1 1 0-2.93 1.465 1.465 0 0 1 0 2.93Zm5.86 0a1.465 1.465 0 1 1-.001-2.93 1.465 1.465 0 0 1 0 2.93ZM9.146 1.081a1.466 1.466 0 0 0-1.92.778 15.96 15.96 0 0 0-1.269 6.267c0 2.172.426 4.28 1.269 6.267a1.466 1.466 0 0 0 2.698-1.141 13.07 13.07 0 0 1-1.037-5.126c0-1.776.349-3.5 1.037-5.125a1.466 1.466 0 0 0-.778-1.92Zm31.708 14.091a1.466 1.466 0 0 0 1.92-.779 15.964 15.964 0 0 0 1.269-6.267c0-2.171-.426-4.28-1.269-6.267a1.467 1.467 0 0 0-1.92-.778A1.466 1.466 0 0 0 40.076 3a13.07 13.07 0 0 1 1.037 5.125c0 1.777-.349 3.5-1.037 5.126a1.466 1.466 0 0 0 .778 1.92ZM14.546 3.36a1.473 1.473 0 0 0-1.921.777 10.153 10.153 0 0 0-.809 3.99c0 1.383.272 2.724.809 3.989a1.465 1.465 0 1 0 2.698-1.144 7.22 7.22 0 0 1-.577-2.846c0-.987.193-1.945.576-2.845a1.466 1.466 0 0 0-.776-1.921Zm20.908 9.533a1.467 1.467 0 0 0 1.921-.777 10.15 10.15 0 0 0 .809-3.99 10.15 10.15 0 0 0-.809-3.99 1.472 1.472 0 0 0-1.92-.776 1.466 1.466 0 0 0-.778 1.921c.384.9.577 1.858.577 2.845a7.22 7.22 0 0 1-.577 2.846 1.465 1.465 0 0 0 .777 1.92ZM19.943 5.637a1.472 1.472 0 0 0-1.92.777 4.38 4.38 0 0 0-.347 1.712c0 .594.117 1.17.346 1.713a1.465 1.465 0 1 0 2.698-1.144 1.442 1.442 0 0 1-.115-.569c0-.199.039-.389.115-.567a1.466 1.466 0 0 0-.777-1.922Zm10.114 4.979a1.468 1.468 0 0 0 1.921-.777 4.38 4.38 0 0 0 .346-1.713 4.38 4.38 0 0 0-.346-1.712 1.473 1.473 0 0 0-1.921-.777 1.466 1.466 0 0 0-.777 1.922c.076.178.114.368.114.567 0 .2-.038.39-.114.568a1.466 1.466 0 0 0 .777 1.922Zm-.662 12.419c0-.81-.655-1.465-1.465-1.465h-1.465V8.126a1.464 1.464 0 1 0-2.93 0V21.57H22.07c-.81 0-1.465.656-1.465 1.465v4.492h8.79v-4.492Z"/></g><defs><clipPath id="a"><path fill="#fff" transform="translate(0 .965)" d="M0 0h50v50H0z"/></clipPath></defs></svg>