<svg width="50" height="51" fill="none" xmlns="http://www.w3.org/2000/svg"><g clip-path="url(#a)"><path d="M19.658 5.824.908 8.259A1.042 1.042 0 0 0 0 9.301v14.583c0 .576.466 1.042 1.042 1.042h18.75c.575 0 1.041-.466 1.041-1.042V6.855a1.042 1.042 0 0 0-1.175-1.031Z" fill="#F44336"/><path d="M49.646 2.27a1.041 1.041 0 0 0-.82-.26l-25 3.26a1.042 1.042 0 0 0-.909 1.041v17.573c0 .576.466 1.042 1.042 1.042h25c.575 0 1.041-.466 1.041-1.042V3.051c0-.3-.13-.584-.354-.781Z" fill="#4CAF50"/><path d="M19.792 27.009H1.042C.466 27.009 0 27.475 0 28.05v14.584c-.004.527.386.974.908 1.041l18.75 2.446a.988.988 0 0 0 .134 0 1.04 1.04 0 0 0 1.041-1.041V28.05a1.04 1.04 0 0 0-1.041-1.041Z" fill="#2196F3"/><path d="M48.959 27.009h-25c-.576 0-1.042.466-1.042 1.041v17.573c-.004.528.386.975.908 1.042l25 3.26a.988.988 0 0 0 .134 0A1.04 1.04 0 0 0 50 48.884V28.05a1.04 1.04 0 0 0-1.041-1.041Z" fill="#FFC107"/></g><defs><clipPath id="a"><path fill="#fff" transform="translate(0 .965)" d="M0 0h50v50H0z"/></clipPath></defs></svg>