<svg width="20" height="20" fill="none" xmlns="http://www.w3.org/2000/svg"><g clip-path="url(#a)"><path d="M10 2C5.594 2 2.014 5.58 2.014 9.986a7.973 7.973 0 0 0 4.791 7.325c-.027-.55 0-1.239.138-1.845.165-.66 1.019-4.35 1.019-4.35s-.248-.524-.248-1.267c0-1.185.689-2.066 1.542-2.066.716 0 1.074.55 1.074 1.212 0 .716-.468 1.817-.716 2.836-.192.854.413 1.542 1.267 1.542 1.515 0 2.534-1.955 2.534-4.24 0-1.763-1.184-3.057-3.332-3.057-2.424 0-3.939 1.817-3.939 3.828 0 .688.193 1.184.524 1.57.137.165.165.247.11.44-.028.138-.138.496-.165.633-.055.193-.22.276-.413.193-1.13-.468-1.625-1.68-1.625-3.057 0-2.258 1.9-4.984 5.7-4.984 3.057 0 5.067 2.203 5.067 4.571 0 3.14-1.735 5.48-4.296 5.48-.853 0-1.68-.468-1.955-.991 0 0-.468 1.845-.55 2.203-.166.606-.496 1.24-.8 1.707.717.22 1.488.33 2.259.33 4.406 0 7.986-3.58 7.986-7.985C17.986 5.608 14.406 2 10 2Z" fill="#5A78A6"/></g><defs><clipPath id="a"><path fill="#fff" transform="translate(2 2)" d="M0 0h16v16H0z"/></clipPath></defs></svg>