<svg width="1000" height="325" fill="none" xmlns="http://www.w3.org/2000/svg"><g clip-path="url(#a)"><path d="M651.185.5c-70.933 0-134.322 36.766-134.322 104.694 0 77.9 112.423 83.28 112.423 122.415 0 16.478-18.884 31.229-51.137 31.229-45.773 0-79.984-20.611-79.984-20.611l-14.638 68.547s39.41 17.41 91.734 17.41c77.552 0 138.576-38.572 138.576-107.661 0-82.315-112.891-87.536-112.891-123.86 0-12.908 15.502-27.051 47.663-27.051 36.287 0 65.892 14.99 65.892 14.99l14.326-66.205S696.614.5 651.185.5ZM2.218 5.497.5 15.49s29.842 5.461 56.719 16.356c34.606 12.492 37.072 19.765 42.9 42.353l63.511 244.832h85.137L379.926 5.497h-84.941L210.707 218.67 176.316 37.974c-3.153-20.68-19.129-32.477-38.684-32.477H2.218Zm411.865 0L347.449 319.03h80.999L494.847 5.497h-80.764Zm451.759 0c-19.532 0-29.88 10.457-37.474 28.73L709.699 319.03h84.942l16.434-47.468h103.483l9.994 47.468H999.5L934.115 5.497h-68.273Zm11.047 84.707 25.178 117.653h-67.454l42.276-117.653Z" fill="#1434CB"/></g><defs><clipPath id="a"><path fill="#fff" d="M0 0h1000v324.684H0z"/></clipPath></defs></svg>