<svg width="116" height="29" fill="none" xmlns="http://www.w3.org/2000/svg"><path d="M18.415 18.39c3.166-1.717 5.566-3.024 5.773-3.126.662-.348 1.345-1.268 0-1.982a720.5 720.5 0 0 1-5.773-3.126l-4.159 4.147 4.16 4.087Z" fill="#FFD900"/><path d="M14.256 14.303 1.014 27.483c.31.04.661-.041 1.075-.266.869-.47 10.077-5.435 16.326-8.826l-4.159-4.087Z" fill="#F43249"/><path d="m14.256 14.303 4.16-4.127S3.02 1.88 2.088 1.391a1.63 1.63 0 0 0-1.096-.206l13.263 13.118Z" fill="#00EE76"/><path d="M14.256 14.303.993 1.185C.455 1.308 0 1.778 0 2.738V25.93c0 .879.352 1.512 1.014 1.573l13.242-13.2Z" fill="#00D3FF"/><path d="M56.203 11.793c-2.267 0-4.14 1.685-4.14 3.995 0 2.292 1.853 3.995 4.14 3.995s4.14-1.684 4.14-3.995c0-2.31-1.853-3.995-4.14-3.995Zm0 6.4c-1.242 0-2.326-1.003-2.326-2.423 0-1.439 1.085-2.423 2.326-2.423 1.242 0 2.326.984 2.326 2.423 0 1.42-1.084 2.424-2.326 2.424Zm-9.01-6.4c-2.287 0-4.14 1.685-4.14 3.995 0 2.292 1.853 3.995 4.14 3.995s4.14-1.684 4.14-3.995c0-2.31-1.853-3.995-4.14-3.995Zm0 6.4c-1.242 0-2.326-1.003-2.326-2.423 0-1.439 1.084-2.423 2.326-2.423s2.326.984 2.326 2.423c0 1.42-1.065 2.424-2.326 2.424Zm-10.706-5.17v1.686h4.18c-.119.946-.453 1.647-.947 2.12-.61.588-1.557 1.232-3.233 1.232-2.583 0-4.574-2.007-4.574-4.488 0-2.48 1.992-4.526 4.574-4.526 1.4 0 2.406.53 3.155 1.212l1.241-1.193c-1.045-.965-2.444-1.704-4.396-1.704-3.53 0-6.487 2.784-6.487 6.173 0 3.39 2.958 6.173 6.487 6.173 1.912 0 3.332-.605 4.476-1.742 1.163-1.117 1.518-2.69 1.518-3.958 0-.397-.04-.757-.1-1.06l-5.894.076Zm43.81 1.307c-.336-.89-1.4-2.537-3.53-2.537s-3.885 1.61-3.885 3.995c0 2.234 1.755 3.995 4.082 3.995a4.126 4.126 0 0 0 3.43-1.76l-1.4-.91c-.473.663-1.103 1.099-2.03 1.099-.927 0-1.577-.398-1.992-1.213l5.5-2.215-.176-.454Zm-5.6 1.345c-.04-1.534 1.242-2.33 2.148-2.33.73 0 1.321.342 1.538.853l-3.686 1.477ZM70.22 19.52h1.814V7.816H70.22V19.52Zm-2.957-6.836h-.059c-.413-.474-1.182-.89-2.169-.89-2.07 0-3.943 1.761-3.943 3.995s1.892 3.977 3.943 3.977c.986 0 1.754-.417 2.17-.91h.058v.569c0 1.534-.848 2.348-2.208 2.348-1.104 0-1.795-.776-2.07-1.42l-1.577.644a3.927 3.927 0 0 0 3.647 2.366c2.129 0 3.923-1.212 3.923-4.146V12.04h-1.715v.644Zm-2.07 5.51c-1.242 0-2.287-1.003-2.287-2.404 0-1.4 1.046-2.423 2.287-2.423 1.223 0 2.208 1.023 2.208 2.423 0 1.382-.986 2.405-2.208 2.405Zm23.56-10.377h-4.337V19.52h1.814v-4.432h2.523c2.012 0 3.983-1.401 3.983-3.635s-1.971-3.636-3.983-3.636Zm.06 5.644H86.25V9.445h2.563c1.34 0 2.13 1.08 2.13 2.007a2.104 2.104 0 0 1-2.13 2.008Zm11.16-1.686c-1.302 0-2.662.55-3.215 1.799l1.598.644c.355-.644.986-.852 1.656-.852.947 0 1.893.549 1.913 1.514v.114c-.336-.19-1.025-.455-1.893-.455-1.735 0-3.49.928-3.49 2.633 0 1.572 1.42 2.575 2.997 2.575 1.223 0 1.892-.53 2.306-1.155h.059v.909h1.754v-4.488c-.019-2.064-1.616-3.238-3.686-3.238Zm-.218 6.4c-.59 0-1.42-.284-1.42-.983 0-.91 1.025-1.25 1.913-1.25.788 0 1.163.17 1.656.397-.138 1.08-1.104 1.837-2.149 1.837Zm10.233-6.134-2.071 5.055h-.058l-2.149-5.055h-1.952l3.234 7.081-1.834 3.958h1.893L112 12.039h-2.011ZM93.742 19.52h1.814V7.816h-1.814V19.52Z" fill="#5A78A6"/></svg>