<svg width="83" height="33" fill="none" xmlns="http://www.w3.org/2000/svg"><path opacity=".463" fill-rule="evenodd" clip-rule="evenodd" d="M61.26 24.4a2.128 2.128 0 0 1-1.11.37 2.957 2.957 0 0 1 1.11-.37Z" fill="#92ADDA"/><path opacity=".937" fill-rule="evenodd" clip-rule="evenodd" d="M62.179 25.124a.458.458 0 0 1-.358.357.765.765 0 0 0 .18-.428.204.204 0 0 0 .178.071Z" fill="#7398E1"/><path opacity=".224" fill-rule="evenodd" clip-rule="evenodd" d="M53.107 25.195c.205-.009.324.086.357.285a.554.554 0 0 1-.357-.285Z" fill="#7197D6"/><path opacity=".894" fill-rule="evenodd" clip-rule="evenodd" d="M22.464 25.552c1.125-.013 1.435.486.929 1.497-.551.267-1.016.172-1.393-.286-.158-.533-.003-.937.464-1.211Z" fill="#6D6F72"/><path opacity=".939" fill-rule="evenodd" clip-rule="evenodd" d="M4.822 25.766a42.9 42.9 0 0 1 4 .107c1.403.507 1.915 1.493 1.535 2.957-.192.655-.608 1.083-1.25 1.283.067.276.174.537.322.784.268.464.553.915.857 1.355.1.153.16.32.178.498-.595.012-1.19 0-1.785-.035-.436-.77-.864-1.543-1.286-2.317a3.569 3.569 0 0 0-1-.07v2.422H4.822v-6.984Zm1.571 1.425c.622-.02 1.24.004 1.857.071.309.2.523.473.643.82a1.31 1.31 0 0 1-.643.784 9.644 9.644 0 0 1-1.857.107V27.19Z" fill="#6C6E71"/><path opacity=".18" fill-rule="evenodd" clip-rule="evenodd" d="M53.464 25.48c.12.028.24.064.358.107.18.193.371.371.57.535a2.008 2.008 0 0 1-.928-.642Z" fill="#7B9EDB"/><path opacity=".553" fill-rule="evenodd" clip-rule="evenodd" d="M61.536 25.694a.203.203 0 0 1-.072.178 4.71 4.71 0 0 1-.714.321c.225-.22.487-.386.786-.499Z" fill="#7EA3E7"/><path opacity=".09" fill-rule="evenodd" clip-rule="evenodd" d="M54.393 26.122a.603.603 0 0 1 .285.036c.274.159.536.313.786.463a3.041 3.041 0 0 1-1.071-.499Z" fill="#88A9DD"/><path opacity=".671" fill-rule="evenodd" clip-rule="evenodd" d="M60.75 26.193c-.005.09-.053.149-.143.178a6.978 6.978 0 0 1-1.5.393 16.64 16.64 0 0 1 1.643-.57Z" fill="#7B9FE7"/><path opacity=".227" fill-rule="evenodd" clip-rule="evenodd" d="M56.178 26.763a15.42 15.42 0 0 0 2.929 0 .235.235 0 0 1-.143.107c-.904.14-1.81.14-2.714 0a.16.16 0 0 1-.072-.107Z" fill="#8CADE2"/><path opacity=".929" fill-rule="evenodd" clip-rule="evenodd" d="M47.393 27.334c.105-.019.2.005.285.071a22.2 22.2 0 0 0 .786 1.497 32.34 32.34 0 0 0 1.893.427.178.178 0 0 1 0 .214 28.08 28.08 0 0 0-1.178 1.212l-.072.285c.142.56.213 1.13.214 1.71-.614-.22-1.21-.48-1.785-.783a13.96 13.96 0 0 1-1.786.784 7.017 7.017 0 0 1 .214-1.71l-.071-.286a30.587 30.587 0 0 1-1.215-1.319.28.28 0 0 1 .072-.142 15.31 15.31 0 0 0 1.857-.392c.3-.502.561-1.025.786-1.568Z" fill="#FCAF03"/><path opacity=".927" fill-rule="evenodd" clip-rule="evenodd" d="M54.036 27.334c.15.004.256.075.321.214.233.392.447.796.643 1.211a.682.682 0 0 0 .214.214c.58.122 1.163.217 1.75.285a.6.6 0 0 1-.035.285c-.355.426-.736.83-1.143 1.212.017.665.053 1.33.107 1.996a19.026 19.026 0 0 1-1.75-.784c-.574.292-1.157.553-1.75.784.054-.666.09-1.331.107-1.996a13.703 13.703 0 0 1-1.143-1.212.598.598 0 0 1-.035-.285 9.539 9.539 0 0 0 1.857-.356l.857-1.568Z" fill="#FCAF03"/><path opacity=".93" fill-rule="evenodd" clip-rule="evenodd" d="M60.607 27.334c.106-.019.2.005.286.071.245.512.507 1.011.785 1.497.628.162 1.26.304 1.893.427a.178.178 0 0 1 0 .214c-.404.392-.796.795-1.178 1.212l-.072.285c.142.56.213 1.13.215 1.71a13.96 13.96 0 0 1-1.786-.783 13.99 13.99 0 0 1-1.786.784 6.745 6.745 0 0 1 .215-1.71l-.072-.286c-.42-.431-.825-.871-1.214-1.319a.281.281 0 0 1 .071-.142 15.318 15.318 0 0 0 1.857-.392c.3-.502.562-1.025.786-1.568Z" fill="#FCAF03"/><path opacity=".932" fill-rule="evenodd" clip-rule="evenodd" d="M67.25 27.334c.15.004.257.075.322.214.232.392.446.796.642 1.211a.681.681 0 0 0 .215.214c.579.122 1.162.217 1.75.285a.6.6 0 0 1-.036.285c-.357.428-.738.831-1.143 1.212.017.665.053 1.33.107 1.996a19.038 19.038 0 0 1-1.75-.784 19.21 19.21 0 0 1-1.75.784c.055-.666.09-1.331.107-1.996a13.69 13.69 0 0 1-1.142-1.212.6.6 0 0 1-.036-.285 9.541 9.541 0 0 0 1.857-.356l.857-1.568Z" fill="#FCAF03"/><path opacity=".931" fill-rule="evenodd" clip-rule="evenodd" d="M73.821 27.334a.347.347 0 0 1 .286.071 22.2 22.2 0 0 0 .786 1.497 32.02 32.02 0 0 0 1.893.427.177.177 0 0 1 0 .214l-1.215 1.212c.076.66.135 1.325.179 1.996-.614-.22-1.21-.482-1.786-.784-.576.302-1.171.564-1.785.784.008-.626.08-1.244.214-1.853a11.282 11.282 0 0 0-1.25-1.355.6.6 0 0 1-.036-.285c.657-.05 1.3-.168 1.929-.356.299-.502.561-1.025.785-1.568Z" fill="#FCAF03"/><path opacity=".921" fill-rule="evenodd" clip-rule="evenodd" d="M13.607 32.964h-.143c-1.666-.154-2.547-1.069-2.643-2.744-.013-1.363.63-2.242 1.93-2.637 1.465-.28 2.5.255 3.106 1.604.142.488.202.987.179 1.497h-3.643c.033.472.271.793.714.962.696.18 1.327.049 1.893-.392.135.207.302.397.5.57a.564.564 0 0 1 .036.534 3.559 3.559 0 0 1-1.929.606Zm-.428-4.276c.782-.097 1.234.235 1.357.998-.74.023-1.478 0-2.214-.072.141-.45.427-.759.857-.926Z" fill="#6D6E71"/><path opacity=".919" fill-rule="evenodd" clip-rule="evenodd" d="M27.178 32.964h-.142C25 32.7 24.13 31.536 24.428 29.472c.398-1.252 1.255-1.917 2.572-1.996 1.446.09 2.28.85 2.5 2.281.036.308.047.617.036.927-1.215-.012-2.43 0-3.643.035.345.897.988 1.206 1.928.927.267-.1.517-.232.75-.392.238.285.44.594.607.926-.555.539-1.222.8-2 .784Zm-.428-4.276c.505-.059.91.107 1.214.499a.8.8 0 0 1 .143.499c-.762.012-1.524 0-2.286-.036.183-.455.492-.776.929-.962Z" fill="#6D6E71"/><path opacity=".916" fill-rule="evenodd" clip-rule="evenodd" d="M40.178 27.476a3.586 3.586 0 0 1 2 .606l.143.214a6.82 6.82 0 0 1-.607.962c-.514-.48-1.121-.658-1.821-.534-.41.136-.457.35-.143.641l1.643.357c1.014.444 1.336 1.193.964 2.245a2.147 2.147 0 0 1-1.321.89 9.469 9.469 0 0 1-1.643 0 3.264 3.264 0 0 1-1.5-.783 10 10 0 0 0 .5-.82.521.521 0 0 1 .214-.143c.617.53 1.331.732 2.143.606.35-.201.373-.439.071-.713a46.035 46.035 0 0 0-1.571-.356c-.905-.273-1.274-.88-1.107-1.817.128-.556.462-.937 1-1.14.35-.098.694-.169 1.035-.215Z" fill="#6D6E71"/><path opacity=".92" fill-rule="evenodd" clip-rule="evenodd" d="M16.107 27.69h1.572c.375 1.1.78 2.194 1.214 3.279a68.147 68.147 0 0 0 1.214-3.279c.5-.012 1 0 1.5.036a.26.26 0 0 1 .072.107 218.152 218.152 0 0 1-1.965 4.846 4.634 4.634 0 0 1-1.607 0 107.065 107.065 0 0 1-2-4.989Z" fill="#6D6E71"/><path opacity=".966" fill-rule="evenodd" clip-rule="evenodd" d="M22.178 27.69h1.358v5.06h-1.358v-5.06Z" fill="#6C6D70"/><path opacity=".918" fill-rule="evenodd" clip-rule="evenodd" d="M29.822 27.69h1.5c.283 1.014.557 2.035.821 3.065l1-2.994a7.03 7.03 0 0 1 1.393-.07c.299 1.001.62 1.999.964 2.993.33-.96.616-1.934.857-2.923a4.04 4.04 0 0 1 .75-.07c.275-.01.537.025.786.106-.483 1.632-.995 3.26-1.536 4.882a8.526 8.526 0 0 1-1.535.072 79.053 79.053 0 0 0-.965-3.136l-.964 3.136a8.7 8.7 0 0 1-1.572-.072 57.333 57.333 0 0 1-1.5-4.989Z" fill="#6D6E71"/><path d="M37.167 14.607c0 3.558-2.768 6.18-6.165 6.18-3.397 0-6.165-2.622-6.165-6.18 0-3.584 2.768-6.18 6.165-6.18 3.397 0 6.165 2.596 6.165 6.18Zm-2.698 0c0-2.224-1.605-3.745-3.467-3.745s-3.466 1.521-3.466 3.745c0 2.201 1.604 3.745 3.466 3.745s3.467-1.547 3.467-3.745Z" fill="#EA4335"/><path d="M50.468 14.607c0 3.558-2.769 6.18-6.166 6.18-3.397 0-6.165-2.622-6.165-6.18 0-3.58 2.768-6.18 6.165-6.18 3.397 0 6.166 2.596 6.166 6.18Zm-2.7 0c0-2.224-1.604-3.745-3.466-3.745s-3.466 1.521-3.466 3.745c0 2.201 1.604 3.745 3.466 3.745s3.467-1.547 3.467-3.745Z" fill="#FBBC05"/><path d="M63.213 8.8v11.096c0 4.564-2.676 6.428-5.84 6.428-2.98 0-4.772-2.003-5.448-3.642l2.35-.983c.418 1.006 1.443 2.193 3.095 2.193 2.025 0 3.28-1.257 3.28-3.623v-.889h-.094c-.604.75-1.768 1.405-3.236 1.405-3.073 0-5.888-2.692-5.888-6.156 0-3.489 2.815-6.203 5.888-6.203 1.465 0 2.63.655 3.236 1.382h.094V8.802h2.563V8.8Zm-2.372 5.83c0-2.177-1.443-3.768-3.28-3.768-1.862 0-3.422 1.59-3.422 3.767 0 2.154 1.56 3.723 3.422 3.723 1.837 0 3.28-1.569 3.28-3.723Z" fill="#4285F4"/><path d="M67.439 2.296v18.113h-2.632V2.296h2.632Z" fill="#34A853"/><path d="m77.697 16.641 2.094 1.405c-.676 1.006-2.305 2.739-5.12 2.739-3.491 0-6.099-2.714-6.099-6.18 0-3.676 2.63-6.181 5.797-6.181 3.19 0 4.75 2.552 5.259 3.931l.28.703-8.216 3.422c.63 1.24 1.607 1.872 2.979 1.872 1.374 0 2.327-.68 3.026-1.71Zm-6.448-2.223 5.492-2.294c-.302-.772-1.211-1.31-2.28-1.31-1.372 0-3.281 1.218-3.212 3.604Z" fill="#EA4335"/><path d="M14.873 13v-2.623h8.787c.085.457.13.997.13 1.583 0 1.967-.535 4.4-2.258 6.133-1.677 1.756-3.819 2.692-6.656 2.692-5.26 0-9.681-4.308-9.681-9.597 0-5.29 4.422-9.597 9.68-9.597 2.91 0 4.983 1.148 6.54 2.644l-1.84 1.85c-1.116-1.053-2.63-1.872-4.702-1.872-3.84 0-6.844 3.113-6.844 6.975 0 3.862 3.004 6.975 6.844 6.975 2.491 0 3.91-1.006 4.819-1.92.737-.741 1.222-1.8 1.413-3.247L14.873 13Z" fill="#4285F4"/></svg>