<svg width="446" height="355" fill="none" xmlns="http://www.w3.org/2000/svg"><path d="M413.36 251.784v-6.115a2 2 0 0 0-1.425-1.916l-230.889-69.32a1.998 1.998 0 0 0-1.302.052l-65.311 25.483a2 2 0 0 0-1.273 1.863v6.225a2 2 0 0 0 .997 1.73l184.384 106.947a6.999 6.999 0 0 0 7.078-.032l106.76-63.196a2 2 0 0 0 .981-1.721Z" fill="#182841"/><g filter="url(#a)"><path d="m305.643 333.861 111.806-68.092c1.328-.809 1.265-2.758-.112-3.479L220.613 159.232a2.003 2.003 0 0 0-1.897.022l-104.525 57.874a2 2 0 0 0-1.031 1.75v6.412a2 2 0 0 0 .997 1.73L298.49 333.937a6.999 6.999 0 0 0 7.153-.076Z" fill="#C7D2EC"/></g><path d="M413.36 251.784v-6.115a2 2 0 0 0-1.425-1.916l-230.889-69.32a1.998 1.998 0 0 0-1.302.052l-65.311 25.483a2 2 0 0 0-1.273 1.863v6.225a2 2 0 0 0 .997 1.73l184.384 106.947a6.999 6.999 0 0 0 7.078-.032l106.76-63.196a2 2 0 0 0 .981-1.721Z" fill="#182841"/><path d="m445.461 111.178-30.713 130.846a2 2 0 0 1-2.955 1.27L227.815 135.826a2 2 0 0 1-.947-2.146L254.832 3.384c.065-.302.199-.586.393-.828l.948-1.187a2 2 0 0 1 2.563-.484l185.304 107.01a3 3 0 0 1 1.421 3.283Z" fill="#97ADCE"/><path d="m443.42 111.373-29.728 130.63a2 2 0 0 1-2.959 1.283L226.351 135.649a2.002 2.002 0 0 1-.942-2.173l29.727-130.06a2 2 0 0 1 2.954-1.284L442.474 109.2a2 2 0 0 1 .946 2.173Z" fill="#293A56"/><path d="m435.267 112.483-26.953 117.684a2 2 0 0 1-2.944 1.288L230.078 130.921a2 2 0 0 1-.954-2.184L256.645 9.348a2 2 0 0 1 2.959-1.277L434.328 110.31a1.999 1.999 0 0 1 .939 2.173Z" fill="url(#b)"/><path d="m413.031 245.075-107.399 61.692a7.999 7.999 0 0 1-7.981-.007L114.418 201.081a1 1 0 0 1 .002-1.734l112.037-64.272a1 1 0 0 1 1.002.004l185.577 108.265a1 1 0 0 1-.005 1.731Z" fill="#293B56"/><path d="m403.183 243.34-64.575 37.064a.998.998 0 0 1-.996 0L162.465 179.655a1 1 0 0 1-.002-1.733l65.151-37.634a1 1 0 0 1 1.002.001l174.571 101.319a1 1 0 0 1-.004 1.732Z" fill="#495D7D"/><mask id="c" style="mask-type:alpha" maskUnits="userSpaceOnUse" x="161" y="139" width="243" height="141"><path d="m402.603 242.761-64.575 37.064a1 1 0 0 1-.996 0L161.885 179.076a1 1 0 0 1-.002-1.733l65.151-37.634a.997.997 0 0 1 1.002.001l174.571 101.319a1 1 0 0 1-.004 1.732Z" fill="#30486D"/></mask><g mask="url(#c)" fill-rule="evenodd" clip-rule="evenodd"><path d="m239.238 181.285 8.281-6.765-49.51-29.047 1.172-1.997 20.094 11.788 8.123-5.501-11.435-6.602 1.158-2.005 20.426 11.793 6.126-4.218 1.313 1.908-5.218 3.592 10.258 5.923 5.754-4.438 1.414 1.834-4.999 3.856 10.546 6.089 5.17-4.231 1.467 1.792-4.493 3.676 10.592 6.116.212-.188a180.3 180.3 0 0 0 1.99-1.813 753.28 753.28 0 0 0 4.646-4.321l1.584 1.689a732.314 732.314 0 0 1-4.661 4.336c-.616.567-1.188 1.09-1.659 1.516l10.001 5.774 5.748-5.222 1.557 1.714-5.2 4.724 9.758 5.633 5.561-4.044 1.362 1.872-4.728 3.439 10.203 5.891 5.278-4.222 1.447 1.808-4.572 3.657 9.953 5.746 5.329-4.264 1.447 1.809-4.623 3.699 10.67 6.16 5.248-4.145 1.436 1.817-4.526 3.574 9.883 5.706 4.762-3.684a2.317 2.317 0 0 1 2.566-.179l12.645 7.725-5.505 4.491 10.638 6.142a664.298 664.298 0 0 0 1.701-1.2c1.277-.902 2.567-1.764 3.586-2.486l1.737 1.158c-1.019.723-2.709 2.317-3.986 3.22l-.828.584 9.961 5.751 5.183-3.704 2.079 1.428-5.059 3.548 12.337 7.122-1.158 2.006-20.208-11.667-9.158 6.312 19.531 11.459-1.171 1.997-15.006-8.803-8.266 5.511 12.278 7.08-1.156 2.007-10.953-6.317-9.212 6.19 13.796 7.963-1.158 2.006-34.651-20.001-8.742 6.566 26.608 15.484-1.165 2.002-13.824-8.045-12.705 9.142-1.353-1.88 11.866-8.537-9.604-5.589-13.112 8.511-1.261-1.943 12.131-7.873-10.309-5.999a379.292 379.292 0 0 0-6.616 4.41 101.739 101.739 0 0 0-3.037 2.147c-.386.288-.675.516-.862.678-.092.08-.136.124-.149.137a.723.723 0 0 0 .054-.074c.009-.015.156-.231.156-.56h-2.316c0-.359.162-.613.201-.675a1.82 1.82 0 0 1 .185-.242c.105-.115.231-.231.353-.337.251-.217.594-.485.993-.783a103.14 103.14 0 0 1 3.113-2.201 357.376 357.376 0 0 1 5.686-3.803l-9.816-5.712-11.651 7.768-1.285-1.927 10.707-7.139-13.5-7.856-10.35 7.627-1.374-1.864 9.542-7.032-129.853-75.566 1.165-2.002 70.494 41.023 7.741-6.667-66.081-38.142 1.158-2.006 64.173 37.041 8.497-6.439-1.258-.821-70.254-40.512 1.157-2.007 69.589 40.13Zm2.874 4.518-8.429 6.388 8.814 5.087 8.447-6.57-.114-.065-8.718-4.84Zm10.998 6.155-8.448 6.57 10.039 5.794 9.116-6.19-10.707-6.174Zm12.937 7.46-9.118 6.19 10.495 6.058 8.936-6.301-10.313-5.947Zm12.524 7.222-8.937 6.302 9.411 5.432 9.342-6.073-9.816-5.661Zm12.068 6.959-9.343 6.074 10.598 6.117 8.982-6.288-10.237-5.903Zm12.451 7.18-8.983 6.289 9.87 5.696 8.735-6.436-9.622-5.549Zm11.812 6.812-8.736 6.437 9.942 5.738 9.104-6.23-10.31-5.945Zm12.536 7.229-9.106 6.23 10.244 5.913 9.388-6.073-10.526-6.07Zm12.78 7.37-9.389 6.074 10.725 6.19 9.393-6.077-10.729-6.187Zm12.983 7.487-9.394 6.077 10.118 5.841 9.211-6.189-9.935-5.729Zm-25.42-17.333 9.731 5.612 8.787-5.483-10.429-6.118a416.77 416.77 0 0 1-5.653 4.236 136.82 136.82 0 0 1-2.436 1.753Zm5.93-7.256-9.578-5.62-8.543 5.846 9.963 5.746c.154-.101.332-.221.532-.358.728-.5 1.697-1.197 2.762-1.979a409.427 409.427 0 0 0 4.864-3.635Zm-20.347-1.057 8.561-5.858-10.572-6.202-8.644 5.915 10.655 6.145Zm-12.881-7.428 8.663-5.927-10.105-5.929-8.487 6.13 9.929 5.726Zm-12.128-6.994 8.504-6.142-10.248-6.012-8.23 6.402 9.974 5.752Zm-12.14-7.001 8.246-6.415-10.487-6.152-7.951 6.69 10.192 5.877Zm-12.326-7.108 7.966-6.702-9.508-5.579a1026.978 1026.978 0 0 1-5.751 4.184 339.288 339.288 0 0 1-2.942 2.103l-.072.051 10.307 5.943Zm-3.719-13.558-10.521-6.173-8.339 6.813 1.302.85 8.742 4.853c.246-.168.571-.394.967-.673.797-.561 1.819-1.293 2.92-2.087a958.998 958.998 0 0 0 4.929-3.583Zm88.384 51.854-8.768 5.471 10.436 6.018 8.304-5.639-9.972-5.85Zm12.184 7.148-8.287 5.627 10.513 6.062 8.283-5.523-10.509-6.166Zm-126.356-45.676-7.748 6.672 10.284 5.985 8.241-6.437-10.777-6.22Zm12.94 7.469-8.248 6.443 9.835 5.723 8.885-6.122-10.472-6.044Zm12.693 7.326-8.893 6.128 10.482 6.1c1.565-1.206 5.569-4.263 8.429-6.445l-10.018-5.783Zm12.192 7.037a4869.63 4869.63 0 0 0-8.44 6.449l10.024 5.834 9.012-6.167-10.596-6.116Zm12.82 7.4-9.02 6.172 9.841 5.727 9.057-6.197-9.878-5.702Zm12.102 6.986-9.065 6.203 10.611 6.175 9.105-6.23-10.651-6.148Zm12.876 7.432-9.113 6.235 9.401 5.471 9.398-6.115-9.686-5.591Zm11.936 6.889-9.407 6.122 10.697 6.225 8.734-6.561-10.024-5.786Zm-19.93 16.258.001-.002-.001.002Zm65.898-19.598 9.143-6.301-10.505-6.065-8.912 6.338 10.274 6.028Zm-12.463-7.313 8.895-6.327-9.697-5.598-9.138 6.094 9.94 5.831Zm-12.16-7.134 9.121-6.083-10.626-6.135-8.919 6.103 10.424 6.115Zm-12.631-7.41 8.902-6.092-10.336-5.967-8.826 6.039 10.26 6.02Zm-12.468-7.315 8.81-6.028-10.181-5.878a1016.625 1016.625 0 0 0-5.713 4.066 339.401 339.401 0 0 0-2.78 2.015l-.029.021 9.893 5.804Zm-12.061-7.076c.225-.171.505-.379.824-.614.748-.551 1.733-1.263 2.803-2.031 1.588-1.14 3.371-2.408 4.855-3.46l-9.888-5.709-8.395 6.064 9.801 5.75Zm-11.983-7.031 8.379-6.052-10.62-6.131-7.895 6.237 10.136 5.946Zm-12.28-7.204 7.881-6.225-10.014-5.782-8.001 6.061 10.134 5.946Zm-12.296-7.214 7.987-6.049-10.012-5.78-8.324 5.757 10.349 6.072Zm-12.552-7.364 8.308-5.746-10.483-6.053-7.79 5.953 9.965 5.846Zm-12.122-7.112-9.62-5.644 7.432-6.049 9.962 5.752-7.774 5.941Zm-4.334-12.932-7.418 6.038-11.653-6.837 8.139-5.513 10.932 6.312Zm120.592 66.95 4.748-4.415-9.841-5.211-5.07 3.758 10.163 5.868Z" fill="#92BD4B"/><path d="m239.238 182.442 8.281-6.765-49.51-29.047 1.172-1.997 20.094 11.789 8.123-5.501-11.435-6.602 1.158-2.006 20.426 11.793 6.126-4.217 1.313 1.907-5.218 3.592 10.258 5.923 5.754-4.438 1.414 1.834-4.999 3.856 10.546 6.089 5.17-4.231 1.467 1.792-4.493 3.677 10.592 6.115.212-.187c.51-.456 1.211-1.096 1.99-1.813a721.707 721.707 0 0 0 4.646-4.322l1.584 1.689a760.684 760.684 0 0 1-4.661 4.337c-.616.566-1.188 1.09-1.659 1.515l10.001 5.774 5.748-5.222 1.557 1.715-5.2 4.723 9.758 5.633 5.561-4.044 1.362 1.873-4.728 3.439 10.203 5.891 5.278-4.223 1.447 1.808-4.571 3.658 9.952 5.746 5.329-4.264 1.447 1.808-4.623 3.699 10.67 6.16 5.248-4.145 1.436 1.817-4.526 3.574 9.883 5.706 4.762-3.684a2.316 2.316 0 0 1 2.566-.178l12.935 7.392-5.795 4.823 10.638 6.142.072-.05 1.629-1.15c1.277-.902 3.725-2.342 4.744-3.064l1.737 1.158c-1.019.722-3.867 2.895-5.144 3.798l-.828.584 9.961 5.751 6.432-4.344 1.736 1.158-5.965 4.458 12.337 7.122-1.158 2.006-20.208-11.667-9.158 6.312 19.531 11.459-1.171 1.998-15.006-8.804-8.266 5.511 12.278 7.081-1.156 2.006-10.953-6.316-9.212 6.189 13.796 7.964-1.158 2.005-34.651-20.001-8.742 6.566 26.608 15.484-1.165 2.002-13.824-8.045-12.705 9.142-1.352-1.88 11.865-8.537-9.604-5.589-13.112 8.511-1.261-1.943 12.131-7.873-10.309-5.999a379.292 379.292 0 0 0-6.616 4.41 101.52 101.52 0 0 0-3.037 2.148c-.386.287-.675.515-.862.677-.092.08-.136.124-.149.138.007-.009.028-.034.054-.075.009-.015.156-.231.156-.56h-2.316c0-.358.162-.613.201-.675a1.8 1.8 0 0 1 .185-.241c.105-.116.231-.232.353-.337.251-.218.594-.486.993-.783.803-.6 1.904-1.373 3.113-2.202a364.315 364.315 0 0 1 5.686-3.803l-9.816-5.712-11.651 7.768-1.285-1.927 10.707-7.138-13.5-7.857-10.35 7.628-1.374-1.865 9.543-7.032-129.854-75.566 1.165-2.002 70.494 41.023 7.741-6.667-66.081-38.142 1.158-2.006 64.173 37.041 8.497-6.439-1.258-.82-70.254-40.513 1.157-2.007 69.589 40.13Zm2.874 4.518-8.429 6.388 8.814 5.087 8.447-6.569-.114-.066-8.718-4.84Zm10.998 6.155-8.448 6.57 10.039 5.794 9.116-6.19-10.707-6.174Zm12.937 7.46-9.118 6.19 10.495 6.058 8.936-6.301-10.313-5.947Zm12.524 7.222-8.937 6.302 9.411 5.432 9.342-6.073-9.816-5.661Zm12.068 6.959-9.343 6.074 10.598 6.117 8.982-6.287-10.237-5.904Zm12.451 7.18-8.983 6.289 9.87 5.697 8.735-6.437-9.622-5.549Zm11.812 6.812-8.736 6.437 9.942 5.739 9.104-6.23-10.31-5.946Zm12.536 7.229-9.106 6.231 10.244 5.912 9.388-6.073-10.526-6.07Zm12.78 7.37-9.389 6.074 10.725 6.19 9.393-6.077-10.729-6.187Zm12.983 7.487-9.394 6.078 10.118 5.84 9.211-6.189-9.935-5.729Zm-25.42-17.333 9.731 5.612 8.787-5.483-10.429-6.118a416.77 416.77 0 0 1-5.653 4.236c-.898.659-1.741 1.268-2.436 1.753Zm5.93-7.256-9.578-5.62-8.543 5.846 9.963 5.746c.154-.101.332-.221.532-.358.728-.499 1.697-1.197 2.762-1.978a409.313 409.313 0 0 0 4.864-3.636Zm-20.347-1.057 8.561-5.858-10.572-6.202-8.644 5.915 10.655 6.145Zm-12.881-7.428 8.663-5.927-10.105-5.928-8.487 6.129 9.929 5.726Zm-12.128-6.994 8.504-6.142-10.248-6.012-8.23 6.402 9.974 5.752Zm-12.14-7.001 8.246-6.414-10.487-6.153-7.951 6.69 10.192 5.877Zm-12.326-7.108 7.966-6.702-9.508-5.578a1043.734 1043.734 0 0 1-5.751 4.183 318.963 318.963 0 0 1-2.942 2.103l-.072.051 10.307 5.943ZM260.17 183.1l-10.521-6.173-8.339 6.812 1.302.85 8.742 4.853c.246-.168.571-.394.967-.672.797-.561 1.819-1.293 2.92-2.088 1.634-1.179 3.438-2.492 4.929-3.582Zm88.384 51.853-8.768 5.471 10.436 6.018 8.304-5.638-9.972-5.851Zm12.184 7.148-8.287 5.627 10.513 6.062 8.283-5.523-10.509-6.166Zm-126.356-45.676-7.748 6.673 10.284 5.984 8.241-6.437-10.777-6.22Zm12.94 7.469-8.248 6.443 9.835 5.723 8.885-6.121-10.472-6.045Zm12.693 7.327-8.893 6.127 10.482 6.1c1.565-1.205 5.569-4.263 8.429-6.445l-10.018-5.782Zm12.192 7.037c-2.531 1.93-6.402 4.885-8.44 6.448l10.024 5.834 9.012-6.166-10.596-6.116Zm12.82 7.4-9.02 6.172 9.841 5.726 9.057-6.197-9.878-5.701Zm12.102 6.985-9.065 6.203 10.611 6.175 9.105-6.23-10.651-6.148Zm12.876 7.432-9.113 6.236 9.401 5.47 9.398-6.115-9.686-5.591Zm11.936 6.89-9.407 6.121 10.697 6.225 8.734-6.56-10.024-5.786Zm-19.93 16.257.001-.001-.001.001Zm65.899-19.598 9.142-6.301-10.505-6.065-8.912 6.338 10.275 6.028Zm-12.464-7.312 8.895-6.327-9.697-5.599-9.138 6.094 9.94 5.832Zm-12.16-7.135 9.121-6.083-10.626-6.135-8.919 6.103 10.424 6.115Zm-12.631-7.41 8.902-6.092-10.336-5.967-8.826 6.04 10.26 6.019Zm-12.468-7.315 8.81-6.028-10.181-5.878a1019.533 1019.533 0 0 0-5.713 4.067 319.398 319.398 0 0 0-2.78 2.014l-.029.021 9.893 5.804Zm-12.061-7.076c.225-.171.505-.379.824-.614.748-.55 1.733-1.263 2.803-2.031 1.588-1.14 3.371-2.408 4.855-3.46l-9.888-5.709-8.395 6.064 9.801 5.75Zm-11.983-7.03 8.379-6.053-10.62-6.131-7.895 6.237 10.136 5.947Zm-12.28-7.205 7.881-6.225-10.014-5.781-8.001 6.061 10.134 5.945Zm-12.296-7.213 7.987-6.05-10.012-5.78-8.324 5.758 10.349 6.072Zm-12.552-7.365 8.308-5.746-10.483-6.053-7.79 5.953 9.965 5.846Zm-12.122-7.112-9.62-5.643 7.432-6.05 9.962 5.752-7.774 5.941Zm-4.334-12.932-7.418 6.038-11.653-6.837 8.139-5.512 10.932 6.311Zm120.592 66.95 5.738-4.844-9.673-5.959-6.228 4.935 10.163 5.868Z" fill="#293A56"/></g><g filter="url(#d)"><ellipse rx="9.665" ry="6.308" transform="matrix(.49701 .86774 -.86429 .503 150.551 193.465)" fill="#30ACA4" fill-opacity=".51"/></g><g filter="url(#e)"><ellipse rx="7.407" ry="4.264" transform="matrix(.49701 .86774 -.86429 .503 150.123 193.748)" fill="#1F9189" fill-opacity=".35"/></g><g filter="url(#f)"><path d="m149.746 193.985-65.44 37.944" stroke="url(#g)" stroke-width="3"/></g><g opacity=".5" filter="url(#h)"><ellipse rx="13.142" ry="8.641" transform="matrix(.50257 .86454 -.8675 .49744 290.306 126.351)" fill="#92BD4B"/></g><g opacity=".5" filter="url(#i)"><ellipse rx="7.325" ry="4.248" transform="matrix(.50257 .86454 -.8675 .49744 289.879 126.629)" fill="#92BD4B"/></g><g filter="url(#j)"><path d="m289.502 126.863-65.44 37.386" stroke="url(#k)" stroke-width="3"/></g><g opacity=".5" filter="url(#l)"><ellipse rx="13.111" ry="8.579" transform="rotate(60.07 83.48 289.376) skewX(.14)" fill="#92BD4B"/></g><g opacity=".5" filter="url(#m)"><ellipse rx="7.307" ry="4.218" transform="rotate(60.07 83.027 289.147) skewX(.14)" fill="#92BD4B"/></g><g filter="url(#n)"><path d="m291.814 73.16-64.81 37.386" stroke="url(#o)" stroke-width="3"/></g><g opacity=".5" filter="url(#p)"><ellipse rx="13.321" ry="8.736" transform="rotate(59.961 87.284 376.657) skewX(-.079)" fill="#92BD4B"/></g><g opacity=".5" filter="url(#q)"><ellipse rx="7.425" ry="4.295" transform="rotate(59.96 86.822 376.424) skewX(-.079)" fill="#92BD4B"/></g><g filter="url(#r)"><path d="m368.842 113.064-66.069 37.944" stroke="url(#s)" stroke-width="3"/></g><g opacity=".5" filter="url(#t)"><ellipse rx="13.111" ry="8.579" transform="rotate(60.07 25.634 405.152) skewX(.14)" fill="#92BD4B"/></g><g opacity=".5" filter="url(#u)"><ellipse rx="7.307" ry="4.218" transform="rotate(60.07 25.181 404.924) skewX(.14)" fill="#92BD4B"/></g><g filter="url(#v)"><path d="m363.166 181.303-64.811 37.386" stroke="url(#w)" stroke-width="3"/></g><path d="m165.074 103.657-44.758-10.968c0 10.359.614 53.625 2.453 74.345 2.618 29.491 6.003 41.565 14.102 60.938 7.958 19.038 21.459 39.001 30.656 51.188 7.357 9.751 20.233 23.563 25.751 29.251 13.488 0 31.269 0 47.21-9.141 12.753-7.312 24.525-31.891 28.816-43.266v-81.658l-56.407-59.72-19.619-13.406-28.204 2.437Z" fill="#C4D6EE"/><path d="M227.091 290.561c-13.191 7.254-29.516 5.44-36.03 3.627-4.885-3.224-17.587-14.75-29.312-35.061-14.656-25.388-24.426-44.127-28.701-68.911-3.33-19.304-4.575-75.616-4.575-75.616s1.155-.577 2.132-1.154c33.709 16.442 54.757 12.09 61.067 7.859 14.656 26.113 46.004 52.388 59.846 62.262v53.194c0 26.598-7.939 44.732-24.427 53.8Z" fill="#293A56"/><path d="M224.818 291.281c-13.218 7.283-29.577 5.462-36.104 3.641-4.896-3.237-17.624-14.809-29.373-35.202-14.686-25.492-24.477-44.307-28.76-69.192-3.427-19.908-3.06-59.683-2.448-77.082 33.778 16.509 54.869 12.139 61.193 7.891 14.686 26.22 46.098 52.601 59.969 62.515v53.411c0 26.705-7.955 44.914-24.477 54.018Z" fill="url(#x)"/><path d="M192.957 102.54c-3.052 3.109-13.307 8.58-29.911 5.595-16.603-2.984-35.404-10.776-42.73-14.299l10.988-5.595c9.157 5.596 21.537 11.382 39.067 13.056 17.014 1.624 26.781-1.643 30.982-3.787l1.982-1.187c-.404.299-1.058.716-1.982 1.187l-8.396 5.03Z" fill="url(#y)"/><path d="M192.959 101.795c10.147 25.546 51.74 61.407 71.268 76.145l10.268-6.755c-4.228-2.865-17.032-12.404-34.426-27.633-17.395-15.229-31.809-38.277-36.843-47.898l-10.267 6.141Z" fill="url(#z)"/><path d="m274.495 171.268-10.582 6.049s-.117 54.808-.587 75.618c-.471 20.809-15.873 40.127-22.928 46.58 25.867-9.679 32.725-41.943 32.921-56.864l1.176-71.383Z" fill="url(#A)"/><ellipse rx="35.786" ry="36.247" transform="matrix(.7101 .7041 -.25457 .96706 184.77 210.344)" fill="#92BD4B"/><path fill-rule="evenodd" clip-rule="evenodd" d="M152.8 194.374c.637-.314 1.458.642 1.585 1.821.081.743-.151 1.342-.563 1.508-2.438.976-3.735 2.33-3.552 4.014.585 5.405 16.185 12.171 34.844 15.112.643.101 1.281.197 1.914.286.222.032.399-.139.475-.429 1.294-4.913 5.229-6.032 8.79-2.501 1.908 1.891 3.956 4.021 5.896 3.993 9.73-.143 16.037-2.229 15.648-5.811-.173-1.603-1.667-3.326-4.169-5.033-.461-.314-.833-1.013-.913-1.748-.124-1.141.492-1.816 1.202-1.283 4.856 3.642 7.922 7.663 8.343 11.555.79 7.29-7.922 12.074-21.059 12.697-.399.019-.7.382-.841.918-1.293 4.913-5.229 6.032-8.79 2.501a10.846 10.846 0 0 1-.517-.55c-1.544-1.753-3.214-3.525-4.879-3.788-20.993-3.308-38.873-13.946-39.936-23.76-.436-4.024 2.022-7.284 6.522-9.502Z" fill="#15243B"/><ellipse rx="4.54" ry="4.599" transform="matrix(.7101 .7041 -.25457 .96706 193.952 223.08)" fill="#92BD4B"/><path d="M174.905 185.443c-2.966 3.776-3.952 9.883-5.588 6.909-1.636-2.973-.558-8.445 2.409-12.221 2.966-3.776 6.697-4.427 8.333-1.453 1.636 2.974-2.188 2.989-5.154 6.765Zm-5.196 13.971c-.322 1.892-1.313 2.837-2.214 2.11-.901-.728-1.37-2.852-1.048-4.745.323-1.892 1.314-2.837 2.214-2.109.901.727 1.37 2.851 1.048 4.744Z" opacity=".32" fill="#E5E5E5"/><path d="M170.24 229.609c-.698-1.579.036-2.339 2.439-1.193 4.883 3.115 3.391 5.127 10.179 10.515 6.789 5.388 11.194 5.089 13.563 4.368 1.895-.577 3.867-1.945 3.561-1.076-.815 1.686-4.563 4.545-13.035 2.489-10.59-2.57-15.637-12.681-16.707-15.103Z" fill="#080F1B" fill-opacity=".11"/><path d="M211.133 211.99c1.032.064 1.669-1.241 1.354-2.928-2.031-10.876-6.293-21.338-12.067-29.519-6.31-8.941-13.937-14.465-21.286-15.415-7.35-.951-13.852 2.744-18.149 10.313-3.924 6.913-5.731 16.566-5.141 27.234.093 1.679 1.104 3.238 2.17 3.446 1.049.205 1.756-.98 1.674-2.631-.455-9.107 1.114-17.34 4.472-23.256 3.723-6.559 9.358-9.761 15.726-8.937 6.368.824 12.977 5.61 18.445 13.358 4.918 6.968 8.571 15.847 10.365 25.099.332 1.715 1.388 3.17 2.437 3.236Zm-49.254 10.736c-.901.487-1.175 2.199-.548 3.789 2.957 7.498 6.918 14.165 11.505 19.332 5.172 5.827 10.915 9.493 16.518 10.546 5.603 1.053 10.82-.554 15.008-4.621 3.714-3.608 6.474-9.012 8.023-15.663.328-1.411-.303-3.292-1.337-4.143-1.041-.857-2.094-.343-2.436 1.067-1.357 5.597-3.715 10.148-6.865 13.208-3.629 3.525-8.15 4.917-13.005 4.005-4.855-.912-9.831-4.089-14.313-9.138-3.891-4.384-7.262-10.012-9.806-16.343-.64-1.593-1.837-2.529-2.744-2.039Z" fill="#15243B"/><g opacity=".5" filter="url(#B)"><ellipse rx="11.975" ry="7.861" transform="rotate(59.904 -50.448 280.88) skewX(-.191)" fill="#92BD4B"/></g><g opacity=".5" filter="url(#C)"><ellipse rx="9.177" ry="5.314" transform="rotate(59.904 -51.02 280.591) skewX(-.191)" fill="#92BD4B"/></g><g filter="url(#D)"><path d="m216.858 184.323-81.799 46.872" stroke="url(#E)" stroke-width="3"/></g><g filter="url(#F)"><ellipse rx="13.042" ry="8.545" transform="rotate(60.003 -54.229 211.528) skewX(.005)" fill="url(#G)"/></g><g filter="url(#H)"><ellipse rx="9.605" ry="6.293" transform="rotate(60.003 -54.23 211.527) skewX(.005)" fill="url(#I)"/></g><g filter="url(#J)"><ellipse rx="7.361" ry="4.254" transform="rotate(60.003 -54.686 211.297) skewX(.005)" fill="url(#K)"/></g><g filter="url(#L)"><path d="m155.271 153.254-65.417 37.634" stroke="url(#M)" stroke-width="3"/></g><g filter="url(#N)"><ellipse rx="8.461" ry="13.21" transform="matrix(.50444 .86345 -.86857 .49557 77.542 257.112)" fill="url(#O)"/></g><g filter="url(#P)"><ellipse rx="6.895" ry="6.936" transform="matrix(.50444 .86345 -.86857 .49557 83.74 254.365)" fill="url(#Q)"/></g><g filter="url(#R)"><path d="m81.364 256.206-65.466 37.518" stroke="url(#S)" stroke-width="3"/></g><g filter="url(#T)"><ellipse rx="8.505" ry="13.309" transform="matrix(.50616 .86244 -.86954 .49386 127.552 288.495)" fill="url(#U)"/></g><g filter="url(#V)"><ellipse rx="6.931" ry="6.988" transform="matrix(.50616 .86244 -.86954 .49386 130.121 286.603)" fill="url(#W)" fill-opacity=".35"/></g><g filter="url(#X)"><ellipse rx="4.215" ry="4.249" transform="matrix(.50616 .86244 -.86954 .49386 129.501 287.042)" fill="url(#Y)"/></g><g filter="url(#Z)"><path d="m132.67 285.789-67.486 38.833" stroke="url(#aa)" stroke-width="3"/></g><g filter="url(#ab)"><ellipse rx="9.558" ry="6.284" transform="matrix(.50257 .86454 -.8675 .49744 214.545 265.389)" fill="url(#ac)"/></g><g filter="url(#ad)"><ellipse rx="13.215" ry="8.688" transform="matrix(.50257 .86454 -.8675 .49744 214.545 265.388)" fill="url(#ae)"/></g><g filter="url(#af)"><ellipse rx="7.325" ry="4.248" transform="matrix(.50257 .86454 -.8675 .49744 214.117 265.667)" fill="url(#ag)"/></g><g filter="url(#ah)"><path d="m213.74 265.901-65.439 37.386" stroke="url(#ai)" stroke-width="3"/></g><defs><filter id="a" x="93.16" y="139.004" width="345.248" height="215.878" filterUnits="userSpaceOnUse" color-interpolation-filters="sRGB"><feFlood flood-opacity="0" result="BackgroundImageFix"/><feBlend in="SourceGraphic" in2="BackgroundImageFix" result="shape"/><feGaussianBlur stdDeviation="10" result="effect1_foregroundBlur_7849_178855"/></filter><filter id="d" x="139.285" y="180.495" width="22.531" height="25.939" filterUnits="userSpaceOnUse" color-interpolation-filters="sRGB"><feFlood flood-opacity="0" result="BackgroundImageFix"/><feBlend in="SourceGraphic" in2="BackgroundImageFix" result="shape"/><feGaussianBlur stdDeviation="2" result="effect1_foregroundBlur_7849_178855"/></filter><filter id="e" x="143.914" y="185.971" width="12.418" height="15.555" filterUnits="userSpaceOnUse" color-interpolation-filters="sRGB"><feFlood flood-opacity="0" result="BackgroundImageFix"/><feBlend in="SourceGraphic" in2="BackgroundImageFix" result="shape"/><feGaussianBlur stdDeviation=".5" result="effect1_foregroundBlur_7849_178855"/></filter><filter id="f" x="81.555" y="190.688" width="70.943" height="44.539" filterUnits="userSpaceOnUse" color-interpolation-filters="sRGB"><feFlood flood-opacity="0" result="BackgroundImageFix"/><feBlend in="SourceGraphic" in2="BackgroundImageFix" result="shape"/><feGaussianBlur stdDeviation="1" result="effect1_foregroundBlur_7849_178855"/></filter><filter id="h" x="276.314" y="110.199" width="27.982" height="32.303" filterUnits="userSpaceOnUse" color-interpolation-filters="sRGB"><feFlood flood-opacity="0" result="BackgroundImageFix"/><feBlend in="SourceGraphic" in2="BackgroundImageFix" result="shape"/><feGaussianBlur stdDeviation="2" result="effect1_foregroundBlur_7849_178855"/></filter><filter id="i" x="283.67" y="118.951" width="12.418" height="15.355" filterUnits="userSpaceOnUse" color-interpolation-filters="sRGB"><feFlood flood-opacity="0" result="BackgroundImageFix"/><feBlend in="SourceGraphic" in2="BackgroundImageFix" result="shape"/><feGaussianBlur stdDeviation=".5" result="effect1_foregroundBlur_7849_178855"/></filter><filter id="j" x="221.318" y="123.561" width="70.928" height="43.991" filterUnits="userSpaceOnUse" color-interpolation-filters="sRGB"><feFlood flood-opacity="0" result="BackgroundImageFix"/><feBlend in="SourceGraphic" in2="BackgroundImageFix" result="shape"/><feGaussianBlur stdDeviation="1" result="effect1_foregroundBlur_7849_178855"/></filter><filter id="l" x="278.717" y="56.496" width="27.789" height="32.303" filterUnits="userSpaceOnUse" color-interpolation-filters="sRGB"><feFlood flood-opacity="0" result="BackgroundImageFix"/><feBlend in="SourceGraphic" in2="BackgroundImageFix" result="shape"/><feGaussianBlur stdDeviation="2" result="effect1_foregroundBlur_7849_178855"/></filter><filter id="m" x="286.027" y="65.248" width="12.318" height="15.355" filterUnits="userSpaceOnUse" color-interpolation-filters="sRGB"><feFlood flood-opacity="0" result="BackgroundImageFix"/><feBlend in="SourceGraphic" in2="BackgroundImageFix" result="shape"/><feGaussianBlur stdDeviation=".5" result="effect1_foregroundBlur_7849_178855"/></filter><filter id="n" x="224.254" y="69.86" width="70.311" height="43.985" filterUnits="userSpaceOnUse" color-interpolation-filters="sRGB"><feFlood flood-opacity="0" result="BackgroundImageFix"/><feBlend in="SourceGraphic" in2="BackgroundImageFix" result="shape"/><feGaussianBlur stdDeviation="1" result="effect1_foregroundBlur_7849_178855"/></filter><filter id="p" x="355.568" y="96.211" width="28.174" height="32.665" filterUnits="userSpaceOnUse" color-interpolation-filters="sRGB"><feFlood flood-opacity="0" result="BackgroundImageFix"/><feBlend in="SourceGraphic" in2="BackgroundImageFix" result="shape"/><feGaussianBlur stdDeviation="2" result="effect1_foregroundBlur_7849_178855"/></filter><filter id="q" x="362.963" y="105.05" width="12.52" height="15.555" filterUnits="userSpaceOnUse" color-interpolation-filters="sRGB"><feFlood flood-opacity="0" result="BackgroundImageFix"/><feBlend in="SourceGraphic" in2="BackgroundImageFix" result="shape"/><feGaussianBlur stdDeviation=".5" result="effect1_foregroundBlur_7849_178855"/></filter><filter id="r" x="300.027" y="109.764" width="71.563" height="44.545" filterUnits="userSpaceOnUse" color-interpolation-filters="sRGB"><feFlood flood-opacity="0" result="BackgroundImageFix"/><feBlend in="SourceGraphic" in2="BackgroundImageFix" result="shape"/><feGaussianBlur stdDeviation="1" result="effect1_foregroundBlur_7849_178855"/></filter><filter id="t" x="350.068" y="164.639" width="27.789" height="32.303" filterUnits="userSpaceOnUse" color-interpolation-filters="sRGB"><feFlood flood-opacity="0" result="BackgroundImageFix"/><feBlend in="SourceGraphic" in2="BackgroundImageFix" result="shape"/><feGaussianBlur stdDeviation="2" result="effect1_foregroundBlur_7849_178855"/></filter><filter id="u" x="357.379" y="173.391" width="12.318" height="15.355" filterUnits="userSpaceOnUse" color-interpolation-filters="sRGB"><feFlood flood-opacity="0" result="BackgroundImageFix"/><feBlend in="SourceGraphic" in2="BackgroundImageFix" result="shape"/><feGaussianBlur stdDeviation=".5" result="effect1_foregroundBlur_7849_178855"/></filter><filter id="v" x="295.605" y="178.003" width="70.311" height="43.985" filterUnits="userSpaceOnUse" color-interpolation-filters="sRGB"><feFlood flood-opacity="0" result="BackgroundImageFix"/><feBlend in="SourceGraphic" in2="BackgroundImageFix" result="shape"/><feGaussianBlur stdDeviation="1" result="effect1_foregroundBlur_7849_178855"/></filter><filter id="B" x="204.781" y="168.601" width="26.166" height="30.159" filterUnits="userSpaceOnUse" color-interpolation-filters="sRGB"><feFlood flood-opacity="0" result="BackgroundImageFix"/><feBlend in="SourceGraphic" in2="BackgroundImageFix" result="shape"/><feGaussianBlur stdDeviation="2" result="effect1_foregroundBlur_7849_178855"/></filter><filter id="C" x="209.818" y="174.657" width="15.021" height="18.745" filterUnits="userSpaceOnUse" color-interpolation-filters="sRGB"><feFlood flood-opacity="0" result="BackgroundImageFix"/><feBlend in="SourceGraphic" in2="BackgroundImageFix" result="shape"/><feGaussianBlur stdDeviation=".5" result="effect1_foregroundBlur_7849_178855"/></filter><filter id="D" x="132.312" y="181.021" width="87.291" height="53.475" filterUnits="userSpaceOnUse" color-interpolation-filters="sRGB"><feFlood flood-opacity="0" result="BackgroundImageFix"/><feBlend in="SourceGraphic" in2="BackgroundImageFix" result="shape"/><feGaussianBlur stdDeviation="1" result="effect1_foregroundBlur_7849_178855"/></filter><filter id="F" x="142.213" y="136.657" width="27.729" height="32.16" filterUnits="userSpaceOnUse" color-interpolation-filters="sRGB"><feFlood flood-opacity="0" result="BackgroundImageFix"/><feBlend in="SourceGraphic" in2="BackgroundImageFix" result="shape"/><feGaussianBlur stdDeviation="2" result="effect1_foregroundBlur_7849_178855"/></filter><filter id="H" x="144.811" y="139.842" width="22.527" height="25.792" filterUnits="userSpaceOnUse" color-interpolation-filters="sRGB"><feFlood flood-opacity="0" result="BackgroundImageFix"/><feBlend in="SourceGraphic" in2="BackgroundImageFix" result="shape"/><feGaussianBlur stdDeviation="2" result="effect1_foregroundBlur_7849_178855"/></filter><filter id="J" x="149.441" y="145.296" width="12.414" height="15.444" filterUnits="userSpaceOnUse" color-interpolation-filters="sRGB"><feFlood flood-opacity="0" result="BackgroundImageFix"/><feBlend in="SourceGraphic" in2="BackgroundImageFix" result="shape"/><feGaussianBlur stdDeviation=".5" result="effect1_foregroundBlur_7849_178855"/></filter><filter id="L" x="87.106" y="149.954" width="70.914" height="44.233" filterUnits="userSpaceOnUse" color-interpolation-filters="sRGB"><feFlood flood-opacity="0" result="BackgroundImageFix"/><feBlend in="SourceGraphic" in2="BackgroundImageFix" result="shape"/><feGaussianBlur stdDeviation="1" result="effect1_foregroundBlur_7849_178855"/></filter><filter id="N" x="61.297" y="243.302" width="32.49" height="27.62" filterUnits="userSpaceOnUse" color-interpolation-filters="sRGB"><feFlood flood-opacity="0" result="BackgroundImageFix"/><feBlend in="SourceGraphic" in2="BackgroundImageFix" result="shape"/><feGaussianBlur stdDeviation="2" result="effect1_foregroundBlur_7849_178855"/></filter><filter id="P" x="74.781" y="245.489" width="17.914" height="17.751" filterUnits="userSpaceOnUse" color-interpolation-filters="sRGB"><feFlood flood-opacity="0" result="BackgroundImageFix"/><feBlend in="SourceGraphic" in2="BackgroundImageFix" result="shape"/><feGaussianBlur stdDeviation="1" result="effect1_foregroundBlur_7849_178855"/></filter><filter id="R" x="13.152" y="252.904" width="70.957" height="44.121" filterUnits="userSpaceOnUse" color-interpolation-filters="sRGB"><feFlood flood-opacity="0" result="BackgroundImageFix"/><feBlend in="SourceGraphic" in2="BackgroundImageFix" result="shape"/><feGaussianBlur stdDeviation="1" result="effect1_foregroundBlur_7849_178855"/></filter><filter id="T" x="111.201" y="274.646" width="32.703" height="27.699" filterUnits="userSpaceOnUse" color-interpolation-filters="sRGB"><feFlood flood-opacity="0" result="BackgroundImageFix"/><feBlend in="SourceGraphic" in2="BackgroundImageFix" result="shape"/><feGaussianBlur stdDeviation="2" result="effect1_foregroundBlur_7849_178855"/></filter><filter id="V" x="122.104" y="278.7" width="16.035" height="15.806" filterUnits="userSpaceOnUse" color-interpolation-filters="sRGB"><feFlood flood-opacity="0" result="BackgroundImageFix"/><feBlend in="SourceGraphic" in2="BackgroundImageFix" result="shape"/><feGaussianBlur stdDeviation=".5" result="effect1_foregroundBlur_7849_178855"/></filter><filter id="X" x="124.234" y="281.844" width="10.533" height="10.396" filterUnits="userSpaceOnUse" color-interpolation-filters="sRGB"><feFlood flood-opacity="0" result="BackgroundImageFix"/><feBlend in="SourceGraphic" in2="BackgroundImageFix" result="shape"/><feGaussianBlur stdDeviation=".5" result="effect1_foregroundBlur_7849_178855"/></filter><filter id="Z" x="62.435" y="282.489" width="72.982" height="45.434" filterUnits="userSpaceOnUse" color-interpolation-filters="sRGB"><feFlood flood-opacity="0" result="BackgroundImageFix"/><feBlend in="SourceGraphic" in2="BackgroundImageFix" result="shape"/><feGaussianBlur stdDeviation="1" result="effect1_foregroundBlur_7849_178855"/></filter><filter id="ab" x="203.279" y="252.551" width="22.531" height="25.675" filterUnits="userSpaceOnUse" color-interpolation-filters="sRGB"><feFlood flood-opacity="0" result="BackgroundImageFix"/><feBlend in="SourceGraphic" in2="BackgroundImageFix" result="shape"/><feGaussianBlur stdDeviation="2" result="effect1_foregroundBlur_7849_178855"/></filter><filter id="ad" x="200.5" y="249.17" width="28.092" height="32.437" filterUnits="userSpaceOnUse" color-interpolation-filters="sRGB"><feFlood flood-opacity="0" result="BackgroundImageFix"/><feBlend in="SourceGraphic" in2="BackgroundImageFix" result="shape"/><feGaussianBlur stdDeviation="2" result="effect1_foregroundBlur_7849_178855"/></filter><filter id="af" x="207.908" y="257.989" width="12.418" height="15.355" filterUnits="userSpaceOnUse" color-interpolation-filters="sRGB"><feFlood flood-opacity="0" result="BackgroundImageFix"/><feBlend in="SourceGraphic" in2="BackgroundImageFix" result="shape"/><feGaussianBlur stdDeviation=".5" result="effect1_foregroundBlur_7849_178855"/></filter><filter id="ah" x="145.557" y="262.599" width="70.928" height="43.991" filterUnits="userSpaceOnUse" color-interpolation-filters="sRGB"><feFlood flood-opacity="0" result="BackgroundImageFix"/><feBlend in="SourceGraphic" in2="BackgroundImageFix" result="shape"/><feGaussianBlur stdDeviation="1" result="effect1_foregroundBlur_7849_178855"/></filter><linearGradient id="b" x1="206.559" y1="-247.156" x2="332.219" y2="232.791" gradientUnits="userSpaceOnUse"><stop stop-color="#C5D4E9"/><stop offset="1" stop-color="#C5D4E9" stop-opacity="0"/></linearGradient><linearGradient id="g" x1="145.209" y1="197.443" x2="88.12" y2="230.936" gradientUnits="userSpaceOnUse"><stop stop-color="#80AD20"/><stop offset="1" stop-color="#D0FF15" stop-opacity="0"/></linearGradient><linearGradient id="k" x1="284.965" y1="130.27" x2="228.312" y2="164.003" gradientUnits="userSpaceOnUse"><stop stop-color="#80AD20"/><stop offset="1" stop-color="#D0FF15" stop-opacity="0"/></linearGradient><linearGradient id="o" x1="287.321" y1="76.567" x2="230.93" y2="109.821" gradientUnits="userSpaceOnUse"><stop stop-color="#80AD20"/><stop offset="1" stop-color="#D0FF15" stop-opacity="0"/></linearGradient><linearGradient id="s" x1="364.261" y1="116.522" x2="306.907" y2="150.494" gradientUnits="userSpaceOnUse"><stop stop-color="#80AD20"/><stop offset="1" stop-color="#D0FF15" stop-opacity="0"/></linearGradient><linearGradient id="w" x1="358.672" y1="184.709" x2="302.282" y2="217.963" gradientUnits="userSpaceOnUse"><stop stop-color="#80AD20"/><stop offset="1" stop-color="#D0FF15" stop-opacity="0"/></linearGradient><linearGradient id="x" x1="188.514" y1="113.446" x2="188.514" y2="296.551" gradientUnits="userSpaceOnUse"><stop offset=".294" stop-color="#DAE5F3"/><stop offset="1" stop-color="#DAE5F3" stop-opacity="0"/></linearGradient><linearGradient id="y" x1="161.826" y1="88.241" x2="164.458" y2="122.266" gradientUnits="userSpaceOnUse"><stop offset=".141" stop-color="#15243B"/><stop offset="1" stop-color="#EEF4FC"/></linearGradient><linearGradient id="z" x1="233.727" y1="95.654" x2="272.336" y2="219.287" gradientUnits="userSpaceOnUse"><stop offset=".141" stop-color="#15243B"/><stop offset="1" stop-color="#EEF4FC"/></linearGradient><linearGradient id="A" x1="257.447" y1="171.268" x2="345.584" y2="271.821" gradientUnits="userSpaceOnUse"><stop offset=".423" stop-color="#15243B"/><stop offset=".82" stop-color="#EEF4FC"/></linearGradient><linearGradient id="E" x1="211.186" y1="188.594" x2="140.26" y2="230.701" gradientUnits="userSpaceOnUse"><stop stop-color="#80AD20"/><stop offset="1" stop-color="#D0FF15" stop-opacity="0"/></linearGradient><linearGradient id="G" x1="13.042" y1="0" x2="13.042" y2="17.091" gradientUnits="userSpaceOnUse"><stop stop-color="#FF1367" stop-opacity=".44"/><stop offset=".997" stop-color="#C83469" stop-opacity="0"/></linearGradient><linearGradient id="I" x1="9.605" y1="0" x2="9.605" y2="12.586" gradientUnits="userSpaceOnUse"><stop stop-color="#FF1367" stop-opacity=".44"/><stop offset=".997" stop-color="#C83469" stop-opacity="0"/></linearGradient><linearGradient id="K" x1="7.361" y1="0" x2="7.361" y2="8.509" gradientUnits="userSpaceOnUse"><stop stop-color="#FF1367" stop-opacity=".44"/><stop offset=".997" stop-color="#C83469" stop-opacity="0"/></linearGradient><linearGradient id="M" x1="122.562" y1="153.254" x2="122.562" y2="190.888" gradientUnits="userSpaceOnUse"><stop stop-color="#FF1367" stop-opacity=".44"/><stop offset=".997" stop-color="#C83469" stop-opacity="0"/></linearGradient><linearGradient id="O" x1="8.461" y1="0" x2="8.461" y2="26.42" gradientUnits="userSpaceOnUse"><stop stop-color="#FF1367" stop-opacity=".44"/><stop offset=".997" stop-color="#C83469" stop-opacity="0"/></linearGradient><linearGradient id="Q" x1="6.895" y1="0" x2="6.895" y2="13.871" gradientUnits="userSpaceOnUse"><stop stop-color="#FF1367" stop-opacity=".44"/><stop offset=".997" stop-color="#C83469" stop-opacity="0"/></linearGradient><linearGradient id="S" x1="48.631" y1="256.206" x2="48.631" y2="293.724" gradientUnits="userSpaceOnUse"><stop stop-color="#FF1367" stop-opacity=".44"/><stop offset=".997" stop-color="#C83469" stop-opacity="0"/></linearGradient><linearGradient id="U" x1="8.505" y1="0" x2="8.505" y2="26.619" gradientUnits="userSpaceOnUse"><stop stop-color="#92BD4B"/><stop offset="1" stop-color="#92BD4B" stop-opacity="0"/></linearGradient><linearGradient id="W" x1="6.931" y1="0" x2="6.931" y2="13.976" gradientUnits="userSpaceOnUse"><stop stop-color="#92BD4B"/><stop offset=".997" stop-color="#92BD4B" stop-opacity="0"/></linearGradient><linearGradient id="Y" x1="4.215" y1="0" x2="4.215" y2="8.499" gradientUnits="userSpaceOnUse"><stop stop-color="#92BD4B"/><stop offset=".997" stop-color="#92BD4B" stop-opacity="0"/></linearGradient><linearGradient id="aa" x1="127.991" y1="289.328" x2="69.347" y2="323.996" gradientUnits="userSpaceOnUse"><stop stop-color="#80AD20"/><stop offset="1" stop-color="#D0FF15" stop-opacity="0"/></linearGradient><linearGradient id="ac" x1="9.558" y1="0" x2="9.558" y2="12.569" gradientUnits="userSpaceOnUse"><stop stop-color="#FF1367" stop-opacity=".44"/><stop offset=".997" stop-color="#C83469" stop-opacity="0"/></linearGradient><linearGradient id="ae" x1="13.215" y1="0" x2="13.215" y2="17.377" gradientUnits="userSpaceOnUse"><stop stop-color="#FF1367" stop-opacity=".44"/><stop offset=".997" stop-color="#C83469" stop-opacity="0"/></linearGradient><linearGradient id="ag" x1="7.325" y1="0" x2="7.325" y2="8.497" gradientUnits="userSpaceOnUse"><stop stop-color="#FF1367" stop-opacity=".44"/><stop offset=".997" stop-color="#C83469" stop-opacity="0"/></linearGradient><linearGradient id="ai" x1="181.021" y1="265.901" x2="181.021" y2="303.287" gradientUnits="userSpaceOnUse"><stop stop-color="#FF1367" stop-opacity=".44"/><stop offset=".997" stop-color="#C83469" stop-opacity="0"/></linearGradient></defs></svg>