<svg width="23" height="23" fill="none" xmlns="http://www.w3.org/2000/svg"><path d="m.99 10.848-.658.278c0 .167.064.332.19.457l10.357 10.32c.12.121.328.187.45.188a.733.733 0 0 0 .458-.187l10.356-10.328a.643.643 0 0 0 .19-.455l-.572-.273h-6.874l-3.855 1.244-3.261-1.244H.989Z" fill="#FFB739"/><path d="M22.332 11.12a.64.64 0 0 1-.189.456L11.787 21.904a.731.731 0 0 1-.455.187V11.995l3.555-1.147h6.874l.57.273Z" fill="#FF9441"/><path d="m7.771 10.848 3.562 11.243 3.555-11.243H7.77Z" fill="#FF9441"/><path d="M14.887 10.848 11.332 22.09V10.848h3.555Z" fill="#FF7149"/><path d="m22.224 10.762-3.447-5.165a.643.643 0 0 0-.18-.179l-.313.15-6.356.04-.596-.297-.482.303-6.342.04-.442-.235a.643.643 0 0 0-.18.178L.44 10.77a.641.641 0 0 0-.108.356l22-.005a.642.642 0 0 0-.108-.358Z" fill="#FFD17E"/><path d="m22.332 11.12-11 .003V5.31l.597.296 6.356-.039.312-.15c.07.047.132.108.18.179l3.447 5.165a.64.64 0 0 1 .108.358ZM4.423 5.31a.643.643 0 0 0-.357.109l3.818 5.704 3.448-5.812h-6.91Z" fill="#FFB739"/><path d="m14.781 11.122 3.816-5.704a.643.643 0 0 0-.355-.107h-6.91l3.446 5.81h.003Z" fill="#FF9441"/><path d="M7.482 15.616a1.956 1.956 0 0 1-1.954-1.954.645.645 0 0 0-1.289 0 1.956 1.956 0 0 1-1.954 1.954.645.645 0 0 0 0 1.29c1.078 0 1.954.876 1.954 1.953a.645.645 0 0 0 1.29 0c0-1.072.87-1.954 1.953-1.954a.645.645 0 0 0 0-1.289Z" fill="#FFD17E"/><path d="M17.361 2.688A1.956 1.956 0 0 1 15.407.734a.644.644 0 1 0-1.289 0 1.956 1.956 0 0 1-1.954 1.954.645.645 0 1 0 0 1.29c1.078 0 1.954.876 1.954 1.953a.644.644 0 1 0 1.29 0c0-1.077.876-1.954 1.953-1.954a.645.645 0 1 0 0-1.289Z" fill="#FFB739"/></svg>