<svg width="50" height="51" fill="none" xmlns="http://www.w3.org/2000/svg"><g clip-path="url(#a)"><path d="M45.137 38.207c-.67.349-1.362.655-2.07.918a19.903 19.903 0 0 1-7.012 1.25c-9.239 0-17.285-6.348-17.285-14.512a6.152 6.152 0 0 1 3.203-5.332c-8.36.352-10.508 9.063-10.508 14.16 0 14.453 13.3 15.899 16.172 15.899 1.543 0 3.867-.45 5.273-.899l.254-.078a25.059 25.059 0 0 0 13.008-10.312.782.782 0 0 0-1.035-1.094Z" fill="url(#b)"/><path opacity=".35" d="M45.137 38.207c-.67.349-1.362.655-2.07.918a19.903 19.903 0 0 1-7.012 1.25c-9.239 0-17.285-6.348-17.285-14.512a6.152 6.152 0 0 1 3.203-5.332c-8.36.352-10.508 9.063-10.508 14.16 0 14.453 13.3 15.899 16.172 15.899 1.543 0 3.867-.45 5.273-.899l.254-.078a25.059 25.059 0 0 0 13.008-10.312.782.782 0 0 0-1.035-1.094Z" fill="url(#c)"/><path d="M20.645 48.129a15.469 15.469 0 0 1-4.434-4.16 15.76 15.76 0 0 1 5.762-23.438c.625-.293 1.66-.8 3.047-.781a6.328 6.328 0 0 1 5.02 2.54 6.23 6.23 0 0 1 1.23 3.651c0-.039 4.785-15.546-15.625-15.546C7.07 10.395.02 18.52.02 25.668a25.43 25.43 0 0 0 2.363 10.938A25 25 0 0 0 32.93 49.69a14.744 14.744 0 0 1-12.266-1.562h-.02Z" fill="url(#d)"/><path opacity=".41" d="M20.645 48.129a15.469 15.469 0 0 1-4.434-4.16 15.76 15.76 0 0 1 5.762-23.438c.625-.293 1.66-.8 3.047-.781a6.328 6.328 0 0 1 5.02 2.54 6.23 6.23 0 0 1 1.23 3.651c0-.039 4.785-15.546-15.625-15.546C7.07 10.395.02 18.52.02 25.668a25.43 25.43 0 0 0 2.363 10.938A25 25 0 0 0 32.93 49.69a14.744 14.744 0 0 1-12.266-1.562h-.02Z" fill="url(#e)"/><path d="M29.766 30.063c-.176.195-.664.488-.664 1.093 0 .508.332 1.016.937 1.426 2.793 1.953 8.086 1.68 8.105 1.68a11.641 11.641 0 0 0 5.919-1.621A11.992 11.992 0 0 0 50 22.309c.059-4.375-1.563-7.286-2.207-8.575C43.633 5.648 34.707 1 25 1A25 25 0 0 0 0 25.648c.098-7.128 7.188-12.89 15.625-12.89.684 0 4.59.058 8.203 1.953a14.18 14.18 0 0 1 6.035 5.723c1.192 2.07 1.407 4.707 1.407 5.761 0 1.055-.528 2.598-1.524 3.887l.02-.02Z" fill="url(#f)"/><path d="M29.766 30.063c-.176.195-.664.488-.664 1.093 0 .508.332 1.016.937 1.426 2.793 1.953 8.086 1.68 8.105 1.68a11.641 11.641 0 0 0 5.919-1.621A11.992 11.992 0 0 0 50 22.309c.059-4.375-1.563-7.286-2.207-8.575C43.633 5.648 34.707 1 25 1A25 25 0 0 0 0 25.648c.098-7.128 7.188-12.89 15.625-12.89.684 0 4.59.058 8.203 1.953a14.18 14.18 0 0 1 6.035 5.723c1.192 2.07 1.407 4.707 1.407 5.761 0 1.055-.528 2.598-1.524 3.887l.02-.02Z" fill="url(#g)"/></g><defs><radialGradient id="c" cx="0" cy="0" r="1" gradientUnits="userSpaceOnUse" gradientTransform="matrix(18.6328 0 0 17.7012 30.703 35.833)"><stop offset=".7" stop-opacity="0"/><stop offset=".9" stop-opacity=".5"/><stop offset="1"/></radialGradient><radialGradient id="e" cx="0" cy="0" r="1" gradientUnits="userSpaceOnUse" gradientTransform="matrix(4.1953 -27.68908 22.36999 3.38937 13.78 39.855)"><stop offset=".8" stop-opacity="0"/><stop offset=".9" stop-opacity=".5"/><stop offset="1"/></radialGradient><radialGradient id="f" cx="0" cy="0" r="1" gradientUnits="userSpaceOnUse" gradientTransform="rotate(92.291 -2.392 7.55) scale(39.5629 84.2607)"><stop stop-color="#35C1F1"/><stop offset=".1" stop-color="#34C1ED"/><stop offset=".2" stop-color="#2FC2DF"/><stop offset=".3" stop-color="#2BC3D2"/><stop offset=".7" stop-color="#36C752"/></radialGradient><radialGradient id="g" cx="0" cy="0" r="1" gradientUnits="userSpaceOnUse" gradientTransform="matrix(5.3211 18.24374 -14.83584 4.32712 46.887 16.098)"><stop stop-color="#66EB6E"/><stop offset="1" stop-color="#66EB6E" stop-opacity="0"/></radialGradient><linearGradient id="b" x1="11.465" y1="35.57" x2="46.309" y2="35.57" gradientUnits="userSpaceOnUse"><stop stop-color="#0C59A4"/><stop offset="1" stop-color="#114A8B"/></linearGradient><linearGradient id="d" x1="29.824" y1="20.453" x2="8.086" y2="44.145" gradientUnits="userSpaceOnUse"><stop stop-color="#1B9DE2"/><stop offset=".2" stop-color="#1595DF"/><stop offset=".7" stop-color="#0680D7"/><stop offset="1" stop-color="#0078D4"/></linearGradient><clipPath id="a"><path fill="#fff" transform="translate(0 1)" d="M0 0h50v50H0z"/></clipPath></defs></svg>