<svg width="115" height="29" fill="none" xmlns="http://www.w3.org/2000/svg"><g clip-path="url(#a)"><path d="M33.018 6.362h10.977v2.14h-4.322v12.056h-2.37V8.5H33l.018-2.139Zm10.506 3.918h2.026v1.988h.036c.072-.284.199-.55.38-.814.18-.265.398-.511.669-.72.253-.227.542-.397.868-.53a2.43 2.43 0 0 1 .958-.208c.253 0 .434.02.525.02.09.018.198.037.289.037v2.177a3.513 3.513 0 0 0-.47-.076c-.163-.019-.308-.038-.47-.038a2.42 2.42 0 0 0-1.031.227c-.326.152-.597.379-.85.663a3.642 3.642 0 0 0-.579 1.098c-.144.435-.217.946-.217 1.514V20.5h-2.17l.036-10.22Zm15.697 10.278h-2.134v-1.439h-.036c-.272.53-.67.928-1.194 1.25a3.045 3.045 0 0 1-1.61.473c-1.283 0-2.224-.322-2.802-1.003-.579-.663-.868-1.685-.868-3.029v-6.53h2.17v6.303c0 .909.163 1.552.506 1.912.326.378.796.568 1.393.568.452 0 .831-.076 1.139-.227.307-.152.56-.341.741-.587.2-.246.326-.55.416-.89.09-.34.127-.72.127-1.117V10.28h2.17v10.278h-.018Zm3.689-3.293c.072.662.307 1.116.723 1.4.416.265.922.398 1.5.398.2 0 .435-.02.688-.057.253-.038.506-.095.723-.19.235-.094.416-.227.56-.416a1 1 0 0 0 .2-.7c-.018-.284-.109-.53-.308-.72-.198-.189-.434-.321-.723-.454a6.06 6.06 0 0 0-1.013-.284c-.38-.075-.76-.17-1.157-.265a12.073 12.073 0 0 1-1.175-.34 3.319 3.319 0 0 1-1.013-.55 2.337 2.337 0 0 1-.705-.87c-.181-.36-.272-.776-.272-1.306 0-.568.127-1.022.398-1.4.254-.379.597-.682.995-.909a4.4 4.4 0 0 1 1.338-.492 7.332 7.332 0 0 1 1.392-.133c.507 0 .995.057 1.447.17.452.114.886.285 1.248.55.38.246.687.586.922.984.253.397.398.89.47 1.457h-2.26c-.109-.549-.344-.908-.705-1.098a2.804 2.804 0 0 0-1.284-.283c-.145 0-.344.019-.543.037a3.074 3.074 0 0 0-.596.152 1.41 1.41 0 0 0-.47.322.777.777 0 0 0-.2.549c0 .284.09.492.272.662.18.17.416.303.723.435.29.114.633.209 1.013.284.38.076.777.17 1.175.265s.778.208 1.157.34c.38.133.724.304 1.013.55.29.227.543.51.723.852.181.34.272.776.272 1.268 0 .605-.127 1.116-.398 1.552a3.457 3.457 0 0 1-1.031 1.04c-.416.266-.904.455-1.41.587a7.235 7.235 0 0 1-1.538.19 6.206 6.206 0 0 1-1.717-.227 4.287 4.287 0 0 1-1.375-.663 3.143 3.143 0 0 1-.904-1.117c-.217-.435-.343-.965-.362-1.59h2.188v.02h.019Zm7.142-6.985h1.646V7.176h2.17v3.085h1.953v1.685h-1.953v5.489c0 .246.018.435.036.625.018.17.073.321.127.435.072.113.18.208.307.265.145.057.326.094.579.094.144 0 .307 0 .452-.018.145-.02.307-.038.452-.076v1.76c-.235.038-.47.057-.705.076a4.289 4.289 0 0 1-.706.038c-.578 0-1.03-.057-1.374-.17a1.958 1.958 0 0 1-.814-.493 1.79 1.79 0 0 1-.397-.814 6.754 6.754 0 0 1-.127-1.135v-6.057h-1.646v-1.723.038Zm7.288 0h2.043v1.4h.037c.307-.605.723-1.021 1.265-1.286a3.947 3.947 0 0 1 1.772-.398c.778 0 1.447.133 2.026.436a3.832 3.832 0 0 1 1.428 1.173c.38.492.67 1.08.85 1.742.181.662.29 1.381.29 2.12 0 .7-.09 1.362-.254 2.006-.18.643-.433 1.23-.777 1.722-.344.492-.778.89-1.32 1.192-.543.303-1.157.455-1.88.455a5.29 5.29 0 0 1-.941-.095 3.874 3.874 0 0 1-.904-.284 3.224 3.224 0 0 1-.796-.51 2.845 2.845 0 0 1-.615-.72h-.036v5.13h-2.17V10.28h-.018Zm7.577 5.149c0-.455-.054-.909-.181-1.344a3.5 3.5 0 0 0-.524-1.155 2.946 2.946 0 0 0-.85-.814c-.344-.208-.742-.303-1.176-.303-.904 0-1.591.322-2.061.985-.452.662-.687 1.552-.687 2.65 0 .53.054 1.003.18 1.438.127.435.29.814.543 1.136.235.321.524.567.868.757.344.189.723.284 1.175.284.507 0 .905-.114 1.248-.322.344-.208.615-.492.85-.814.217-.34.38-.72.47-1.155.09-.454.145-.89.145-1.343Zm3.815-9.067h2.17v2.14h-2.17v-2.14Zm0 3.918h2.17v10.278h-2.17V10.28Zm4.105-3.918h2.17v14.196h-2.17V6.362Zm8.789 14.48c-.778 0-1.483-.133-2.098-.417a4.761 4.761 0 0 1-1.555-1.116 4.919 4.919 0 0 1-.959-1.723 7.014 7.014 0 0 1-.343-2.176c0-.776.108-1.496.343-2.158.218-.663.543-1.23.959-1.723.416-.473.94-.851 1.555-1.116a5.276 5.276 0 0 1 2.098-.417c.777 0 1.482.133 2.097.417a4.499 4.499 0 0 1 1.555 1.117c.416.473.742 1.06.959 1.722.217.662.343 1.382.343 2.158 0 .795-.108 1.514-.343 2.176-.235.663-.543 1.23-.959 1.723-.415.473-.94.851-1.555 1.116a5.21 5.21 0 0 1-2.097.417Zm0-1.798c.47 0 .904-.114 1.247-.322.362-.208.633-.492.868-.833.235-.34.398-.738.507-1.154a5.444 5.444 0 0 0 0-2.631 3.481 3.481 0 0 0-.507-1.155 2.789 2.789 0 0 0-.868-.814 2.457 2.457 0 0 0-1.247-.322c-.47 0-.904.114-1.248.322-.362.208-.633.492-.868.814a3.47 3.47 0 0 0-.506 1.155 5.383 5.383 0 0 0 0 2.63c.108.436.27.814.506 1.155.235.34.524.625.868.833.362.227.778.322 1.248.322Zm5.605-8.764h1.646V7.176h2.17v3.085H113v1.685h-1.953v5.489c0 .246.018.435.036.625.018.17.073.321.127.435a.715.715 0 0 0 .307.265c.145.057.326.094.579.094.145 0 .307 0 .452-.018.145-.02.307-.038.452-.076v1.76c-.235.038-.47.057-.705.076-.235.038-.452.038-.705.038-.579 0-1.031-.057-1.375-.17a1.963 1.963 0 0 1-.814-.493 1.794 1.794 0 0 1-.397-.814 6.67 6.67 0 0 1-.127-1.135v-6.057h-1.646v-1.723.038Z" fill="#5A78A6"/><path d="M27.654 10.285H17.171L13.944.362l-3.247 9.923-10.483-.02 8.478 6.14-3.246 9.923 8.479-6.14 8.478 6.14-3.227-9.922 8.478-6.121Z" fill="#00B67A"/><path d="m19.901 18.649-.726-2.243-5.232 3.783 5.958-1.54Z" fill="#005128"/></g><defs><clipPath id="a"><path fill="#fff" transform="translate(0 .362)" d="M0 0h115v28H0z"/></clipPath></defs></svg>