<svg width="20" height="20" fill="none" xmlns="http://www.w3.org/2000/svg"><path fill-rule="evenodd" clip-rule="evenodd" d="M16.643 4.26a2.172 2.172 0 0 1 1.51 1.544c.362 1.365.373 4.196.373 4.196s0 2.842-.361 4.196a2.172 2.172 0 0 1-1.51 1.544c-1.325.369-6.655.369-6.655.369s-5.33 0-6.654-.37a2.172 2.172 0 0 1-1.51-1.543C1.474 12.83 1.474 10 1.474 10s0-2.83.35-4.185a2.172 2.172 0 0 1 1.51-1.544c1.325-.369 6.655-.38 6.655-.38s5.33 0 6.654.37ZM12.714 10l-4.421 2.618V7.382L12.714 10Z" fill="#5A78A6"/></svg>