<svg width="51" height="51" fill="none" xmlns="http://www.w3.org/2000/svg"><path d="M46.127 37.75c-.667.349-1.354.656-2.059.92a19.895 19.895 0 0 1-7.011 1.262c-9.243 0-17.293-6.358-17.293-14.516a6.147 6.147 0 0 1 3.209-5.334c-8.36.352-10.508 9.063-10.508 14.166 0 14.43 13.299 15.893 16.164 15.893 1.545 0 3.875-.45 5.273-.891l.256-.086a25.066 25.066 0 0 0 13.008-10.312.782.782 0 0 0-1.039-1.102Z" fill="#7791B8"/><path opacity=".35" d="M46.127 37.75c-.667.349-1.354.656-2.059.92a19.895 19.895 0 0 1-7.011 1.262c-9.243 0-17.293-6.358-17.293-14.516a6.147 6.147 0 0 1 3.209-5.334c-8.36.352-10.508 9.063-10.508 14.166 0 14.43 13.299 15.893 16.164 15.893 1.545 0 3.875-.45 5.273-.891l.256-.086a25.066 25.066 0 0 0 13.008-10.312.782.782 0 0 0-1.039-1.102Z" fill="#7791B8"/><path d="M21.646 47.688a15.468 15.468 0 0 1-4.44-4.169 15.765 15.765 0 0 1 5.767-23.437c.61-.287 1.65-.807 3.035-.781a6.318 6.318 0 0 1 5.017 2.539 6.226 6.226 0 0 1 1.243 3.644c0-.04 4.777-15.547-15.625-15.547-8.575 0-15.625 8.137-15.625 15.276A25.42 25.42 0 0 0 3.383 36.15a25 25 0 0 0 30.543 13.108 14.756 14.756 0 0 1-12.262-1.563l-.018-.008Z" fill="#7791B8"/><path opacity=".41" d="M21.646 47.688a15.468 15.468 0 0 1-4.44-4.169 15.765 15.765 0 0 1 5.767-23.437c.61-.287 1.65-.807 3.035-.781a6.318 6.318 0 0 1 5.017 2.539 6.226 6.226 0 0 1 1.243 3.644c0-.04 4.777-15.547-15.625-15.547-8.575 0-15.625 8.137-15.625 15.276A25.42 25.42 0 0 0 3.383 36.15a25 25 0 0 0 30.543 13.108 14.756 14.756 0 0 1-12.262-1.563l-.018-.008Z" fill="#7791B8"/><path d="M30.748 29.61c-.158.204-.645.488-.645 1.105 0 .51.332 1 .922 1.412 2.809 1.953 8.104 1.695 8.118 1.695a11.633 11.633 0 0 0 5.912-1.63 11.989 11.989 0 0 0 5.943-10.329c.05-4.377-1.563-7.287-2.215-8.576C44.644 5.191 35.711.535 25.996.535a25 25 0 0 0-25 24.649c.094-7.137 7.188-12.9 15.625-12.9.684 0 4.582.066 8.203 1.966 3.192 1.676 4.863 3.7 6.026 5.705 1.207 2.084 1.422 4.717 1.422 5.766 0 1.049-.536 2.603-1.524 3.888Z" fill="#7791B8"/><path d="M30.748 29.61c-.158.204-.645.488-.645 1.105 0 .51.332 1 .922 1.412 2.809 1.953 8.104 1.695 8.118 1.695a11.633 11.633 0 0 0 5.912-1.63 11.989 11.989 0 0 0 5.943-10.329c.05-4.377-1.563-7.287-2.215-8.576C44.644 5.191 35.711.535 25.996.535a25 25 0 0 0-25 24.649c.094-7.137 7.188-12.9 15.625-12.9.684 0 4.582.066 8.203 1.966 3.192 1.676 4.863 3.7 6.026 5.705 1.207 2.084 1.422 4.717 1.422 5.766 0 1.049-.536 2.603-1.524 3.888Z" fill="#7791B8"/></svg>