<svg width="91" height="25" fill="none" xmlns="http://www.w3.org/2000/svg"><g clip-path="url(#a)"><path d="M30.702 11.006c-1.24-.503-1.78-.799-1.78-1.515 0-.31.075-.5.26-.652.32-.268.95-.416 1.776-.416.468 0 .985.047 1.496.136a.73.73 0 0 0 .848-.603c.037-.406-.239-.767-.618-.812a10.495 10.495 0 0 0-1.737-.156c-1.194 0-2.1.251-2.694.747-.515.413-.79 1.021-.79 1.756 0 1.75 1.542 2.384 2.668 2.847l.035.014c1.338.558 2.095.927 2.095 2.022 0 .49-.155.832-.486 1.074-.355.255-.92.39-1.635.39-.614 0-1.29-.1-1.901-.285a.763.763 0 0 0-.22-.032c-.326 0-.606.2-.696.5a.715.715 0 0 0 .06.554.73.73 0 0 0 .434.353c.436.134 1.322.36 2.325.36 1.026 0 1.869-.231 2.506-.688.688-.51 1.05-1.28 1.05-2.226 0-2.118-1.732-2.84-2.996-3.368Zm11.136-3.563c-.852-.476-1.814-.476-2.276-.476-.462 0-1.424 0-2.276.476-1.067.597-1.608 1.717-1.608 3.328v2.712c0 1.611.54 2.73 1.608 3.328.852.477 1.814.477 2.276.477.46 0 1.415 0 2.277-.486 1.067-.6 1.607-1.717 1.607-3.319v-2.712c0-1.611-.54-2.73-1.608-3.328Zm.172 3.328v2.712c0 1.965-.937 2.36-2.448 2.36-1.51 0-2.447-.395-2.447-2.36v-2.712c0-1.965.936-2.36 2.447-2.36 1.511 0 2.448.395 2.448 2.36Zm22.537-3.328c-.853-.476-1.814-.476-2.277-.476-.462 0-1.424 0-2.276.476-1.067.597-1.608 1.717-1.608 3.328v2.712c0 1.611.541 2.73 1.608 3.328.852.477 1.814.477 2.276.477.46 0 1.415 0 2.277-.486 1.067-.6 1.608-1.717 1.608-3.319v-2.712c0-1.611-.541-2.73-1.608-3.328Zm.17 3.328v2.712c0 1.965-.935 2.36-2.447 2.36-1.511 0-2.448-.395-2.448-2.36v-2.712c0-1.965.937-2.36 2.448-2.36 1.512 0 2.448.395 2.448 2.36Zm7.687-3.804c-.987 0-1.857.14-2.636.449a6.084 6.084 0 0 0-1.148.59c-.274.18-.255.492-.255.492v8.067a.71.71 0 0 0 .73.723.727.727 0 0 0 .729-.723V8.963l.023-.01a.238.238 0 0 0 .03-.014c.677-.355 1.504-.528 2.527-.528.959 0 1.624.205 1.976.61l.01.01c.33.345.505.955.505 1.761v5.774a.71.71 0 0 0 .73.722.708.708 0 0 0 .707-.723v-5.773c0-1.176-.292-2.125-.845-2.744-.653-.718-1.69-1.081-3.083-1.081Zm6.841-3.386a.901.901 0 0 0-.905.895c0 .506.406.918.905.918.502 0 .926-.42.926-.918.001-.494-.415-.895-.926-.895Zm0 3.386a.724.724 0 0 0-.707.722v8.876c0 .405.31.723.707.723a.71.71 0 0 0 .73-.723V7.69a.726.726 0 0 0-.73-.722Zm10.5 8.84a.706.706 0 0 0-.916-.375 1.59 1.59 0 0 0-.036.012c-.587.207-1.296.317-2.049.317-1.457 0-3.193-.643-3.193-3.705 0-3.062 1.736-3.705 3.193-3.705 1.245 0 1.968.279 2.037.307.009.005.017.01.027.014a.707.707 0 0 0 .939-.373.693.693 0 0 0-.122-.787.72.72 0 0 0-.234-.166c-.118-.05-1.07-.44-2.647-.44-.766 0-1.882.147-2.846.844-1.198.865-1.805 2.314-1.805 4.306 0 1.993.607 3.441 1.805 4.306.964.697 2.08.844 2.846.844a7.738 7.738 0 0 0 2.672-.451.784.784 0 0 0 .353-.398.653.653 0 0 0-.025-.55Zm-33.557.058a2.925 2.925 0 0 0-.094-.02c-.534-.112-1.226-.475-1.766-1-.621-.595-.936-1.462-.936-2.577v-3.88h2.601c.48 0 .852-.458.693-.955-.096-.299-.393-.489-.708-.489h-2.586v-3.4c0-.507-.542-.912-1.054-.63a.773.773 0 0 0-.382.682v3.37h-4.784c.106-.73.394-1.331.86-1.793.612-.593 1.423-.822 1.973-.913a.723.723 0 0 0 .664-.716c0-.4-.326-.723-.73-.723a.161.161 0 0 1-.047-.004c-.766.112-1.931.43-2.869 1.328-.883.852-1.342 2.035-1.366 3.517v8.882c0 .345.235.658.577.727a.728.728 0 0 0 .881-.706V8.41h4.841v3.857c0 1.519.46 2.733 1.365 3.607.795.774 1.77 1.241 2.51 1.394.515.096.97-.342.872-.851a.727.727 0 0 0-.515-.553Z" fill="#5A78A6"/><path d="m7.558 18.788-6.19-6.132a2.918 2.918 0 0 1 0-4.151L9.086.86a2.984 2.984 0 0 1 4.191 0l6.19 6.131L7.558 18.788Z" fill="#26D07C"/><path d="m3.019 18.784 5.408 5.356a2.983 2.983 0 0 0 4.191 0l7.718-7.644a2.918 2.918 0 0 0 0-4.151l-5.408-5.357L3.02 18.784Z" fill="#00A3E0"/><path d="m19.467 6.988-2.27 2.249-2.27-2.249h4.54Z" fill="#005587"/></g><defs><clipPath id="a"><path fill="#fff" transform="translate(.5)" d="M0 0h89.655v25H0z"/></clipPath></defs></svg>