<svg width="130" height="26" fill="none" xmlns="http://www.w3.org/2000/svg"><path fill-rule="evenodd" clip-rule="evenodd" d="M3.071.362C2.114 1.668.16 4.33 0 4.54c1.812.876 2.288 2.61 1.336 4.024-.952 1.412-1.336 5.497 0 8.906 1.069 2.727 6.69 6.399 9.367 7.893v-9.677l-1.259 1.259-3.906-3.907 1.824-1.824 2.082 2.082 1.26-1.259V.362c-.518.66-1.963 1.981-3.61 1.981-1.646 0-3.368-1.32-4.023-1.98Zm7.632 15.323 5.458-5.458-1.824-1.824-3.634 3.633V.362c.517.66 1.963 1.981 3.61 1.981 1.645 0 3.367-1.32 4.022-1.98.958 1.305 2.912 3.967 3.072 4.176-1.812.876-2.288 2.61-1.336 4.024.952 1.412 1.336 5.497 0 8.906-1.07 2.727-6.69 6.399-9.368 7.893v-9.677Z" fill="url(#a)"/><path d="m30.509 17.862-4.228-9.8h2.45l3.696 8.68h-1.442l3.752-8.68h2.254l-4.242 9.8h-2.24Zm7.3 0v-9.8h4.242c.877 0 1.633.145 2.268.434.635.28 1.125.686 1.47 1.218.345.532.518 1.167.518 1.904 0 .728-.173 1.358-.518 1.89-.345.532-.835.943-1.47 1.232-.635.28-1.39.42-2.268.42h-2.982l1.008-1.022v3.724h-2.268Zm2.268-3.472-1.008-1.078h2.856c.7 0 1.223-.149 1.568-.448.345-.298.518-.714.518-1.246 0-.541-.173-.961-.518-1.26-.345-.298-.868-.448-1.568-.448h-2.856l1.008-1.078v5.558Zm7.85 3.472v-9.8h1.875l5.782 7.056h-.91V8.062h2.24v9.8h-1.862l-5.796-7.056h.91v7.056h-2.24Zm14.428.07a5.901 5.901 0 0 1-2.072-.364c-.644-.252-1.144-.574-1.498-.966l.322-.532c.336.346.793.64 1.372.882.588.234 1.209.35 1.862.35s1.185-.084 1.596-.252c.42-.177.728-.41.924-.7a1.63 1.63 0 0 0 .308-.966c0-.42-.112-.756-.336-1.008a2.348 2.348 0 0 0-.882-.602 8.102 8.102 0 0 0-1.19-.378c-.43-.102-.864-.21-1.302-.322a6.324 6.324 0 0 1-1.204-.462 2.4 2.4 0 0 1-.882-.756c-.215-.326-.322-.746-.322-1.26a2.4 2.4 0 0 1 .364-1.288c.242-.392.62-.709 1.134-.952.513-.242 1.171-.364 1.974-.364.541 0 1.073.08 1.596.238.532.159.984.374 1.358.644l-.266.574a4.425 4.425 0 0 0-1.33-.616c-.467-.14-.92-.21-1.358-.21-.626 0-1.144.089-1.554.266-.41.178-.714.416-.91.714-.196.29-.294.616-.294.98 0 .42.107.756.322 1.008.224.252.518.453.882.602.364.15.765.276 1.204.378.438.103.872.215 1.302.336.43.112.826.262 1.19.448a2.4 2.4 0 0 1 .882.756c.224.318.336.728.336 1.232 0 .458-.126.887-.378 1.288-.252.392-.64.71-1.162.952-.514.234-1.176.35-1.988.35Zm10.1 0a5.562 5.562 0 0 1-2.03-.364 4.956 4.956 0 0 1-1.61-1.05 4.764 4.764 0 0 1-1.065-1.568 5.132 5.132 0 0 1-.378-1.988c0-.718.126-1.376.378-1.974a4.726 4.726 0 0 1 1.064-1.582 4.927 4.927 0 0 1 1.624-1.036 5.274 5.274 0 0 1 2.016-.378c.69 0 1.335.112 1.932.336A4 4 0 0 1 75.94 9.35l-.448.462a3.738 3.738 0 0 0-1.4-.882 4.598 4.598 0 0 0-1.61-.28c-.625 0-1.209.108-1.75.322a4.267 4.267 0 0 0-1.4.91c-.392.392-.7.85-.924 1.372a4.452 4.452 0 0 0-.322 1.708c0 .616.107 1.186.322 1.708.224.523.532.98.924 1.372.401.392.868.696 1.4.91a4.703 4.703 0 0 0 1.75.322c.57 0 1.106-.088 1.61-.266.513-.186.98-.49 1.4-.91l.448.462c-.43.458-.947.803-1.554 1.036a5.459 5.459 0 0 1-1.932.336Zm3.979-.07 4.508-9.8h.714l4.508 9.8h-.77L81.138 8.51h.308l-4.242 9.352h-.77Zm1.652-2.758.238-.602h5.866l.238.602h-6.342Zm9.857 2.758v-9.8h.602l6.986 8.918h-.322V8.062h.714v9.8h-.588l-7-8.918h.322v8.918h-.714Zm11.402 0v-9.8h.602l6.986 8.918h-.322V8.062h.714v9.8h-.588l-7-8.918h.322v8.918h-.714Zm12.033-5.292h5.306v.63h-5.306v-.63Zm.084 4.648h6.048v.644h-6.762v-9.8h6.552v.644h-5.838v8.512Zm8.651.644v-9.8h3.514c.821 0 1.526.131 2.114.392.588.262 1.04.64 1.358 1.134.317.486.476 1.078.476 1.778 0 .682-.159 1.27-.476 1.764-.318.486-.77.864-1.358 1.134-.588.262-1.293.392-2.114.392h-3.122l.322-.336v3.542h-.714Zm6.804 0-2.548-3.556h.812l2.548 3.556h-.812Zm-6.09-3.5-.322-.336h3.122c1.054 0 1.852-.233 2.394-.7.55-.466.826-1.12.826-1.96 0-.849-.276-1.502-.826-1.96-.542-.466-1.34-.7-2.394-.7h-3.122l.322-.35v6.006Z" fill="#5A78A6"/><defs><radialGradient id="a" cx="0" cy="0" r="1" gradientUnits="userSpaceOnUse" gradientTransform="matrix(0 12.5 -10.7034 0 10.703 12.862)"><stop stop-color="#75AD64"/><stop offset="1" stop-color="#29800A"/></radialGradient></defs></svg>