<svg width="78" height="25" fill="none" xmlns="http://www.w3.org/2000/svg"><g clip-path="url(#a)"><path d="M6.208 14.998v-.053a10.708 10.708 0 0 1 0-4.89v-.053C7.316 5.047 11.645 1.255 16.942.825A11.529 11.529 0 0 0 12.686 0C6.059 0 .666 5.608.666 12.5S6.06 25 12.687 25c1.5 0 2.93-.3 4.255-.825-5.296-.428-9.625-4.222-10.733-9.177Z" fill="url(#b)"/><path d="M19.902 2.527a10.72 10.72 0 0 0-7.577 1.403c.12-.008.24-.024.361-.024 3.733 0 6.76 3.847 6.76 8.594s-3.027 8.594-6.76 8.594c-.122 0-.24-.016-.36-.024a10.715 10.715 0 0 0 7.576 1.403c2.91-2.284 4.803-5.898 4.803-9.973 0-4.075-1.893-7.69-4.803-9.973Z" fill="url(#c)"/></g><path d="M39.613 17.668c-1.017 0-1.937-.22-2.758-.658a4.964 4.964 0 0 1-1.918-1.806c-.457-.775-.686-1.643-.686-2.604 0-.961.229-1.825.686-2.59a4.93 4.93 0 0 1 1.918-1.82c.822-.439 1.74-.658 2.758-.658 1.017 0 1.932.22 2.744.658a4.93 4.93 0 0 1 1.918 1.82c.467.765.7 1.629.7 2.59 0 .961-.233 1.83-.7 2.604a4.964 4.964 0 0 1-1.918 1.806c-.812.439-1.727.658-2.744.658Zm0-1.932c.579 0 1.102-.13 1.568-.392.467-.27.83-.644 1.092-1.12.27-.476.406-1.017.406-1.624 0-.607-.135-1.148-.406-1.624a2.767 2.767 0 0 0-1.092-1.106 3.068 3.068 0 0 0-1.568-.406c-.578 0-1.101.135-1.568.406a2.86 2.86 0 0 0-1.106 1.106c-.261.476-.392 1.017-.392 1.624 0 .607.13 1.148.392 1.624.27.476.64.85 1.106 1.12.467.261.99.392 1.568.392Zm11.365-5.88c.7 0 1.334.163 1.904.49a3.4 3.4 0 0 1 1.358 1.358c.326.579.49 1.255.49 2.03 0 .775-.164 1.456-.49 2.044a3.517 3.517 0 0 1-1.358 1.358 3.844 3.844 0 0 1-1.904.476c-.962 0-1.718-.303-2.268-.91v3.514h-2.184V9.968h2.086v.868c.541-.653 1.33-.98 2.366-.98ZM50.6 15.82c.56 0 1.017-.187 1.372-.56.364-.383.546-.891.546-1.526s-.182-1.139-.546-1.512c-.355-.383-.812-.574-1.372-.574s-1.022.191-1.386.574c-.355.373-.532.877-.532 1.512s.177 1.143.532 1.526c.364.373.826.56 1.386.56Zm12.97-2.058c0 .028-.014.224-.042.588H57.83c.102.467.345.835.728 1.106.382.27.858.406 1.428.406.392 0 .737-.056 1.036-.168a2.6 2.6 0 0 0 .854-.56l1.162 1.26c-.71.812-1.746 1.218-3.108 1.218-.85 0-1.601-.163-2.254-.49a3.69 3.69 0 0 1-1.512-1.386c-.355-.588-.532-1.255-.532-2.002 0-.737.172-1.4.518-1.988a3.676 3.676 0 0 1 1.442-1.386 4.227 4.227 0 0 1 2.058-.504c.737 0 1.404.159 2.002.476a3.417 3.417 0 0 1 1.4 1.372c.345.588.518 1.274.518 2.058Zm-3.906-2.254c-.495 0-.91.14-1.246.42-.336.28-.542.663-.616 1.148h3.71c-.075-.476-.28-.854-.616-1.134-.336-.29-.747-.434-1.232-.434Zm7.446-.546c.261-.364.611-.64 1.05-.826.448-.187.961-.28 1.54-.28v2.016a7.852 7.852 0 0 0-.49-.028c-.626 0-1.116.177-1.47.532-.355.345-.532.868-.532 1.568V17.5h-2.184V9.968h2.086v.994Zm6.885-1.106c1.167 0 2.063.28 2.688.84.626.55.938 1.386.938 2.506V17.5h-2.044v-.938c-.41.7-1.176 1.05-2.296 1.05-.578 0-1.082-.098-1.512-.294a2.251 2.251 0 0 1-.966-.812 2.113 2.113 0 0 1-.336-1.176c0-.7.262-1.25.784-1.652.532-.401 1.349-.602 2.45-.602h1.736c0-.476-.144-.84-.434-1.092-.289-.261-.723-.392-1.302-.392a3.74 3.74 0 0 0-1.19.196c-.382.121-.709.29-.98.504l-.784-1.526c.411-.29.901-.513 1.47-.672a6.694 6.694 0 0 1 1.778-.238Zm-.168 6.286c.374 0 .705-.084.994-.252a1.45 1.45 0 0 0 .616-.77v-.77H73.94c-.896 0-1.344.294-1.344.882 0 .28.108.504.322.672.224.159.528.238.91.238Z" fill="#5A78A6"/><defs><linearGradient id="b" x1="8.805" y1="0" x2="8.805" y2="25" gradientUnits="userSpaceOnUse"><stop stop-color="#FF152E"/><stop offset=".525" stop-color="#FF1A2E"/><stop offset="1" stop-color="#AA000E"/></linearGradient><linearGradient id="c" x1="18.515" y1="2.344" x2="18.515" y2="22.656" gradientUnits="userSpaceOnUse"><stop stop-color="#9A0103"/><stop offset=".519" stop-color="#E33735"/><stop offset=".971" stop-color="#FF4C4D"/></linearGradient><clipPath id="a"><path fill="#fff" transform="translate(.667)" d="M0 0h24.038v25H0z"/></clipPath></defs></svg>