<svg width="50" height="51" fill="none" xmlns="http://www.w3.org/2000/svg"><g clip-path="url(#a)" fill="#879EC1"><path d="M35.922 27.53c-.066-6.336 5.164-9.369 5.396-9.52-2.937-4.294-7.508-4.884-9.141-4.95-3.887-.398-7.592 2.29-9.57 2.29-1.97 0-5.019-2.235-8.246-2.177-4.245.065-8.153 2.47-10.34 6.267-4.408 7.651-1.13 18.983 3.165 25.196 2.1 3.036 4.607 6.445 7.892 6.325 3.166-.127 4.36-2.05 8.189-2.05 3.828 0 4.904 2.05 8.25 1.989 3.409-.066 5.564-3.098 7.646-6.14 2.412-3.526 3.405-6.942 3.466-7.112-.08-.044-6.639-2.554-6.707-10.118ZM29.627 8.95c1.742-2.113 2.923-5.054 2.6-7.985-2.517.101-5.556 1.67-7.363 3.786-1.619 1.872-3.028 4.861-2.651 7.734 2.803.22 5.672-1.427 7.414-3.536Z"/></g><defs><clipPath id="a"><path fill="#fff" transform="translate(.006 .965)" d="M0 0h49.988v50H0z"/></clipPath></defs></svg>