<svg width="23" height="18" fill="none" xmlns="http://www.w3.org/2000/svg"><path d="M17.784 6.66c-.044-2.977-2.66-5.387-5.87-5.387a6.11 6.11 0 0 0-3.872 1.361 5.4 5.4 0 0 0-1.867 2.979 5.6 5.6 0 0 0-.056 0c-2.742 0-4.973 2.075-4.973 4.627 0 2.551 2.231 4.627 4.973 4.627h1.825c.247 0 .448-.187.448-.417 0-.23-.2-.416-.448-.416H6.12c-2.248 0-4.078-1.702-4.078-3.794 0-2.093 1.83-3.795 4.078-3.795.12 0 .247.006.387.018.239.021.453-.137.486-.358.16-1.099.744-2.11 1.642-2.846a5.177 5.177 0 0 1 3.28-1.153c2.744 0 4.975 2.077 4.975 4.63 0 .091-.018.329-.018.329a.4.4 0 0 0 .135.328.468.468 0 0 0 .356.116c.119-.012.239-.017.357-.017 1.938 0 3.515 1.467 3.515 3.27 0 1.805-1.577 3.272-3.515 3.272h-2.004c-.247 0-.448.186-.448.416 0 .23.2.417.448.417h2.004c2.432 0 4.41-1.841 4.41-4.104 0-2.243-1.943-4.071-4.345-4.103Z" fill="#fff"/><path d="M12.745 4.392c-1.871 0-3.473 1.301-3.726 3.026-.033.228.138.438.383.47a.445.445 0 0 0 .504-.357c.192-1.315 1.413-2.306 2.839-2.306.247 0 .447-.187.447-.417 0-.23-.2-.416-.447-.416Zm1.24 10.765a.471.471 0 0 0-.632-.034l-1.076.895v-5.123c0-.23-.2-.416-.448-.416-.247 0-.447.187-.447.417v5.122l-1.076-.895a.471.471 0 0 0-.632.034.397.397 0 0 0 .035.588l1.628 1.353c.14.116.316.175.492.175a.77.77 0 0 0 .493-.175l1.627-1.353a.396.396 0 0 0 .036-.588Z" fill="#fff"/><path d="M17.784 6.66c-.044-2.977-2.66-5.387-5.87-5.387a6.11 6.11 0 0 0-3.872 1.361 5.4 5.4 0 0 0-1.867 2.979 5.6 5.6 0 0 0-.056 0c-2.742 0-4.973 2.075-4.973 4.627 0 2.551 2.231 4.627 4.973 4.627h1.825c.247 0 .448-.187.448-.417 0-.23-.2-.416-.448-.416H6.12c-2.248 0-4.078-1.702-4.078-3.794 0-2.093 1.83-3.795 4.078-3.795.12 0 .247.006.387.018.239.021.453-.137.486-.358.16-1.099.744-2.11 1.642-2.846a5.177 5.177 0 0 1 3.28-1.153c2.744 0 4.975 2.077 4.975 4.63 0 .091-.018.329-.018.329a.4.4 0 0 0 .135.328.468.468 0 0 0 .356.116c.119-.012.239-.017.357-.017 1.938 0 3.515 1.467 3.515 3.27 0 1.805-1.577 3.272-3.515 3.272h-2.004c-.247 0-.448.186-.448.416 0 .23.2.417.448.417h2.004c2.432 0 4.41-1.841 4.41-4.104 0-2.243-1.943-4.071-4.345-4.103Z" stroke="#fff"/><path d="M12.745 4.392c-1.871 0-3.473 1.301-3.726 3.026-.033.228.138.438.383.47a.445.445 0 0 0 .504-.357c.192-1.315 1.413-2.306 2.839-2.306.247 0 .447-.187.447-.417 0-.23-.2-.416-.447-.416Zm1.24 10.765a.471.471 0 0 0-.632-.034l-1.076.895v-5.123c0-.23-.2-.416-.448-.416-.247 0-.447.187-.447.417v5.122l-1.076-.895a.471.471 0 0 0-.632.034.397.397 0 0 0 .035.588l1.628 1.353c.14.116.316.175.492.175a.77.77 0 0 0 .493-.175l1.627-1.353a.396.396 0 0 0 .036-.588Z" stroke="#fff"/></svg>