<svg width="20" height="20" fill="none" xmlns="http://www.w3.org/2000/svg"><g clip-path="url(#a)" fill="#5A78A6"><path d="M11.406 10a1.406 1.406 0 1 1-2.812 0 1.406 1.406 0 0 1 2.812 0Z"/><path d="M12.375 5.75h-4.75A1.877 1.877 0 0 0 5.75 7.625v4.75c0 1.034.841 1.875 1.875 1.875h4.75a1.877 1.877 0 0 0 1.875-1.875v-4.75a1.877 1.877 0 0 0-1.875-1.875ZM10 12.344A2.346 2.346 0 0 1 7.656 10 2.346 2.346 0 0 1 10 7.656 2.346 2.346 0 0 1 12.344 10 2.346 2.346 0 0 1 10 12.344Zm2.688-4.563a.469.469 0 1 1 0-.937.469.469 0 0 1 0 .937Z"/><path d="M13.781 2H6.22A4.224 4.224 0 0 0 2 6.219v7.562A4.224 4.224 0 0 0 6.219 18h7.562A4.224 4.224 0 0 0 18 13.781V6.22A4.224 4.224 0 0 0 13.781 2Zm1.406 10.375a2.816 2.816 0 0 1-2.812 2.813h-4.75a2.816 2.816 0 0 1-2.813-2.813v-4.75a2.816 2.816 0 0 1 2.813-2.813h4.75a2.816 2.816 0 0 1 2.813 2.813v4.75Z"/></g><defs><clipPath id="a"><path fill="#fff" transform="translate(2 2)" d="M0 0h16v16H0z"/></clipPath></defs></svg>