<svg width="100" height="25" fill="none" xmlns="http://www.w3.org/2000/svg"><g clip-path="url(#a)"><path d="M28.995 21.036c-1.254-1.779-3.119-1.889-4.406-1.158-1.299.739-2.064 2.363-1.302 4.209-4.037 1.291-8.048 1.228-12.056-.12.543-1.641.122-3.04-1.133-3.94-.97-.697-2.76-.979-4.325.543.042-.982.36-1.817.871-2.588.787-1.185 1.836-2.103 2.986-2.916 2.593-1.832 4.697-4.088 6.03-7 .724-1.582 1.164-3.224.857-5.062.598.076 1.203.07 1.799-.018a8.106 8.106 0 0 0 .297 3.503c.822 2.716 2.45 4.907 4.48 6.838 1.073 1.02 2.352 1.778 3.459 2.754 1.046.921 1.97 1.947 2.373 3.321.15.51.362 1.045.07 1.635v-.001Z" fill="#2C9BE3"/><path d="M3.3 5.169c-1.363-.672-1.922-1.726-1.78-3.167C1.65.712 2.74-.4 4.344.14c1.022.345 1.678 1.046 2.004 2.08.913-.278 1.75-.666 2.67-.815.95-.155 1.83.057 2.717.306.579.162 1.146.368 1.719.55.827.261 1.103.623 1.157 1.498.11 1.795-.576 3.355-1.463 4.843-1.19 1.998-2.838 3.56-4.726 4.898-1.632 1.157-3.076 2.502-3.963 4.349a6.584 6.584 0 0 0-.65 3.042c-1.46-.707-2.795-1.452-3.46-2.977-.372-.856-.122-1.662.277-2.438.534-1.037 1.16-2.04 1.217-3.253.033-.735.114-1.464.202-2.195.199-1.652.555-3.262 1.255-4.86Zm2.196 5.309c-.005.83.59 1.456 1.385 1.454.782-.002 1.412-.65 1.421-1.458.009-.74-.644-1.413-1.39-1.434-.76-.02-1.41.64-1.416 1.438ZM28.557 2.23c.43-1.236 1.229-2 2.515-2.193.75-.114 1.377.103 1.834.716.966 1.295.623 3.193-.729 4.086-.17.113-.345.218-.55.346.632 1.439.995 2.932 1.2 4.465.104.784.239 1.571.253 2.358.017 1.002.365 1.872.824 2.726.226.414.43.839.61 1.274.37.908.266 1.776-.304 2.576-.772 1.08-1.862 1.73-3.115 2.309-.002-.89-.085-1.705-.386-2.479-.71-1.82-1.96-3.225-3.499-4.366-1.86-1.378-3.682-2.782-4.987-4.737-1.059-1.588-1.907-3.258-1.937-5.227a3.03 3.03 0 0 1 .044-.564c.115-.658.41-1.119 1.142-1.28.749-.166 1.468-.47 2.207-.687 1.427-.418 2.793-.149 4.13.397.24.097.485.181.75.28h-.002Zm-.504 6.81c-.779-.027-1.507.666-1.52 1.444-.011.739.643 1.426 1.388 1.456.748.029 1.527-.71 1.536-1.456.008-.728-.664-1.418-1.404-1.444Z" fill="#2C9BE3"/><path d="M24.855 23.607c-.378-.574-.392-1.142-.126-1.69.323-.667.9-.924 1.638-.861.76.064 1.17.517 1.434 1.224-.91.564-1.917.875-2.946 1.327Zm-15.18-.15c-1.023-.357-2.003-.763-2.91-1.316.312-.916 1.22-1.342 2.1-1.018.682.25 1.463 1.326.81 2.335ZM42.74 6.518h-2.924v1.873h2.444c.227 0 .395.051.508.153a.523.523 0 0 1 .167.407.512.512 0 0 1-.17.405c-.113.1-.282.15-.505.15h-2.444v2.413c0 .307-.069.535-.207.683a.751.751 0 0 1-1.069-.002c-.138-.151-.207-.377-.207-.68V6.282c-.007-.18.025-.357.094-.522a.59.59 0 0 1 .298-.296 1.25 1.25 0 0 1 .517-.092h3.498c.237 0 .412.053.527.157a.532.532 0 0 1 .173.413.539.539 0 0 1-.173.417c-.115.105-.29.158-.526.158Zm2.836 5.401V6.148c0-.3.069-.525.205-.674a.682.682 0 0 1 .53-.226.707.707 0 0 1 .542.222c.138.148.207.375.208.678v5.771c0 .304-.07.53-.208.68a.702.702 0 0 1-.542.225.683.683 0 0 1-.528-.227c-.138-.152-.207-.378-.207-.678Zm5.57-5.771v5.331h3.008c.24 0 .424.059.552.176a.569.569 0 0 1 .193.44.555.555 0 0 1-.19.437c-.127.111-.312.167-.555.167H50.57c-.323 0-.556-.072-.697-.215-.142-.143-.212-.375-.212-.695V6.148c0-.3.067-.525.202-.674a.682.682 0 0 1 .532-.226.707.707 0 0 1 .543.222c.137.148.206.375.206.678Zm10.526.37H58.33v1.799h3.078c.226 0 .394.05.507.152a.518.518 0 0 1 .167.403.538.538 0 0 1-.164.407c-.11.104-.28.157-.51.157H58.33v2.084h3.458c.232 0 .408.054.526.162a.56.56 0 0 1 .178.432.546.546 0 0 1-.177.423c-.119.108-.295.162-.527.162h-4.033c-.323 0-.556-.072-.698-.215-.141-.143-.212-.375-.212-.695V6.283a1.233 1.233 0 0 1 .096-.522.59.59 0 0 1 .296-.296c.165-.066.34-.098.518-.092h3.917c.237 0 .413.053.528.157a.531.531 0 0 1 .172.413.536.536 0 0 1-.172.417c-.116.105-.29.158-.528.158Zm4.465-.37v2.099h3.204V6.148c0-.3.068-.525.202-.674a.682.682 0 0 1 .532-.226.707.707 0 0 1 .543.222c.138.148.207.375.207.678v5.771c0 .304-.07.53-.21.68a.706.706 0 0 1-.54.225.677.677 0 0 1-.534-.227c-.133-.152-.2-.378-.2-.678V9.457h-3.204v2.463c0 .304-.07.53-.21.68a.705.705 0 0 1-.54.225.676.676 0 0 1-.534-.227c-.134-.152-.2-.379-.2-.678V6.148c0-.3.066-.525.197-.674a.678.678 0 0 1 .537-.226.707.707 0 0 1 .543.222c.138.148.207.375.207.678Zm7.314 5.771V6.148c0-.3.069-.525.206-.674a.683.683 0 0 1 .529-.226.707.707 0 0 1 .542.222c.138.148.208.375.208.678v5.771c0 .304-.07.53-.208.68a.702.702 0 0 1-.542.225.684.684 0 0 1-.527-.227c-.139-.152-.208-.378-.208-.678Zm6.96-2.074h-1.36v2.074c0 .296-.07.522-.21.675a.74.74 0 0 1-1.069.003c-.137-.152-.206-.374-.206-.668V6.283c0-.327.075-.56.226-.7.15-.139.388-.21.714-.21h1.904c.563 0 .996.044 1.3.13a1.871 1.871 0 0 1 1.274 1.124 2.5 2.5 0 0 1 .17.945c0 .746-.23 1.312-.69 1.697-.46.385-1.144.576-2.054.576Zm-.361-3.357h-1v2.238h1c.296.007.592-.03.877-.11.214-.058.402-.184.537-.36.131-.192.196-.422.186-.654a1.11 1.11 0 0 0-.286-.79c-.213-.216-.651-.324-1.314-.324Zm8.159 3.357h-1.36v2.074c0 .296-.07.522-.21.675a.74.74 0 0 1-1.07.003c-.136-.152-.205-.374-.204-.668V6.283c0-.327.075-.56.225-.7.15-.139.388-.21.715-.21h1.904c.562 0 .995.044 1.299.13a1.87 1.87 0 0 1 1.275 1.124c.116.302.174.622.168.945 0 .746-.23 1.312-.689 1.697-.46.385-1.145.576-2.053.576Zm-.36-3.357h-1v2.238h1c.295.007.592-.03.876-.11.214-.058.402-.184.538-.36.13-.192.195-.422.184-.654a1.11 1.11 0 0 0-.284-.79c-.214-.216-.652-.324-1.314-.324Zm8.537-1.24c.76 0 1.412.154 1.957.462a3 3 0 0 1 1.237 1.315c.28.568.419 1.235.419 2.001a4.861 4.861 0 0 1-.23 1.545 3.34 3.34 0 0 1-.69 1.204 3.01 3.01 0 0 1-1.128.78 4.452 4.452 0 0 1-3.074-.009 3.052 3.052 0 0 1-1.135-.781 3.34 3.34 0 0 1-.686-1.215 4.902 4.902 0 0 1-.232-1.534 4.721 4.721 0 0 1 .242-1.549c.147-.445.386-.853.702-1.199a3.036 3.036 0 0 1 1.12-.757 4.03 4.03 0 0 1 1.498-.263Zm2.109 3.768a3.437 3.437 0 0 0-.26-1.394 1.94 1.94 0 0 0-.742-.892 2.04 2.04 0 0 0-1.107-.302 2.008 2.008 0 0 0-.822.167c-.25.111-.473.278-.65.487a2.327 2.327 0 0 0-.429.818c-.11.362-.162.738-.157 1.116a3.79 3.79 0 0 0 .156 1.13c.09.306.241.591.446.837.18.212.405.382.66.496a2.083 2.083 0 0 0 1.863-.119c.336-.21.6-.517.76-.88.188-.396.282-.884.282-1.464Zm-57.491 9.812a1.03 1.03 0 0 1-.165.576 1.098 1.098 0 0 1-.484.4 1.814 1.814 0 0 1-.755.145 1.71 1.71 0 0 1-.864-.198 1.15 1.15 0 0 1-.39-.38.863.863 0 0 1-.151-.462.312.312 0 0 1 .32-.316.277.277 0 0 1 .192.073c.06.06.106.134.134.215.038.099.087.193.145.282a.59.59 0 0 0 .22.186.816.816 0 0 0 .375.074.845.845 0 0 0 .517-.148.45.45 0 0 0 .175-.524.392.392 0 0 0-.083-.132.69.69 0 0 0-.277-.168 4.761 4.761 0 0 0-.455-.123 3.336 3.336 0 0 1-.638-.208 1.031 1.031 0 0 1-.407-.326.845.845 0 0 1-.151-.512.88.88 0 0 1 .159-.518c.116-.16.276-.281.46-.35.227-.086.468-.127.71-.122.19-.003.38.024.563.082.143.045.277.118.394.214a.905.905 0 0 1 .23.281.66.66 0 0 1 .072.288.344.344 0 0 1-.192.307.287.287 0 0 1-.125.025.259.259 0 0 1-.186-.062.826.826 0 0 1-.14-.201.914.914 0 0 0-.23-.313c-.09-.074-.235-.111-.434-.111a.753.753 0 0 0-.448.121.353.353 0 0 0-.17.294.296.296 0 0 0 .057.183c.043.055.098.1.16.133.066.035.134.065.206.086.069.021.182.052.342.092.183.042.363.093.54.154.147.05.286.118.414.206a.842.842 0 0 1 .264.304c.068.141.1.296.096.452Zm3.497-.218c.001.185-.03.37-.093.543a1.17 1.17 0 0 1-.68.7 1.455 1.455 0 0 1-.542.096 1.413 1.413 0 0 1-.538-.096 1.187 1.187 0 0 1-.68-.701 1.55 1.55 0 0 1-.09-.541 1.57 1.57 0 0 1 .092-.548 1.159 1.159 0 0 1 .678-.696 1.57 1.57 0 0 1 1.08.001 1.167 1.167 0 0 1 .681.7c.062.173.093.357.09.542h.002Zm-.662 0c0-.268-.059-.477-.177-.627a.575.575 0 0 0-.476-.224.59.59 0 0 0-.34.1.635.635 0 0 0-.227.296 1.34 1.34 0 0 0-.002.906.582.582 0 0 0 .568.398.575.575 0 0 0 .477-.225c.118-.15.177-.358.177-.623v-.001Zm1.596-1.28h.156v-.198a1.24 1.24 0 0 1 .079-.49.498.498 0 0 1 .265-.266c.164-.062.338-.09.513-.083.384 0 .575.094.575.282a.217.217 0 0 1-.06.157.188.188 0 0 1-.142.066 1.194 1.194 0 0 1-.132-.015 1.026 1.026 0 0 0-.16-.015c-.118 0-.195.035-.228.105a.709.709 0 0 0-.051.3v.157h.162c.25 0 .376.075.376.227 0 .107-.033.176-.1.205a.714.714 0 0 1-.276.043h-.162v1.743a.427.427 0 0 1-.093.299.309.309 0 0 1-.24.102.301.301 0 0 1-.233-.102.429.429 0 0 1-.093-.299v-1.743h-.18a.346.346 0 0 1-.227-.066.213.213 0 0 1-.08-.173c0-.157.11-.236.33-.236Zm2.203 0h.072v-.395c0-.107.003-.19.008-.25a.389.389 0 0 1 .047-.156.315.315 0 0 1 .471-.082.325.325 0 0 1 .114.178c.015.084.02.17.019.256v.449h.24a.314.314 0 0 1 .215.066.222.222 0 0 1 .073.17.192.192 0 0 1-.105.186.694.694 0 0 1-.3.053h-.124v1.21c0 .08.003.16.012.239a.24.24 0 0 0 .057.134.194.194 0 0 0 .153.052.835.835 0 0 0 .157-.02.807.807 0 0 1 .155-.02c.054 0 .107.023.143.063a.211.211 0 0 1 .064.158.264.264 0 0 1-.173.244 1.167 1.167 0 0 1-.5.084.856.856 0 0 1-.468-.104.481.481 0 0 1-.208-.287 1.946 1.946 0 0 1-.05-.49v-1.264h-.087a.311.311 0 0 1-.216-.067.22.22 0 0 1-.075-.171.212.212 0 0 1 .078-.17.338.338 0 0 1 .228-.066Zm2.591.352.43 1.47.39-1.366a4.88 4.88 0 0 1 .093-.294.386.386 0 0 1 .113-.149.339.339 0 0 1 .228-.071.342.342 0 0 1 .23.072.408.408 0 0 1 .118.153c.022.056.054.152.094.288l.39 1.368.435-1.47c.029-.108.052-.184.07-.23a.305.305 0 0 1 .09-.127.269.269 0 0 1 .18-.054.29.29 0 0 1 .205.082c.055.05.087.12.086.193a.991.991 0 0 1-.074.306l-.538 1.578c-.046.133-.083.23-.109.29a.433.433 0 0 1-.122.158.408.408 0 0 1-.463-.005.452.452 0 0 1-.126-.183 3.463 3.463 0 0 1-.09-.282l-.376-1.283-.363 1.282a1.582 1.582 0 0 1-.157.405.32.32 0 0 1-.296.136.375.375 0 0 1-.185-.042.355.355 0 0 1-.127-.121.881.881 0 0 1-.09-.186l-.06-.17-.533-1.577a1.144 1.144 0 0 1-.08-.306.26.26 0 0 1 .085-.19.283.283 0 0 1 .208-.085.245.245 0 0 1 .222.093c.054.1.095.207.123.317Zm5.675 1.896a2.04 2.04 0 0 1-.463.278 1.287 1.287 0 0 1-.5.093.944.944 0 0 1-.445-.1.732.732 0 0 1-.296-.271.704.704 0 0 1-.103-.372.664.664 0 0 1 .17-.46.855.855 0 0 1 .471-.256c.042-.01.146-.031.312-.066a8.1 8.1 0 0 0 .81-.196.687.687 0 0 0-.105-.381c-.062-.08-.19-.122-.384-.122a.809.809 0 0 0-.379.07.614.614 0 0 0-.216.21 2.17 2.17 0 0 1-.128.185.209.209 0 0 1-.16.044.28.28 0 0 1-.192-.07.234.234 0 0 1-.08-.183.552.552 0 0 1 .123-.337.88.88 0 0 1 .383-.27c.207-.077.427-.113.649-.107.231-.009.463.026.682.103.155.058.28.174.35.324.076.187.11.387.103.589 0 .25-.001.501-.005.752.001.132.023.262.062.387.03.084.05.17.06.26a.243.243 0 0 1-.094.184.319.319 0 0 1-.216.083.29.29 0 0 1-.2-.096 1.412 1.412 0 0 1-.21-.275Zm-.044-.953a3.309 3.309 0 0 1-.421.112 9.953 9.953 0 0 0-.383.087.522.522 0 0 0-.202.108.276.276 0 0 0-.096.226.333.333 0 0 0 .113.255.42.42 0 0 0 .296.104.773.773 0 0 0 .361-.085.57.57 0 0 0 .242-.22c.06-.1.09-.264.09-.493v-.094Zm2.437.374v.55a.425.425 0 0 1-.094.3.314.314 0 0 1-.239.1.301.301 0 0 1-.234-.101.432.432 0 0 1-.091-.3v-1.832c0-.296.107-.444.32-.444a.267.267 0 0 1 .236.104.574.574 0 0 1 .08.306 1.16 1.16 0 0 1 .243-.306.502.502 0 0 1 .331-.104c.14 0 .28.036.403.104a.31.31 0 0 1 .195.274.262.262 0 0 1-.082.2.26.26 0 0 1-.181.078.809.809 0 0 1-.174-.045.813.813 0 0 0-.245-.044.357.357 0 0 0-.236.076.487.487 0 0 0-.143.225 1.57 1.57 0 0 0-.07.356 5.49 5.49 0 0 0-.019.503Zm3.694-.227h-1.288a.866.866 0 0 0 .09.396.606.606 0 0 0 .556.345.703.703 0 0 0 .406-.115c.059-.038.115-.08.168-.127.068-.06.134-.12.2-.183a.212.212 0 0 1 .145-.043.239.239 0 0 1 .164.055.2.2 0 0 1 .063.156.428.428 0 0 1-.07.21.828.828 0 0 1-.211.229 1.2 1.2 0 0 1-.354.181c-.16.051-.325.076-.492.073-.423 0-.752-.12-.986-.362-.234-.241-.352-.567-.352-.981a1.637 1.637 0 0 1 .087-.542 1.108 1.108 0 0 1 .663-.702c.173-.065.356-.097.54-.095.231-.006.46.05.662.163a1.107 1.107 0 0 1 .551.946c0 .166-.047.273-.142.323a.903.903 0 0 1-.4.074v-.001Zm-1.288-.373h1.194c-.017-.226-.077-.394-.183-.506a.544.544 0 0 0-.416-.168.526.526 0 0 0-.403.17.846.846 0 0 0-.192.504Zm6.9-1.455h-.78v2.568a.473.473 0 0 1-.1.33.333.333 0 0 1-.256.107.338.338 0 0 1-.26-.109.47.47 0 0 1-.1-.328v-2.568h-.78a.395.395 0 0 1-.273-.08.273.273 0 0 1-.09-.215.274.274 0 0 1 .093-.217.404.404 0 0 1 .27-.079h2.276a.396.396 0 0 1 .276.083.277.277 0 0 1 .09.213.27.27 0 0 1-.091.214.406.406 0 0 1-.275.08Zm1.793-.25v.976c.072-.086.155-.163.245-.23a.9.9 0 0 1 .264-.126 1.09 1.09 0 0 1 .311-.042.9.9 0 0 1 .445.106.823.823 0 0 1 .4.573c.016.111.024.224.024.337v1.26a.44.44 0 0 1-.09.3.304.304 0 0 1-.241.1c-.217 0-.325-.132-.325-.4v-1.11a1.02 1.02 0 0 0-.095-.486c-.062-.113-.18-.17-.356-.17a.534.534 0 0 0-.317.1.603.603 0 0 0-.212.273 1.747 1.747 0 0 0-.053.524v.87a.445.445 0 0 1-.088.299.306.306 0 0 1-.244.102c-.217 0-.326-.134-.326-.4v-2.856a.452.452 0 0 1 .086-.3.299.299 0 0 1 .24-.1.307.307 0 0 1 .244.101.444.444 0 0 1 .088.299Zm4.473 2.884a2.02 2.02 0 0 1-.461.278 1.29 1.29 0 0 1-.501.093.947.947 0 0 1-.445-.1.732.732 0 0 1-.296-.271.704.704 0 0 1-.103-.372.664.664 0 0 1 .171-.46.855.855 0 0 1 .47-.256c.042-.01.146-.031.311-.066.273-.051.544-.116.81-.196a.687.687 0 0 0-.104-.381c-.062-.08-.19-.122-.385-.122a.805.805 0 0 0-.377.07.613.613 0 0 0-.218.21 2.16 2.16 0 0 1-.127.185.21.21 0 0 1-.16.044.28.28 0 0 1-.193-.07.235.235 0 0 1-.08-.183.553.553 0 0 1 .123-.337.88.88 0 0 1 .383-.27 1.73 1.73 0 0 1 .649-.107c.232-.009.464.026.683.103.154.058.28.174.35.324.076.187.111.387.103.589 0 .25-.002.501-.005.752.001.132.022.262.061.387.03.084.051.17.062.26a.244.244 0 0 1-.095.184.319.319 0 0 1-.216.083.291.291 0 0 1-.2-.096 1.416 1.416 0 0 1-.21-.275Zm-.044-.953a3.318 3.318 0 0 1-.42.112 9.558 9.558 0 0 0-.382.087.525.525 0 0 0-.203.108.278.278 0 0 0-.097.226.334.334 0 0 0 .114.255.42.42 0 0 0 .296.104.773.773 0 0 0 .362-.085.57.57 0 0 0 .242-.22c.059-.1.088-.264.088-.493v-.094Zm1.698-1.295h.072v-.395c0-.107.003-.19.008-.25a.316.316 0 0 1 .518-.238.325.325 0 0 1 .114.178c.014.084.02.17.018.256v.449h.242a.315.315 0 0 1 .214.066.224.224 0 0 1 .073.17.192.192 0 0 1-.105.186.694.694 0 0 1-.3.053h-.124v1.21c0 .08.002.16.01.239a.24.24 0 0 0 .058.134.197.197 0 0 0 .154.052.826.826 0 0 0 .156-.02.805.805 0 0 1 .155-.02c.055 0 .107.023.144.063a.214.214 0 0 1 .064.158.264.264 0 0 1-.174.244 1.164 1.164 0 0 1-.5.084.853.853 0 0 1-.467-.104.481.481 0 0 1-.209-.287 1.95 1.95 0 0 1-.049-.49v-1.264h-.087a.314.314 0 0 1-.217-.067.22.22 0 0 1-.074-.171.21.21 0 0 1 .078-.17.338.338 0 0 1 .228-.066Zm5.125 2.026-.568-2.253v2.441a.444.444 0 0 1-.09.305.333.333 0 0 1-.475 0 .44.44 0 0 1-.093-.305v-2.797c0-.155.04-.26.121-.313a.577.577 0 0 1 .326-.08h.222a.847.847 0 0 1 .29.036c.06.023.109.07.134.13.041.098.074.201.099.305l.514 1.937.513-1.937c.025-.104.058-.206.099-.305a.244.244 0 0 1 .134-.13.851.851 0 0 1 .291-.037h.222a.577.577 0 0 1 .325.081c.08.053.12.158.12.313v2.797a.445.445 0 0 1-.09.305.309.309 0 0 1-.242.1.301.301 0 0 1-.234-.101.44.44 0 0 1-.092-.305v-2.44l-.567 2.253a4.589 4.589 0 0 1-.09.321.444.444 0 0 1-.13.188.376.376 0 0 1-.259.084.381.381 0 0 1-.348-.193.79.79 0 0 1-.076-.187l-.056-.214Zm5.008.222a2.038 2.038 0 0 1-.462.278 1.286 1.286 0 0 1-.5.093.945.945 0 0 1-.445-.1.732.732 0 0 1-.296-.271.703.703 0 0 1-.104-.372.664.664 0 0 1 .172-.46.855.855 0 0 1 .47-.256c.042-.01.145-.031.311-.066.273-.051.544-.116.81-.196a.688.688 0 0 0-.105-.381c-.062-.08-.19-.122-.384-.122a.81.81 0 0 0-.378.07.614.614 0 0 0-.217.21 1.963 1.963 0 0 1-.128.185.208.208 0 0 1-.16.044.28.28 0 0 1-.192-.07.235.235 0 0 1-.08-.183.553.553 0 0 1 .123-.337.88.88 0 0 1 .383-.27 1.73 1.73 0 0 1 .649-.107c.232-.009.463.026.683.103.154.058.28.174.35.324.076.187.111.387.103.589 0 .25-.002.501-.005.752.001.132.022.262.061.387.03.084.05.17.062.26a.244.244 0 0 1-.095.184.32.32 0 0 1-.216.083.291.291 0 0 1-.2-.096 1.416 1.416 0 0 1-.21-.275Zm-.044-.953a3.313 3.313 0 0 1-.42.112c-.185.04-.311.069-.382.087a.52.52 0 0 0-.203.108.276.276 0 0 0-.097.226.334.334 0 0 0 .114.255.42.42 0 0 0 .296.104.773.773 0 0 0 .36-.085.57.57 0 0 0 .243-.22c.06-.1.09-.264.09-.493v-.094Zm1.697-1.295h.072v-.395c0-.107.004-.19.008-.25a.376.376 0 0 1 .048-.156.315.315 0 0 1 .471-.082.325.325 0 0 1 .114.178c.014.084.02.17.018.256v.449h.24a.313.313 0 0 1 .215.066.222.222 0 0 1 .074.17.193.193 0 0 1-.106.186.696.696 0 0 1-.3.053h-.123v1.21c-.002.08.002.16.01.239a.24.24 0 0 0 .058.134.196.196 0 0 0 .154.052.826.826 0 0 0 .156-.02.805.805 0 0 1 .155-.02.2.2 0 0 1 .144.063.216.216 0 0 1 .063.158.264.264 0 0 1-.173.244 1.168 1.168 0 0 1-.5.084.852.852 0 0 1-.468-.104.481.481 0 0 1-.208-.287 1.95 1.95 0 0 1-.05-.49v-1.264h-.086a.314.314 0 0 1-.217-.067.22.22 0 0 1-.075-.171.212.212 0 0 1 .078-.17.338.338 0 0 1 .228-.066Zm2.218 0h.072v-.395c0-.107.004-.19.008-.25a.387.387 0 0 1 .047-.156.315.315 0 0 1 .471-.082.325.325 0 0 1 .114.178c.015.084.02.17.019.256v.449h.24a.313.313 0 0 1 .215.066.222.222 0 0 1 .073.17.19.19 0 0 1-.105.186.694.694 0 0 1-.3.053h-.124v1.21c0 .08.003.16.012.239a.24.24 0 0 0 .057.134.195.195 0 0 0 .154.052.826.826 0 0 0 .156-.02.806.806 0 0 1 .155-.02c.054 0 .107.023.143.063a.211.211 0 0 1 .064.158.264.264 0 0 1-.174.244 1.166 1.166 0 0 1-.499.084.856.856 0 0 1-.468-.104.481.481 0 0 1-.209-.287 1.95 1.95 0 0 1-.049-.49v-1.264h-.086a.312.312 0 0 1-.217-.067.22.22 0 0 1-.075-.171.212.212 0 0 1 .078-.17.338.338 0 0 1 .228-.066Zm4.02 1.442h-1.288a.866.866 0 0 0 .09.396.605.605 0 0 0 .555.345.703.703 0 0 0 .406-.115c.059-.038.115-.08.168-.127.068-.06.135-.12.201-.183a.212.212 0 0 1 .145-.043.239.239 0 0 1 .164.055.2.2 0 0 1 .063.156.429.429 0 0 1-.071.21.828.828 0 0 1-.21.229 1.2 1.2 0 0 1-.355.181 1.508 1.508 0 0 1-.491.073c-.423 0-.752-.12-.987-.362-.234-.241-.352-.567-.352-.981a1.638 1.638 0 0 1 .087-.542 1.12 1.12 0 0 1 .664-.702c.172-.065.355-.097.54-.095.231-.006.46.05.661.163a1.107 1.107 0 0 1 .551.946c0 .166-.046.273-.142.323a.902.902 0 0 1-.4.074v-.001Zm-1.288-.373h1.193c-.016-.226-.076-.394-.182-.506a.545.545 0 0 0-.416-.168.526.526 0 0 0-.404.17.845.845 0 0 0-.191.504Zm3.508.6v.55a.43.43 0 0 1-.095.3.314.314 0 0 1-.238.1.301.301 0 0 1-.234-.101.432.432 0 0 1-.092-.3v-1.832c0-.296.107-.444.321-.444.09-.008.18.031.236.104a.575.575 0 0 1 .08.306c.062-.115.144-.218.242-.306a.502.502 0 0 1 .332-.104c.14 0 .28.036.403.104a.309.309 0 0 1 .195.274.26.26 0 0 1-.083.2.256.256 0 0 1-.18.078.806.806 0 0 1-.175-.045.812.812 0 0 0-.245-.044.357.357 0 0 0-.236.076.486.486 0 0 0-.142.225 1.57 1.57 0 0 0-.07.356 5.624 5.624 0 0 0-.02.503h.001Zm3.975.089a.764.764 0 0 1-.524.761 1.758 1.758 0 0 1-.631.1 1.537 1.537 0 0 1-.608-.109.886.886 0 0 1-.373-.271.547.547 0 0 1-.121-.327.266.266 0 0 1 .272-.263.232.232 0 0 1 .16.051.56.56 0 0 1 .106.142c.057.107.14.198.242.264.118.063.25.093.384.086a.552.552 0 0 0 .325-.088.246.246 0 0 0 .127-.201.274.274 0 0 0-.132-.254 1.629 1.629 0 0 0-.432-.151 3.582 3.582 0 0 1-.554-.178.91.91 0 0 1-.341-.245.56.56 0 0 1-.128-.373.65.65 0 0 1 .118-.374.811.811 0 0 1 .349-.28 1.34 1.34 0 0 1 .556-.106c.154-.002.309.016.459.053.12.028.235.077.34.143a.697.697 0 0 1 .207.197.38.38 0 0 1 .072.212.247.247 0 0 1-.077.186.303.303 0 0 1-.215.073.268.268 0 0 1-.173-.058 1.167 1.167 0 0 1-.163-.174.596.596 0 0 0-.176-.154.556.556 0 0 0-.274-.058.54.54 0 0 0-.297.076.221.221 0 0 0-.119.189c0 .067.032.132.088.17.07.05.15.088.233.11.099.028.234.064.406.107.172.037.34.098.5.177a.825.825 0 0 1 .294.245.543.543 0 0 1 .1.322Z" fill="#5A78A6"/></g><defs><clipPath id="a"><path fill="#fff" transform="translate(.167)" d="M0 0h99.753v25H0z"/></clipPath></defs></svg>