<svg width="20" height="20" fill="none" xmlns="http://www.w3.org/2000/svg"><path d="M18.526 4.768a7.054 7.054 0 0 1-2.01.545A3.478 3.478 0 0 0 18.054 3.4a7.052 7.052 0 0 1-2.22.84 3.512 3.512 0 0 0-2.554-1.093c-1.932 0-3.499 1.549-3.499 3.46 0 .271.031.536.091.789a9.967 9.967 0 0 1-7.21-3.616 3.416 3.416 0 0 0-.474 1.74c0 1.2.618 2.26 1.556 2.88a3.513 3.513 0 0 1-1.584-.432v.043c0 1.677 1.206 3.076 2.806 3.393a3.538 3.538 0 0 1-1.58.06 3.497 3.497 0 0 0 3.268 2.403 7.067 7.067 0 0 1-4.345 1.482c-.282 0-.56-.017-.834-.049a9.979 9.979 0 0 0 5.362 1.555c6.434 0 9.953-5.273 9.953-9.846 0-.15-.003-.3-.01-.448a7.07 7.07 0 0 0 1.745-1.792Z" fill="#5A78A6"/></svg>