<svg width="30" height="31" fill="none" xmlns="http://www.w3.org/2000/svg"><rect y=".988" width="30" height="30" rx="15" fill="#F1F4FB"/><path fill-rule="evenodd" clip-rule="evenodd" d="M17.75 15.905a4.287 4.287 0 0 0 1.304-3.1c0-2.33-1.814-4.22-4.053-4.22s-4.053 1.89-4.053 4.22c0 1.225.502 2.329 1.304 3.1a7.53 7.53 0 0 0-2.597 1.803c-1.197 1.272-1.95 2.926-2.157 4.692-.063.544.387.99.935.99s.984-.447 1.07-.988a6.063 6.063 0 0 1 1.555-3.202c1.046-1.111 2.463-1.736 3.942-1.736 1.478 0 2.896.625 3.942 1.736a6.063 6.063 0 0 1 1.555 3.202c.086.541.522.988 1.07.988s.998-.446.935-.99c-.207-1.766-.96-3.42-2.157-4.692a7.533 7.533 0 0 0-2.596-1.803Zm-2.75-.57c-1.342 0-2.431-1.133-2.431-2.53 0-1.399 1.089-2.532 2.432-2.532s2.432 1.133 2.432 2.531c0 1.398-1.089 2.531-2.432 2.531Z" fill="#87AB49"/></svg>