<svg width="50" height="51" fill="none" xmlns="http://www.w3.org/2000/svg"><g clip-path="url(#a)" fill="#1C2129"><path d="M35.925 27.536c-.066-6.337 5.166-9.37 5.398-9.523-2.938-4.293-7.51-4.884-9.144-4.95-3.887-.398-7.593 2.29-9.571 2.29-1.97 0-5.021-2.235-8.249-2.177-4.246.065-8.155 2.471-10.343 6.269-4.408 7.653-1.13 18.987 3.167 25.201 2.1 3.037 4.607 6.447 7.893 6.327 3.166-.127 4.362-2.05 8.191-2.05 3.83 0 4.905 2.05 8.253 1.988 3.409-.065 5.564-3.098 7.647-6.141 2.413-3.526 3.405-6.943 3.467-7.113-.08-.044-6.64-2.555-6.71-10.12ZM29.629 8.951c1.742-2.112 2.923-5.055 2.6-7.986-2.517.101-5.556 1.67-7.364 3.786-1.62 1.874-3.029 4.863-2.652 7.737 2.804.22 5.673-1.428 7.416-3.537Z"/></g><defs><clipPath id="a"><path fill="#fff" transform="translate(0 .965)" d="M0 0h50v50.012H0z"/></clipPath></defs></svg>