<svg width="50" height="51" fill="none" xmlns="http://www.w3.org/2000/svg"><g clip-path="url(#a)"><path d="M11.525 30.969v-.106a20.643 20.643 0 0 1 0-9.784v-.106c2.306-9.912 11.31-17.498 22.328-18.358A24.815 24.815 0 0 0 25 .965C11.216.965 0 12.183 0 25.97c0 13.787 11.216 25.006 25 25.006 3.119 0 6.094-.6 8.85-1.65-11.016-.857-20.019-8.446-22.325-18.358Z" fill="url(#b)"/><path d="M40.01 6.019a23.598 23.598 0 0 0-4.072-.366c-4.3 0-8.3 1.176-11.688 3.173.25-.016.497-.047.75-.047 7.766 0 14.063 7.696 14.063 17.192S32.766 43.162 25 43.162c-.253 0-.5-.031-.75-.047a22.951 22.951 0 0 0 11.688 3.173c1.39 0 2.75-.134 4.071-.366C46.062 41.352 50 34.122 50 25.971c0-8.152-3.938-15.382-9.99-19.952Z" fill="url(#c)"/></g><defs><linearGradient id="b" x1="16.927" y1=".965" x2="16.927" y2="50.977" gradientUnits="userSpaceOnUse"><stop stop-color="#FF152E"/><stop offset=".525" stop-color="#FF1A2E"/><stop offset="1" stop-color="#AA000E"/></linearGradient><linearGradient id="c" x1="37.125" y1="5.653" x2="37.125" y2="46.288" gradientUnits="userSpaceOnUse"><stop stop-color="#9A0103"/><stop offset=".519" stop-color="#E33735"/><stop offset=".971" stop-color="#FF4C4D"/></linearGradient><clipPath id="a"><path fill="#fff" transform="translate(0 .965)" d="M0 0h50v50.012H0z"/></clipPath></defs></svg>