<svg width="50" height="53" fill="none" xmlns="http://www.w3.org/2000/svg"><g clip-path="url(#a)"><path d="M48.192 18.293c-1.087-2.617-3.294-5.443-5.021-6.336a26.007 26.007 0 0 1 2.535 7.595l.004.042c-2.83-7.052-7.627-9.9-11.547-16.094a30.347 30.347 0 0 1-.59-.958c-.11-.19-.199-.36-.276-.517a4.555 4.555 0 0 1-.373-.991.065.065 0 0 0-.057-.065.09.09 0 0 0-.047 0c-.003 0-.008.006-.012.007s-.013.007-.018.01l.01-.017c-6.288 3.681-8.422 10.495-8.616 13.905a12.523 12.523 0 0 0-6.891 2.655 7.452 7.452 0 0 0-.646-.49 11.605 11.605 0 0 1-.07-6.118 18.534 18.534 0 0 0-6.025 4.657h-.012c-.992-1.258-.922-5.404-.865-6.27a4.474 4.474 0 0 0-.836.444 18.225 18.225 0 0 0-2.446 2.095 21.858 21.858 0 0 0-2.34 2.808v.004-.005a21.138 21.138 0 0 0-3.358 7.582l-.034.165c-.047.22-.217 1.324-.246 1.563 0 .02-.004.037-.006.055a23.858 23.858 0 0 0-.406 3.45v.13a25.032 25.032 0 0 0 49.696 4.233c.042-.323.077-.643.114-.969A25.743 25.743 0 0 0 48.19 18.29l.003.004Zm-28.85 19.594c.118.056.228.117.348.17l.017.012a12.848 12.848 0 0 1-.364-.182Zm26.369-18.286v-.024l.004.027-.004-.003Z" fill="url(#b)"/><path d="M48.192 18.293c-1.088-2.617-3.294-5.443-5.022-6.336a26.008 26.008 0 0 1 2.535 7.595v.024l.005.026a22.669 22.669 0 0 1-.779 16.895c-2.869 6.156-9.81 12.465-20.68 12.155-11.74-.333-22.087-9.048-24.018-20.46-.352-1.8 0-2.713.177-4.175a18.65 18.65 0 0 0-.402 3.454v.129a25.032 25.032 0 0 0 49.696 4.232c.042-.323.077-.642.114-.968a25.742 25.742 0 0 0-1.624-12.575l-.002.004Z" fill="url(#c)"/><path d="M48.192 18.293c-1.088-2.617-3.294-5.443-5.022-6.336a26.008 26.008 0 0 1 2.535 7.595v.024l.005.026a22.669 22.669 0 0 1-.779 16.895c-2.869 6.156-9.81 12.465-20.68 12.155-11.74-.333-22.087-9.048-24.018-20.46-.352-1.8 0-2.713.177-4.175a18.65 18.65 0 0 0-.402 3.454v.129a25.032 25.032 0 0 0 49.696 4.232c.042-.323.077-.642.114-.968a25.742 25.742 0 0 0-1.624-12.575l-.002.004Z" fill="url(#d)"/><path d="m36.025 21.23.155.115a13.626 13.626 0 0 0-2.325-3.032C26.073 10.531 31.816 1.444 32.785.98l.01-.014c-6.288 3.681-8.423 10.495-8.616 13.905.292-.02.581-.045.88-.045a12.631 12.631 0 0 1 10.966 6.405Z" fill="url(#e)"/><path d="M25.071 22.787c-.041.623-2.24 2.77-3.01 2.77-7.117 0-8.273 4.306-8.273 4.306.315 3.625 2.842 6.613 5.896 8.189.14.072.28.137.422.201.245.109.49.21.735.301 1.048.371 2.146.583 3.257.629 12.477.585 14.893-14.919 5.89-19.42a8.641 8.641 0 0 1 6.035 1.465 12.632 12.632 0 0 0-10.967-6.405c-.297 0-.587.025-.88.045a12.522 12.522 0 0 0-6.89 2.655c.382.323.812.754 1.72 1.649 1.698 1.673 6.054 3.406 6.064 3.61l.001.005Z" fill="url(#f)"/><path d="M25.071 22.787c-.041.623-2.24 2.77-3.01 2.77-7.117 0-8.273 4.306-8.273 4.306.315 3.625 2.842 6.613 5.896 8.189.14.072.28.137.422.201.245.109.49.21.735.301 1.048.371 2.146.583 3.257.629 12.477.585 14.893-14.919 5.89-19.42a8.641 8.641 0 0 1 6.035 1.465 12.632 12.632 0 0 0-10.967-6.405c-.297 0-.587.025-.88.045a12.522 12.522 0 0 0-6.89 2.655c.382.323.812.754 1.72 1.649 1.698 1.673 6.054 3.406 6.064 3.61l.001.005Z" fill="url(#g)"/><path d="M16.12 16.697c.203.129.37.241.516.343a11.607 11.607 0 0 1-.07-6.118 18.534 18.534 0 0 0-6.025 4.656c.122-.003 3.753-.068 5.579 1.119Z" fill="url(#h)"/><path d="M.228 28.193c1.932 11.412 12.278 20.13 24.019 20.46 10.87.307 17.812-6.002 20.68-12.155a22.668 22.668 0 0 0 .778-16.894v-.024c0-.02-.004-.03 0-.024l.005.042c.888 5.797-2.061 11.412-6.672 15.215l-.014.033c-8.983 7.317-17.58 4.413-19.317 3.229a12.848 12.848 0 0 1-.364-.182c-5.237-2.503-7.401-7.272-6.936-11.366a6.429 6.429 0 0 1-5.93-3.73 9.442 9.442 0 0 1 9.204-.37 12.465 12.465 0 0 0 9.396.37c-.01-.203-4.365-1.937-6.064-3.61-.907-.895-1.338-1.325-1.72-1.649a7.502 7.502 0 0 0-.646-.49 34.716 34.716 0 0 0-.516-.342c-1.826-1.187-5.457-1.122-5.577-1.119h-.012c-.992-1.257-.922-5.404-.865-6.27a4.474 4.474 0 0 0-.836.444 18.228 18.228 0 0 0-2.446 2.096 21.857 21.857 0 0 0-2.35 2.8v.005-.005A21.138 21.138 0 0 0 .687 22.24c-.012.051-.902 3.939-.463 5.955l.004-.001Z" fill="url(#i)"/><path d="M33.854 18.312a13.593 13.593 0 0 1 2.325 3.035c.138.104.266.207.375.307 5.675 5.232 2.702 12.626 2.48 13.15 4.61-3.799 7.557-9.417 6.672-15.216-2.832-7.06-7.634-9.907-11.548-16.1a30.36 30.36 0 0 1-.59-.96 7.815 7.815 0 0 1-.275-.516 4.55 4.55 0 0 1-.373-.991.065.065 0 0 0-.057-.065.09.09 0 0 0-.047 0c-.004 0-.009.006-.013.007a.096.096 0 0 1-.018.01c-.968.46-6.71 9.552 1.072 17.328l-.003.01Z" fill="url(#j)"/><path d="M36.554 21.658a5.12 5.12 0 0 0-.375-.308c-.051-.038-.101-.076-.156-.114a8.642 8.642 0 0 0-6.035-1.466c9.003 4.502 6.588 20.002-5.89 19.42a11.132 11.132 0 0 1-3.256-.628 13.29 13.29 0 0 1-.735-.3 9.59 9.59 0 0 1-.422-.202l.017.01c1.74 1.188 10.333 4.09 19.317-3.228l.014-.033c.224-.523 3.197-7.918-2.48-13.149l.001-.002Z" fill="url(#k)"/><path d="M13.788 29.859s1.156-4.306 8.273-4.306c.77 0 2.971-2.147 3.01-2.77a12.464 12.464 0 0 1-9.396-.37 9.441 9.441 0 0 0-9.203.37 6.428 6.428 0 0 0 5.929 3.73c-.464 4.092 1.7 8.86 6.936 11.366.117.057.227.117.347.17-3.057-1.578-5.58-4.565-5.896-8.188v-.002Z" fill="url(#l)"/><path d="M48.192 18.293c-1.088-2.617-3.294-5.443-5.022-6.336a26.01 26.01 0 0 1 2.535 7.595l.005.042c-2.83-7.052-7.627-9.9-11.548-16.094a30.535 30.535 0 0 1-.59-.958c-.11-.19-.198-.36-.275-.517a4.55 4.55 0 0 1-.373-.991.065.065 0 0 0-.057-.065.09.09 0 0 0-.047 0c-.004 0-.009.006-.013.007l-.018.01.01-.017c-6.287 3.681-8.422 10.495-8.615 13.905.292-.02.58-.045.88-.045a12.632 12.632 0 0 1 10.965 6.405 8.642 8.642 0 0 0-6.035-1.466c9.003 4.502 6.588 20.002-5.89 19.42a11.132 11.132 0 0 1-3.256-.628c-.245-.092-.49-.192-.735-.3a9.397 9.397 0 0 1-.422-.202l.017.01a12.848 12.848 0 0 1-.364-.18c.117.055.227.116.347.17-3.057-1.58-5.58-4.566-5.896-8.19 0 0 1.155-4.305 8.273-4.305.77 0 2.97-2.148 3.01-2.77-.01-.204-4.366-1.938-6.064-3.61-.907-.895-1.338-1.326-1.72-1.65a7.502 7.502 0 0 0-.646-.489 11.605 11.605 0 0 1-.07-6.118 18.534 18.534 0 0 0-6.025 4.657h-.012c-.992-1.258-.922-5.404-.865-6.27a4.474 4.474 0 0 0-.836.444 18.228 18.228 0 0 0-2.446 2.095 21.852 21.852 0 0 0-2.34 2.808v.004-.005a21.138 21.138 0 0 0-3.358 7.582l-.034.166c-.047.22-.258 1.338-.289 1.579a29.12 29.12 0 0 0-.37 3.49v.128A25.032 25.032 0 0 0 49.7 31.837c.042-.323.077-.643.114-.969a25.742 25.742 0 0 0-1.624-12.574l.002-.001Zm-2.483 1.285.004.027-.005-.027Z" fill="url(#m)"/></g><defs><radialGradient id="c" cx="0" cy="0" r="1" gradientUnits="userSpaceOnUse" gradientTransform="translate(43.27 6.777) scale(52.1829)"><stop offset=".129" stop-color="#FFBD4F"/><stop offset=".186" stop-color="#FFAC31"/><stop offset=".247" stop-color="#FF9D17"/><stop offset=".283" stop-color="#FF980E"/><stop offset=".403" stop-color="#FF563B"/><stop offset=".467" stop-color="#FF3750"/><stop offset=".71" stop-color="#F5156C"/><stop offset=".782" stop-color="#EB0878"/><stop offset=".86" stop-color="#E50080"/></radialGradient><radialGradient id="d" cx="0" cy="0" r="1" gradientUnits="userSpaceOnUse" gradientTransform="translate(23.896 28.09) scale(52.1829)"><stop offset=".3" stop-color="#960E18"/><stop offset=".351" stop-color="#B11927" stop-opacity=".74"/><stop offset=".435" stop-color="#DB293D" stop-opacity=".343"/><stop offset=".497" stop-color="#F5334B" stop-opacity=".094"/><stop offset=".53" stop-color="#FF3750" stop-opacity="0"/></radialGradient><radialGradient id="e" cx="0" cy="0" r="1" gradientUnits="userSpaceOnUse" gradientTransform="translate(30.354 -4.848) scale(37.8003)"><stop offset=".132" stop-color="#FFF44F"/><stop offset=".252" stop-color="#FFDC3E"/><stop offset=".506" stop-color="#FF9D12"/><stop offset=".526" stop-color="#FF980E"/></radialGradient><radialGradient id="f" cx="0" cy="0" r="1" gradientUnits="userSpaceOnUse" gradientTransform="translate(18.084 41.652) scale(24.845)"><stop offset=".353" stop-color="#3A8EE6"/><stop offset=".472" stop-color="#5C79F0"/><stop offset=".669" stop-color="#9059FF"/><stop offset="1" stop-color="#C139E6"/></radialGradient><radialGradient id="g" cx="0" cy="0" r="1" gradientUnits="userSpaceOnUse" gradientTransform="matrix(12.80594 -3.0961 3.62478 14.99264 26.42 23.61)"><stop offset=".206" stop-color="#9059FF" stop-opacity="0"/><stop offset=".278" stop-color="#8C4FF3" stop-opacity=".064"/><stop offset=".747" stop-color="#7716A8" stop-opacity=".45"/><stop offset=".975" stop-color="#6E008B" stop-opacity=".6"/></radialGradient><radialGradient id="h" cx="0" cy="0" r="1" gradientUnits="userSpaceOnUse" gradientTransform="translate(23.25 4.84) scale(17.8765)"><stop stop-color="#FFE226"/><stop offset=".121" stop-color="#FFDB27"/><stop offset=".295" stop-color="#FFC82A"/><stop offset=".502" stop-color="#FFA930"/><stop offset=".732" stop-color="#FF7E37"/><stop offset=".792" stop-color="#FF7139"/></radialGradient><radialGradient id="i" cx="0" cy="0" r="1" gradientUnits="userSpaceOnUse" gradientTransform="translate(37.458 -6.785) scale(76.2723)"><stop offset=".113" stop-color="#FFF44F"/><stop offset=".456" stop-color="#FF980E"/><stop offset=".622" stop-color="#FF5634"/><stop offset=".716" stop-color="#FF3647"/><stop offset=".904" stop-color="#E31587"/></radialGradient><radialGradient id="j" cx="0" cy="0" r="1" gradientUnits="userSpaceOnUse" gradientTransform="matrix(5.86574 55.58476 -36.47984 3.84964 31.119 -2.556)"><stop stop-color="#FFF44F"/><stop offset=".06" stop-color="#FFE847"/><stop offset=".168" stop-color="#FFC830"/><stop offset=".304" stop-color="#FF980E"/><stop offset=".356" stop-color="#FF8B16"/><stop offset=".455" stop-color="#FF672A"/><stop offset=".57" stop-color="#FF3647"/><stop offset=".737" stop-color="#E31587"/></radialGradient><radialGradient id="k" cx="0" cy="0" r="1" gradientUnits="userSpaceOnUse" gradientTransform="translate(23.25 11.299) scale(47.6104)"><stop offset=".137" stop-color="#FFF44F"/><stop offset=".48" stop-color="#FF980E"/><stop offset=".592" stop-color="#FF5634"/><stop offset=".655" stop-color="#FF3647"/><stop offset=".904" stop-color="#E31587"/></radialGradient><radialGradient id="l" cx="0" cy="0" r="1" gradientUnits="userSpaceOnUse" gradientTransform="translate(35.52 13.881) scale(52.1119)"><stop offset=".094" stop-color="#FFF44F"/><stop offset=".231" stop-color="#FFE141"/><stop offset=".509" stop-color="#FFAF1E"/><stop offset=".626" stop-color="#FF980E"/></radialGradient><linearGradient id="b" x1="44.879" y1="8.964" x2="3.324" y2="49.057" gradientUnits="userSpaceOnUse"><stop offset=".048" stop-color="#FFF44F"/><stop offset=".111" stop-color="#FFE847"/><stop offset=".225" stop-color="#FFC830"/><stop offset=".368" stop-color="#FF980E"/><stop offset=".401" stop-color="#FF8B16"/><stop offset=".462" stop-color="#FF672A"/><stop offset=".534" stop-color="#FF3647"/><stop offset=".705" stop-color="#E31587"/></linearGradient><linearGradient id="m" x1="44.375" y1="8.751" x2="9.022" y2="44.11" gradientUnits="userSpaceOnUse"><stop offset=".167" stop-color="#FFF44F" stop-opacity=".8"/><stop offset=".266" stop-color="#FFF44F" stop-opacity=".634"/><stop offset=".489" stop-color="#FFF44F" stop-opacity=".217"/><stop offset=".6" stop-color="#FFF44F" stop-opacity="0"/></linearGradient><clipPath id="a"><path fill="#fff" transform="translate(0 .965)" d="M0 0h50v51.647H0z"/></clipPath></defs></svg>