<svg width="93" height="26" fill="none" xmlns="http://www.w3.org/2000/svg"><g clip-path="url(#a)"><path d="M24.083 8.175H12.5a4.687 4.687 0 0 0-4.093 6.98L2.615 5.216C6.834-.243 14.68-1.248 20.14 2.97a12.492 12.492 0 0 1 3.944 5.205Z" fill="#F44336"/><path d="M25 12.863c-.006 6.9-5.599 12.493-12.5 12.5a11.154 11.154 0 0 1-1.562-.105l5.625-10.052A4.699 4.699 0 0 0 14.844 8.8a4.644 4.644 0 0 0-2.333-.625h11.572c.609 1.488.92 3.08.917 4.688Z" fill="#FFC107"/><path d="m16.563 15.206-5.625 10.052h-.01C4.083 24.393-.765 18.143.1 11.298a12.492 12.492 0 0 1 2.515-6.08l5.792 9.936.031.052a4.687 4.687 0 0 0 8.125 0Z" fill="#4CAF50"/><path d="M16.563 15.206a4.687 4.687 0 0 1-8.125 0l-.031-.052A4.687 4.687 0 0 1 12.5 8.175h.01a4.644 4.644 0 0 1 2.334.625 4.699 4.699 0 0 1 1.719 6.406Z" fill="#F44336"/><path d="M16.563 15.206a4.687 4.687 0 0 1-8.125 0l-.031-.052A4.687 4.687 0 0 1 12.5 8.175h.01a4.644 4.644 0 0 1 2.334.625 4.699 4.699 0 0 1 1.719 6.406Z" fill="#2196F3"/><path d="M12.483 18.07c-.908 0-1.8-.239-2.587-.693A5.208 5.208 0 0 1 12.5 7.655a5.208 5.208 0 0 1 4.515 7.812 5.238 5.238 0 0 1-4.532 2.604Zm.027-9.374a4.155 4.155 0 0 0-3.624 2.084 4.17 4.17 0 1 0 5.7-1.525 4.166 4.166 0 0 0-2.075-.559h-.001Z" fill="#FAFAFA"/></g><path d="M39.852 18.03c1.708 0 3.122-.616 4.046-1.75l-1.456-1.344c-.658.77-1.484 1.162-2.464 1.162-1.834 0-3.136-1.288-3.136-3.136s1.302-3.136 3.136-3.136c.98 0 1.806.392 2.464 1.148l1.456-1.344c-.924-1.12-2.338-1.736-4.032-1.736-3.052 0-5.32 2.114-5.32 5.068 0 2.954 2.268 5.068 5.306 5.068Zm10.002-7.812c-.966 0-1.806.308-2.394.896v-3.64h-2.184v10.388h2.184v-3.724c0-1.386.756-2.03 1.806-2.03.966 0 1.526.56 1.526 1.778v3.976h2.184V13.55c0-2.296-1.344-3.332-3.122-3.332Zm7.187 1.106v-.994h-2.086v7.532h2.184v-3.556c0-1.442.798-2.1 2.002-2.1.168 0 .308.014.49.028v-2.016c-1.162 0-2.058.378-2.59 1.106Zm7.404 6.65c2.395 0 4.13-1.61 4.13-3.878s-1.736-3.878-4.13-3.878c-2.393 0-4.143 1.61-4.143 3.878s1.75 3.878 4.143 3.878Zm0-1.792c-1.091 0-1.931-.784-1.931-2.086 0-1.302.84-2.086 1.931-2.086 1.093 0 1.919.784 1.919 2.086 0 1.302-.827 2.086-1.919 2.086Zm15.236-5.964c-1.134 0-2.114.462-2.716 1.232-.532-.826-1.428-1.232-2.478-1.232-.966 0-1.806.336-2.366.98v-.868h-2.086v7.532h2.184v-3.78c0-1.344.686-1.974 1.652-1.974.91 0 1.428.56 1.428 1.778v3.976h2.184v-3.78c0-1.344.686-1.974 1.666-1.974.882 0 1.428.56 1.428 1.778v3.976h2.184V13.55c0-2.296-1.288-3.332-3.08-3.332Zm12.498 3.906c0-2.422-1.708-3.906-3.92-3.906-2.296 0-4.018 1.624-4.018 3.878 0 2.24 1.694 3.878 4.298 3.878 1.358 0 2.408-.42 3.108-1.218l-1.162-1.26c-.518.49-1.092.728-1.89.728-1.148 0-1.946-.574-2.156-1.512h5.698c.014-.182.042-.42.042-.588Zm-3.906-2.254c.98 0 1.694.616 1.848 1.568h-3.71c.154-.966.868-1.568 1.862-1.568Z" fill="#5A78A6"/><defs><clipPath id="a"><path fill="#fff" transform="translate(0 .362)" d="M0 0h25v25H0z"/></clipPath></defs></svg>