<svg width="27" height="12" fill="none" xmlns="http://www.w3.org/2000/svg"><path d="M.167 1.773a1 1 0 0 1 1-1h24a1 1 0 0 1 1 1v9a1 1 0 0 1-1 1h-24a1 1 0 0 1-1-1v-9Z" fill="#FB1B43"/><path d="M5.576 7.773a.589.589 0 0 0-.037-.379.682.682 0 0 0-.22-.263 1.557 1.557 0 0 0-.337-.183c-.126-.05-.248-.098-.364-.142a7.396 7.396 0 0 1-.71-.308 3.215 3.215 0 0 1-.627-.41 1.762 1.762 0 0 1-.442-.552 1.466 1.466 0 0 1-.13-.749 1.61 1.61 0 0 1 .282-.838c.169-.237.386-.432.65-.583.264-.152.548-.262.852-.33a3.68 3.68 0 0 1 .908-.098c.418.006.791.089 1.12.25.332.16.591.39.779.69.19.297.28.654.271 1.07H6.12a1.039 1.039 0 0 0-.074-.473.636.636 0 0 0-.272-.312.962.962 0 0 0-.479-.116 1.407 1.407 0 0 0-.493.072 1.077 1.077 0 0 0-.42.25.77.77 0 0 0-.225.427.479.479 0 0 0 .06.343.852.852 0 0 0 .262.245c.114.066.232.122.355.17.126.047.238.087.337.12.248.092.488.199.719.32.233.12.439.262.617.429.181.163.32.355.415.574.095.22.133.474.115.762a1.707 1.707 0 0 1-.277.851c-.16.235-.364.427-.612.575a2.811 2.811 0 0 1-.825.326 3.88 3.88 0 0 1-.908.098 3.314 3.314 0 0 1-.954-.152 2.297 2.297 0 0 1-.774-.419 1.914 1.914 0 0 1-.516-.673 2.096 2.096 0 0 1-.166-.922l1.465.004c-.012.173 0 .326.037.46.04.13.102.24.184.33a.827.827 0 0 0 .328.195c.135.045.295.067.479.067.163.003.32-.02.475-.071a.977.977 0 0 0 .396-.236.723.723 0 0 0 .207-.42Zm5.645-3.44L8.636 9.515H7.019l3.575-6.488h1.028l-.4 1.306Zm.48 5.182-.752-5.325.046-1.163h.968l1.253 6.488H11.7Zm.35-2.415-.208 1.123h-3.4L8.65 7.1h3.4Zm6.179 1.292-.203 1.123h-3.295l.203-1.123h3.295ZM16.4 3.027l-1.165 6.488h-1.461l1.161-6.488h1.466Zm6.968 5.365-.203 1.123h-3.474l.203-1.123h3.474Zm-2.01-5.365-1.165 6.488h-1.46l1.16-6.488h1.466Zm2.052 2.611-.194 1.088h-3.027l.198-1.088h3.023Zm.921-2.611-.203 1.127H20.65l.208-1.127h3.474Z" fill="#fff"/></svg>