<svg width="20" height="16" fill="none" xmlns="http://www.w3.org/2000/svg"><path d="M15.458 5.348C15.42 2.704 13.096.564 10.245.564c-1.268 0-2.49.43-3.44 1.208a4.795 4.795 0 0 0-1.657 2.646h-.05C2.662 4.418.68 6.262.68 8.528s1.981 4.11 4.417 4.11h1.62c.22 0 .398-.165.398-.37 0-.204-.178-.37-.397-.37h-1.62c-1.998 0-3.622-1.512-3.622-3.37s1.624-3.37 3.622-3.37c.106 0 .218.005.344.016.211.018.402-.122.43-.318.144-.977.662-1.874 1.46-2.529a4.598 4.598 0 0 1 2.913-1.023c2.437 0 4.419 1.844 4.419 4.111 0 .082-.016.293-.016.293a.356.356 0 0 0 .12.292.415.415 0 0 0 .316.102c.106-.01.212-.015.317-.015 1.721 0 3.122 1.304 3.122 2.906s-1.4 2.905-3.122 2.905h-1.78c-.22 0-.398.166-.398.37s.178.37.398.37h1.78c2.16 0 3.917-1.635 3.917-3.645 0-1.992-1.726-3.616-3.86-3.645Z" fill="#87AB49"/><path d="M10.983 3.334c-1.662 0-3.085 1.155-3.31 2.688-.03.202.123.388.34.417.232.03.42-.131.448-.317.171-1.168 1.255-2.049 2.522-2.049.22 0 .397-.165.397-.37 0-.204-.178-.37-.397-.37Zm1.101 9.561a.419.419 0 0 0-.56-.029l-.957.795V9.11c0-.205-.178-.37-.397-.37-.22 0-.398.165-.398.37v4.55l-.956-.795a.419.419 0 0 0-.561.03.352.352 0 0 0 .032.522l1.445 1.202a.683.683 0 0 0 .438.155.684.684 0 0 0 .437-.155l1.446-1.202a.352.352 0 0 0 .031-.523Z" fill="#87AB49"/><path d="M15.458 5.348C15.42 2.704 13.096.564 10.245.564c-1.268 0-2.49.43-3.44 1.208a4.795 4.795 0 0 0-1.657 2.646h-.05C2.662 4.418.68 6.262.68 8.528s1.981 4.11 4.417 4.11h1.62c.22 0 .398-.165.398-.37 0-.204-.178-.37-.397-.37h-1.62c-1.998 0-3.622-1.512-3.622-3.37s1.624-3.37 3.622-3.37c.106 0 .218.005.344.016.211.018.402-.122.43-.318.144-.977.662-1.874 1.46-2.529a4.598 4.598 0 0 1 2.913-1.023c2.437 0 4.419 1.844 4.419 4.111 0 .082-.016.293-.016.293a.356.356 0 0 0 .12.292.415.415 0 0 0 .316.102c.106-.01.212-.015.317-.015 1.721 0 3.122 1.304 3.122 2.906s-1.4 2.905-3.122 2.905h-1.78c-.22 0-.398.166-.398.37s.178.37.398.37h1.78c2.16 0 3.917-1.635 3.917-3.645 0-1.992-1.726-3.616-3.86-3.645Z" stroke="#87AB49" stroke-width=".8"/><path d="M10.983 3.334c-1.662 0-3.085 1.155-3.31 2.688-.03.202.123.388.34.417.232.03.42-.131.448-.317.171-1.168 1.255-2.049 2.522-2.049.22 0 .397-.165.397-.37 0-.204-.178-.37-.397-.37Zm1.101 9.561a.419.419 0 0 0-.56-.029l-.957.795V9.11c0-.205-.178-.37-.397-.37-.22 0-.398.165-.398.37v4.55l-.956-.795a.419.419 0 0 0-.561.03.352.352 0 0 0 .032.522l1.445 1.202a.683.683 0 0 0 .438.155.684.684 0 0 0 .437-.155l1.446-1.202a.352.352 0 0 0 .031-.523Z" stroke="#87AB49" stroke-width=".8"/></svg>