<svg width="50" height="51" fill="none" xmlns="http://www.w3.org/2000/svg"><path d="M25 .965c-13.786 0-25 11.214-25 25s11.214 25 25 25 25-11.214 25-25-11.214-25-25-25ZM6.568 12.556l7.613 12.405c.51-5.524 5.165-9.866 10.819-9.866h20.068c.382.702.72 1.43 1.028 2.174H31.494c2.65 1.984 4.376 5.138 4.376 8.696 0 1.942-.52 3.764-1.416 5.343-.008.016-.007.032-.015.047l-9.942 17.41a23.303 23.303 0 0 1-2.401-.18l7.226-12.65a10.82 10.82 0 0 1-4.322.9c-3.869 0-7.262-2.04-9.188-5.091-.025-.032-.055-.057-.077-.092L5.252 14.57a22.54 22.54 0 0 1 1.316-2.013ZM25 17.27a8.696 8.696 0 1 0 0 17.392 8.696 8.696 0 0 0 0-17.392Z" fill="#879EC1"/></svg>