<svg width="50" height="51" fill="none" xmlns="http://www.w3.org/2000/svg"><path d="M4.167 1.652a1.797 1.797 0 0 0-.456.052C1.627 1.972 0 4.01 0 6.514v38.9c0 2.506 1.629 4.545 3.715 4.811.148.037.3.054.452.052h41.666c2.278 0 4.167-2.205 4.167-4.862v-38.9c0-2.658-1.89-4.863-4.167-4.863H4.167Zm20.601 4.862h21.065v38.9H28.536a270.965 270.965 0 0 1-.602-5.061c-.938.124-1.913.2-2.934.2-8.733 0-14.567-5.148-14.811-5.367-.913-.819-1.085-2.347-.383-3.41.7-1.064 2.005-1.265 2.918-.45.094.08 5.047 4.364 12.276 4.364.858 0 1.674-.067 2.462-.171-.223-2.619-.379-5.142-.379-7.123h-4.821c-.784 0-1.431-.765-1.408-1.681.223-9.176 2.234-15.986 3.914-20.2Zm2.694 29.005c.137 1.61.3 3.251.472 4.834 7.083-.941 11.66-4.972 11.877-5.167.91-.819 1.085-2.347.383-3.41-.702-1.067-2.012-1.262-2.922-.446-.041.04-3.87 3.401-9.81 4.189Zm10.005-21.744c-.551.01-1.077.275-1.462.737a2.662 2.662 0 0 0-.588 1.727v2.432a2.78 2.78 0 0 0 .15.94c.103.3.255.572.45.801.193.23.424.412.679.536.255.125.528.189.804.189s.55-.064.804-.189c.255-.124.486-.306.68-.536.194-.23.346-.501.45-.8.102-.3.153-.62.15-.941v-2.432a2.79 2.79 0 0 0-.154-.95 2.496 2.496 0 0 0-.458-.804 2.09 2.09 0 0 0-.69-.533 1.823 1.823 0 0 0-.815-.177Zm-24.967.033c1.15 0 2.083 1.087 2.083 2.431v2.432c0 1.344-.933 2.43-2.083 2.43-1.15 0-2.083-1.086-2.083-2.43v-2.432c0-1.344.933-2.431 2.083-2.431Z" fill="#879EC1"/></svg>