<svg width="312" height="291" fill="none" xmlns="http://www.w3.org/2000/svg"><path fill-rule="evenodd" clip-rule="evenodd" d="M162.499 4.88H13.165a3.478 3.478 0 0 0-3.484 3.47v15.2a2.791 2.791 0 0 1-2.797 2.786 1.922 1.922 0 0 0-1.925 1.919v17.932a3.478 3.478 0 0 0 3.485 3.472h295.191a3.478 3.478 0 0 0 3.485-3.472v-16.38a3.478 3.478 0 0 0-3.485-3.472H170.339a4.349 4.349 0 0 1-4.356-4.34V8.351a3.478 3.478 0 0 0-3.484-3.472Zm0-.435a3.913 3.913 0 0 1 3.92 3.906v13.644a3.913 3.913 0 0 0 3.92 3.906h133.296a3.913 3.913 0 0 1 3.92 3.906v16.379a3.913 3.913 0 0 1-3.92 3.906H8.444a3.913 3.913 0 0 1-3.92-3.906V28.254c0-1.3 1.056-2.353 2.36-2.353a2.356 2.356 0 0 0 2.361-2.352V8.351a3.913 3.913 0 0 1 3.92-3.906H162.5Z" fill="#879EC1"/><path fill-rule="evenodd" clip-rule="evenodd" d="m17.962 41.587-3.465-3.452a.541.541 0 0 1 0-.767l3.465-3.453a.546.546 0 0 1 .77 0 .541.541 0 0 1 0 .767l-2.536 2.527h6.46v1.085h-6.46l2.536 2.526a.541.541 0 0 1 0 .767.546.546 0 0 1-.77 0Zm22.09 0 3.465-3.452a.541.541 0 0 0 0-.767l-3.465-3.453a.546.546 0 0 0-.77 0 .541.541 0 0 0 0 .767l2.536 2.527h-6.46v1.085h6.46l-2.536 2.526a.541.541 0 0 0 0 .767.546.546 0 0 0 .77 0Zm23.868-8.239.341 3.743-3.424-1.578 1.113-.781c-.441-.197-.983-.322-1.654-.322a3.54 3.54 0 0 0-3.547 3.534 3.54 3.54 0 0 0 3.547 3.534c1.129 0 2.496-.484 3.45-2.358l.583.295c-1.073 2.107-2.675 2.714-4.033 2.714-2.32 0-4.2-1.873-4.2-4.185a4.193 4.193 0 0 1 4.2-4.185c.927 0 1.668.213 2.258.548l1.366-.96Zm19.585 3.182h1.9v-.614a.948.948 0 0 0-.95-.946.948.948 0 0 0-.95.946v.614Zm-.871 0h-.384a.435.435 0 0 0-.436.434v3.866c0 .24.196.434.436.434h4.407c.24 0 .436-.195.436-.434v-3.866a.435.435 0 0 0-.436-.434h-.382v-.614a1.817 1.817 0 0 0-1.82-1.814 1.817 1.817 0 0 0-1.821 1.814v.614Z" fill="#879EC1"/><path d="M93.676 35.285c-.206 0-.362.056-.47.167-.103.112-.154.277-.154.496v.416h1.088v.402h-1.075v3.122h-.477v-3.122h-.631v-.402h.631v-.436c0-.322.092-.576.276-.764.188-.187.452-.281.792-.281.134 0 .264.02.39.06.125.036.23.09.315.16l-.16.356a.788.788 0 0 0-.525-.174Zm2.102 1.769c.112-.237.278-.416.497-.536.224-.12.5-.181.826-.181v.462l-.114-.007c-.372 0-.663.114-.873.342-.21.228-.316.547-.316.959v1.795h-.477v-3.524h.457v.69Zm5.23 1.219h-2.956c.027.367.168.664.424.892.255.223.577.335.967.335.22 0 .42-.038.604-.114a1.35 1.35 0 0 0 .477-.349l.269.309c-.157.187-.354.33-.591.428a1.97 1.97 0 0 1-.773.148c-.362 0-.685-.076-.967-.228a1.698 1.698 0 0 1-.651-.643 1.821 1.821 0 0 1-.235-.925c0-.344.074-.652.221-.925.153-.272.359-.484.618-.636.264-.152.56-.228.887-.228.326 0 .62.076.879.228.26.152.464.364.612.636.147.268.221.577.221.925l-.006.147Zm-1.706-1.527c-.34 0-.627.11-.86.328-.228.214-.358.496-.39.844h2.506c-.032-.348-.164-.63-.397-.844a1.192 1.192 0 0 0-.86-.328Zm5.759 1.527h-2.955c.027.367.168.664.423.892.255.223.577.335.967.335.219 0 .421-.038.604-.114a1.35 1.35 0 0 0 .477-.349l.269.309c-.157.187-.354.33-.591.428-.233.099-.49.148-.773.148-.362 0-.685-.076-.967-.228a1.703 1.703 0 0 1-.651-.643 1.818 1.818 0 0 1-.235-.925c0-.344.074-.652.222-.925a1.66 1.66 0 0 1 .617-.636 1.75 1.75 0 0 1 .887-.228c.327 0 .62.076.88.228.259.152.463.364.611.636.148.268.221.577.221.925l-.006.147Zm-1.706-1.527c-.34 0-.627.11-.86.328-.228.214-.358.496-.389.844h2.505a1.262 1.262 0 0 0-.396-.844 1.195 1.195 0 0 0-.86-.328Zm5.586-.382-1.572 3.524h-.49l-1.565-3.524h.497l1.323 3.002 1.337-3.002h.47Zm2.491-.027c.332 0 .632.076.9.228.269.147.479.357.632.63.152.272.228.583.228.931 0 .353-.076.666-.228.938a1.634 1.634 0 0 1-.632.637 1.814 1.814 0 0 1-.9.22c-.286 0-.546-.057-.779-.173a1.506 1.506 0 0 1-.564-.523v1.963h-.477v-4.824h.457v.697c.143-.233.331-.411.564-.536a1.69 1.69 0 0 1 .799-.188Zm-.033 3.163c.246 0 .47-.056.671-.168.202-.116.359-.28.471-.49.116-.209.174-.448.174-.716a1.42 1.42 0 0 0-.174-.71 1.208 1.208 0 0 0-.471-.49 1.318 1.318 0 0 0-.671-.174 1.33 1.33 0 0 0-.678.174c-.197.117-.354.28-.471.49a1.46 1.46 0 0 0-.167.71c0 .268.055.507.167.717.117.21.274.373.471.49.201.11.427.167.678.167Zm4.565-3.163c.443 0 .795.13 1.054.388.264.255.397.628.397 1.12v2.043h-.477v-1.997c0-.366-.092-.645-.276-.837-.183-.192-.445-.288-.785-.288-.381 0-.683.114-.907.341-.219.224-.329.534-.329.932v1.85h-.477v-3.525h.457v.65c.13-.215.309-.38.537-.496.233-.12.501-.181.806-.181Zm4.565 0c.331 0 .631.076.9.228.269.147.479.357.631.63.153.272.229.583.229.931 0 .353-.076.666-.229.938a1.625 1.625 0 0 1-.631.637 1.814 1.814 0 0 1-.9.22c-.286 0-.546-.057-.779-.173a1.506 1.506 0 0 1-.564-.523v1.963h-.477v-4.824h.457v.697c.143-.233.331-.411.564-.536.237-.126.504-.188.799-.188Zm-.033 3.163c.246 0 .47-.056.671-.168.202-.116.358-.28.47-.49.117-.209.175-.448.175-.716a1.41 1.41 0 0 0-.175-.71 1.205 1.205 0 0 0-.47-.49 1.318 1.318 0 0 0-.671-.174c-.251 0-.477.058-.679.174-.197.117-.353.28-.47.49a1.46 1.46 0 0 0-.168.71c0 .268.056.507.168.717.117.21.273.373.47.49.202.11.428.167.679.167Zm2.765-4.584h.477v4.972h-.477v-4.972Zm3.039 1.421c.461 0 .815.116 1.061.348.246.228.37.568.37 1.019v2.184h-.457v-.55a1.095 1.095 0 0 1-.477.43 1.638 1.638 0 0 1-.739.154c-.394 0-.707-.094-.94-.282a.907.907 0 0 1-.349-.743c0-.3.107-.541.322-.724.22-.183.567-.275 1.041-.275h1.122v-.214c0-.304-.085-.534-.255-.69-.171-.161-.419-.242-.746-.242a1.85 1.85 0 0 0-.645.114 1.58 1.58 0 0 0-.53.302l-.215-.355a1.86 1.86 0 0 1 .645-.349c.25-.085.514-.127.792-.127Zm-.168 3.21c.269 0 .499-.06.692-.181.192-.126.336-.304.43-.536v-.577h-1.108c-.605 0-.907.21-.907.63 0 .206.078.369.235.49.157.115.376.174.658.174Zm4.694-3.21c.443 0 .794.13 1.054.388.264.255.396.628.396 1.12v2.043h-.477v-1.997c0-.366-.091-.645-.275-.837-.184-.192-.445-.288-.786-.288-.38 0-.683.114-.906.341-.22.224-.329.534-.329.932v1.85h-.477v-3.525h.456v.65c.13-.215.309-.38.538-.496.232-.12.501-.181.806-.181Zm5.834 1.936h-2.955c.027.367.168.664.423.892.255.223.577.335.967.335.219 0 .421-.038.604-.114a1.35 1.35 0 0 0 .477-.349l.269.309c-.157.187-.354.33-.591.428-.233.099-.49.148-.772.148-.363 0-.685-.076-.968-.228a1.703 1.703 0 0 1-.651-.643 1.818 1.818 0 0 1-.235-.925c0-.344.074-.652.222-.925a1.66 1.66 0 0 1 .617-.636 1.75 1.75 0 0 1 .887-.228c.327 0 .62.076.88.228.259.152.463.364.611.636.148.268.222.577.222.925l-.007.147Zm-1.706-1.527c-.34 0-.627.11-.86.328-.228.214-.358.496-.389.844h2.505a1.262 1.262 0 0 0-.396-.844 1.195 1.195 0 0 0-.86-.328Zm4.543 2.928a.932.932 0 0 1-.335.187c-.13.04-.267.06-.41.06-.331 0-.587-.089-.766-.267-.179-.179-.268-.431-.268-.758v-2.13h-.632v-.402h.632v-.77h.476v.77h1.075v.402h-1.075v2.104c0 .21.052.37.155.482.107.107.26.161.457.161a.852.852 0 0 0 .282-.047.7.7 0 0 0 .241-.134l.168.342Zm.981.248a.348.348 0 0 1-.255-.107.368.368 0 0 1-.101-.262c0-.102.034-.187.101-.254a.348.348 0 0 1 .255-.108c.099 0 .184.036.255.108a.333.333 0 0 1 .108.254c0 .103-.036.19-.108.262a.347.347 0 0 1-.255.107Zm2.742 0c-.349 0-.663-.076-.94-.228a1.667 1.667 0 0 1-.645-.637 1.855 1.855 0 0 1-.235-.931c0-.344.078-.652.235-.925a1.67 1.67 0 0 1 .645-.636c.277-.152.591-.228.94-.228.304 0 .575.06.813.18.241.117.432.289.57.517l-.356.241a1.085 1.085 0 0 0-.443-.389 1.29 1.29 0 0 0-.584-.134c-.255 0-.486.058-.692.174-.201.112-.36.273-.477.483a1.5 1.5 0 0 0-.168.717c0 .273.056.514.168.724.117.205.276.366.477.482.206.112.437.168.692.168.21 0 .405-.043.584-.128.179-.085.327-.214.443-.388l.356.24a1.37 1.37 0 0 1-.57.524 1.854 1.854 0 0 1-.813.174Zm3.705 0a1.86 1.86 0 0 1-.92-.228 1.715 1.715 0 0 1-.645-.643 1.818 1.818 0 0 1-.235-.925c0-.344.078-.652.235-.925a1.67 1.67 0 0 1 .645-.636 1.86 1.86 0 0 1 .92-.228c.34 0 .647.076.92.228.273.152.486.364.638.636.157.273.235.581.235.925 0 .344-.078.652-.235.925a1.662 1.662 0 0 1-.638.643 1.86 1.86 0 0 1-.92.228Zm0-.422c.251 0 .475-.056.672-.168.201-.116.358-.28.47-.49a1.5 1.5 0 0 0 .168-.716 1.5 1.5 0 0 0-.168-.717 1.167 1.167 0 0 0-.47-.483 1.298 1.298 0 0 0-.672-.174 1.33 1.33 0 0 0-.678.174 1.218 1.218 0 0 0-.47.483 1.5 1.5 0 0 0-.168.717c0 .268.056.507.168.717.116.21.273.373.47.49.201.11.427.167.678.167Zm7.172-3.163c.444 0 .791.127 1.041.382.256.254.383.63.383 1.125v2.044h-.477v-1.997c0-.366-.089-.645-.268-.837-.175-.192-.423-.288-.746-.288-.367 0-.656.114-.866.341-.211.224-.316.534-.316.932v1.85h-.477V37.89c0-.366-.089-.645-.268-.837-.175-.192-.426-.288-.752-.288-.363 0-.652.114-.867.341-.21.224-.316.534-.316.932v1.85h-.476v-3.525h.456v.643c.126-.215.3-.38.524-.496.224-.116.481-.174.773-.174.295 0 .55.062.765.188.22.125.383.31.49.556a1.36 1.36 0 0 1 .558-.543c.246-.134.526-.201.839-.201Z" fill="#879EC1"/><rect x="75.459" y="29.503" width="190.653" height="16.36" rx="8.18" stroke="#879EC1"/><g clip-path="url(#a)"><ellipse cx="22.69" cy="15.114" rx="3.86" ry="3.846" fill="url(#b)"/><path fill-rule="evenodd" clip-rule="evenodd" d="M18.334 16.481a.15.15 0 0 1 .246.022.158.158 0 0 1-.02.183c-.262.295-.375.524-.3.654.242.42 2.336-.337 4.676-1.69l.24-.141a.09.09 0 0 0 .044-.078c0-.54.438-.976.979-.976.29 0 .604.008.838-.162 1.167-.852 1.86-1.577 1.7-1.855-.073-.125-.308-.145-.665-.077a.153.153 0 0 1-.162-.073.145.145 0 0 1 .102-.216c.701-.103 1.198-.017 1.372.285.327.566-.571 1.734-2.134 2.922a.19.19 0 0 0-.072.152.978.978 0 0 1-1.06.972c-.24-.02-.497-.03-.707.092-2.633 1.523-5.124 2.14-5.563 1.378-.18-.313.013-.81.486-1.392Z" fill="#879EC1"/><ellipse cx="24.199" cy="15.43" rx=".49" ry=".488" fill="#879EC1"/><path d="M20.712 13.8c-.237.584-.162 1.2-.454 1.083-.291-.118-.335-.687-.097-1.271.237-.585.666-.963.958-.845.29.117-.17.448-.407 1.033Zm-.182 1.663c.02.193-.069.36-.2.375-.132.014-.256-.13-.277-.322-.021-.193.068-.36.2-.375.131-.014.255.13.276.322Z" opacity=".32" fill="#E5E5E5"/><path d="M21.55 18.044c-.134-.077-.07-.206.256-.314.687-.15.571.154 1.56.037.988-.117 1.51-.523 1.772-.79.21-.214.404-.503.394-.401-.044.217-.405.789-1.49 1.34-1.358.69-2.286.247-2.492.128Z" fill="#080F1B" fill-opacity=".11"/><path d="M25.914 12.986a.263.263 0 0 0 .07-.379 4.158 4.158 0 0 0-5.439-1.028 4.132 4.132 0 0 0-1.858 2.464 4.116 4.116 0 0 0 .245 2.814.263.263 0 0 0 .366.113.294.294 0 0 0 .12-.38 3.567 3.567 0 0 1-.197-2.404 3.58 3.58 0 0 1 1.611-2.134 3.603 3.603 0 0 1 4.691.862c.094.12.264.156.391.072Zm-5.589 5.179a.262.262 0 0 0 .056.38 4.155 4.155 0 0 0 5.981-1.517c.333-.633.494-1.34.47-2.051a.263.263 0 0 0-.294-.248.293.293 0 0 0-.258.302 3.568 3.568 0 0 1-1.848 3.212 3.603 3.603 0 0 1-3.712-.136.295.295 0 0 0-.395.058Z" fill="#879EC1"/></g><g clip-path="url(#c)"><path d="M270.969 38.55c0-3.116 2.546-5.642 5.662-5.642s5.663 2.526 5.663 5.642c0 3.116-2.547 5.642-5.663 5.642s-5.662-2.526-5.662-5.642Z" fill="#fff"/><ellipse cx="276.631" cy="38.55" rx="3.86" ry="3.846" fill="url(#d)"/><path fill-rule="evenodd" clip-rule="evenodd" d="M272.275 39.917a.15.15 0 0 1 .246.021.158.158 0 0 1-.02.184c-.262.294-.375.523-.299.654.242.42 2.335-.337 4.676-1.691l.24-.14a.09.09 0 0 0 .043-.079c0-.539.438-.975.979-.975.29 0 .604.008.839-.163 1.166-.851 1.859-1.576 1.699-1.854-.072-.125-.308-.146-.665-.078a.154.154 0 0 1-.162-.072.145.145 0 0 1 .103-.217c.7-.102 1.198-.017 1.372.285.326.567-.572 1.735-2.135 2.922a.188.188 0 0 0-.071.152.978.978 0 0 1-1.061.973c-.24-.02-.497-.03-.706.091-2.634 1.523-5.125 2.14-5.564 1.378-.18-.313.013-.81.486-1.391Z" fill="#5A78A6"/><ellipse cx="278.14" cy="38.866" rx=".49" ry=".488" fill="#879EC1"/><path d="M274.654 37.235c-.238.585-.163 1.201-.454 1.083-.292-.117-.335-.686-.098-1.27.238-.585.667-.964.958-.846.291.118-.169.449-.406 1.033Zm-.183 1.664c.021.192-.068.36-.2.374-.131.015-.255-.13-.277-.322-.021-.192.069-.36.2-.374.132-.015.256.13.277.322Z" opacity=".32" fill="#E5E5E5"/><path d="M275.492 41.48c-.135-.077-.07-.207.255-.314.687-.15.571.153 1.56.036.988-.117 1.51-.523 1.772-.79.21-.213.404-.503.395-.4-.045.216-.406.788-1.491 1.34-1.357.69-2.286.246-2.491.128Z" fill="#080F1B" fill-opacity=".11"/><path d="M279.856 36.421a.263.263 0 0 0 .07-.378 4.16 4.16 0 0 0-5.439-1.027 4.118 4.118 0 0 0-1.614 5.277.263.263 0 0 0 .367.113.295.295 0 0 0 .119-.381 3.578 3.578 0 0 1 1.414-4.538 3.605 3.605 0 0 1 4.691.863c.094.12.264.155.392.071Zm-5.589 5.179a.26.26 0 0 0 .056.38 4.152 4.152 0 0 0 5.981-1.516 4.12 4.12 0 0 0 .469-2.052.263.263 0 0 0-.294-.248.294.294 0 0 0-.258.303 3.58 3.58 0 0 1-1.847 3.212 3.604 3.604 0 0 1-3.713-.136.294.294 0 0 0-.394.058Z" fill="#5A78A6"/></g><path d="M298.201 38.969a4.056 4.056 0 0 1-4.064 4.048 4.056 4.056 0 0 1-4.065-4.048 4.056 4.056 0 0 1 4.065-4.048 4.056 4.056 0 0 1 4.064 4.048Z" stroke="#879EC1"/><path fill-rule="evenodd" clip-rule="evenodd" d="M266.656 13.737h-7.246v-.868h7.246v.868Zm18.542-5.834h-5.04v4.967h5.04V7.903Zm-5.911-.868v6.703h6.783V7.035h-6.783Zm20.142.365 5.745 5.724-.616.614-5.745-5.725.616-.614Z" fill="#879EC1"/><path fill-rule="evenodd" clip-rule="evenodd" d="m304.447 7.4-5.746 5.724.616.614 5.746-5.725-.616-.614Z" fill="#879EC1"/><path d="M33.717 13.9v1.636h2.357v.576h-2.357v1.896h-.672v-4.69h3.318v.582h-2.646Zm4.049 1.153a1.1 1.1 0 0 1 .497-.469c.22-.107.486-.16.8-.16v.622a1.276 1.276 0 0 0-.148-.006c-.35 0-.625.105-.826.315-.197.205-.296.5-.296.884v1.77h-.645v-3.552h.618v.596Zm5.275 1.2c0 .049-.004.113-.013.194H40.14c.04.313.177.565.41.757.237.188.53.281.88.281.425 0 .767-.142 1.027-.428l.356.415c-.161.188-.363.33-.605.429a2.072 2.072 0 0 1-.799.147c-.376 0-.71-.076-1-.228a1.696 1.696 0 0 1-.679-.65 1.872 1.872 0 0 1-.235-.938c0-.344.076-.654.229-.931.156-.277.369-.491.638-.643.273-.157.58-.235.92-.235.34 0 .642.078.906.235.269.152.477.366.625.643.152.277.228.594.228.952Zm-1.76-1.287c-.308 0-.568.094-.778.281a1.14 1.14 0 0 0-.363.737h2.283a1.12 1.12 0 0 0-.37-.73 1.088 1.088 0 0 0-.771-.288Zm5.872 1.287c0 .049-.004.113-.013.194h-2.888c.04.313.177.565.41.757.237.188.53.281.88.281.425 0 .767-.142 1.027-.428l.356.415a1.56 1.56 0 0 1-.604.429 2.072 2.072 0 0 1-.8.147c-.376 0-.71-.076-1-.228a1.696 1.696 0 0 1-.679-.65 1.872 1.872 0 0 1-.235-.938c0-.344.077-.654.229-.931.156-.277.37-.491.638-.643.273-.157.58-.235.92-.235.34 0 .642.078.907.235.268.152.476.366.624.643.152.277.228.594.228.952Zm-1.76-1.287c-.308 0-.568.094-.778.281a1.14 1.14 0 0 0-.363.737h2.283a1.12 1.12 0 0 0-.369-.73 1.088 1.088 0 0 0-.772-.288Zm8.637-1.648-2.062 4.69h-.665l-2.069-4.69h.726l1.692 3.853 1.706-3.853h.672Zm2.432 0c.61 0 1.088.145 1.438.435.349.29.524.69.524 1.2 0 .509-.175.909-.524 1.199-.35.29-.829.435-1.438.435h-1.161v1.421h-.672v-4.69h1.834Zm-.02 2.687c.426 0 .75-.09.974-.268.224-.184.336-.445.336-.784 0-.34-.112-.6-.336-.778-.224-.183-.548-.275-.974-.275h-1.141v2.104h1.141Zm7.011-2.687v4.69h-.55l-2.821-3.498v3.498h-.672v-4.69h.551l2.82 3.497v-3.497h.672Zm5.045 0c.608 0 1.087.145 1.437.435.349.29.523.69.523 1.2 0 .509-.174.909-.523 1.199-.35.29-.829.435-1.438.435h-1.161v1.421h-.672v-4.69h1.834Zm-.02 2.687c.425 0 .75-.09.973-.268.224-.184.336-.445.336-.784 0-.34-.112-.6-.336-.778-.224-.183-.548-.275-.974-.275h-1.141v2.104h1.141Zm2.939-2.969h.644v4.972h-.644v-4.972Zm3.172 1.387c.492 0 .868.12 1.128.362.264.241.396.6.396 1.079v2.144h-.611v-.469a1.037 1.037 0 0 1-.463.382 1.776 1.776 0 0 1-.706.127c-.398 0-.718-.096-.96-.288a.927.927 0 0 1-.356-.757c0-.313.114-.563.343-.75.228-.193.59-.289 1.088-.289h1.02v-.127c0-.277-.08-.49-.241-.636-.162-.148-.399-.222-.712-.222-.21 0-.417.036-.618.108a1.544 1.544 0 0 0-.51.274l-.27-.482a1.89 1.89 0 0 1 .659-.335 2.7 2.7 0 0 1 .813-.12Zm-.148 3.13c.246 0 .459-.054.638-.161a.957.957 0 0 0 .39-.47v-.495h-.994c-.547 0-.82.183-.82.55 0 .178.07.319.208.421.14.103.332.154.578.154Zm4.766-3.13c.452 0 .81.132 1.075.396.268.259.402.64.402 1.145v2.044h-.644v-1.97c0-.344-.083-.603-.249-.777-.165-.174-.403-.262-.712-.262-.349 0-.624.103-.826.309-.201.2-.302.491-.302.87v1.83h-.645v-3.551h.618v.536c.13-.183.305-.324.524-.422a1.87 1.87 0 0 1 .759-.148Zm5.907 1.83c0 .049-.004.113-.013.194h-2.888c.04.313.177.565.41.757.237.188.53.281.88.281.425 0 .767-.142 1.027-.428l.356.415c-.161.188-.363.33-.605.429a2.072 2.072 0 0 1-.799.147c-.376 0-.71-.076-1-.228a1.695 1.695 0 0 1-.679-.65 1.872 1.872 0 0 1-.235-.938c0-.344.076-.654.228-.931.157-.277.37-.491.639-.643.273-.157.58-.235.92-.235.34 0 .642.078.906.235.269.152.477.366.625.643.152.277.228.594.228.952Zm-1.76-1.287c-.308 0-.568.094-.778.281a1.14 1.14 0 0 0-.363.737h2.283a1.121 1.121 0 0 0-.369-.73 1.089 1.089 0 0 0-.772-.288ZM88.01 17.8c-.093.08-.21.143-.348.188-.14.04-.283.06-.43.06-.358 0-.636-.096-.833-.288-.197-.192-.296-.467-.296-.824v-1.95H85.5v-.53h.605v-.777h.644v.778h1.021v.529h-1.02v1.923c0 .192.046.34.14.442.099.103.238.155.417.155a.778.778 0 0 0 .503-.168l.202.462Z" fill="#879EC1"/><rect x=".977" y=".858" width="310" height="289" rx="7.5" stroke="#879EC1"/><g filter="url(#e)"><g clip-path="url(#f)"><path d="M39.764 88.728c0-5.523 4.477-10 10-10h73.498c5.523 0 10 4.477 10 10v135.475c0 5.522-4.477 10-10 10H49.764c-5.523 0-10-4.478-10-10V88.727Z" fill="#fff"/><path fill="#F1F4FB" d="M39.764 78.728h93.498v15.886H39.764z"/><path fill-rule="evenodd" clip-rule="evenodd" d="M51.685 86.488h-2.852l1.31-1.312-.328-.328-1.87 1.875 1.87 1.875.328-.328-1.31-1.313h2.852v-.469Z" fill="#233654"/><rect x="59.76" y="84.848" width="57.246" height="4.165" rx="2.082" fill="#E0E7F5"/><path d="M127.068 112.937c0-.196.165-.354.369-.354.205 0 .37.158.37.354v26.052a.362.362 0 0 1-.37.354.362.362 0 0 1-.369-.354v-26.052Zm-81.851 2.633c0-1.65 1.397-2.987 3.12-2.987h34.139c1.723 0 3.12 1.337 3.12 2.987 0 1.65-1.397 2.987-3.12 2.987h-34.14c-1.722 0-3.12-1.337-3.12-2.987Zm0 10.992c0-1.65 1.397-2.987 3.12-2.987H69.07c1.724 0 3.12 1.337 3.12 2.987 0 1.649-1.396 2.987-3.12 2.987H48.337c-1.723 0-3.12-1.338-3.12-2.987Zm0 10.991c0-1.649 1.397-2.987 3.12-2.987h42.89c1.723 0 3.12 1.338 3.12 2.987 0 1.65-1.397 2.987-3.12 2.987h-42.89c-1.723 0-3.12-1.337-3.12-2.987Zm0 10.992c0-1.65 1.397-2.987 3.12-2.987h49.406c1.724 0 3.12 1.337 3.12 2.987 0 1.65-1.397 2.987-3.12 2.987H48.337c-1.723 0-3.12-1.337-3.12-2.987Zm0 10.991c0-1.649 1.397-2.987 3.12-2.987h39.61c1.724 0 3.12 1.338 3.12 2.987 0 1.65-1.396 2.988-3.12 2.988h-39.61c-1.723 0-3.12-1.338-3.12-2.988Zm0 10.992c0-1.65 1.397-2.987 3.12-2.987h34.139c1.723 0 3.12 1.337 3.12 2.987 0 1.65-1.397 2.987-3.12 2.987h-34.14c-1.722 0-3.12-1.337-3.12-2.987Zm0 10.992c0-1.65 1.397-2.987 3.12-2.987h55.144c1.723 0 3.12 1.337 3.12 2.987 0 1.649-1.397 2.987-3.12 2.987H48.337c-1.723 0-3.12-1.338-3.12-2.987Zm0 10.991c0-1.649 1.397-2.987 3.12-2.987h39.77c1.723 0 3.12 1.338 3.12 2.987 0 1.65-1.397 2.987-3.12 2.987h-39.77c-1.723 0-3.12-1.337-3.12-2.987Zm0 10.992c0-1.65 1.397-2.987 3.12-2.987h57.41c1.723 0 3.12 1.337 3.12 2.987 0 1.65-1.397 2.987-3.12 2.987h-57.41c-1.723 0-3.12-1.337-3.12-2.987Zm0 10.991c0-1.649 1.397-2.987 3.12-2.987h50.457c1.724 0 3.121 1.338 3.121 2.987 0 1.65-1.397 2.988-3.12 2.988H48.337c-1.723 0-3.12-1.338-3.12-2.988Zm0 10.992c0-1.65 1.397-2.987 3.12-2.987H86.93c1.723 0 3.12 1.337 3.12 2.987 0 1.65-1.397 2.987-3.12 2.987H48.337c-1.723 0-3.12-1.337-3.12-2.987Z" fill="#F1F4FB"/><path fill="#fff" d="M39.764 94.613h93.498v11.98H39.764z"/><path fill="#fff" d="M39.764 94.613h46.749v11.98h-46.75z"/><path d="M52.42 101.063c0-.193.163-.35.365-.35.202 0 .365.157.365.35v.627c0 .193-.163.35-.365.35a.358.358 0 0 1-.365-.35v-.627Zm1.46-.885c0-.193.164-.35.366-.35.202 0 .365.157.365.35v1.512c0 .193-.163.35-.365.35a.358.358 0 0 1-.365-.35v-1.512Zm1.462-.663c0-.193.163-.35.365-.35.202 0 .365.157.365.35v2.175c0 .193-.163.35-.365.35a.358.358 0 0 1-.365-.35v-2.175Zm4.525 1.977a1.42 1.42 0 0 1-.665-.155 1.16 1.16 0 0 1-.63-1.046 1.145 1.145 0 0 1 .634-1.043c.198-.106.42-.158.665-.158.191 0 .366.031.525.094.158.06.294.15.406.272l-.228.21a.932.932 0 0 0-.69-.278c-.181 0-.346.04-.493.118a.88.88 0 0 0-.346.325.878.878 0 0 0-.123.46c0 .17.041.324.123.463.084.136.2.243.346.322.147.078.312.117.494.117a.934.934 0 0 0 .69-.282l.227.212a1.1 1.1 0 0 1-.41.275 1.43 1.43 0 0 1-.525.094Zm2.959-.906a.878.878 0 0 1-.007.097h-1.505a.56.56 0 0 0 .213.379.736.736 0 0 0 .459.141c.222 0 .4-.072.535-.215l.186.208a.808.808 0 0 1-.315.215 1.122 1.122 0 0 1-.417.074c-.196 0-.37-.038-.521-.114a.866.866 0 0 1-.354-.326.905.905 0 0 1-.122-.469.92.92 0 0 1 .119-.466.85.85 0 0 1 .332-.323.98.98 0 0 1 .48-.117.94.94 0 0 1 .472.117.81.81 0 0 1 .326.323.94.94 0 0 1 .119.476Zm-.917-.644a.564.564 0 0 0-.595.51h1.19a.581.581 0 0 0-.595-.51Zm2.421-.272c.18 0 .341.038.484.114a.826.826 0 0 1 .332.319.901.901 0 0 1 .123.473.92.92 0 0 1-.123.476.824.824 0 0 1-.332.319 1.01 1.01 0 0 1-.483.114.907.907 0 0 1-.368-.074.758.758 0 0 1-.28-.215v.919h-.336v-2.428h.322v.282a.695.695 0 0 1 .284-.222.912.912 0 0 1 .377-.077Zm-.028 1.533a.653.653 0 0 0 .319-.077.587.587 0 0 0 .224-.221.644.644 0 0 0 .084-.329.626.626 0 0 0-.084-.326.548.548 0 0 0-.224-.221.65.65 0 0 0-.319-.077.643.643 0 0 0-.318.08.598.598 0 0 0-.224.218.647.647 0 0 0-.08.326c0 .123.026.232.08.329a.588.588 0 0 0 .224.221.667.667 0 0 0 .318.077Zm2.718-.661c.24.058.36.203.36.433a.414.414 0 0 1-.185.362c-.121.085-.303.128-.546.128h-.892v-1.778h.86c.22 0 .391.04.515.12.124.079.186.19.186.336a.388.388 0 0 1-.08.245.484.484 0 0 1-.218.154Zm-.934-.09h.504a.522.522 0 0 0 .29-.067.22.22 0 0 0 .102-.195c0-.17-.131-.255-.392-.255h-.504v.517Zm.539.764c.14 0 .245-.021.315-.063a.216.216 0 0 0 .105-.198c0-.092-.033-.16-.098-.205-.063-.045-.164-.067-.301-.067h-.56v.533h.539Zm2.958-.63a.878.878 0 0 1-.007.097h-1.505a.56.56 0 0 0 .213.379.736.736 0 0 0 .459.141c.222 0 .4-.072.535-.215l.186.208a.808.808 0 0 1-.315.215 1.122 1.122 0 0 1-.416.074c-.197 0-.37-.038-.522-.114a.867.867 0 0 1-.353-.326.906.906 0 0 1-.123-.469.92.92 0 0 1 .119-.466.85.85 0 0 1 .332-.323.98.98 0 0 1 .48-.117.94.94 0 0 1 .472.117.81.81 0 0 1 .326.323.94.94 0 0 1 .119.476Zm-.917-.644a.564.564 0 0 0-.595.51h1.19a.581.581 0 0 0-.595-.51Zm2.422-.272c.18 0 .34.038.483.114a.826.826 0 0 1 .332.319.901.901 0 0 1 .123.473.92.92 0 0 1-.123.476.824.824 0 0 1-.332.319 1.01 1.01 0 0 1-.483.114.907.907 0 0 1-.368-.074.758.758 0 0 1-.28-.215v.919h-.336v-2.428h.322v.282a.695.695 0 0 1 .284-.222.912.912 0 0 1 .378-.077Zm-.028 1.533a.653.653 0 0 0 .318-.077.587.587 0 0 0 .224-.221.644.644 0 0 0 .084-.329.626.626 0 0 0-.084-.326.548.548 0 0 0-.224-.221.65.65 0 0 0-.318-.077.644.644 0 0 0-.319.08.598.598 0 0 0-.224.218.647.647 0 0 0-.08.326c0 .123.027.232.08.329a.588.588 0 0 0 .224.221.667.667 0 0 0 .319.077Zm2.098-1.533c.257 0 .453.06.588.181.138.121.207.301.207.54v1.074h-.319v-.235a.536.536 0 0 1-.241.191.95.95 0 0 1-.368.064c-.207 0-.374-.048-.5-.144a.459.459 0 0 1-.186-.379c0-.157.06-.282.179-.376.119-.096.308-.144.567-.144h.532v-.064c0-.139-.042-.245-.126-.319-.084-.074-.208-.11-.371-.11a.996.996 0 0 0-.322.053.828.828 0 0 0-.266.138l-.14-.242a.98.98 0 0 1 .343-.167c.133-.04.274-.06.423-.06Zm-.077 1.567c.129 0 .24-.027.333-.081a.484.484 0 0 0 .203-.235v-.248h-.518c-.285 0-.427.092-.427.275 0 .09.036.16.108.211a.508.508 0 0 0 .301.078Z" fill="#C8D3EB"/><rect x="47.537" y="98.638" width="32.373" height="4.15" rx="2.075" fill="#F1F4FB"/><path d="M86.514 94.613h46.749v11.98h-43.75a3 3 0 0 1-3-3v-8.98Z" fill="#F1F4FB"/><rect x="92.144" y="98.528" width="35.487" height="4.15" rx="2.075" fill="#D9E0EF"/></g></g><g filter="url(#g)"><g clip-path="url(#h)"><path d="M175.865 88.728c0-5.523 4.477-10 10-10h74.087c5.523 0 10 4.477 10 10v135.475c0 5.522-4.477 10-10 10h-74.087c-5.523 0-10-4.478-10-10V88.727Z" fill="#F1F4FB"/><g filter="url(#i)"><rect x="180.309" y="190.19" width="85.201" height="36.72" rx="8" fill="#fff"/><path d="M195.68 210.309c-.008-.761.65-1.125.68-1.144-.37-.515-.946-.586-1.152-.594-.489-.048-.956.275-1.205.275-.248 0-.632-.268-1.039-.261a1.555 1.555 0 0 0-1.302.752c-.555.919-.142 2.28.399 3.026.264.364.58.774.994.759.398-.015.549-.246 1.031-.246.482 0 .618.246 1.039.239.429-.008.701-.372.963-.737.304-.424.429-.834.437-.854-.01-.005-.836-.307-.845-1.215Zm-.793-2.232c.219-.254.368-.607.327-.959-.317.012-.699.201-.927.455-.204.225-.381.584-.334.929.353.026.714-.172.934-.425Zm21.239 3.083-.717-.673-2.636 2.477 3.353-1.804Zm0-1.832-3.353-1.804 2.636 2.477.717-.673Zm1.05 1.256a.43.43 0 0 0-.014-.68l-.703-.382-.785.722.785.722.717-.382Zm-5.091 2.524 3.064-2.865-3.064-2.864a.433.433 0 0 0-.259.395v4.939c0 .18.104.319.259.395Zm17.667-17.694h.835v.796h-.835v-.796Zm.835 0h.835v.796h-.835v-.796Zm.835 0h.834v.796h-.834v-.796Zm.834 0h.835v.796h-.835v-.796Zm.835 0h.835v.796h-.835v-.796Zm.835 0h.835v.796h-.835v-.796Zm.835 0h.835v.796h-.835v-.796Zm2.505 0h.834v.796h-.834v-.796Zm.834 0h.835v.796h-.835v-.796Zm1.67 0h.835v.796h-.835v-.796Zm.835 0h.835v.796h-.835v-.796Zm.835 0h.835v.796h-.835v-.796Zm.835 0h.834v.796h-.834v-.796Zm2.504 0h.835v.796h-.835v-.796Zm.835 0h.835v.796h-.835v-.796Zm2.504 0h.835v.796h-.835v-.796Zm.835 0h.835v.796h-.835v-.796Zm2.505 0h.835v.796h-.835v-.796Zm.835 0h.834v.796h-.834v-.796Zm.834 0h.835v.796h-.835v-.796Zm.835 0h.835v.796h-.835v-.796Zm.835 0h.835v.796h-.835v-.796Zm.835 0h.835v.796h-.835v-.796Zm.835 0h.835v.796h-.835v-.796Zm-26.715.796h.835v.796h-.835v-.796Zm5.009 0h.835v.796h-.835v-.796Zm1.67 0h.835v.796h-.835v-.796Zm3.339 0h.835v.796h-.835v-.796Zm2.505 0h.834v.796h-.834v-.796Zm1.669 0h.835v.796h-.835v-.796Zm2.505 0h.835v.796h-.835v-.796Zm.835 0h.834v.796h-.834v-.796Zm.834 0h.835v.796h-.835v-.796Zm.835 0h.835v.796h-.835v-.796Zm2.505 0h.835v.796h-.835v-.796Zm5.009 0h.835v.796h-.835v-.796Zm-26.715.796h.835v.797h-.835v-.797Zm1.67 0h.834v.797h-.834v-.797Zm.834 0h.835v.797h-.835v-.797Zm.835 0h.835v.797h-.835v-.797Zm1.67 0h.835v.797h-.835v-.797Zm1.67 0h.835v.797h-.835v-.797Zm1.669 0h.835v.797h-.835v-.797Zm.835 0h.835v.797h-.835v-.797Zm1.67 0h.835v.797h-.835v-.797Zm1.67 0h.834v.797h-.834v-.797Zm2.504 0h.835v.797h-.835v-.797Zm.835 0h.835v.797h-.835v-.797Zm.835 0h.835v.797h-.835v-.797Zm2.504 0h.835v.797h-.835v-.797Zm.835 0h.835v.797h-.835v-.797Zm1.67 0h.835v.797h-.835v-.797Zm1.669 0h.835v.797h-.835v-.797Zm.835 0h.835v.797h-.835v-.797Zm.835 0h.835v.797h-.835v-.797Zm1.67 0h.835v.797h-.835v-.797Zm-26.715.797h.835v.796h-.835v-.796Zm1.67 0h.834v.796h-.834v-.796Zm.834 0h.835v.796h-.835v-.796Zm.835 0h.835v.796h-.835v-.796Zm1.67 0h.835v.796h-.835v-.796Zm5.009 0h.835v.796h-.835v-.796Zm.835 0h.835v.796h-.835v-.796Zm.835 0h.835v.796h-.835v-.796Zm3.339 0h.835v.796h-.835v-.796Zm3.339 0h.835v.796h-.835v-.796Zm1.67 0h.835v.796h-.835v-.796Zm1.67 0h.835v.796h-.835v-.796Zm1.669 0h.835v.796h-.835v-.796Zm.835 0h.835v.796h-.835v-.796Zm.835 0h.835v.796h-.835v-.796Zm1.67 0h.835v.796h-.835v-.796Zm-26.715.796h.835v.796h-.835v-.796Zm1.67 0h.834v.796h-.834v-.796Zm.834 0h.835v.796h-.835v-.796Zm.835 0h.835v.796h-.835v-.796Zm1.67 0h.835v.796h-.835v-.796Zm3.339 0h.835v.796h-.835v-.796Zm.835 0h.835v.796h-.835v-.796Zm1.67 0h.835v.796h-.835v-.796Zm1.67 0h.834v.796h-.834v-.796Zm.834 0h.835v.796h-.835v-.796Zm1.67 0h.835v.796h-.835v-.796Zm3.339 0h.835v.796h-.835v-.796Zm1.67 0h.835v.796h-.835v-.796Zm1.67 0h.835v.796h-.835v-.796Zm1.669 0h.835v.796h-.835v-.796Zm.835 0h.835v.796h-.835v-.796Zm.835 0h.835v.796h-.835v-.796Zm1.67 0h.835v.796h-.835v-.796Zm-26.715.796h.835v.796h-.835v-.796Zm5.009 0h.835v.796h-.835v-.796Zm3.339 0h.835v.796h-.835v-.796Zm.835 0h.835v.796h-.835v-.796Zm2.505 0h.835v.796h-.835v-.796Zm2.504 0h.835v.796h-.835v-.796Zm.835 0h.835v.796h-.835v-.796Zm3.339 0h.835v.796h-.835v-.796Zm3.34 0h.835v.796h-.835v-.796Zm5.009 0h.835v.796h-.835v-.796Zm-26.715.796h.835v.796h-.835v-.796Zm.835 0h.835v.796h-.835v-.796Zm.835 0h.834v.796h-.834v-.796Zm.834 0h.835v.796h-.835v-.796Zm.835 0h.835v.796h-.835v-.796Zm.835 0h.835v.796h-.835v-.796Zm.835 0h.835v.796h-.835v-.796Zm1.67 0h.835v.796h-.835v-.796Zm1.669 0h.835v.796h-.835v-.796Zm1.67 0h.835v.796h-.835v-.796Zm1.67 0h.835v.796h-.835v-.796Zm1.669 0h.835v.796h-.835v-.796Zm1.67 0h.835v.796h-.835v-.796Zm1.67 0h.835v.796h-.835v-.796Zm1.669 0h.835v.796h-.835v-.796Zm1.67 0h.835v.796h-.835v-.796Zm1.67 0h.835v.796h-.835v-.796Zm.835 0h.834v.796h-.834v-.796Zm.834 0h.835v.796h-.835v-.796Zm.835 0h.835v.796h-.835v-.796Zm.835 0h.835v.796h-.835v-.796Zm.835 0h.835v.796h-.835v-.796Zm.835 0h.835v.796h-.835v-.796Zm-16.697.796h.835v.796h-.835v-.796Zm.835 0h.835v.796h-.835v-.796Zm.835 0h.835v.796h-.835v-.796Zm.835 0h.834v.796h-.834v-.796Zm1.669 0h.835v.796h-.835v-.796Zm1.67 0h.835v.796h-.835v-.796Zm4.174 0h.835v.796h-.835v-.796Zm-19.201.796h.835v.797h-.835v-.797Zm.835 0h.834v.797h-.834v-.797Zm.834 0h.835v.797h-.835v-.797Zm1.67 0h.835v.797h-.835v-.797Zm.835 0h.835v.797h-.835v-.797Zm3.339 0h.835v.797h-.835v-.797Zm3.34 0h.835v.797h-.835v-.797Zm.835 0h.834v.797h-.834v-.797Zm1.669 0h.835v.797h-.835v-.797Zm.835 0h.835v.797h-.835v-.797Zm1.67 0h.835v.797h-.835v-.797Zm.835 0h.834v.797h-.834v-.797Zm2.504 0h.835v.797h-.835v-.797Zm5.009 0h.835v.797h-.835v-.797Zm.835 0h.835v.797h-.835v-.797Zm-23.376.797h.835v.796h-.835v-.796Zm.835 0h.835v.796h-.835v-.796Zm2.505 0h.835v.796h-.835v-.796Zm1.67 0h.834v.796h-.834v-.796Zm3.339 0h.835v.796h-.835v-.796Zm.835 0h.835v.796h-.835v-.796Zm1.669 0h.835v.796h-.835v-.796Zm.835 0h.835v.796h-.835v-.796Zm.835 0h.835v.796h-.835v-.796Zm.835 0h.835v.796h-.835v-.796Zm.835 0h.835v.796h-.835v-.796Zm.835 0h.834v.796h-.834v-.796Zm1.669 0h.835v.796h-.835v-.796Zm2.505 0h.835v.796h-.835v-.796Zm.835 0h.834v.796h-.834v-.796Zm1.669 0h.835v.796h-.835v-.796Zm.835 0h.835v.796h-.835v-.796Zm1.67 0h.835v.796h-.835v-.796Zm-26.715.796h.835v.796h-.835v-.796Zm.835 0h.835v.796h-.835v-.796Zm1.669 0h.835v.796h-.835v-.796Zm.835 0h.835v.796h-.835v-.796Zm.835 0h.835v.796h-.835v-.796Zm.835 0h.835v.796h-.835v-.796Zm3.339 0h.835v.796h-.835v-.796Zm.835 0h.835v.796h-.835v-.796Zm1.67 0h.835v.796h-.835v-.796Zm2.504 0h.835v.796h-.835v-.796Zm1.67 0h.835v.796h-.835v-.796Zm2.505 0h.834v.796h-.834v-.796Zm1.669 0h.835v.796h-.835v-.796Zm.835 0h.835v.796h-.835v-.796Zm.835 0h.835v.796h-.835v-.796Zm1.67 0h.834v.796h-.834v-.796Zm.834 0h.835v.796h-.835v-.796Zm.835 0h.835v.796h-.835v-.796Zm2.505 0h.835v.796h-.835v-.796Zm-25.045.796h.834v.796h-.834v-.796Zm5.009 0h.835v.796h-.835v-.796Zm.835 0h.834v.796h-.834v-.796Zm.834 0h.835v.796h-.835v-.796Zm.835 0h.835v.796h-.835v-.796Zm.835 0h.835v.796h-.835v-.796Zm.835 0h.835v.796h-.835v-.796Zm.835 0h.835v.796h-.835v-.796Zm.835 0h.834v.796h-.834v-.796Zm1.669 0h.835v.796h-.835v-.796Zm1.67 0h.835v.796h-.835v-.796Zm.835 0h.835v.796h-.835v-.796Zm1.669 0h.835v.796h-.835v-.796Zm1.67 0h.835v.796h-.835v-.796Zm1.67 0h.835v.796h-.835v-.796Zm.835 0h.834v.796h-.834v-.796Zm1.669 0h.835v.796h-.835v-.796Zm-24.21.796h.835v.796h-.835v-.796Zm.835 0h.835v.796h-.835v-.796Zm.835 0h.834v.796h-.834v-.796Zm2.504 0h.835v.796h-.835v-.796Zm.835 0h.835v.796h-.835v-.796Zm.835 0h.835v.796h-.835v-.796Zm1.67 0h.834v.796h-.834v-.796Zm.834 0h.835v.796h-.835v-.796Zm4.175 0h.834v.796h-.834v-.796Zm4.174 0h.835v.796h-.835v-.796Zm1.669 0h.835v.796h-.835v-.796Zm1.67 0h.835v.796h-.835v-.796Zm.835 0h.835v.796h-.835v-.796Zm1.67 0h.834v.796h-.834v-.796Zm.834 0h.835v.796h-.835v-.796Zm.835 0h.835v.796h-.835v-.796Zm1.67 0h.835v.796h-.835v-.796Zm.835 0h.835v.796h-.835v-.796Zm-24.211.796h.835v.796h-.835v-.796Zm1.67 0h.835v.796h-.835v-.796Zm1.67 0h.835v.796h-.835v-.796Zm1.67 0h.834v.796h-.834v-.796Zm.834 0h.835v.796h-.835v-.796Zm.835 0h.835v.796h-.835v-.796Zm.835 0h.835v.796h-.835v-.796Zm1.67 0h.835v.796h-.835v-.796Zm1.669 0h.835v.796h-.835v-.796Zm3.34 0h.835v.796h-.835v-.796Zm.835 0h.834v.796h-.834v-.796Zm2.504 0h.835v.796h-.835v-.796Zm.835 0h.835v.796h-.835v-.796Zm4.174 0h.835v.796h-.835v-.796Zm.835 0h.835v.796h-.835v-.796Zm-25.045.796h.835v.796h-.835v-.796Zm.835 0h.834v.796h-.834v-.796Zm3.339 0h.835v.796h-.835v-.796Zm3.339 0h.835v.796h-.835v-.796Zm1.67 0h.835v.796h-.835v-.796Zm.835 0h.835v.796h-.835v-.796Zm1.67 0h.834v.796h-.834v-.796Zm1.669 0h.835v.796h-.835v-.796Zm1.67 0h.835v.796h-.835v-.796Zm.835 0h.835v.796h-.835v-.796Zm.835 0h.834v.796h-.834v-.796Zm4.174 0h.835v.796h-.835v-.796Zm.835 0h.834v.796h-.834v-.796Zm1.669 0h.835v.796h-.835v-.796Zm.835 0h.835v.796h-.835v-.796Zm-25.045.796h.835v.797h-.835v-.797Zm2.504 0h.835v.797h-.835v-.797Zm4.175 0h.835v.797h-.835v-.797Zm1.669 0h.835v.797h-.835v-.797Zm2.505 0h.835v.797h-.835v-.797Zm.835 0h.835v.797h-.835v-.797Zm1.669 0h.835v.797h-.835v-.797Zm.835 0h.835v.797h-.835v-.797Zm.835 0h.835v.797h-.835v-.797Zm2.505 0h.834v.797h-.834v-.797Zm3.339 0h.835v.797h-.835v-.797Zm.835 0h.835v.797h-.835v-.797Zm.835 0h.834v.797h-.834v-.797Zm.834 0h.835v.797h-.835v-.797Zm.835 0h.835v.797h-.835v-.797Zm.835 0h.835v.797h-.835v-.797Zm-24.21.797h.835v.796h-.835v-.796Zm.835 0h.834v.796h-.834v-.796Zm.834 0h.835v.796h-.835v-.796Zm1.67 0h.835v.796h-.835v-.796Zm.835 0h.835v.796h-.835v-.796Zm.835 0h.835v.796h-.835v-.796Zm.835 0h.835v.796h-.835v-.796Zm.835 0h.834v.796h-.834v-.796Zm.834 0h.835v.796h-.835v-.796Zm.835 0h.835v.796h-.835v-.796Zm.835 0h.835v.796h-.835v-.796Zm.835 0h.835v.796h-.835v-.796Zm1.67 0h.834v.796h-.834v-.796Zm.834 0h.835v.796h-.835v-.796Zm3.34 0h.835v.796h-.835v-.796Zm.835 0h.834v.796h-.834v-.796Zm.834 0h.835v.796h-.835v-.796Zm.835 0h.835v.796h-.835v-.796Zm1.67 0h.835v.796h-.835v-.796Zm.835 0h.835v.796h-.835v-.796Zm1.669 0h.835v.796h-.835v-.796Zm.835 0h.835v.796h-.835v-.796Zm.835 0h.835v.796h-.835v-.796Zm-25.045.796h.835v.796h-.835v-.796Zm.835 0h.835v.796h-.835v-.796Zm1.669 0h.835v.796h-.835v-.796Zm.835 0h.835v.796h-.835v-.796Zm.835 0h.835v.796h-.835v-.796Zm4.174 0h.835v.796h-.835v-.796Zm4.175 0h.834v.796h-.834v-.796Zm1.669 0h.835v.796h-.835v-.796Zm.835 0h.835v.796h-.835v-.796Zm1.67 0h.835v.796h-.835v-.796Zm.835 0h.834v.796h-.834v-.796Zm1.669 0h.835v.796h-.835v-.796Zm.835 0h.835v.796h-.835v-.796Zm.835 0h.835v.796h-.835v-.796Zm.835 0h.835v.796h-.835v-.796Zm1.669 0h.835v.796h-.835v-.796Zm.835 0h.835v.796h-.835v-.796Zm1.67 0h.835v.796h-.835v-.796Zm.835 0h.835v.796h-.835v-.796Zm-26.715.796h.835v.796h-.835v-.796Zm.835 0h.835v.796h-.835v-.796Zm.835 0h.834v.796h-.834v-.796Zm.834 0h.835v.796h-.835v-.796Zm1.67 0h.835v.796h-.835v-.796Zm.835 0h.835v.796h-.835v-.796Zm5.009 0h.835v.796h-.835v-.796Zm1.67 0h.835v.796h-.835v-.796Zm.835 0h.834v.796h-.834v-.796Zm.834 0h.835v.796h-.835v-.796Zm.835 0h.835v.796h-.835v-.796Zm3.34 0h.834v.796h-.834v-.796Zm.834 0h.835v.796h-.835v-.796Zm4.175 0h.834v.796h-.834v-.796Zm.834 0h.835v.796h-.835v-.796Zm1.67 0h.835v.796h-.835v-.796Zm.835 0h.835v.796h-.835v-.796Zm-25.88.796h.835v.796h-.835v-.796Zm.835 0h.835v.796h-.835v-.796Zm1.669 0h.835v.796h-.835v-.796Zm.835 0h.835v.796h-.835v-.796Zm2.505 0h.835v.796h-.835v-.796Zm.835 0h.835v.796h-.835v-.796Zm1.669 0h.835v.796h-.835v-.796Zm.835 0h.835v.796h-.835v-.796Zm.835 0h.835v.796h-.835v-.796Zm1.67 0h.835v.796h-.835v-.796Zm.835 0h.834v.796h-.834v-.796Zm1.669 0h.835v.796h-.835v-.796Zm.835 0h.835v.796h-.835v-.796Zm.835 0h.835v.796h-.835v-.796Zm2.504 0h.835v.796h-.835v-.796Zm.835 0h.835v.796h-.835v-.796Zm.835 0h.835v.796h-.835v-.796Zm1.67 0h.835v.796h-.835v-.796Zm1.669 0h.835v.796h-.835v-.796Zm2.505 0h.835v.796h-.835v-.796Zm-25.045.796h.835v.796h-.835v-.796Zm1.669 0h.835v.796h-.835v-.796Zm2.505 0h.835v.796h-.835v-.796Zm2.505 0h.834v.796h-.834v-.796Zm4.174 0h.835v.796h-.835v-.796Zm2.504 0h.835v.796h-.835v-.796Zm4.174 0h.835v.796h-.835v-.796Zm1.67 0h.835v.796h-.835v-.796Zm4.174 0h.835v.796h-.835v-.796Zm.835 0h.835v.796h-.835v-.796Zm1.67 0h.835v.796h-.835v-.796Zm-26.715.796h.835v.797h-.835v-.797Zm2.504 0h.835v.797h-.835v-.797Zm.835 0h.835v.797h-.835v-.797Zm2.505 0h.835v.797h-.835v-.797Zm.835 0h.835v.797h-.835v-.797Zm3.339 0h.835v.797h-.835v-.797Zm.835 0h.835v.797h-.835v-.797Zm5.844 0h.835v.797h-.835v-.797Zm.835 0h.834v.797h-.834v-.797Zm1.669 0h.835v.797h-.835v-.797Zm2.505 0h.835v.797h-.835v-.797Zm2.504 0h.835v.797h-.835v-.797Zm2.505 0h.835v.797h-.835v-.797Zm-25.045.797h.834v.796h-.834v-.796Zm.834 0h.835v.796h-.835v-.796Zm2.505 0h.835v.796h-.835v-.796Zm.835 0h.835v.796h-.835v-.796Zm5.009 0h.835v.796h-.835v-.796Zm1.67 0h.834v.796h-.834v-.796Zm3.339 0h.835v.796h-.835v-.796Zm.835 0h.835v.796h-.835v-.796Zm2.504 0h.835v.796h-.835v-.796Zm.835 0h.835v.796h-.835v-.796Zm.835 0h.835v.796h-.835v-.796Zm.835 0h.835v.796h-.835v-.796Zm1.669 0h.835v.796h-.835v-.796Zm.835 0h.835v.796h-.835v-.796Zm1.67 0h.835v.796h-.835v-.796Zm.835 0h.835v.796h-.835v-.796Zm-25.88.796h.835v.796h-.835v-.796Zm1.669 0h.835v.796h-.835v-.796Zm.835 0h.835v.796h-.835v-.796Zm.835 0h.835v.796h-.835v-.796Zm3.34 0h.834v.796h-.834v-.796Zm.834 0h.835v.796h-.835v-.796Zm.835 0h.835v.796h-.835v-.796Zm2.505 0h.835v.796h-.835v-.796Zm3.339 0h.835v.796h-.835v-.796Zm1.67 0h.835v.796h-.835v-.796Zm1.669 0h.835v.796h-.835v-.796Zm2.505 0h.835v.796h-.835v-.796Zm.835 0h.835v.796h-.835v-.796Zm.835 0h.834v.796h-.834v-.796Zm1.669 0h.835v.796h-.835v-.796Zm2.505 0h.835v.796h-.835v-.796Zm-26.715.796h.835v.796h-.835v-.796Zm2.504 0h.835v.796h-.835v-.796Zm.835 0h.835v.796h-.835v-.796Zm.835 0h.835v.796h-.835v-.796Zm.835 0h.835v.796h-.835v-.796Zm1.67 0h.835v.796h-.835v-.796Zm1.669 0h.835v.796h-.835v-.796Zm3.34 0h.835v.796h-.835v-.796Zm.835 0h.834v.796h-.834v-.796Zm.834 0h.835v.796h-.835v-.796Zm.835 0h.835v.796h-.835v-.796Zm.835 0h.835v.796h-.835v-.796Zm.835 0h.835v.796h-.835v-.796Zm2.504 0h.835v.796h-.835v-.796Zm1.67 0h.835v.796h-.835v-.796Zm.835 0h.835v.796h-.835v-.796Zm.835 0h.835v.796h-.835v-.796Zm.835 0h.834v.796h-.834v-.796Zm.834 0h.835v.796h-.835v-.796Zm2.505 0h.835v.796h-.835v-.796Zm-19.201.796h.835v.796h-.835v-.796Zm.835 0h.834v.796h-.834v-.796Zm5.009 0h.834v.796h-.834v-.796Zm1.669 0h.835v.796h-.835v-.796Zm1.67 0h.835v.796h-.835v-.796Zm1.67 0h.834v.796h-.834v-.796Zm1.669 0h.835v.796h-.835v-.796Zm.835 0h.835v.796h-.835v-.796Zm3.339 0h.835v.796h-.835v-.796Zm.835 0h.835v.796h-.835v-.796Zm-24.21.796h.835v.796h-.835v-.796Zm.835 0h.835v.796h-.835v-.796Zm.835 0h.834v.796h-.834v-.796Zm.834 0h.835v.796h-.835v-.796Zm.835 0h.835v.796h-.835v-.796Zm.835 0h.835v.796h-.835v-.796Zm.835 0h.835v.796h-.835v-.796Zm5.009 0h.835v.796h-.835v-.796Zm.835 0h.835v.796h-.835v-.796Zm.835 0h.835v.796h-.835v-.796Zm4.174 0h.835v.796h-.835v-.796Zm.835 0h.835v.796h-.835v-.796Zm.835 0h.834v.796h-.834v-.796Zm1.669 0h.835v.796h-.835v-.796Zm.835 0h.835v.796h-.835v-.796Zm1.67 0h.835v.796h-.835v-.796Zm1.669 0h.835v.796h-.835v-.796Zm-23.375.796h.835v.797h-.835v-.797Zm5.009 0h.835v.797h-.835v-.797Zm1.67 0h.835v.797h-.835v-.797Zm.835 0h.834v.797h-.834v-.797Zm.834 0h.835v.797h-.835v-.797Zm1.67 0h.835v.797h-.835v-.797Zm3.339 0h.835v.797h-.835v-.797Zm5.844 0h.835v.797h-.835v-.797Zm.835 0h.835v.797h-.835v-.797Zm3.339 0h.835v.797h-.835v-.797Zm.835 0h.835v.797h-.835v-.797Zm.835 0h.835v.797h-.835v-.797Zm.835 0h.835v.797h-.835v-.797Zm.835 0h.835v.797h-.835v-.797Zm-26.715.797h.835v.796h-.835v-.796Zm1.67 0h.834v.796h-.834v-.796Zm.834 0h.835v.796h-.835v-.796Zm.835 0h.835v.796h-.835v-.796Zm1.67 0h.835v.796h-.835v-.796Zm5.844 0h.835v.796h-.835v-.796Zm.835 0h.835v.796h-.835v-.796Zm6.678 0h.835v.796h-.835v-.796Zm.835 0h.835v.796h-.835v-.796Zm.835 0h.835v.796h-.835v-.796Zm.835 0h.835v.796h-.835v-.796Zm.835 0h.835v.796h-.835v-.796Zm.835 0h.834v.796h-.834v-.796Zm.834 0h.835v.796h-.835v-.796Zm1.67 0h.835v.796h-.835v-.796Zm1.67 0h.835v.796h-.835v-.796Zm-26.715.796h.835v.796h-.835v-.796Zm1.67 0h.834v.796h-.834v-.796Zm.834 0h.835v.796h-.835v-.796Zm.835 0h.835v.796h-.835v-.796Zm1.67 0h.835v.796h-.835v-.796Zm1.67 0h.835v.796h-.835v-.796Zm.835 0h.834v.796h-.834v-.796Zm2.504 0h.835v.796h-.835v-.796Zm.835 0h.835v.796h-.835v-.796Zm1.67 0h.834v.796h-.834v-.796Zm2.504 0h.835v.796h-.835v-.796Zm.835 0h.835v.796h-.835v-.796Zm1.67 0h.834v.796h-.834v-.796Zm.834 0h.835v.796h-.835v-.796Zm1.67 0h.835v.796h-.835v-.796Zm2.505 0h.834v.796h-.834v-.796Zm2.504 0h.835v.796h-.835v-.796Zm.835 0h.835v.796h-.835v-.796Zm.835 0h.835v.796h-.835v-.796Zm-26.715.796h.835v.796h-.835v-.796Zm1.67 0h.834v.796h-.834v-.796Zm.834 0h.835v.796h-.835v-.796Zm.835 0h.835v.796h-.835v-.796Zm1.67 0h.835v.796h-.835v-.796Zm1.67 0h.835v.796h-.835v-.796Zm.835 0h.834v.796h-.834v-.796Zm.834 0h.835v.796h-.835v-.796Zm.835 0h.835v.796h-.835v-.796Zm.835 0h.835v.796h-.835v-.796Zm.835 0h.835v.796h-.835v-.796Zm.835 0h.835v.796h-.835v-.796Zm.835 0h.834v.796h-.834v-.796Zm1.669 0h.835v.796h-.835v-.796Zm.835 0h.835v.796h-.835v-.796Zm1.67 0h.835v.796h-.835v-.796Zm.835 0h.834v.796h-.834v-.796Zm.834 0h.835v.796h-.835v-.796Zm1.67 0h.835v.796h-.835v-.796Zm.835 0h.835v.796h-.835v-.796Zm.835 0h.835v.796h-.835v-.796Zm.835 0h.834v.796h-.834v-.796Zm1.669 0h.835v.796h-.835v-.796Zm.835 0h.835v.796h-.835v-.796Zm-25.045.796h.835v.796h-.835v-.796Zm5.009 0h.835v.796h-.835v-.796Zm1.67 0h.835v.796h-.835v-.796Zm.835 0h.834v.796h-.834v-.796Zm.834 0h.835v.796h-.835v-.796Zm.835 0h.835v.796h-.835v-.796Zm1.67 0h.835v.796h-.835v-.796Zm.835 0h.835v.796h-.835v-.796Zm.835 0h.834v.796h-.834v-.796Zm.834 0h.835v.796h-.835v-.796Zm.835 0h.835v.796h-.835v-.796Zm.835 0h.835v.796h-.835v-.796Zm1.67 0h.835v.796h-.835v-.796Zm2.504 0h.835v.796h-.835v-.796Zm.835 0h.835v.796h-.835v-.796Zm.835 0h.835v.796h-.835v-.796Zm1.67 0h.834v.796h-.834v-.796Zm.834 0h.835v.796h-.835v-.796Zm3.34 0h.835v.796h-.835v-.796Zm-26.715.796h.835v.796h-.835v-.796Zm.835 0h.835v.796h-.835v-.796Zm.835 0h.834v.796h-.834v-.796Zm.834 0h.835v.796h-.835v-.796Zm.835 0h.835v.796h-.835v-.796Zm.835 0h.835v.796h-.835v-.796Zm.835 0h.835v.796h-.835v-.796Zm2.505 0h.834v.796h-.834v-.796Zm.834 0h.835v.796h-.835v-.796Zm.835 0h.835v.796h-.835v-.796Zm.835 0h.835v.796h-.835v-.796Zm2.505 0h.834v.796h-.834v-.796Zm.834 0h.835v.796h-.835v-.796Zm.835 0h.835v.796h-.835v-.796Zm1.67 0h.835v.796h-.835v-.796Zm1.67 0h.834v.796h-.834v-.796Zm1.669 0h.835v.796h-.835v-.796Zm1.67 0h.835v.796h-.835v-.796Zm2.504 0h.835v.796h-.835v-.796Zm1.67 0h.835v.796h-.835v-.796Zm-63.84-20.76a2.18 2.18 0 0 1-.589-.08 1.422 1.422 0 0 1-.454-.215l.201-.445c.11.08.241.144.392.193.151.049.302.073.454.073.168 0 .292-.024.373-.073.08-.051.12-.118.12-.201 0-.06-.024-.11-.073-.149a.496.496 0 0 0-.183-.098 3.101 3.101 0 0 0-.3-.081 4.173 4.173 0 0 1-.479-.138.794.794 0 0 1-.322-.223.603.603 0 0 1-.132-.408c0-.148.041-.282.121-.401a.803.803 0 0 1 .362-.288c.164-.071.362-.106.597-.106.163 0 .323.02.479.059.156.038.293.094.41.167l-.183.449a1.43 1.43 0 0 0-.71-.201c-.166 0-.289.027-.37.08a.246.246 0 0 0-.117.212c0 .087.045.153.136.197.092.041.233.082.421.124.195.046.354.092.479.138.124.046.23.119.318.219.09.1.136.235.136.405a.697.697 0 0 1-.125.401.807.807 0 0 1-.366.284 1.492 1.492 0 0 1-.596.106Zm2.717 0a1.5 1.5 0 0 1-.71-.168 1.306 1.306 0 0 1-.497-.47 1.308 1.308 0 0 1-.179-.682 1.262 1.262 0 0 1 .676-1.148c.213-.115.451-.172.714-.172.222 0 .422.039.6.117a1.2 1.2 0 0 1 .454.335l-.381.35a.82.82 0 0 0-.644-.299.85.85 0 0 0-.424.106.738.738 0 0 0-.293.288.865.865 0 0 0-.102.423c0 .158.034.299.102.423a.768.768 0 0 0 .293.292.87.87 0 0 0 .424.102.815.815 0 0 0 .644-.303l.381.35a1.188 1.188 0 0 1-.454.339c-.18.078-.382.117-.604.117Zm3.095-.591h-1.189l-.227.547h-.608l1.142-2.552h.585l1.146 2.552h-.622l-.227-.547Zm-.187-.448-.406-.977-.406.977h.812Zm3.65-1.557v2.552h-.486l-1.277-1.549v1.549h-.586v-2.552h.491l1.273 1.549v-1.549h.585Zm4.412 2.826a.823.823 0 0 1-.303.233 1.07 1.07 0 0 1-.904-.044c-.154-.08-.329-.223-.527-.43a1.455 1.455 0 0 1-.622-.222 1.289 1.289 0 0 1-.424-.46 1.32 1.32 0 0 1-.15-.627c0-.25.059-.475.179-.674.122-.202.289-.36.501-.474.215-.115.455-.172.721-.172.266 0 .505.057.717.172a1.284 1.284 0 0 1 .684 1.148 1.29 1.29 0 0 1-.914 1.247.64.64 0 0 0 .175.135.418.418 0 0 0 .187.044.56.56 0 0 0 .417-.19l.263.314Zm-2.33-1.55c0 .158.034.299.102.423a.779.779 0 0 0 .289.292.829.829 0 0 0 .41.102.829.829 0 0 0 .41-.102.748.748 0 0 0 .285-.292.836.836 0 0 0 .106-.423.836.836 0 0 0-.106-.423.718.718 0 0 0-.285-.288.81.81 0 0 0-.41-.106.81.81 0 0 0-.41.106.747.747 0 0 0-.289.288.865.865 0 0 0-.102.423Zm4.28 1.276-.494-.711h-.545v.711h-.593v-2.552h1.108c.227 0 .424.038.59.113a.869.869 0 0 1 .387.321.873.873 0 0 1 .136.492c0 .19-.047.354-.139.492a.87.87 0 0 1-.388.314l.574.82h-.636Zm-.011-1.626c0-.143-.047-.253-.139-.328-.093-.078-.228-.117-.406-.117h-.483v.89h.483c.178 0 .313-.039.406-.117a.407.407 0 0 0 .139-.328Zm4.455-.926v2.552h-.487l-1.277-1.549v1.549h-.585v-2.552h.49l1.273 1.549v-1.549h.586Zm1.846 2.596c-.266 0-.506-.057-.721-.171a1.299 1.299 0 0 1-.501-.471 1.301 1.301 0 0 1-.179-.678c0-.25.059-.475.179-.674.122-.202.289-.36.501-.474.215-.115.455-.172.721-.172.266 0 .505.057.717.172a1.284 1.284 0 0 1 .684 1.148c0 .25-.061.476-.183.678-.122.2-.289.356-.501.471a1.49 1.49 0 0 1-.717.171Zm0-.503a.829.829 0 0 0 .41-.102.748.748 0 0 0 .285-.292.836.836 0 0 0 .106-.423.836.836 0 0 0-.106-.423.718.718 0 0 0-.285-.288.81.81 0 0 0-.41-.106.81.81 0 0 0-.41.106.747.747 0 0 0-.289.288.865.865 0 0 0-.102.423c0 .158.034.299.102.423a.779.779 0 0 0 .289.292.829.829 0 0 0 .41.102Zm5.632-2.093-.838 2.552h-.636l-.564-1.728-.582 1.728h-.633l-.841-2.552h.615l.578 1.794.603-1.794h.549l.586 1.808.596-1.808h.567Z" fill="#879EC1"/></g><path fill-rule="evenodd" clip-rule="evenodd" d="M185.98 87.738h-2.869l1.317-1.312-.329-.328-1.882 1.875 1.882 1.875.329-.328-1.317-1.313h2.869v-.469Z" fill="#233654"/><path fill="#fff" d="M180.309 97.478h85.201V110.5h-85.201z"/><g clip-path="url(#j)" fill="#C4D0EA"><path d="M185.013 101.906a2.09 2.09 0 0 0-2.091 2.084 2.09 2.09 0 0 0 2.091 2.083c1.153 0 2.09-.935 2.09-2.083a2.09 2.09 0 0 0-2.09-2.084Zm0 3.788a1.71 1.71 0 0 1-1.711-1.704c0-.94.767-1.705 1.711-1.705.943 0 1.71.765 1.71 1.705a1.71 1.71 0 0 1-1.71 1.704Z"/><path d="M185.012 103.548a.19.19 0 0 0-.19.189V105a.19.19 0 0 0 .38 0v-1.263a.19.19 0 0 0-.19-.189Zm0-.758a.19.19 0 0 0-.19.189.192.192 0 0 0 .19.19.19.19 0 0 0 .135-.324.195.195 0 0 0-.135-.055Z"/></g><rect width="17.249" height="9.375" rx="4.688" transform="matrix(1 0 0 -1 245.646 108.677)" fill="#87AB49"/><rect width="6.795" height="6.771" rx="3.386" transform="matrix(1 0 0 -1 254.793 107.375)" fill="#fff"/><rect x="188.41" y="100.938" width="31.683" height="2.485" rx="1.243" fill="#E0E7F5"/><rect x="188.41" y="105.188" width="31.683" height="2.485" rx="1.243" fill="#E0E7F5"/><path fill="#fff" d="M180.309 110.761h85.201v13.021h-85.201z"/><g clip-path="url(#k)" fill="#C4D0EA"><path d="M185.013 115.188a2.09 2.09 0 0 0-2.091 2.084 2.09 2.09 0 0 0 2.091 2.083c1.153 0 2.09-.934 2.09-2.083a2.09 2.09 0 0 0-2.09-2.084Zm0 3.788a1.709 1.709 0 0 1-1.711-1.704c0-.94.767-1.705 1.711-1.705.943 0 1.71.765 1.71 1.705 0 .94-.767 1.704-1.71 1.704Z"/><path d="M185.012 116.83a.19.19 0 0 0-.19.189v1.263a.19.19 0 0 0 .19.189.19.19 0 0 0 .19-.189v-1.263a.19.19 0 0 0-.19-.189Zm0-.758a.192.192 0 0 0-.19.19.19.19 0 0 0 .38 0 .19.19 0 0 0-.19-.19Z"/></g><rect width="17.249" height="9.375" rx="4.688" transform="matrix(1 0 0 -1 245.646 121.959)" fill="#87AB49"/><rect width="6.795" height="6.771" rx="3.386" transform="matrix(1 0 0 -1 254.793 120.657)" fill="#fff"/><rect x="188.41" y="116.262" width="41.023" height="2.485" rx="1.243" fill="#E0E7F5"/><path fill="#fff" d="M180.309 124.042h85.201v13.021h-85.201z"/><g clip-path="url(#l)" fill="#C4D0EA"><path d="M185.013 128.47a2.09 2.09 0 0 0-2.091 2.083 2.09 2.09 0 0 0 2.091 2.083c1.153 0 2.09-.934 2.09-2.083a2.088 2.088 0 0 0-2.09-2.083Zm0 3.788a1.71 1.71 0 0 1-1.711-1.705c0-.94.767-1.704 1.711-1.704.943 0 1.71.764 1.71 1.704a1.71 1.71 0 0 1-1.71 1.705Z"/><path d="M185.012 130.111a.19.19 0 0 0-.19.19v1.262a.19.19 0 1 0 .38 0v-1.262a.19.19 0 0 0-.19-.19Zm0-.757a.19.19 0 0 0-.19.189.19.19 0 0 0 .38 0 .19.19 0 0 0-.055-.134.195.195 0 0 0-.135-.055Z"/></g><rect width="17.249" height="9.375" rx="4.688" transform="matrix(1 0 0 -1 245.646 135.24)" fill="#879EC1"/><rect width="6.795" height="6.771" rx="3.386" transform="matrix(1 0 0 -1 246.953 133.938)" fill="#fff"/><rect x="188.41" y="129.311" width="28.909" height="2.485" rx="1.243" fill="#E0E7F5"/><path fill="#fff" d="M180.309 137.324h85.201v13.021h-85.201z"/><g clip-path="url(#m)" fill="#C4D0EA"><path d="M185.013 141.752a2.09 2.09 0 0 0-2.091 2.083 2.09 2.09 0 0 0 2.091 2.084 2.09 2.09 0 0 0 2.09-2.084 2.089 2.089 0 0 0-2.09-2.083Zm0 3.788a1.71 1.71 0 0 1-1.711-1.705c0-.94.767-1.704 1.711-1.704.943 0 1.71.764 1.71 1.704a1.71 1.71 0 0 1-1.71 1.705Z"/><path d="M185.012 143.394a.19.19 0 0 0-.19.189v1.262a.19.19 0 1 0 .38 0v-1.262a.19.19 0 0 0-.19-.189Zm0-.758a.19.19 0 0 0-.19.189.192.192 0 0 0 .19.19.19.19 0 0 0 .135-.324.195.195 0 0 0-.135-.055Z"/></g><rect width="17.249" height="9.375" rx="4.688" transform="matrix(1 0 0 -1 245.646 148.522)" fill="#87AB49"/><rect width="6.795" height="6.771" rx="3.386" transform="matrix(1 0 0 -1 254.793 147.221)" fill="#fff"/><rect x="188.41" y="142.636" width="41.076" height="2.485" rx="1.243" fill="#E0E7F5"/><path fill="#fff" d="M180.309 150.605h85.201v13.021h-85.201z"/><g clip-path="url(#n)" fill="#C4D0EA"><path d="M185.013 155.033a2.09 2.09 0 0 0-2.091 2.084 2.09 2.09 0 0 0 2.091 2.083c1.153 0 2.09-.935 2.09-2.083a2.09 2.09 0 0 0-2.09-2.084Zm0 3.788a1.71 1.71 0 0 1-1.711-1.704c0-.94.767-1.705 1.711-1.705.943 0 1.71.765 1.71 1.705a1.71 1.71 0 0 1-1.71 1.704Z"/><path d="M185.012 156.675a.19.19 0 0 0-.19.189v1.263a.19.19 0 0 0 .38 0v-1.263a.19.19 0 0 0-.19-.189Zm0-.758a.19.19 0 0 0-.19.189.192.192 0 0 0 .19.19.19.19 0 0 0 .135-.324.195.195 0 0 0-.135-.055Z"/></g><rect width="17.249" height="9.375" rx="4.688" transform="matrix(1 0 0 -1 245.646 161.804)" fill="#87AB49"/><rect width="6.795" height="6.771" rx="3.386" transform="matrix(1 0 0 -1 254.793 160.502)" fill="#fff"/><rect x="188.41" y="155.873" width="42.018" height="2.485" rx="1.243" fill="#E0E7F5"/><path fill="#fff" d="M180.309 163.888h85.201v21.095h-85.201z"/><rect width="17.249" height="9.375" rx="4.688" transform="matrix(1 0 0 -1 245.646 175.736)" fill="#879EC1"/><rect width="6.795" height="6.771" rx="3.386" transform="matrix(1 0 0 -1 246.953 174.435)" fill="#fff"/><rect x="182.922" y="170.168" width="46.66" height="2.485" rx="1.243" fill="#E0E7F5"/><rect x="182.922" y="179.242" width="16.299" height="2.485" rx="1.243" fill="#E0E7F5"/><rect x="246.334" y="179.242" width="16.299" height="2.485" rx="1.243" fill="#E0E7F5"/><rect x="206.299" y="216.162" width="16.299" height="2.485" rx="1.243" fill="#E0E7F5"/><rect x="185.812" y="216.162" width="16.299" height="2.485" rx="1.243" fill="#E0E7F5"/><rect x="198.863" y="85.891" width="48.089" height="4.165" rx="2.082" fill="#E0E7F5"/></g></g><g filter="url(#o)"><g clip-path="url(#p)"><path d="M103.697 81.1c0-5.522 4.477-10 10-10h82.319c5.523 0 10 4.478 10 10v150.73c0 5.523-4.477 10-10 10h-82.319c-5.523 0-10-4.477-10-10V81.1Z" fill="#F1F4FB"/><path d="M113.679 80.8c.216 0 .394-.176.367-.39a3.097 3.097 0 0 0-.849-1.776 2.937 2.937 0 0 0-2.106-.897 2.94 2.94 0 0 0-2.107.897 3.089 3.089 0 0 0-.848 1.775c-.027.215.15.39.366.39s.388-.176.424-.389a2.28 2.28 0 0 1 .611-1.207 2.168 2.168 0 0 1 1.554-.662c.582 0 1.141.238 1.553.662.322.33.534.753.611 1.207.036.213.208.39.424.39Z" fill="#87AB49"/><path d="M112.687 76.766c0 .887-.715 1.607-1.597 1.607-.883 0-1.598-.72-1.598-1.607 0-.888.715-1.608 1.598-1.608.882 0 1.597.72 1.597 1.608Zm-2.556 0c0 .532.429.964.959.964a.961.961 0 0 0 .958-.964.961.961 0 0 0-.958-.965.962.962 0 0 0-.959.965Z" fill="#87AB49"/><mask id="q" fill="#fff"><path d="M198.487 80.549a.23.23 0 0 1-.293.169 2.83 2.83 0 0 1-1.392-1.046 2.859 2.859 0 0 1 .347-3.696 2.814 2.814 0 0 1 3.684-.202 2.85 2.85 0 0 1 .744 3.636c-.29.523-.735.94-1.271 1.192a.228.228 0 0 1-.309-.136.267.267 0 0 1 .14-.327 2.362 2.362 0 0 0 .398-3.975 2.328 2.328 0 0 0-3.047.166 2.36 2.36 0 0 0 .824 3.909.268.268 0 0 1 .175.31Z"/></mask><path d="m196.802 79.672-1.226.864 1.226-.864Zm4.775-.262-1.313-.726 1.313.726Zm-.427-.239-1.312-.726 1.312.726Zm-3.949.216 1.226-.864-1.226.865Zm1.111.852-.513 1.41.513-1.41Zm1.685.227 1.409-.514-1.409.514Zm.14-.327-.664-1.346.664 1.346Zm.169.463-.639-1.357.639 1.357Zm-2.112.116-.488 1.418.488-1.418Zm.488-1.419a1.327 1.327 0 0 1-.654-.492l-2.452 1.729a4.327 4.327 0 0 0 2.13 1.6l.976-2.837Zm-.654-.492a1.36 1.36 0 0 1-.241-.908l-2.987-.28a4.358 4.358 0 0 0 .776 2.917l2.452-1.728Zm-.241-.908c.031-.323.175-.622.405-.845l-2.085-2.156a4.35 4.35 0 0 0-1.307 2.72l2.987.281Zm.405-.845c.23-.222.529-.352.844-.37l-.164-2.995a4.314 4.314 0 0 0-2.765 1.209l2.085 2.156Zm.844-.37c.315-.017.626.08.878.275l1.838-2.37a4.312 4.312 0 0 0-2.88-.9l.164 2.996Zm.878.275c.252.196.427.477.492.795l2.939-.602a4.344 4.344 0 0 0-1.593-2.563l-1.838 2.37Zm.492.795c.065.317.015.648-.142.93l2.625 1.452a4.358 4.358 0 0 0 .456-2.983l-2.939.6Zm-.142.93a1.333 1.333 0 0 1-.597.56l1.279 2.715a4.335 4.335 0 0 0 1.943-1.823l-2.625-1.452Zm.537 2.8a3.846 3.846 0 0 0 1.662-1.587l-2.625-1.452a.847.847 0 0 1-.365.349l1.328 2.69Zm1.662-1.587a3.86 3.86 0 0 0 .404-2.646l-2.939.602a.869.869 0 0 1-.09.592l2.625 1.452Zm.404-2.646a3.852 3.852 0 0 0-1.413-2.273l-1.838 2.37a.853.853 0 0 1 .312.505l2.939-.602Zm-1.413-2.273a3.828 3.828 0 0 0-2.556-.798l.165 2.995a.83.83 0 0 1 .553.174l1.838-2.371Zm-2.556-.798a3.83 3.83 0 0 0-2.453 1.072l2.085 2.157a.835.835 0 0 1 .533-.234l-.165-2.995Zm-2.453 1.072a3.86 3.86 0 0 0-1.159 2.413l2.987.28a.865.865 0 0 1 .257-.536l-2.085-2.157Zm-1.159 2.413a3.866 3.866 0 0 0 .688 2.587l2.453-1.729a.863.863 0 0 1-.154-.578l-2.987-.28Zm.688 2.587a3.843 3.843 0 0 0 1.825 1.396l1.026-2.819a.84.84 0 0 1-.398-.306l-2.453 1.729Zm1.825 1.396a1.233 1.233 0 0 1-.769-1.458l2.913.717c.237-.962-.358-1.801-1.118-2.078l-1.026 2.82Zm3.607-1.696a1.232 1.232 0 0 1-.605 1.532l-1.328-2.69c-.723.357-1.225 1.255-.885 2.186l2.818-1.028Zm-1.739-.707c.761-.359 1.517.097 1.739.707l-2.818 1.028c.315.864 1.352 1.453 2.358.979l-1.279-2.714Zm-1.961 2.891c1.052.362 2.018-.337 2.237-1.229l-2.913-.717c.155-.629.855-1.165 1.652-.89l-.976 2.836Z" fill="#87AB49" mask="url(#q)"/><path d="M198.299 76.818a1.428 1.428 0 0 1 .372-.25 1.243 1.243 0 0 1 .876-.047.805.805 0 0 1 .287.165c.081.07.144.156.189.257.044.1.066.212.066.336a.903.903 0 0 1-.052.323.882.882 0 0 1-.134.235 1.16 1.16 0 0 1-.176.176l-.182.14a1.212 1.212 0 0 0-.146.13.268.268 0 0 0-.071.142l-.05.367h-.349l-.036-.404a.322.322 0 0 1 .036-.198.668.668 0 0 1 .127-.157c.054-.049.113-.096.176-.14.066-.045.126-.096.182-.151a.886.886 0 0 0 .141-.187.503.503 0 0 0 .021-.419.372.372 0 0 0-.1-.132.464.464 0 0 0-.151-.083.73.73 0 0 0-.592.08 1.02 1.02 0 0 0-.114.074.143.143 0 0 1-.077.032.115.115 0 0 1-.109-.066l-.134-.223Zm.458 2.908a.359.359 0 0 1 .093-.243.333.333 0 0 1 .571.243.348.348 0 0 1-.098.242.304.304 0 0 1-.107.071.333.333 0 0 1-.366-.071.4.4 0 0 1-.069-.108.367.367 0 0 1-.024-.134Z" fill="#87AB49"/><path d="M140.441 76.42c.299 0 .558.05.777.15.223.101.393.244.513.429.119.184.178.403.178.656a1.2 1.2 0 0 1-.178.656c-.12.185-.29.327-.513.428a1.902 1.902 0 0 1-.777.146h-.682v.938h-.782V76.42h1.464Zm-.044 1.823c.235 0 .414-.05.536-.15a.54.54 0 0 0 .184-.438c0-.191-.061-.337-.184-.438-.122-.103-.301-.155-.536-.155h-.638v1.181h.638Zm2.071-1.823h.783v2.761h1.696v.642h-2.479V76.42Zm5.172 2.674h-1.57l-.3.73h-.802l1.508-3.404h.773l1.512 3.403h-.821l-.3-.73Zm-.246-.598-.537-1.303-.536 1.303h1.073Zm4.82-2.076v3.403h-.643l-1.686-2.066v2.066h-.773V76.42h.647l1.682 2.066V76.42h.773Zm3.419 2.771v.632h-2.619V76.42h2.556v.632h-1.778v.739h1.57v.612h-1.57v.788h1.841Zm1.323-2.129h-1.082v-.642h2.947v.642h-1.082v2.761h-.783v-2.761Zm6.907-.642-1.464 3.403h-.774l-1.459-3.403h.846l1.029 2.43 1.044-2.43h.778Zm1.746 0c.3 0 .559.05.778.15.222.101.393.244.512.429.119.184.179.403.179.656 0 .25-.06.468-.179.656a1.16 1.16 0 0 1-.512.428 1.903 1.903 0 0 1-.778.146h-.681v.938h-.783V76.42h1.464Zm-.044 1.823c.236 0 .414-.05.537-.15a.543.543 0 0 0 .183-.438c0-.191-.061-.337-.183-.438-.123-.103-.301-.155-.537-.155h-.637v1.181h.637Zm5.174-1.823v3.403h-.643l-1.686-2.066v2.066h-.773V76.42h.647l1.682 2.066V76.42h.773Z" fill="#3B577F"/><rect x="113.645" y="206.654" width="82.139" height="14.299" rx="7.149" fill="#87AB49"/><ellipse cx="154.857" cy="167.328" rx="25.185" ry="25.341" fill="url(#r)"/><path fill-rule="evenodd" clip-rule="evenodd" d="M126.431 176.341c.435-.541 1.272-.459 1.616.143.218.383.16.863-.132 1.194-1.711 1.944-2.449 3.456-1.958 4.317 1.579 2.766 15.239-2.223 30.512-11.144.527-.307 1.049-.615 1.565-.924a.598.598 0 0 0 .284-.516c0-3.551 2.861-6.43 6.39-6.43 1.892 0 3.942.056 5.465-1.066 7.615-5.611 12.138-10.39 11.091-12.223-.468-.821-2.001-.959-4.325-.514a1.007 1.007 0 0 1-1.07-.481c-.334-.584.009-1.324.675-1.422 4.571-.673 7.814-.11 8.95 1.881 2.129 3.731-3.729 11.427-13.926 19.252-.308.236-.469.615-.469 1.003 0 3.551-2.861 6.43-6.391 6.43-.176 0-.351-.007-.523-.021-1.574-.128-3.251-.195-4.615.602-17.184 10.036-33.437 14.101-36.303 9.08-1.176-2.06.084-5.329 3.164-9.161Z" fill="#D7DEED"/><ellipse cx="164.709" cy="169.411" rx="3.195" ry="3.215" fill="#70AF09"/><path d="M141.951 158.662c-1.55 3.851-1.061 7.912-2.963 7.137-1.901-.774-2.185-4.524-.635-8.375s4.347-6.345 6.248-5.57c1.902.775-1.1 2.957-2.65 6.808Zm-1.194 10.963c.139 1.268-.445 2.373-1.303 2.468-.859.095-1.667-.856-1.805-2.124-.139-1.269.445-2.374 1.303-2.468.859-.095 1.667.856 1.805 2.124Z" opacity=".32" fill="#E5E5E5"/><path d="M147.421 186.634c-.875-.509-.456-1.361 1.67-2.07 4.482-.99 3.726 1.011 10.176.241 6.45-.77 9.851-3.445 11.563-5.205 1.37-1.408 2.637-3.314 2.576-2.641-.291 1.43-2.645 5.199-9.729 8.836-8.856 4.547-14.914 1.619-16.256.839Z" fill="#080F1B" fill-opacity=".11"/><path d="M175.907 153.293c.828-.552 1.059-1.673.458-2.466a27.03 27.03 0 0 0-15.581-10.052 26.904 26.904 0 0 0-19.919 3.263 27.195 27.195 0 0 0-12.13 16.229 27.371 27.371 0 0 0 1.596 18.538c.42.909 1.53 1.229 2.407.744.871-.481 1.183-1.573.774-2.48a23.712 23.712 0 0 1-1.29-15.859 23.562 23.562 0 0 1 10.511-14.063 23.309 23.309 0 0 1 17.26-2.827 23.415 23.415 0 0 1 13.343 8.503c.614.792 1.737 1.026 2.571.47Zm-36.479 34.144c-.608.793-.467 1.934.358 2.491a26.906 26.906 0 0 0 28.198 1.195 27.133 27.133 0 0 0 10.84-11.181 27.36 27.36 0 0 0 3.065-13.531c-.034-.999-.922-1.724-1.912-1.623-.994.1-1.713.992-1.69 1.995.092 3.98-.82 7.93-2.663 11.475a23.512 23.512 0 0 1-9.392 9.689 23.318 23.318 0 0 1-24.228-.898c-.833-.55-1.965-.408-2.576.388Z" fill="#D7DEED"/><rect x="114.121" y="90.547" width="81.287" height="11.153" rx="5.577" fill="#D7DEED"/><rect x="128.852" y="107.992" width="52.012" height="6.006" rx="3.003" fill="#D7DEED"/><rect x="143.631" y="116.285" width="22.453" height="7.721" rx="3.861" fill="#87AB49"/></g></g><defs><clipPath id="a"><path d="M17.027 15.115c0-3.116 2.547-5.642 5.663-5.642s5.662 2.526 5.662 5.642c0 3.116-2.546 5.642-5.662 5.642s-5.663-2.526-5.663-5.642Z" fill="#fff"/></clipPath><clipPath id="c"><path d="M270.969 38.55c0-3.116 2.546-5.642 5.662-5.642s5.663 2.526 5.663 5.642c0 3.116-2.547 5.642-5.663 5.642s-5.662-2.526-5.662-5.642Z" fill="#fff"/></clipPath><clipPath id="f"><path d="M39.764 88.728c0-5.523 4.477-10 10-10h73.498c5.523 0 10 4.477 10 10v135.475c0 5.522-4.477 10-10 10H49.764c-5.523 0-10-4.478-10-10V88.727Z" fill="#fff"/></clipPath><clipPath id="h"><path d="M175.865 88.728c0-5.523 4.477-10 10-10h74.087c5.523 0 10 4.477 10 10v135.475c0 5.522-4.477 10-10 10h-74.087c-5.523 0-10-4.478-10-10V88.727Z" fill="#fff"/></clipPath><clipPath id="j"><path fill="#fff" transform="translate(182.922 101.906)" d="M0 0h4.182v4.167H0z"/></clipPath><clipPath id="k"><path fill="#fff" transform="translate(182.922 115.188)" d="M0 0h4.182v4.167H0z"/></clipPath><clipPath id="l"><path fill="#fff" transform="translate(182.922 128.47)" d="M0 0h4.182v4.167H0z"/></clipPath><clipPath id="m"><path fill="#fff" transform="translate(182.922 141.752)" d="M0 0h4.182v4.167H0z"/></clipPath><clipPath id="n"><path fill="#fff" transform="translate(182.922 155.033)" d="M0 0h4.182v4.167H0z"/></clipPath><clipPath id="p"><path d="M103.697 81.1c0-5.522 4.477-10 10-10h82.319c5.523 0 10 4.478 10 10v150.73c0 5.523-4.477 10-10 10h-82.319c-5.523 0-10-4.477-10-10V81.1Z" fill="#fff"/></clipPath><filter id="e" x="17.764" y="60.727" width="137.498" height="199.475" filterUnits="userSpaceOnUse" color-interpolation-filters="sRGB"><feFlood flood-opacity="0" result="BackgroundImageFix"/><feColorMatrix in="SourceAlpha" values="0 0 0 0 0 0 0 0 0 0 0 0 0 0 0 0 0 0 127 0" result="hardAlpha"/><feOffset dy="4"/><feGaussianBlur stdDeviation="11"/><feColorMatrix values="0 0 0 0 0.0925174 0 0 0 0 0.176063 0 0 0 0 0.304167 0 0 0 0.17 0"/><feBlend in2="BackgroundImageFix" result="effect1_dropShadow_8541_174593"/><feBlend in="SourceGraphic" in2="effect1_dropShadow_8541_174593" result="shape"/></filter><filter id="g" x="153.865" y="60.727" width="138.086" height="199.475" filterUnits="userSpaceOnUse" color-interpolation-filters="sRGB"><feFlood flood-opacity="0" result="BackgroundImageFix"/><feColorMatrix in="SourceAlpha" values="0 0 0 0 0 0 0 0 0 0 0 0 0 0 0 0 0 0 127 0" result="hardAlpha"/><feOffset dy="4"/><feGaussianBlur stdDeviation="11"/><feColorMatrix values="0 0 0 0 0.0925174 0 0 0 0 0.176063 0 0 0 0 0.304167 0 0 0 0.17 0"/><feBlend in2="BackgroundImageFix" result="effect1_dropShadow_8541_174593"/><feBlend in="SourceGraphic" in2="effect1_dropShadow_8541_174593" result="shape"/></filter><filter id="i" x="177.309" y="189.19" width="91.201" height="42.721" filterUnits="userSpaceOnUse" color-interpolation-filters="sRGB"><feFlood flood-opacity="0" result="BackgroundImageFix"/><feColorMatrix in="SourceAlpha" values="0 0 0 0 0 0 0 0 0 0 0 0 0 0 0 0 0 0 127 0" result="hardAlpha"/><feOffset dy="2"/><feGaussianBlur stdDeviation="1.5"/><feColorMatrix values="0 0 0 0 0.101961 0 0 0 0 0.211765 0 0 0 0 0.533333 0 0 0 0.09 0"/><feBlend in2="BackgroundImageFix" result="effect1_dropShadow_8541_174593"/><feBlend in="SourceGraphic" in2="effect1_dropShadow_8541_174593" result="shape"/></filter><filter id="o" x="81.697" y="53.101" width="146.318" height="214.729" filterUnits="userSpaceOnUse" color-interpolation-filters="sRGB"><feFlood flood-opacity="0" result="BackgroundImageFix"/><feColorMatrix in="SourceAlpha" values="0 0 0 0 0 0 0 0 0 0 0 0 0 0 0 0 0 0 127 0" result="hardAlpha"/><feOffset dy="4"/><feGaussianBlur stdDeviation="11"/><feColorMatrix values="0 0 0 0 0.0925174 0 0 0 0 0.176063 0 0 0 0 0.304167 0 0 0 0.17 0"/><feBlend in2="BackgroundImageFix" result="effect1_dropShadow_8541_174593"/><feBlend in="SourceGraphic" in2="effect1_dropShadow_8541_174593" result="shape"/></filter><linearGradient id="b" x1="18.597" y1="8.537" x2="24.404" y2="18.467" gradientUnits="userSpaceOnUse"><stop offset=".395" stop-color="#FF3A3A"/><stop offset=".72" stop-color="#D64D12"/><stop offset=".75" stop-color="#87AB49"/></linearGradient><linearGradient id="d" x1="272.538" y1="31.973" x2="278.345" y2="41.903" gradientUnits="userSpaceOnUse"><stop offset=".395" stop-color="#FF3A3A"/><stop offset=".72" stop-color="#D64D12"/><stop offset=".75" stop-color="#87AB49"/></linearGradient><linearGradient id="r" x1="128.148" y1="123.989" x2="166.599" y2="189.094" gradientUnits="userSpaceOnUse"><stop offset=".395" stop-color="#FF3A3A"/><stop offset=".72" stop-color="#D64D12"/><stop offset=".75" stop-color="#87AB49"/></linearGradient></defs></svg>