<svg width="103" height="26" fill="none" xmlns="http://www.w3.org/2000/svg"><g clip-path="url(#a)"><path d="M9.83 2.792.453 4.009A.52.52 0 0 0 0 4.53v7.292c0 .288.233.52.52.52h9.376a.52.52 0 0 0 .52-.52V3.307a.52.52 0 0 0-.587-.515Z" fill="#F44336"/><path d="M24.823 1.015a.52.52 0 0 0-.41-.13l-12.5 1.63a.52.52 0 0 0-.455.52v8.787c0 .288.234.52.521.52h12.5a.52.52 0 0 0 .521-.52V1.405a.521.521 0 0 0-.177-.39Z" fill="#4CAF50"/><path d="M9.896 13.384H.52a.52.52 0 0 0-.521.521v7.292a.52.52 0 0 0 .454.52l9.375 1.224a.494.494 0 0 0 .067 0 .52.52 0 0 0 .52-.521v-8.515a.52.52 0 0 0-.52-.52Z" fill="#2196F3"/><path d="M24.48 13.384h-12.5a.52.52 0 0 0-.522.521v8.787a.52.52 0 0 0 .454.52l12.5 1.63a.495.495 0 0 0 .067 0 .52.52 0 0 0 .521-.52V13.905a.52.52 0 0 0-.52-.52Z" fill="#FFC107"/></g><path d="m47.804 8.062-2.282 6.944-2.24-6.944h-2.1l-2.31 6.888-2.212-6.888h-2.352l3.22 9.8h2.422l2.226-6.636 2.156 6.636h2.436l3.206-9.8h-2.17Zm4.51 1.218c.813 0 1.359-.532 1.359-1.26 0-.672-.546-1.176-1.358-1.176s-1.358.532-1.358 1.218c0 .686.546 1.218 1.358 1.218Zm-1.091 8.582h2.184V10.33h-2.184v7.532Zm8.789-7.644c-1.022 0-1.904.35-2.492.994v-.882h-2.086v7.532h2.184v-3.724c0-1.386.756-2.03 1.806-2.03.966 0 1.526.56 1.526 1.778v3.976h2.184V13.55c0-2.296-1.344-3.332-3.122-3.332Zm10.671-2.744v3.654c-.546-.616-1.33-.91-2.254-.91-2.127 0-3.766 1.512-3.766 3.878s1.639 3.878 3.767 3.878c1.007 0 1.805-.322 2.351-.98v.868h2.087V7.474h-2.184Zm-1.876 8.708c-1.091 0-1.931-.784-1.931-2.086 0-1.302.84-2.086 1.931-2.086 1.078 0 1.918.784 1.918 2.086 0 1.302-.84 2.086-1.917 2.086Zm9.666 1.792c2.394 0 4.13-1.61 4.13-3.878s-1.736-3.878-4.13-3.878-4.144 1.61-4.144 3.878 1.75 3.878 4.144 3.878Zm0-1.792c-1.092 0-1.932-.784-1.932-2.086 0-1.302.84-2.086 1.932-2.086s1.918.784 1.918 2.086c0 1.302-.826 2.086-1.918 2.086Zm15.549-5.852-1.834 5.096-1.792-5.096h-1.848L86.7 15.426l-1.778-5.096h-2.058l2.716 7.532h2.1l1.75-4.676 1.694 4.676h2.1l2.73-7.532h-1.932Zm5.372 7.644c2.254 0 3.556-.994 3.556-2.394 0-2.968-4.55-1.722-4.55-3.01 0-.392.42-.7 1.4-.7.686 0 1.428.14 2.17.56l.728-1.554c-.714-.42-1.862-.658-2.898-.658-2.198 0-3.486 1.008-3.486 2.436 0 3.01 4.55 1.75 4.55 2.982 0 .42-.378.686-1.386.686-.924 0-1.946-.294-2.618-.728l-.728 1.568c.7.462 1.988.812 3.262.812Z" fill="#5A78A6"/><defs><clipPath id="a"><path fill="#fff" transform="translate(0 .362)" d="M0 0h25v25H0z"/></clipPath></defs></svg>