<svg width="533" height="362" fill="none" xmlns="http://www.w3.org/2000/svg"><path fill-rule="evenodd" clip-rule="evenodd" d="M267.567 122.819a.954.954 0 0 1-.947-.949l-.005-3.87a1.003 1.003 0 0 1 1.011-1.008c.559.005 1.002.469.99 1.028l-.084 3.87a.952.952 0 0 1-.965.929Zm-3.813-.894a.953.953 0 0 1-.91.983.953.953 0 0 1-.999-.892l-.229-3.865a1.002 1.002 0 0 1 .95-1.064 1.003 1.003 0 0 1 1.048.969l.14 3.869Zm9.55.206a.953.953 0 0 1-1.017.872.953.953 0 0 1-.89-1.002l.218-3.865c.031-.558.51-.985 1.067-.948.558.038.974.527.929 1.084l-.307 3.859Zm-14.317.104a.953.953 0 0 1-.852 1.034.953.953 0 0 1-1.048-.833l-.453-3.845a1.001 1.001 0 1 1 1.989-.211l.364 3.855Zm19.066.412a.954.954 0 0 1-1.065.812.955.955 0 0 1-.831-1.052l.441-3.846a1.005 1.005 0 0 1 1.121-.885c.554.07.941.582.865 1.136l-.531 3.835Zm-23.807.172a.953.953 0 0 1-.791 1.082.953.953 0 0 1-1.095-.771l-.674-3.812a1.001 1.001 0 1 1 1.974-.326l.586 3.827Zm28.519.617a.954.954 0 0 1-1.11.749.954.954 0 0 1-.769-1.099l.663-3.814c.096-.55.62-.92 1.169-.818.55.102.907.635.798 1.184l-.751 3.798Zm-33.219.24a.953.953 0 0 1-.726 1.126.953.953 0 0 1-1.138-.706l-.894-3.768a1.002 1.002 0 0 1 .753-1.212 1.003 1.003 0 0 1 1.199.773l.806 3.787Zm37.877.819a.951.951 0 0 1-1.151.683.953.953 0 0 1-.704-1.14l.882-3.77a1.003 1.003 0 0 1 1.215-.749c.543.133.868.686.728 1.227l-.97 3.749Zm-42.519.307a.954.954 0 0 1-.661 1.167.953.953 0 0 1-1.176-.64l-1.11-3.71c-.161-.535.144-1.1.681-1.254a1.004 1.004 0 0 1 1.242.703l1.024 3.734Zm47.109 1.019a.953.953 0 0 1-1.189.615.953.953 0 0 1-.637-1.179l1.099-3.713a1.003 1.003 0 0 1 1.255-.678c.534.165.828.736.656 1.268l-1.184 3.687Zm-51.679.373a.954.954 0 0 1-.592 1.203.953.953 0 0 1-1.211-.571l-1.323-3.64a1.003 1.003 0 0 1 .609-1.291c.527-.184 1.1.101 1.279.63l1.238 3.669Zm56.184 1.214a.953.953 0 0 1-1.222.547.953.953 0 0 1-.568-1.215l1.311-3.643c.19-.526.769-.799 1.292-.604.525.195.784.781.583 1.303l-1.396 3.612Zm-60.665.439a.953.953 0 0 1-.522 1.234.953.953 0 0 1-1.242-.499l-1.531-3.558a1.004 1.004 0 0 1 .533-1.325 1.002 1.002 0 0 1 1.313.556l1.449 3.592Zm65.071 1.406a.953.953 0 0 1-1.252.475.953.953 0 0 1-.496-1.245l1.52-3.563a1.002 1.002 0 0 1 1.324-.528c.512.225.738.825.506 1.335l-1.602 3.526Zm-69.45.502a.953.953 0 0 1-.45 1.262.953.953 0 0 1-1.269-.427l-1.733-3.464a1.002 1.002 0 0 1 .456-1.353 1.003 1.003 0 0 1 1.343.479l1.653 3.503Zm73.743 1.593a.954.954 0 0 1-1.277.402.953.953 0 0 1-.425-1.272l1.724-3.469c.248-.5.854-.705 1.352-.452.498.254.689.867.429 1.362l-1.803 3.429Zm-78.005.563a.953.953 0 0 1-.376 1.287.954.954 0 0 1-1.291-.354l-1.931-3.359a1.003 1.003 0 0 1 .378-1.377 1.002 1.002 0 0 1 1.368.401l1.852 3.402Zm82.17 1.775a.955.955 0 0 1-1.299.327.952.952 0 0 1-.35-1.293l1.921-3.365a1 1 0 0 1 1.375-.373c.483.282.638.905.35 1.384l-1.997 3.32Zm-86.3.623a.953.953 0 0 1-.302 1.306.954.954 0 0 1-1.309-.279l-2.121-3.243a1.003 1.003 0 0 1 .298-1.396 1.002 1.002 0 0 1 1.388.321l2.046 3.291Zm90.323 1.95a.953.953 0 0 1-1.315.253.953.953 0 0 1-.275-1.312l2.111-3.249c.304-.468.93-.602 1.395-.293.465.309.585.94.269 1.402l-2.185 3.199Zm-94.308.682a.958.958 0 0 1-1.555 1.116l-2.301-3.112a1.005 1.005 0 0 1 .217-1.413 1.005 1.005 0 0 1 1.408.241l2.231 3.168Zm96.849 2.294a.952.952 0 0 1-.2-1.324l2.295-3.122c.331-.45.964-.548 1.412-.213.448.336.53.974.188 1.418l-2.362 3.064a.956.956 0 0 1-1.333.177Zm-100.688.566a.956.956 0 0 1-.151 1.336.955.955 0 0 1-1.336-.128l-2.476-2.974a1.005 1.005 0 0 1 .135-1.425 1.005 1.005 0 0 1 1.42.16l2.408 3.031Zm105.732 2.285a.956.956 0 0 1-1.339.1.956.956 0 0 1-.123-1.339l2.467-2.981a1.006 1.006 0 0 1 1.424-.132c.428.362.474 1.004.106 1.428l-2.535 2.924Zm-109.4.794a.956.956 0 0 1-.073 1.343.957.957 0 0 1-1.341-.05l-2.644-2.828a1.005 1.005 0 0 1 .053-1.43 1.004 1.004 0 0 1 1.427.078l2.578 2.887Zm112.931 2.441a.957.957 0 0 1-1.342.023.956.956 0 0 1-.046-1.344l2.635-2.835a1.006 1.006 0 0 1 1.429-.049c.407.385.415 1.029.024 1.43l-2.7 2.775Zm-116.414.845c.37.369.37.97.004 1.344a.957.957 0 0 1-1.342.027l-2.803-2.672a1.005 1.005 0 0 1-.029-1.43c.392-.4 1.033-.4 1.429-.005l2.741 2.736Zm119.754 2.587a.957.957 0 0 1-1.341-.054.955.955 0 0 1 .031-1.344l2.794-2.68a1.005 1.005 0 0 1 1.429.033 1.006 1.006 0 0 1-.058 1.43l-2.855 2.615Zm-123.044.892a.955.955 0 0 1 .082 1.342.956.956 0 0 1-1.338.104l-2.952-2.507a1.005 1.005 0 0 1-.111-1.426 1.005 1.005 0 0 1 1.426-.086l2.893 2.573Zm126.18 2.725a.954.954 0 0 1-1.335-.13.956.956 0 0 1 .108-1.34l2.944-2.516a1.005 1.005 0 0 1 1.424.115c.36.43.295 1.07-.139 1.424l-3.002 2.447Zm-129.263.938c.41.325.478.921.158 1.335a.956.956 0 0 1-1.33.18l-3.091-2.334a1.005 1.005 0 0 1-.193-1.417c.343-.442.98-.515 1.419-.168l3.037 2.404Zm132.187 2.854a.956.956 0 0 1-1.326-.207.955.955 0 0 1 .185-1.331l3.084-2.343a1.004 1.004 0 0 1 1.415.196c.335.45.233 1.085-.221 1.413l-3.137 2.272Zm-135.056.979a.955.955 0 0 1 .234 1.323.955.955 0 0 1-1.317.257l-3.22-2.153a1.004 1.004 0 0 1-.273-1.404 1.003 1.003 0 0 1 1.406-.249l3.17 2.226Zm137.758 2.974a.957.957 0 0 1-1.312-.283.954.954 0 0 1 .261-1.318l3.214-2.163a1.004 1.004 0 0 1 1.401.277c.308.468.17 1.096-.302 1.398l-3.262 2.089Zm-140.402 1.017c.445.276.581.86.31 1.308a.957.957 0 0 1-1.301.331l-3.338-1.966a1.004 1.004 0 0 1-.353-1.386 1.004 1.004 0 0 1 1.389-.329l3.293 2.042Zm142.873 3.083a.955.955 0 0 1-1.294-.357.956.956 0 0 1 .336-1.301l3.333-1.976a1.005 1.005 0 0 1 1.383.357c.28.484.107 1.104-.381 1.378l-3.377 1.899Zm-145.284 1.053c.46.25.629.825.384 1.287a.955.955 0 0 1-1.279.406l-3.446-1.773a1.004 1.004 0 0 1-.432-1.363 1.004 1.004 0 0 1 1.368-.408l3.405 1.851Zm147.515 3.183a.955.955 0 0 1-1.27-.431.955.955 0 0 1 .409-1.28l3.441-1.782a1.003 1.003 0 0 1 1.36.435c.253.5.044 1.108-.459 1.354l-3.481 1.704Zm-149.685 1.083a.956.956 0 0 1 .457 1.263.955.955 0 0 1-1.254.478l-3.542-1.573a1.004 1.004 0 0 1-.509-1.336 1.004 1.004 0 0 1 1.343-.485l3.505 1.653Zm151.671 3.272a.955.955 0 0 1-1.244-.503.955.955 0 0 1 .482-1.254l3.537-1.583a1.003 1.003 0 0 1 1.333.512 1.005 1.005 0 0 1-.535 1.326l-3.573 1.502Zm-153.594 1.112a.955.955 0 0 1 .528 1.235.954.954 0 0 1-1.224.548l-3.627-1.368a1.005 1.005 0 0 1-.584-1.305 1.003 1.003 0 0 1 1.313-.561l3.594 1.451Zm155.328 3.35a.956.956 0 0 1-1.214-.573.955.955 0 0 1 .553-1.224l3.622-1.38a1.005 1.005 0 0 1 1.302.587 1.006 1.006 0 0 1-.61 1.294l-3.653 1.296Zm-156.996 1.136c.495.168.76.705.597 1.202a.958.958 0 0 1-1.195.619l-3.695-1.158a1.005 1.005 0 0 1-.658-1.271c.174-.532.75-.815 1.28-.636l3.671 1.244Zm157.292 2.776a.956.956 0 0 1 .622-1.191l3.694-1.17a1.005 1.005 0 0 1 1.268.662c.164.536-.146 1.1-.684 1.257l-3.717 1.085a.96.96 0 0 1-1.183-.643Zm-158.706 1.804c.505.14.801.663.666 1.169a.956.956 0 0 1-1.156.686l-3.756-.946a1.004 1.004 0 1 1 .512-1.94l3.734 1.031Zm161.103 3.477a.957.957 0 0 1-1.143-.708.958.958 0 0 1 .69-1.156l3.753-.957a1.006 1.006 0 0 1 1.229.733 1.007 1.007 0 0 1-.755 1.217l-3.774.871Zm-162.251 1.178a.958.958 0 0 1 .732 1.129.956.956 0 0 1-1.115.751l-3.804-.731a1.006 1.006 0 0 1-.8-1.187 1.007 1.007 0 0 1 1.201-.779l3.786.817Zm163.199 3.522a.958.958 0 0 1-1.101-.773.958.958 0 0 1 .755-1.114l3.802-.742a1.007 1.007 0 0 1 1.185.803 1.007 1.007 0 0 1-.823 1.171l-3.818.655Zm-164.079 1.191a.958.958 0 0 1 .796 1.085.957.957 0 0 1-1.071.814l-3.84-.513a1.006 1.006 0 0 1-.866-1.139 1.007 1.007 0 0 1 1.154-.847l3.827.6Zm164.756 3.555a.957.957 0 0 1-1.054-.834.956.956 0 0 1 .816-1.069l3.839-.524a1.006 1.006 0 0 1 1.137.869 1.005 1.005 0 0 1-.888 1.122l-3.85.436Zm-165.364 1.201a.956.956 0 0 1 .855 1.038.957.957 0 0 1-1.022.873l-3.863-.293a1.007 1.007 0 0 1-.93-1.088 1.006 1.006 0 0 1 1.104-.911l3.856.381Zm165.769 3.576a.958.958 0 0 1-1.005-.893.957.957 0 0 1 .876-1.021l3.863-.304a1.006 1.006 0 0 1 1.085.932 1.006 1.006 0 0 1-.951 1.07l-3.868.216Zm-166.105 1.206a.957.957 0 0 1 .913.987.957.957 0 0 1-.971.931l-3.874-.073a1.005 1.005 0 0 1-.989-1.033c.016-.56.49-.995 1.05-.972l3.871.16Zm166.237 3.586a.956.956 0 0 1-.953-.949.957.957 0 0 1 .933-.968l3.874-.084a1.005 1.005 0 0 1 1.03.992 1.005 1.005 0 0 1-1.01 1.014l-3.874-.005Zm-166.3 1.208a.958.958 0 0 1 .969.934.958.958 0 0 1-.917.984l-3.871.148a1.006 1.006 0 0 1-1.047-.975 1.005 1.005 0 0 1 .993-1.031l3.873-.06Zm166.158 3.585a.957.957 0 0 1-.897-1.003.955.955 0 0 1 .986-.913l3.872.137c.56.019.999.49.972 1.049-.026.56-.506.987-1.066.955l-3.867-.225Zm-165.946 1.205a.956.956 0 0 1 1.02.876.957.957 0 0 1-.859 1.035l-3.857.369a1.006 1.006 0 0 1-1.101-.914 1.005 1.005 0 0 1 .933-1.085l3.864-.281Zm165.53 3.571a.957.957 0 0 1-.839-1.052.957.957 0 0 1 1.037-.856l3.858.357c.558.052.969.547.911 1.104a1.006 1.006 0 0 1-1.119.892l-3.848-.445Zm-165.045 1.199a.956.956 0 0 1 1.068.816.957.957 0 0 1-.798 1.083l-3.83.587a1.006 1.006 0 0 1-1.151-.849 1.006 1.006 0 0 1 .87-1.137l3.841-.5Zm164.356 3.546a.958.958 0 0 1-.777-1.099.957.957 0 0 1 1.084-.795l3.831.577c.555.083.937.6.847 1.154-.09.553-.616.922-1.168.826l-3.817-.663Zm-163.599 1.188a.957.957 0 0 1 1.113.754.956.956 0 0 1-.736 1.126l-3.789.806a1.007 1.007 0 0 1-1.198-.783c-.11-.55.252-1.081.803-1.185l3.807-.718Zm162.641 3.509a.957.957 0 0 1-.713-1.141.956.956 0 0 1 1.127-.732l3.792.794c.549.115.901.653.779 1.201a1.005 1.005 0 0 1-1.213.758l-3.772-.88Zm-161.615 1.174a.957.957 0 0 1 1.154.689.956.956 0 0 1-.67 1.167l-3.737 1.02a1.006 1.006 0 0 1-1.24-.713 1.006 1.006 0 0 1 .734-1.229l3.759-.934Zm160.389 3.462a.958.958 0 0 1-.646-1.181.957.957 0 0 1 1.167-.666l3.74 1.009c.541.146.862.704.709 1.243a1.005 1.005 0 0 1-1.254.688l-3.716-1.093Zm-159.097 1.156a.957.957 0 0 1 1.193.623.955.955 0 0 1-.601 1.2l-3.675 1.232a1.007 1.007 0 0 1-1.279-.64 1.007 1.007 0 0 1 .663-1.269l3.699-1.146Zm157.03 2.188a.957.957 0 0 1 1.205-.6l3.675 1.22c.532.177.82.752.637 1.282a1.005 1.005 0 0 1-1.291.614l-3.649-1.305a.953.953 0 0 1-.577-1.211Zm-155.475 2.341a.955.955 0 0 1 1.223.552.955.955 0 0 1-.532 1.233l-3.599 1.44a1.004 1.004 0 0 1-1.311-.565 1.004 1.004 0 0 1 .588-1.303l3.631-1.357Zm154.309 3.328a.955.955 0 0 1-.508-1.244.956.956 0 0 1 1.234-.528l3.603 1.429c.521.207.775.797.562 1.315a1.004 1.004 0 0 1-1.322.539l-3.569-1.511Zm-152.501 1.103a.956.956 0 0 1 1.252.482.955.955 0 0 1-.461 1.262l-3.51 1.642c-.507.237-1.11.02-1.342-.489a1.005 1.005 0 0 1 .514-1.335l3.547-1.562Zm150.505 3.247a.954.954 0 0 1-.435-1.27.954.954 0 0 1 1.261-.457l3.515 1.632c.509.235.729.839.487 1.344-.242.504-.849.71-1.351.463l-3.477-1.712Zm-148.447 1.075a.955.955 0 0 1 1.278.409.955.955 0 0 1-.388 1.286l-3.411 1.84a1.003 1.003 0 0 1-1.367-.412 1.005 1.005 0 0 1 .436-1.362l3.452-1.761Zm146.206 3.154a.954.954 0 0 1-.362-1.293.954.954 0 0 1 1.285-.384l3.416 1.83c.494.264.68.88.409 1.37-.27.489-.888.66-1.375.385l-3.373-1.908Zm-143.904 1.043a.955.955 0 0 1 1.299.335.956.956 0 0 1-.313 1.307l-3.3 2.031c-.476.293-1.1.146-1.388-.333a1.005 1.005 0 0 1 .357-1.385l3.345-1.955Zm141.424 3.052a.957.957 0 0 1-.288-1.313.957.957 0 0 1 1.306-.31l3.305 2.022c.478.293.629.918.33 1.392a1.004 1.004 0 0 1-1.395.305l-3.258-2.096Zm-138.885 1.006a.954.954 0 0 1 1.316.261.954.954 0 0 1-.238 1.322l-3.177 2.217c-.459.32-1.09.208-1.406-.254a1.004 1.004 0 0 1 .278-1.403l3.227-2.143Zm136.175 2.939a.953.953 0 0 1-.212-1.326.955.955 0 0 1 1.321-.235l3.183 2.207c.461.319.575.952.25 1.409a1.004 1.004 0 0 1-1.41.225l-3.132-2.28Zm-133.407.968a.955.955 0 0 1 1.329.185.956.956 0 0 1-.163 1.334l-3.044 2.394c-.44.346-1.077.27-1.418-.173a1.004 1.004 0 0 1 .197-1.416l3.099-2.324Zm130.474 2.817a.955.955 0 0 1-.135-1.337.955.955 0 0 1 1.332-.159l3.052 2.386c.441.345.519.983.168 1.42-.35.436-.988.499-1.421.144l-2.996-2.454Zm-127.487.924a.956.956 0 0 1 1.337.109.955.955 0 0 1-.085 1.341l-2.902 2.565c-.419.37-1.06.331-1.426-.091a1.004 1.004 0 0 1 .116-1.426l2.96-2.498Zm124.343 2.686a.955.955 0 0 1-.059-1.343.955.955 0 0 1 1.339-.081l2.909 2.555c.422.37.463 1.012.088 1.428a1.006 1.006 0 0 1-1.428.063l-2.849-2.622Zm-121.147.879a.957.957 0 0 1 1.342.031.956.956 0 0 1-.008 1.344l-2.749 2.727a1.005 1.005 0 0 1-1.429-.009 1.005 1.005 0 0 1 .033-1.431l2.811-2.662Zm117.8 2.545a.955.955 0 0 1 .018-1.344.956.956 0 0 1 1.342-.005l2.757 2.718c.4.394.404 1.037.005 1.431a1.004 1.004 0 0 1-1.428-.02l-2.694-2.78Zm-114.403.83a.956.956 0 0 1 1.341-.046.956.956 0 0 1 .069 1.343l-2.587 2.879a1.006 1.006 0 0 1-1.428.073 1.005 1.005 0 0 1-.048-1.43l2.653-2.819Zm110.864 2.396a.956.956 0 0 1 .096-1.341.955.955 0 0 1 1.34.073l2.596 2.871a1.005 1.005 0 0 1-.077 1.429c-.42.37-1.06.322-1.425-.102l-2.53-2.93Zm-107.279.779a.955.955 0 0 1 1.336-.123.955.955 0 0 1 .146 1.336l-2.417 3.023a1.004 1.004 0 0 1-1.42.155 1.004 1.004 0 0 1-.131-1.425l2.486-2.966Zm103.561 2.238a.956.956 0 0 1 .173-1.333.955.955 0 0 1 1.333.15l2.427 3.015a1.005 1.005 0 0 1-.16 1.422 1.005 1.005 0 0 1-1.417-.183l-2.356-3.071Zm-99.517.346a.476.476 0 0 1 .768.565l-2.851 3.923a.505.505 0 1 1-.813-.597l2.896-3.891Zm96.15 1.522a.476.476 0 0 1 .779-.549l2.817 3.948a.505.505 0 1 1-.824.581l-2.772-3.98Z" fill="#D7DEED"/><path fill-rule="evenodd" clip-rule="evenodd" d="M267.336 98.537c-1.674-.017-3.345.006-5.012.068a2.03 2.03 0 0 1-2.11-1.903l-.321-5.705a1.974 1.974 0 0 1 1.886-2.092 116.135 116.135 0 0 1 11.307.114 1.974 1.974 0 0 1 1.843 2.13l-.435 5.696a2.03 2.03 0 0 1-2.148 1.86 106.233 106.233 0 0 0-5.01-.168Zm-9.973-1.639a2.03 2.03 0 0 1-1.827 2.178 106.29 106.29 0 0 0-9.912 1.481 2.03 2.03 0 0 1-2.383-1.545l-1.219-5.583a1.973 1.973 0 0 1 1.532-2.364c3.69-.737 7.422-1.296 11.181-1.671a1.973 1.973 0 0 1 2.156 1.81l.472 5.694Zm34.054 2.597a2.03 2.03 0 0 1-2.414 1.498 106.234 106.234 0 0 0-9.88-1.681 2.03 2.03 0 0 1-1.783-2.213l.586-5.684a1.974 1.974 0 0 1 2.193-1.767 115.71 115.71 0 0 1 11.146 1.896 1.974 1.974 0 0 1 1.484 2.394l-1.332 5.557Zm-50.961.159a2.03 2.03 0 0 1-1.46 2.439 106.53 106.53 0 0 0-9.553 3.026 2.03 2.03 0 0 1-2.597-1.15l-2.086-5.32a1.973 1.973 0 0 1 1.139-2.577 116.099 116.099 0 0 1 10.776-3.414 1.974 1.974 0 0 1 2.415 1.448l1.366 5.548Zm67.254 5.126a2.03 2.03 0 0 1-2.62 1.098 106.111 106.111 0 0 0-9.49-3.217 2.03 2.03 0 0 1-1.411-2.468l1.478-5.52a1.973 1.973 0 0 1 2.443-1.399 115.997 115.997 0 0 1 10.705 3.63 1.973 1.973 0 0 1 1.088 2.598l-2.193 5.278Zm-83.512.261a2.03 2.03 0 0 1-1.058 2.639 106.492 106.492 0 0 0-8.955 4.493 2.029 2.029 0 0 1-2.745-.726l-2.901-4.927a1.972 1.972 0 0 1 .719-2.724 116.054 116.054 0 0 1 10.1-5.067 1.974 1.974 0 0 1 2.613 1.048l2.227 5.264Zm98.766 7.524a2.03 2.03 0 0 1-2.76.671 106.248 106.248 0 0 0-8.863-4.671 2.03 2.03 0 0 1-1.004-2.66l2.332-5.219a1.973 1.973 0 0 1 2.633-.995 116.385 116.385 0 0 1 9.997 5.268 1.973 1.973 0 0 1 .664 2.739l-2.999 4.867Zm-113.971.356a2.029 2.029 0 0 1-.629 2.773 106.978 106.978 0 0 0-8.147 5.855 2.03 2.03 0 0 1-2.825-.284l-3.643-4.41a1.973 1.973 0 0 1 .282-2.804 115.412 115.412 0 0 1 9.187-6.601 1.973 1.973 0 0 1 2.744.622l3.031 4.849Zm121.038 6.86a106.36 106.36 0 0 0-4.077-2.907 2.03 2.03 0 0 1-.573-2.786l3.127-4.787a1.974 1.974 0 0 1 2.757-.568 117.337 117.337 0 0 1 9.053 6.784c.852.706.947 1.972.225 2.81l-3.73 4.336a2.03 2.03 0 0 1-2.83.228 106.535 106.535 0 0 0-3.952-3.11Zm-134.828 3.328a2.03 2.03 0 0 1-.184 2.838 106.474 106.474 0 0 0-7.132 7.073 2.03 2.03 0 0 1-2.835.163l-4.293-3.782a1.974 1.974 0 0 1-.164-2.814 116.328 116.328 0 0 1 8.041-7.973 1.974 1.974 0 0 1 2.809.183l3.758 4.312Zm153.71 11.717a2.03 2.03 0 0 1-2.831-.22 106.89 106.89 0 0 0-6.99-7.215 2.03 2.03 0 0 1-.127-2.841l3.844-4.236a1.973 1.973 0 0 1 2.811-.127 116.482 116.482 0 0 1 7.881 8.133c.73.831.624 2.096-.22 2.81l-4.368 3.696Zm-165.733.523c.849.708.96 1.97.266 2.831a106.841 106.841 0 0 0-5.931 8.104 2.028 2.028 0 0 1-2.774.607l-4.835-3.062a1.973 1.973 0 0 1-.604-2.753c2.079-3.152 4.31-6.2 6.685-9.135a1.974 1.974 0 0 1 2.802-.261l4.391 3.669Zm175.768 13.389a2.029 2.029 0 0 1-2.761-.662 106.83 106.83 0 0 0-5.768-8.222 2.03 2.03 0 0 1 .322-2.826l4.464-3.58a1.974 1.974 0 0 1 2.796.317 116.527 116.527 0 0 1 6.501 9.267 1.972 1.972 0 0 1-.658 2.74l-4.896 2.966Zm-185.714.586a2.029 2.029 0 0 1 .706 2.754 107.186 107.186 0 0 0-4.583 8.933 2.03 2.03 0 0 1-2.645 1.035l-5.257-2.269a1.973 1.973 0 0 1-1.028-2.623 116.53 116.53 0 0 1 5.166-10.067 1.972 1.972 0 0 1 2.726-.698l4.915 2.935Zm193.439 14.726a2.028 2.028 0 0 1-2.623-1.087 106.838 106.838 0 0 0-4.405-9.023 2.03 2.03 0 0 1 .761-2.74l4.973-2.837a1.974 1.974 0 0 1 2.712.753c1.815 3.3 3.472 6.694 4.964 10.168a1.974 1.974 0 0 1-1.079 2.603l-5.303 2.163Zm-201.066.634a2.03 2.03 0 0 1 1.129 2.61 106.928 106.928 0 0 0-3.128 9.549 2.03 2.03 0 0 1-2.451 1.437l-5.549-1.419a1.974 1.974 0 0 1-1.426-2.43 117.606 117.606 0 0 1 3.525-10.76 1.973 1.973 0 0 1 2.584-1.116l5.316 2.129Zm202.518 9.378a106.712 106.712 0 0 0-1.58-4.765 2.03 2.03 0 0 1 1.181-2.586l5.357-2.024a1.974 1.974 0 0 1 2.561 1.168 116.512 116.512 0 0 1 3.31 10.829 1.974 1.974 0 0 1-1.474 2.401l-5.576 1.307a2.03 2.03 0 0 1-2.422-1.485 107.934 107.934 0 0 0-1.357-4.845Zm-207.645 7.001a2.029 2.029 0 0 1 1.523 2.4 106.987 106.987 0 0 0-1.592 9.929 2.03 2.03 0 0 1-2.196 1.803l-5.704-.533a1.973 1.973 0 0 1-1.788-2.176 116.499 116.499 0 0 1 1.795-11.187 1.973 1.973 0 0 1 2.377-1.509l5.585 1.273Zm214.028 16.3a2.03 2.03 0 0 1-2.159-1.847 106.983 106.983 0 0 0-1.395-9.959 2.029 2.029 0 0 1 1.571-2.368l5.61-1.162a1.974 1.974 0 0 1 2.346 1.556 116.78 116.78 0 0 1 1.572 11.22c.1 1.1-.73 2.059-1.832 2.14l-5.713.42Zm-216.524.687a2.03 2.03 0 0 1 1.881 2.131c-.163 3.35-.168 6.705-.016 10.056a2.03 2.03 0 0 1-1.888 2.125l-5.716.365a1.974 1.974 0 0 1-2.107-1.869 116.96 116.96 0 0 1 .018-11.329 1.976 1.976 0 0 1 2.113-1.863l5.715.384Zm216.436 16.481a2.03 2.03 0 0 1-1.845-2.162c.219-3.347.281-6.702.185-10.054a2.029 2.029 0 0 1 1.922-2.093l5.722-.27a1.974 1.974 0 0 1 2.075 1.904c.114 3.777.045 7.557-.208 11.327a1.974 1.974 0 0 1-2.143 1.827l-5.708-.479Zm-216.237.686a2.03 2.03 0 0 1 2.19 1.81 107.05 107.05 0 0 0 1.561 9.935 2.03 2.03 0 0 1-1.531 2.395l-5.589 1.254a1.973 1.973 0 0 1-2.372-1.516 116.57 116.57 0 0 1-1.759-11.192 1.973 1.973 0 0 1 1.795-2.171l5.705-.515Zm213.457 16.257a2.029 2.029 0 0 1-1.483-2.425 107.162 107.162 0 0 0 1.758-9.901 2.03 2.03 0 0 1 2.226-1.766l5.694.628a1.973 1.973 0 0 1 1.751 2.206 116.61 116.61 0 0 1-1.981 11.155 1.974 1.974 0 0 1-2.402 1.469l-5.563-1.366Zm-210.568.668a2.03 2.03 0 0 1 2.446 1.444 106.94 106.94 0 0 0 3.097 9.56 2.029 2.029 0 0 1-1.137 2.605l-5.323 2.113a1.973 1.973 0 0 1-2.58-1.125 116.688 116.688 0 0 1-3.491-10.771 1.975 1.975 0 0 1 1.434-2.426l5.554-1.4Zm205.835 8.291c.55-1.588 1.061-3.186 1.534-4.792a2.03 2.03 0 0 1 2.475-1.395l5.524 1.51a1.974 1.974 0 0 1 1.385 2.454 117.366 117.366 0 0 1-3.704 10.699 1.975 1.975 0 0 1-2.602 1.074l-5.28-2.219a2.03 2.03 0 0 1-1.085-2.628c.62-1.551 1.204-3.119 1.753-4.703Zm-200.332 7.961a2.029 2.029 0 0 1 2.641 1.043 107.046 107.046 0 0 0 4.555 8.947 2.03 2.03 0 0 1-.715 2.752l-4.924 2.92a1.973 1.973 0 0 1-2.724-.707 116.545 116.545 0 0 1-5.134-10.083 1.974 1.974 0 0 1 1.036-2.621l5.265-2.251Zm191.781 14.6a2.029 2.029 0 0 1-.66-2.766 107.206 107.206 0 0 0 4.732-8.854 2.029 2.029 0 0 1 2.661-.99l5.219 2.356a1.973 1.973 0 0 1 .984 2.64 116.706 116.706 0 0 1-5.334 9.979 1.972 1.972 0 0 1-2.737.652l-4.865-3.017Zm-183.8.579a2.03 2.03 0 0 1 2.772.616c1.84 2.799 3.81 5.51 5.904 8.124a2.028 2.028 0 0 1-.274 2.83l-4.403 3.655c-.849.705-2.11.59-2.802-.27a116.618 116.618 0 0 1-6.655-9.156 1.973 1.973 0 0 1 .612-2.751l4.846-3.048ZM348.177 276.8a2.03 2.03 0 0 1-.218-2.836 106.622 106.622 0 0 0 6.065-8.003 2.03 2.03 0 0 1 2.784-.56l4.783 3.143a1.973 1.973 0 0 1 .558 2.763 116.736 116.736 0 0 1-6.837 9.02 1.973 1.973 0 0 1-2.806.214l-4.329-3.741Zm-163.354.515a2.03 2.03 0 0 1 2.834.172 106.462 106.462 0 0 0 7.109 7.096c.819.743.904 2.007.175 2.838l-3.772 4.301a1.974 1.974 0 0 1-2.809.173 116.524 116.524 0 0 1-8.015-7.998 1.974 1.974 0 0 1 .172-2.814l4.306-3.768Zm151.128 11.52a2.03 2.03 0 0 1 .231-2.834 106.519 106.519 0 0 0 7.25-6.952 2.03 2.03 0 0 1 2.837-.116l4.229 3.854c.817.745.876 2.013.116 2.816a116.595 116.595 0 0 1-8.173 7.837 1.974 1.974 0 0 1-2.805-.23l-3.685-4.375Zm-138.826.437a2.03 2.03 0 0 1 2.826-.275 105.73 105.73 0 0 0 2.391 1.853 2.03 2.03 0 0 1 .436 2.81l-3.359 4.629a1.974 1.974 0 0 1-2.781.432 115.35 115.35 0 0 1-2.898-2.246 1.973 1.973 0 0 1-.272-2.805l3.657-4.398Zm130.867 5.644a2.029 2.029 0 0 1 .491-2.801c.819-.591 1.628-1.192 2.428-1.805a2.03 2.03 0 0 1 2.82.332l3.568 4.47c.69.864.549 2.126-.328 2.799-.969.744-1.95 1.473-2.943 2.187a1.973 1.973 0 0 1-2.771-.488l-3.265-4.694Z" fill="#87AB49"/><path opacity=".12" fill-rule="evenodd" clip-rule="evenodd" d="M267.259 106.132a99.72 99.72 0 0 0-4.512.058 2.033 2.033 0 0 1-2.11-1.904l-.338-6.015a1.972 1.972 0 0 1 1.886-2.09 108.764 108.764 0 0 1 10.347.103 1.972 1.972 0 0 1 1.844 2.128l-.46 6.007c-.084 1.101-1.045 1.923-2.147 1.862a98.106 98.106 0 0 0-4.51-.149Zm-9.273-1.664a2.031 2.031 0 0 1-1.826 2.179 98.774 98.774 0 0 0-8.921 1.334 2.032 2.032 0 0 1-2.384-1.547l-1.287-5.885a1.972 1.972 0 0 1 1.532-2.364 108.649 108.649 0 0 1 10.232-1.53 1.973 1.973 0 0 1 2.157 1.81l.497 6.003Zm31.667 2.416c-.257 1.074-1.335 1.733-2.414 1.499a98.484 98.484 0 0 0-8.893-1.513 2.033 2.033 0 0 1-1.783-2.215l.619-5.993a1.971 1.971 0 0 1 2.192-1.766c3.432.417 6.835.997 10.2 1.736a1.971 1.971 0 0 1 1.484 2.393l-1.405 5.859Zm-47.388.147a2.032 2.032 0 0 1-1.459 2.441 99.056 99.056 0 0 0-8.598 2.724 2.032 2.032 0 0 1-2.598-1.15l-2.202-5.61a1.971 1.971 0 0 1 1.14-2.576 108.77 108.77 0 0 1 9.861-3.124 1.971 1.971 0 0 1 2.414 1.445l1.442 5.85Zm62.538 4.769a2.033 2.033 0 0 1-2.62 1.099 98.627 98.627 0 0 0-8.542-2.897 2.033 2.033 0 0 1-1.411-2.47l1.56-5.819a1.97 1.97 0 0 1 2.443-1.397 108.71 108.71 0 0 1 9.796 3.321 1.972 1.972 0 0 1 1.088 2.599l-2.314 5.564Zm-77.656.241c.431 1.018-.047 2.191-1.056 2.642a98.61 98.61 0 0 0-8.06 4.044 2.032 2.032 0 0 1-2.745-.726l-3.062-5.194a1.972 1.972 0 0 1 .72-2.724 108.777 108.777 0 0 1 9.241-4.638 1.972 1.972 0 0 1 2.612 1.047l2.35 5.549Zm91.839 7a2.032 2.032 0 0 1-2.76.671 98.994 98.994 0 0 0-7.977-4.205c-1.001-.471-1.455-1.653-1.003-2.662l2.461-5.502a1.97 1.97 0 0 1 2.632-.993 108.997 108.997 0 0 1 9.147 4.821 1.972 1.972 0 0 1 .665 2.738l-3.165 5.132Zm-105.977.329c.587.938.3 2.172-.626 2.775a98.888 98.888 0 0 0-7.334 5.272 2.033 2.033 0 0 1-2.826-.285l-3.843-4.648a1.972 1.972 0 0 1 .281-2.804 109.2 109.2 0 0 1 8.407-6.042 1.972 1.972 0 0 1 2.744.621l3.197 5.111Zm112.462 6.493a98.194 98.194 0 0 0-3.666-2.62 2.032 2.032 0 0 1-.571-2.787l3.299-5.047a1.973 1.973 0 0 1 2.756-.566 108.87 108.87 0 0 1 8.284 6.21c.853.704.947 1.97.226 2.809l-3.936 4.57c-.72.836-1.979.93-2.831.229a95.856 95.856 0 0 0-3.561-2.798Zm-125.285 2.983a2.033 2.033 0 0 1-.182 2.84 99.168 99.168 0 0 0-6.42 6.369 2.032 2.032 0 0 1-2.835.163l-4.53-3.987a1.971 1.971 0 0 1-.163-2.813 108.972 108.972 0 0 1 7.358-7.299 1.973 1.973 0 0 1 2.808.182l3.964 4.545Zm142.928 10.9a2.032 2.032 0 0 1-2.831-.22 98.873 98.873 0 0 0-6.293-6.497 2.032 2.032 0 0 1-.125-2.842l4.056-4.466a1.972 1.972 0 0 1 2.81-.125 109.141 109.141 0 0 1 7.212 7.445c.73.83.624 2.095-.22 2.809l-4.609 3.896Zm-154.107.485c.849.709.96 1.971.267 2.833a99.06 99.06 0 0 0-5.338 7.297 2.031 2.031 0 0 1-2.774.607l-5.102-3.229a1.971 1.971 0 0 1-.603-2.752 109.499 109.499 0 0 1 6.116-8.36 1.972 1.972 0 0 1 2.801-.263l4.633 3.867Zm163.438 12.454a2.03 2.03 0 0 1-2.762-.662 99.167 99.167 0 0 0-5.191-7.403 2.03 2.03 0 0 1 .323-2.826l4.71-3.774a1.972 1.972 0 0 1 2.795.318 109.324 109.324 0 0 1 5.948 8.481 1.971 1.971 0 0 1-.658 2.74l-5.165 3.126Zm-172.686.544a2.032 2.032 0 0 1 .708 2.756 99.655 99.655 0 0 0-4.125 8.042 2.032 2.032 0 0 1-2.645 1.035l-5.547-2.391a1.973 1.973 0 0 1-1.027-2.624 109.762 109.762 0 0 1 4.726-9.212 1.971 1.971 0 0 1 2.725-.699l5.185 3.093Zm179.869 13.697a2.03 2.03 0 0 1-2.624-1.087 99.287 99.287 0 0 0-3.965-8.124c-.529-.971-.197-2.193.764-2.74l5.245-2.99a1.971 1.971 0 0 1 2.711.753 109.426 109.426 0 0 1 4.541 9.306 1.97 1.97 0 0 1-1.079 2.602l-5.593 2.28Zm-186.961.589a2.032 2.032 0 0 1 1.132 2.61 99.482 99.482 0 0 0-2.816 8.598 2.03 2.03 0 0 1-2.452 1.436l-5.853-1.494a1.972 1.972 0 0 1-1.425-2.43 109.573 109.573 0 0 1 3.225-9.847 1.972 1.972 0 0 1 2.582-1.118l5.607 2.245Zm188.176 8.762a99.66 99.66 0 0 0-1.418-4.29 2.032 2.032 0 0 1 1.183-2.587l5.651-2.133a1.971 1.971 0 0 1 2.559 1.169 109.208 109.208 0 0 1 3.028 9.909 1.97 1.97 0 0 1-1.472 2.401l-5.883 1.378a2.031 2.031 0 0 1-2.422-1.484 98.874 98.874 0 0 0-1.226-4.363Zm-192.942 6.471a2.032 2.032 0 0 1 1.525 2.4 99.823 99.823 0 0 0-1.434 8.941 2.032 2.032 0 0 1-2.197 1.803l-6.016-.562a1.971 1.971 0 0 1-1.787-2.176c.385-3.431.932-6.847 1.642-10.239a1.972 1.972 0 0 1 2.376-1.508l5.891 1.341Zm199.012 15.16c-1.101.081-2.057-.747-2.161-1.846a99.36 99.36 0 0 0-1.255-8.968 2.032 2.032 0 0 1 1.573-2.369l5.917-1.224a1.972 1.972 0 0 1 2.345 1.556 109.807 109.807 0 0 1 1.438 10.269 1.973 1.973 0 0 1-1.83 2.14l-6.027.442Zm-201.332.639c1.102.074 1.933 1.028 1.881 2.131a99.437 99.437 0 0 0-.014 9.055c.048 1.104-.786 2.055-1.889 2.125l-6.03.385a1.972 1.972 0 0 1-2.105-1.869 109.66 109.66 0 0 1 .017-10.369 1.971 1.971 0 0 1 2.111-1.862l6.029.404Zm201.25 15.329c-1.101-.092-1.916-1.06-1.846-2.162.193-3.014.248-6.035.166-9.054a2.032 2.032 0 0 1 1.924-2.093l6.036-.284a1.971 1.971 0 0 1 2.073 1.904c.101 3.456.037 6.916-.19 10.367a1.97 1.97 0 0 1-2.142 1.826l-6.021-.504Zm-201.065.638a2.03 2.03 0 0 1 2.191 1.81c.332 2.996.8 5.981 1.405 8.945.221 1.083-.454 2.154-1.533 2.396l-5.895 1.322a1.973 1.973 0 0 1-2.371-1.516 109.356 109.356 0 0 1-1.609-10.244 1.97 1.97 0 0 1 1.794-2.17l6.018-.543Zm198.481 15.12a2.03 2.03 0 0 1-1.485-2.425 99.707 99.707 0 0 0 1.583-8.916 2.031 2.031 0 0 1 2.227-1.766l6.006.662a1.971 1.971 0 0 1 1.75 2.206 109.445 109.445 0 0 1-1.813 10.21 1.972 1.972 0 0 1-2.401 1.468l-5.867-1.439Zm-195.795.621a2.031 2.031 0 0 1 2.447 1.444 99.969 99.969 0 0 0 2.788 8.607 2.033 2.033 0 0 1-1.14 2.607l-5.614 2.227a1.972 1.972 0 0 1-2.578-1.126 108.267 108.267 0 0 1-1.713-4.889 108.289 108.289 0 0 1-1.481-4.969 1.972 1.972 0 0 1 1.432-2.425l5.859-1.476Zm191.261 7.667c.495-1.43.956-2.869 1.384-4.316a2.033 2.033 0 0 1 2.476-1.394l5.827 1.592a1.972 1.972 0 0 1 1.384 2.453 109.344 109.344 0 0 1-3.389 9.791 1.972 1.972 0 0 1-2.601 1.075l-5.568-2.338a2.032 2.032 0 0 1-1.088-2.629 99.726 99.726 0 0 0 1.575-4.234Zm-186.144 7.447a2.032 2.032 0 0 1 2.642 1.043 99.211 99.211 0 0 0 4.1 8.056 2.032 2.032 0 0 1-.718 2.753l-5.194 3.077a1.971 1.971 0 0 1-2.723-.708 109.48 109.48 0 0 1-4.697-9.227 1.973 1.973 0 0 1 1.036-2.621l5.554-2.373Zm178.327 13.58a2.032 2.032 0 0 1-.662-2.767 99.387 99.387 0 0 0 4.259-7.972 2.032 2.032 0 0 1 2.662-.99l5.506 2.483a1.974 1.974 0 0 1 .983 2.641 109.638 109.638 0 0 1-4.88 9.131 1.971 1.971 0 0 1-2.736.654l-5.132-3.18Zm-170.907.538a2.032 2.032 0 0 1 2.773.616 99.398 99.398 0 0 0 5.314 7.314 2.03 2.03 0 0 1-.276 2.832l-4.645 3.852a1.972 1.972 0 0 1-2.8-.272 109.427 109.427 0 0 1-6.09-8.379 1.972 1.972 0 0 1 .612-2.751l5.112-3.212Zm161.442 12.302a2.03 2.03 0 0 1-.219-2.836 99.273 99.273 0 0 0 5.459-7.207 2.033 2.033 0 0 1 2.784-.56l5.047 3.313a1.973 1.973 0 0 1 .557 2.763 109.705 109.705 0 0 1-6.256 8.256 1.973 1.973 0 0 1-2.805.215l-4.567-3.944Zm-151.896.478a2.033 2.033 0 0 1 2.835.173 99.158 99.158 0 0 0 6.4 6.389c.818.745.903 2.009.173 2.84l-3.979 4.533a1.973 1.973 0 0 1-2.808.173 109.193 109.193 0 0 1-7.335-7.322 1.972 1.972 0 0 1 .172-2.813l4.542-3.973Zm140.528 10.717c-.713-.845-.603-2.107.229-2.836a98.951 98.951 0 0 0 6.527-6.259 2.03 2.03 0 0 1 2.837-.116l4.462 4.062c.818.745.877 2.013.116 2.816a109.001 109.001 0 0 1-7.48 7.173 1.972 1.972 0 0 1-2.804-.228l-3.887-4.612Zm-129.088.406a2.03 2.03 0 0 1 2.826-.276c.658.524 1.324 1.039 1.996 1.547a2.032 2.032 0 0 1 .434 2.812l-3.544 4.879a1.97 1.97 0 0 1-2.779.43c-.85-.638-1.69-1.289-2.519-1.951a1.972 1.972 0 0 1-.272-2.805l3.858-4.636Zm121.686 5.25a2.03 2.03 0 0 1 .49-2.802 99.319 99.319 0 0 0 2.026-1.507 2.032 2.032 0 0 1 2.82.333l3.765 4.712c.69.864.549 2.126-.329 2.799-.842.645-1.694 1.279-2.557 1.9a1.97 1.97 0 0 1-2.77-.486l-3.445-4.949Z" fill="#01A88E"/><ellipse cx="266.892" cy="206.287" rx="46.01" ry="46.35" fill="url(#a)"/><path fill-rule="evenodd" clip-rule="evenodd" d="M214.96 222.773c.794-.99 2.325-.84 2.953.262a1.89 1.89 0 0 1-.24 2.181c-3.127 3.555-4.476 6.321-3.578 7.897 2.884 5.059 27.84-4.067 55.741-20.383a322.56 322.56 0 0 0 2.858-1.69c.33-.197.519-.561.519-.944 0-6.496 5.227-11.762 11.675-11.762l.131.001c3.375.037 7.028.131 9.744-1.871 13.977-10.298 22.287-19.075 20.371-22.437-.856-1.501-3.656-1.753-7.9-.939a1.843 1.843 0 0 1-1.957-.881c-.61-1.069.017-2.421 1.234-2.6 8.351-1.23 14.274-.202 16.35 3.441 3.89 6.823-6.811 20.9-25.441 35.213-.563.432-.857 1.125-.857 1.835 0 6.495-5.227 11.761-11.675 11.761-.322 0-.641-.013-.956-.039-2.876-.234-5.94-.356-8.431 1.101-31.392 18.357-61.085 25.793-66.321 16.608-2.148-3.768.153-9.746 5.78-16.754Z" fill="#233654"/><ellipse cx="284.888" cy="210.096" rx="5.837" ry="5.881" fill="#70AF09"/><path d="M243.315 190.435c-2.831 7.044-1.938 14.472-5.411 13.055-3.473-1.417-3.993-8.276-1.162-15.319 2.832-7.044 7.943-11.605 11.416-10.188 3.473 1.417-2.011 5.409-4.843 12.452Zm-2.18 20.052c.253 2.32-.813 4.341-2.381 4.514-1.568.174-3.044-1.566-3.297-3.885-.253-2.32.813-4.341 2.381-4.515 1.568-.173 3.044 1.567 3.297 3.886Z" opacity=".32" fill="#E5E5E5"/><path d="M253.308 241.598c-1.599-.931-.832-2.491 3.051-3.787 8.188-1.811 6.807 1.85 18.59.441 11.784-1.408 17.996-6.302 21.124-9.521 2.504-2.575 4.817-6.06 4.706-4.831-.532 2.616-4.833 9.51-17.775 16.163-16.177 8.316-27.244 2.962-29.696 1.535Z" fill="#080F1B" fill-opacity=".11"/><path d="M305.352 180.612c1.511-1.009 1.934-3.056.837-4.505-7.025-9.284-17.093-15.816-28.468-18.389a49.096 49.096 0 0 0-36.389 5.968c-10.912 6.644-18.852 17.28-22.16 29.684a50.115 50.115 0 0 0 2.915 33.906c.768 1.664 2.798 2.248 4.401 1.361 1.59-.879 2.159-2.873 1.413-4.529a43.43 43.43 0 0 1-2.359-29.013c2.867-10.749 9.747-19.965 19.202-25.722a42.546 42.546 0 0 1 31.532-5.172 42.784 42.784 0 0 1 24.374 15.552c1.123 1.45 3.177 1.878 4.702.859Zm-66.645 62.456c-1.111 1.45-.854 3.537.652 4.555a49.181 49.181 0 0 0 23.815 8.303 49.11 49.11 0 0 0 27.702-6.116 49.6 49.6 0 0 0 19.802-20.451 50.075 50.075 0 0 0 5.6-24.753c-.061-1.826-1.683-3.149-3.492-2.966-1.816.184-3.13 1.816-3.088 3.65a43.386 43.386 0 0 1-4.865 20.989A42.985 42.985 0 0 1 287.674 244a42.552 42.552 0 0 1-44.26-1.642c-1.523-1.005-3.592-.745-4.707.71Z" fill="#233654"/><g opacity=".2" filter="url(#b)"><path d="M22.498 127.034a5 5 0 0 1 5-5h112.276a5 5 0 0 1 5 5v47.317a5 5 0 0 1-5 5H27.498a5 5 0 0 1-5-5v-47.317Z" fill="#fff"/><g clip-path="url(#c)" fill-rule="evenodd" clip-rule="evenodd" fill="#6441A5"><path d="m104.075 140.891-2.446 2.451h-3.843l-2.096 2.1v-2.1h-3.144V133.19h11.529v7.701Zm-12.927-9.101-.699 2.8v12.602h3.145v1.75h1.746l1.748-1.75h2.794l5.59-5.6v-9.802H91.148Z"/><path d="M96.389 140.191h1.397v-4.201H96.39v4.201Zm3.842 0h1.398v-4.201h-1.398v4.201Zm12.578 16.102-2.445-2.449h-4.543v-3.151h-3.843v14.352h3.843v-7.352h3.144v7.352h3.844v-8.752Zm-12.228-2.449h-5.94l-2.445 2.449v6.301l2.446 2.451h5.939v-3.851h-4.542v-3.501h4.542v-3.849Zm-9.782 0h-3.144v-3.151H83.81v11.901l2.446 2.451h4.542v-3.851h-3.144v-3.501h3.144v-3.849Zm-8.385-3.151H78.57v1.751h3.843v-1.751Zm0 3.151H78.57v11.2h3.843v-11.2Zm-5.24 0H73.33v7.35h-1.397v-7.35H68.09v7.35h-1.397v-7.35H62.85v11.201h11.878l2.445-2.451v-8.75Zm-15.722 0h-3.144v-3.151h-3.843v11.901l2.446 2.451h4.541v-3.851h-3.144v-3.501h3.144v-3.849Zm52.753 1.749v10.501l-5.24 3.501h-3.493v-1.751l-2.446 1.751h-3.144v-1.751l-1.746 1.751h-5.59l-1.747-1.751-.35 1.751h-4.89l-2-1.751-.112 1.751h-5.544l-.196-1.751-1.5 1.751H67.74l-1.747-.7v.7h-4.541l-5.24-3.151-3.145-3.149v-14.002h6.639l3.143 3.151h14.324v-3.151h11.879v3.151h3.144v1.749l1.748-1.749h3.492l3.145-3.151h6.638v3.151h3.843l3.143 3.149Z"/></g></g><g opacity=".2" filter="url(#d)"><path d="M387.773 127.034a5 5 0 0 1 5-5h112.276a5 5 0 0 1 5 5v47.317a5 5 0 0 1-5 5H392.773a5 5 0 0 1-5-5v-47.317Z" fill="#fff"/><path d="M439.251 146.982c-.659 0-.849.292-.849.934v1.067h1.757l-.176 1.722h-1.58v5.228h-2.109v-5.228h-1.421v-1.722h1.421v-1.037c0-1.738.702-2.656 2.662-2.656.411-.001.822.023 1.229.073v1.621l-.934-.002Zm1.055 5.256c0-1.941.922-3.404 2.855-3.404 1.054 0 1.698.541 2.006 1.212v-1.064h2.02v6.951h-2.02v-1.051c-.293.672-.952 1.197-2.006 1.197-1.933 0-2.855-1.46-2.855-3.404v-.437Zm2.108.468c0 1.037.38 1.723 1.361 1.723.865 0 1.304-.628 1.304-1.621v-.698c0-.992-.439-1.62-1.304-1.62-.981 0-1.361.686-1.361 1.723v.493Zm9.166-3.87c.819 0 1.595.176 2.02.467l-.469 1.49a3.317 3.317 0 0 0-1.405-.322c-1.143 0-1.639.658-1.639 1.782v.409c0 1.125.498 1.782 1.639 1.782a3.317 3.317 0 0 0 1.405-.322l.469 1.49c-.425.292-1.201.467-2.02.467-2.475 0-3.602-1.329-3.602-3.461v-.321c0-2.132 1.127-3.461 3.602-3.461Zm2.298 3.888v-.613c0-1.971 1.127-3.268 3.426-3.268 2.167 0 3.119 1.314 3.119 3.242v1.109h-4.438c.045.95.469 1.373 1.639 1.373.791 0 1.626-.161 2.241-.423l.385 1.44c-.556.292-1.698.511-2.708.511-2.669-.001-3.664-1.328-3.664-3.371Zm2.108-.906h2.548v-.175c0-.759-.307-1.361-1.229-1.361-.952 0-1.319.599-1.319 1.534v.002Zm12.251.859c0 1.942-.937 3.405-2.868 3.405-1.054 0-1.786-.526-2.078-1.198v1.051H461.3v-10.443l2.108-.19v4.643c.307-.612.981-1.109 1.962-1.109 1.933 0 2.868 1.46 2.868 3.404l-.001.437Zm-2.108-.482c0-.978-.381-1.708-1.391-1.708-.864 0-1.333.613-1.333 1.606v.73c0 .993.469 1.606 1.333 1.606 1.01 0 1.391-.73 1.391-1.708v-.526Zm2.813.438v-.35c0-2.002 1.143-3.447 3.471-3.447 2.328 0 3.471 1.445 3.471 3.447v.35c0 2-1.143 3.446-3.471 3.446-2.328 0-3.471-1.446-3.471-3.446Zm4.833-.497c0-.92-.381-1.65-1.366-1.65-.984 0-1.362.73-1.362 1.65v.643c0 .92.381 1.65 1.362 1.65.981 0 1.366-.73 1.366-1.65v-.643Zm2.811.497v-.35c0-2.002 1.142-3.447 3.47-3.447 2.328 0 3.47 1.445 3.47 3.447v.35c0 2-1.142 3.446-3.47 3.446-2.328 0-3.47-1.446-3.47-3.446Zm4.832-.497c0-.92-.381-1.65-1.362-1.65-.981 0-1.361.73-1.361 1.65v.643c0 .92.38 1.65 1.361 1.65s1.362-.73 1.362-1.65v-.643Zm5.007.161 2.079-3.314h2.24l-2.181 3.431 2.269 3.519h-2.24l-2.167-3.404v3.404h-2.109v-10.441l2.109-.19v6.995Z" fill="#1C2129"/><g clip-path="url(#e)"><path d="M424.207 160.702c.615 0 1.106-.498 1.106-1.103v-17.811c0-.614-.498-1.103-1.106-1.103h-17.851c-.608 0-1.106.497-1.106 1.103v17.811c0 .613.498 1.103 1.106 1.103h17.851Z" fill="#157DC3"/><path d="M419.092 160.701v-7.752h2.608l.39-3.021h-2.998v-1.926c0-.878.242-1.469 1.503-1.469h1.604v-2.71c-.281-.039-1.23-.117-2.336-.117-2.312 0-3.893 1.406-3.893 3.993v2.229h-2.616v3.021h2.616v7.752h3.122Z" fill="#fff"/></g></g><g filter="url(#f)"><path d="M63.498 83.003a5 5 0 0 1 5-5h112.276a5 5 0 0 1 5 5v47.317a5 5 0 0 1-5 5H68.498a5 5 0 0 1-5-5V83.003Z" fill="#fff"/><path d="M113.48 101.392c-1.066.445-2.238 1.702-2.609 3.281-.468 2 1.483 2.846 1.643 2.569.188-.326-.35-.437-.461-1.474-.143-1.341.482-2.838 1.268-3.496.147-.122.14.048.14.363 0 .562-.032 5.608-.032 6.661 0 1.425-.059 1.875-.165 2.319-.107.451-.28.755-.149.872.146.132.77-.18 1.132-.683.433-.603.585-1.328.612-2.114.033-.948.031-2.453.033-3.311.001-.787.013-3.092-.014-4.478-.007-.34-.952-.696-1.398-.51v.001Zm37.865 6.668c-.034.741-.199 1.32-.403 1.728-.395.791-1.215 1.037-1.563-.1-.189-.62-.198-1.654-.062-2.519.139-.881.527-1.546 1.168-1.486.633.059.93.873.86 2.377Zm-10.672 4.596c-.008 1.231-.203 2.31-.619 2.624-.591.444-1.385.111-1.221-.787.146-.795.834-1.607 1.842-2.599 0 0 .002.226-.002.762Zm-.161-4.603c-.036.675-.212 1.352-.403 1.735-.395.791-1.221 1.038-1.563-.1-.234-.778-.178-1.784-.062-2.419.15-.822.514-1.586 1.168-1.586.636 0 .949.696.86 2.37Zm-6.182-.01c-.039.714-.179 1.312-.403 1.745-.406.786-1.209 1.035-1.563-.1-.255-.818-.169-1.934-.062-2.537.157-.894.552-1.528 1.168-1.468.633.062.94.873.86 2.36Zm28.331.834c-.154 0-.225.159-.283.427-.203.931-.416 1.141-.69 1.141-.307 0-.583-.461-.654-1.384-.055-.725-.046-2.06.025-3.389.014-.273-.061-.543-.795-.809-.316-.114-.775-.283-1.004.268-.646 1.555-.898 2.789-.958 3.29-.003.026-.035.032-.04-.029-.038-.402-.123-1.131-.134-2.665-.002-.299-.065-.554-.396-.762-.215-.136-.868-.375-1.102-.09-.204.233-.44.859-.685 1.602-.199.603-.337 1.012-.337 1.012s.002-1.629.005-2.247c.001-.233-.16-.31-.208-.325-.217-.062-.646-.168-.828-.168-.225 0-.279.125-.279.308 0 .024-.036 2.144-.036 3.627l.001.209c-.124.682-.527 1.607-.965 1.607-.438 0-.645-.387-.645-2.155 0-1.031.031-1.479.046-2.225.009-.43.026-.76.025-.834-.003-.23-.401-.346-.587-.388a1.71 1.71 0 0 0-.474-.053c-.178.01-.305.127-.305.288l.001.25c-.23-.361-.6-.612-.846-.685-.664-.196-1.356-.022-1.878.707-.415.579-.666 1.235-.764 2.177-.072.689-.049 1.387.079 1.978-.154.667-.441.94-.756.94-.456 0-.787-.743-.748-2.027.025-.845.195-1.438.38-2.296.079-.366.015-.557-.146-.741-.148-.168-.463-.254-.915-.148-.322.075-.783.156-1.204.219 0 0 .025-.102.046-.28.11-.936-.91-.86-1.235-.561-.194.179-.326.389-.376.767-.08.601.411.884.411.884-.161.735-.556 1.696-.963 2.391-.219.372-.386.648-.601.941a134.852 134.852 0 0 1 .023-3.529c.008-.429.026-.751.025-.825-.003-.168-.101-.232-.306-.312a2.156 2.156 0 0 0-.616-.137c-.28-.022-.448.126-.444.301l.001.236c-.23-.361-.601-.612-.847-.685-.663-.196-1.356-.022-1.878.707-.415.579-.687 1.391-.764 2.17-.071.725-.058 1.342.04 1.861-.106.52-.409 1.064-.752 1.064-.439 0-.688-.387-.688-2.155 0-1.031.031-1.479.046-2.225.009-.429.026-.759.025-.834-.003-.23-.401-.345-.586-.388a1.717 1.717 0 0 0-.49-.052c-.169.013-.288.164-.288.277v.26c-.231-.361-.601-.612-.847-.685-.664-.196-1.352-.019-1.878.707-.343.473-.621.998-.764 2.159a7.38 7.38 0 0 0-.057.944c-.137.835-.741 1.796-1.235 1.796-.289 0-.565-.559-.565-1.751 0-1.589.099-3.85.115-4.068l.746-.012c.311-.003.593.004 1.008-.017.208-.011.409-.755.194-.848-.097-.041-.785-.078-1.058-.084-.229-.005-.868-.052-.868-.052s.058-1.501.071-1.659c.011-.133-.16-.201-.259-.242a3.515 3.515 0 0 0-.706-.201c-.35-.072-.509-.002-.54.293-.047.447-.071 1.758-.071 1.758-.257 0-1.135-.05-1.392-.05-.239 0-.497 1.024-.167 1.037.38.015 1.043.027 1.481.041 0 0-.019 2.298-.019 3.008l.001.219c-.242 1.255-1.093 1.934-1.093 1.934.183-.831-.19-1.455-.863-1.983a61.82 61.82 0 0 0-1.284-.967s.317-.311.598-.938c.199-.444.208-.952-.281-1.064-.807-.185-1.473.406-1.672 1.038-.154.489-.072.852.23 1.229.022.028.046.056.07.084-.182.351-.433.822-.645 1.188-.588 1.016-1.033 1.82-1.369 1.82-.269 0-.265-.816-.265-1.58 0-.658.048-1.648.087-2.673.013-.339-.157-.532-.442-.707-.173-.107-.542-.316-.756-.316-.32 0-1.244.044-2.117 2.563-.11.317-.327.896-.327.896l.019-3.029c0-.071-.038-.14-.125-.187-.147-.08-.54-.243-.889-.243-.167 0-.25.078-.25.232l-.03 4.738c0 .36.009.78.045.964.035.184.093.334.164.423a.478.478 0 0 0 .29.184c.126.026.819.115.855-.149.043-.316.045-.659.408-1.935.566-1.986 1.305-2.955 1.652-3.3.06-.06.129-.063.126.035-.015.436-.067 1.524-.102 2.449-.094 2.474.358 2.932 1.002 2.932.494 0 1.189-.489 1.935-1.726.465-.772.916-1.528 1.241-2.073.226.209.479.433.733.673.588.557.782 1.087.654 1.59-.099.384-.468.78-1.126.395-.191-.112-.273-.199-.466-.326-.104-.068-.262-.088-.356-.017a1.26 1.26 0 0 0-.468.713c-.078.283.207.433.502.564.254.113.801.216 1.15.227 1.358.046 2.446-.654 3.203-2.458.136 1.558.713 2.44 1.715 2.44.67 0 1.342-.864 1.636-1.714.084.346.209.648.371.902.772 1.221 2.271.958 3.023-.078.233-.32.268-.436.268-.436.11.979.901 1.321 1.353 1.321.507 0 1.03-.239 1.397-1.062.043.089.09.175.141.255.772 1.221 2.271.958 3.024-.078l.093-.133.022.643-.693.634c-1.16 1.062-2.042 1.867-2.107 2.805-.084 1.196.889 1.64 1.625 1.699.781.062 1.45-.369 1.861-.971.362-.531.599-1.672.581-2.799-.007-.451-.018-1.025-.027-1.64.408-.473.867-1.07 1.29-1.768.461-.762.955-1.784 1.208-2.58 0 0 .429.004.888-.026.146-.01.188.02.161.127-.033.13-.579 2.23-.08 3.629.341.958 1.11 1.267 1.566 1.267.533 0 1.044-.402 1.317-.999.033.066.068.131.106.19.772 1.221 2.265.956 3.023-.078.171-.234.268-.436.268-.436.163 1.013.953 1.326 1.405 1.326.472 0 .919-.193 1.282-1.049.015.377.039.685.076.783.023.059.157.134.255.17.431.159.87.084 1.033.051.113-.023.201-.113.213-.346.031-.611.012-1.638.198-2.402.312-1.281.603-1.778.741-2.024.077-.137.164-.16.167-.014.007.295.021 1.162.142 2.326.089.857.207 1.363.299 1.523.26.458.581.48.842.48.167 0 .514-.046.483-.337-.015-.142.012-1.021.319-2.283.201-.824.536-1.569.657-1.841.044-.1.065-.021.064-.006-.025.568-.082 2.424.149 3.44.315 1.375 1.224 1.529 1.541 1.529.676 0 1.229-.513 1.416-1.863.044-.325-.022-.576-.221-.576" fill="#262626"/><g clip-path="url(#g)"><path d="M96.434 96.296h-8.402c-3.414 0-6.192 2.77-6.192 6.176v8.379c0 3.406 2.778 6.176 6.192 6.176h8.402c3.415 0 6.193-2.77 6.193-6.176v-8.379c0-3.405-2.778-6.176-6.193-6.176Zm4.102 14.555a4.096 4.096 0 0 1-4.102 4.091h-8.402a4.096 4.096 0 0 1-4.101-4.091v-8.379a4.096 4.096 0 0 1 4.101-4.09h8.402a4.096 4.096 0 0 1 4.102 4.09v8.379Z" fill="url(#h)"/><path d="M92.234 101.3c-2.965 0-5.377 2.405-5.377 5.362 0 2.956 2.412 5.362 5.377 5.362 2.964 0 5.376-2.406 5.376-5.362 0-2.957-2.412-5.362-5.376-5.362Zm0 8.638a3.28 3.28 0 0 1-3.285-3.276 3.28 3.28 0 0 1 3.285-3.277 3.28 3.28 0 0 1 3.285 3.277 3.28 3.28 0 0 1-3.285 3.276Z" fill="url(#i)"/><path d="M97.62 102.625a1.286 1.286 0 1 0 0-2.569c-.711 0-1.288.575-1.288 1.284 0 .71.577 1.285 1.288 1.285Z" fill="url(#j)"/></g></g><g filter="url(#k)"><path d="M346.773 83.003a5 5 0 0 1 5-5h112.276a5 5 0 0 1 5 5v47.317a5 5 0 0 1-5 5H351.773a5 5 0 0 1-5-5V83.003Z" fill="#fff"/><g clip-path="url(#l)"><path d="m394.197 112.385.944-2.351c1.02.817 2.375 1.241 3.715 1.241.989 0 1.613-.408 1.613-1.028-.015-1.731-5.922-.376-5.967-4.718-.015-2.204 1.811-3.901 4.399-3.901 1.538 0 3.075.408 4.171 1.338l-.883 2.4c-1.004-.686-2.253-1.176-3.44-1.176-.807 0-1.34.409-1.34.931.016 1.698 5.968.767 6.029 4.913 0 2.253-1.781 3.837-4.339 3.837-1.872 0-3.593-.474-4.902-1.486Zm36.216-3.199c-.472.881-1.355 1.485-2.375 1.485-1.507 0-2.725-1.306-2.725-2.922s1.218-2.922 2.725-2.922c1.02 0 1.903.604 2.375 1.486l2.603-1.551c-.974-1.861-2.847-3.134-4.978-3.134-3.151 0-5.708 2.742-5.708 6.121 0 3.379 2.557 6.122 5.708 6.122 2.147 0 4.004-1.257 4.978-3.135l-2.603-1.55Zm-25.666-12.635h3.258v17.091h-3.258V96.551Zm29.548 0v17.091h3.258v-5.126l3.866 5.126h4.171l-4.917-6.089 4.552-5.681h-3.988l-3.684 4.718V96.55h-3.258Zm-16.609 12.667c-.471.833-1.446 1.453-2.542 1.453-1.507 0-2.725-1.306-2.725-2.922s1.218-2.922 2.725-2.922c1.096 0 2.071.653 2.542 1.502v2.889Zm0-7.346v1.388c-.532-.963-1.857-1.632-3.242-1.632-2.862 0-5.115 2.709-5.115 6.105 0 3.395 2.253 6.138 5.115 6.138 1.385 0 2.71-.67 3.242-1.633v1.388h3.258v-11.754h-3.258Z" fill="#000"/><path d="M374.058 109.202c0 1.191-.898 2.154-2.009 2.154-1.112 0-2.01-.963-2.01-2.154 0-1.192.898-2.155 2.01-2.155h2.009v2.155Zm1.005 0c0-1.192.898-2.155 2.009-2.155 1.111 0 2.01.963 2.01 2.155v5.387c0 1.191-.899 2.154-2.01 2.154-1.111 0-2.009-.963-2.009-2.154v-5.387Z" fill="#E01E5A"/><path d="M377.072 100.55c-1.112 0-2.01-.963-2.01-2.155 0-1.192.898-2.155 2.01-2.155 1.111 0 2.009.963 2.009 2.155v2.155h-2.009Zm0 1.094c1.111 0 2.009.963 2.009 2.154 0 1.192-.898 2.155-2.009 2.155h-5.039c-1.111 0-2.01-.963-2.01-2.155 0-1.191.899-2.154 2.01-2.154h5.039Z" fill="#36C5F0"/><path d="M385.125 103.798c0-1.191.898-2.154 2.01-2.154 1.111 0 2.009.963 2.009 2.154 0 1.192-.898 2.155-2.009 2.155h-2.01v-2.155Zm-1.005 0c0 1.192-.898 2.155-2.009 2.155-1.111 0-2.009-.963-2.009-2.155v-5.403c0-1.192.898-2.155 2.009-2.155 1.111 0 2.009.963 2.009 2.155v5.403Z" fill="#2EB67D"/><path d="M382.111 112.434c1.111 0 2.009.963 2.009 2.155 0 1.191-.898 2.154-2.009 2.154-1.111 0-2.009-.963-2.009-2.154v-2.155h2.009Zm0-1.078c-1.111 0-2.009-.963-2.009-2.154 0-1.192.898-2.155 2.009-2.155h5.039c1.111 0 2.009.963 2.009 2.155 0 1.191-.898 2.154-2.009 2.154h-5.039Z" fill="#ECB22E"/></g></g><g filter="url(#m)"><g clip-path="url(#n)"><path d="M124.498 36.502a5 5 0 0 1 5-5h112.276a5 5 0 0 1 5 5v47.317a5 5 0 0 1-5 5H129.498a5 5 0 0 1-5-5V36.502Z" fill="#fff"/><path d="M169.683 54.118a3.447 3.447 0 0 0-2.401-2.448c-2.105-.585-10.577-.585-10.577-.585s-8.473.018-10.578.603a3.447 3.447 0 0 0-2.4 2.448c-.557 2.146-.557 6.634-.557 6.634s0 4.488.574 6.652a3.447 3.447 0 0 0 2.401 2.448c2.105.585 10.577.585 10.577.585s8.472 0 10.578-.585a3.447 3.447 0 0 0 2.4-2.448c.574-2.146.574-6.652.574-6.652s-.017-4.488-.591-6.652Z" fill="red"/><path d="m154.008 64.92 7.028-4.15-7.028-4.15v8.3Z" fill="#fff"/><path d="M182.488 68.7c-.54-.373-.923-.941-1.149-1.722-.226-.78-.33-1.809-.33-3.104v-1.756c0-1.295.122-2.359.383-3.14.26-.798.661-1.365 1.217-1.72.557-.355 1.27-.55 2.158-.55.869 0 1.583.177 2.105.55.521.372.922.94 1.165 1.72.244.781.365 1.828.365 3.122v1.756c0 1.295-.121 2.324-.365 3.105-.243.78-.626 1.348-1.165 1.72-.54.355-1.27.55-2.175.55-.939.018-1.67-.177-2.209-.532Zm3.009-1.899c.157-.39.226-1.047.226-1.933v-3.779c0-.869-.069-1.507-.226-1.898-.156-.408-.417-.603-.783-.603-.365 0-.609.195-.765.603-.157.408-.226 1.03-.226 1.898v3.779c0 .886.069 1.543.208 1.933.14.39.401.585.783.585.366 0 .627-.195.783-.585Zm38.134-2.891v.62c0 .781.017 1.366.07 1.757.052.39.139.674.278.851.139.177.365.266.661.266.4 0 .679-.16.818-.479.156-.319.226-.851.243-1.578l2.314.141c.017.107.017.249.017.426 0 1.118-.295 1.951-.904 2.501-.609.55-1.444.834-2.54.834-1.322 0-2.244-.426-2.766-1.26-.522-.833-.801-2.146-.801-3.902v-2.146c0-1.81.279-3.14.818-3.974.557-.833 1.496-1.259 2.818-1.259.922 0 1.618.177 2.105.514.488.337.836.87 1.044 1.597.209.727.296 1.72.296 2.998v2.075h-4.471v.018Zm.348-5.109c-.139.177-.226.444-.278.834-.053.39-.07.975-.07 1.774v.869h1.948v-.87c0-.78-.017-1.365-.069-1.773-.052-.408-.139-.692-.278-.852-.14-.16-.348-.248-.627-.248-.295.018-.504.107-.626.266Zm-47.998 4.879-3.044-11.211h2.661l1.061 5.073a54.2 54.2 0 0 1 .609 3.193h.07c.087-.639.296-1.685.609-3.175l1.096-5.091h2.662l-3.08 11.193v5.374h-2.627V63.68h-.017Zm21.05-6.742v12.116h-2.087l-.227-1.49h-.052c-.574 1.117-1.426 1.685-2.557 1.685-.783 0-1.374-.266-1.74-.798-.383-.532-.556-1.348-.556-2.466v-9.047h2.679v8.887c0 .532.052.923.174 1.153.121.23.313.337.574.337.226 0 .452-.07.661-.212.209-.142.365-.337.47-.55v-9.614h2.661Zm13.727 0v12.116h-2.088l-.226-1.49h-.052c-.574 1.117-1.427 1.685-2.558 1.685-.782 0-1.374-.266-1.739-.798-.383-.532-.557-1.348-.557-2.466v-9.047h2.679v8.887c0 .532.052.923.174 1.153.122.23.313.337.574.337.226 0 .453-.07.661-.212.209-.142.366-.337.47-.55v-9.614h2.662Z" fill="#282828"/><path d="M204.303 54.668h-2.662v14.386h-2.609V54.668h-2.662v-2.2h7.916v2.2h.017Zm15.293 4.204c-.157-.763-.418-1.313-.783-1.667-.366-.337-.853-.515-1.496-.515a2.42 2.42 0 0 0-1.375.426 2.896 2.896 0 0 0-.991 1.117h-.018v-6.385h-2.575v17.188h2.21l.278-1.153h.052c.209.408.522.727.922.976.418.23.87.354 1.375.354.904 0 1.565-.425 2-1.277.418-.851.644-2.182.644-3.973v-1.916c0-1.348-.087-2.412-.243-3.175Zm-2.453 4.949c0 .887-.035 1.579-.105 2.075-.069.497-.191.852-.365 1.065a.835.835 0 0 1-.679.319 1.2 1.2 0 0 1-.609-.16c-.191-.106-.33-.266-.452-.479V59.76c.087-.337.244-.603.47-.816.226-.213.452-.32.713-.32.278 0 .487.107.626.32.157.213.244.585.314 1.1.052.514.087 1.241.087 2.2v1.578Z" fill="#282828"/></g></g><g filter="url(#o)"><path d="M285.773 36.502a5 5 0 0 1 5-5h112.276a5 5 0 0 1 5 5v47.317a5 5 0 0 1-5 5H290.773a5 5 0 0 1-5-5V36.502Z" fill="#fff"/><g clip-path="url(#p)"><path d="M329.34 65.879c2.266 7.538 9.275 13.03 17.571 13.03 10.13 0 18.342-8.19 18.342-18.292 0-10.103-8.212-18.293-18.342-18.293-9.72 0-17.673 7.542-18.302 17.078 1.187 1.987 1.65 3.217.731 6.477Z" fill="url(#q)"/><path d="m345.967 56.035.001.091-4.488 6.502a5.039 5.039 0 0 0-2.148.379 4.985 4.985 0 0 0-.859.452l-9.855-4.046s-.228 3.741.722 6.53l6.967 2.867a5.07 5.07 0 0 0 3.005 3.585 5.085 5.085 0 0 0 7.042-4.824l6.422-4.577c.052.002.106.003.157.003 3.844 0 6.967-3.124 6.967-6.962 0-3.837-3.123-6.959-6.967-6.959-3.841 0-6.966 3.122-6.966 6.96Zm-1.077 13.177a3.93 3.93 0 0 1-5.132 2.112 3.899 3.899 0 0 1-2.02-1.922l2.268.938a2.892 2.892 0 0 0 3.778-1.555 2.882 2.882 0 0 0-1.556-3.773l-2.344-.969a3.91 3.91 0 0 1 2.894.044 3.89 3.89 0 0 1 2.118 2.126 3.889 3.889 0 0 1-.006 3Zm8.043-8.539a4.645 4.645 0 0 1-4.641-4.638 4.646 4.646 0 0 1 4.641-4.636 4.646 4.646 0 0 1 4.643 4.636 4.646 4.646 0 0 1-4.643 4.639Zm-3.477-4.645a3.487 3.487 0 0 1 6.973 0 3.486 3.486 0 0 1-3.488 3.484 3.484 3.484 0 0 1-3.485-3.483Z" fill="#fff"/></g></g><g filter="url(#r)"><path d="M205.137 23.374a5 5 0 0 1 5-5h112.275a5 5 0 0 1 5 5v47.317a5 5 0 0 1-5 5H210.137a5 5 0 0 1-5-5V23.374Z" fill="#fff"/><g clip-path="url(#s)"><path d="M238.793 57.815c-1.14.203-2.301.264-3.501.425l-3.662-10.85v11.317c-1.14.122-2.18.284-3.261.445V38.42h3.041l4.162 11.763V38.42h3.221v19.395Zm6.303-11.803c1.241 0 3.141-.06 4.282-.06v3.239c-1.421 0-3.081 0-4.282.06v4.819c1.881-.122 3.762-.284 5.662-.344v3.117l-8.863.709V38.42h8.863v3.24h-5.662v4.352Zm17.567-4.353h-3.321V56.56c-1.081 0-2.161 0-3.201.04V41.66h-3.322v-3.24h9.844v3.24Zm5.202 4.13h4.382v3.24h-4.382v7.349h-3.141V38.42h8.944v3.24h-5.803v4.13Zm11.005 7.754c1.82.04 3.661.183 5.442.284v3.199c-2.861-.183-5.722-.365-8.644-.426V38.42h3.202v15.123Zm8.143 3.705c1.02.061 2.101.122 3.141.243V38.42h-3.141v18.828ZM304.18 38.42l-4.062 9.86 4.062 10.871c-1.201-.161-2.401-.384-3.602-.587l-2.3-5.992-2.341 5.507c-1.161-.203-2.281-.264-3.441-.426l4.121-9.495-3.721-9.738h3.441l2.101 5.446 2.241-5.446h3.501Z" fill="#D81F26"/></g></g><defs><clipPath id="c"><path fill="#fff" transform="translate(53.067 131.79)" d="M0 0h61.138v37.805H0z"/></clipPath><clipPath id="e"><path fill="#fff" transform="translate(404.892 140.327)" d="M0 0h20.787v20.732H0z"/></clipPath><clipPath id="g"><path fill="#fff" transform="translate(81.84 96.296)" d="M0 0h20.787v20.732H0z"/></clipPath><clipPath id="l"><path fill="#fff" transform="translate(369.917 96.143)" d="M0 0h75.811v20.732H0z"/></clipPath><clipPath id="n"><path d="M124.498 36.502a5 5 0 0 1 5-5h112.276a5 5 0 0 1 5 5v47.317a5 5 0 0 1-5 5H129.498a5 5 0 0 1-5-5V36.502Z" fill="#fff"/></clipPath><clipPath id="p"><path fill="#fff" transform="translate(328.57 42.324)" d="M0 0h36.683v36.585H0z"/></clipPath><clipPath id="s"><path fill="#fff" transform="translate(228.369 38.42)" d="M0 0h75.811v20.732H0z"/></clipPath><filter id="b" x=".498" y="104.034" width="166.275" height="101.316" filterUnits="userSpaceOnUse" color-interpolation-filters="sRGB"><feFlood flood-opacity="0" result="BackgroundImageFix"/><feColorMatrix in="SourceAlpha" values="0 0 0 0 0 0 0 0 0 0 0 0 0 0 0 0 0 0 127 0" result="hardAlpha"/><feOffset dy="4"/><feGaussianBlur stdDeviation="11"/><feColorMatrix values="0 0 0 0 0.0925174 0 0 0 0 0.176063 0 0 0 0 0.304167 0 0 0 0.17 0"/><feBlend in2="BackgroundImageFix" result="effect1_dropShadow_7449_125557"/><feBlend in="SourceGraphic" in2="effect1_dropShadow_7449_125557" result="shape"/></filter><filter id="d" x="365.773" y="104.034" width="166.275" height="101.316" filterUnits="userSpaceOnUse" color-interpolation-filters="sRGB"><feFlood flood-opacity="0" result="BackgroundImageFix"/><feColorMatrix in="SourceAlpha" values="0 0 0 0 0 0 0 0 0 0 0 0 0 0 0 0 0 0 127 0" result="hardAlpha"/><feOffset dy="4"/><feGaussianBlur stdDeviation="11"/><feColorMatrix values="0 0 0 0 0.0925174 0 0 0 0 0.176063 0 0 0 0 0.304167 0 0 0 0.17 0"/><feBlend in2="BackgroundImageFix" result="effect1_dropShadow_7449_125557"/><feBlend in="SourceGraphic" in2="effect1_dropShadow_7449_125557" result="shape"/></filter><filter id="f" x="41.498" y="60.003" width="166.275" height="101.316" filterUnits="userSpaceOnUse" color-interpolation-filters="sRGB"><feFlood flood-opacity="0" result="BackgroundImageFix"/><feColorMatrix in="SourceAlpha" values="0 0 0 0 0 0 0 0 0 0 0 0 0 0 0 0 0 0 127 0" result="hardAlpha"/><feOffset dy="4"/><feGaussianBlur stdDeviation="11"/><feColorMatrix values="0 0 0 0 0.0925174 0 0 0 0 0.176063 0 0 0 0 0.304167 0 0 0 0.17 0"/><feBlend in2="BackgroundImageFix" result="effect1_dropShadow_7449_125557"/><feBlend in="SourceGraphic" in2="effect1_dropShadow_7449_125557" result="shape"/></filter><filter id="k" x="324.773" y="60.003" width="166.275" height="101.316" filterUnits="userSpaceOnUse" color-interpolation-filters="sRGB"><feFlood flood-opacity="0" result="BackgroundImageFix"/><feColorMatrix in="SourceAlpha" values="0 0 0 0 0 0 0 0 0 0 0 0 0 0 0 0 0 0 127 0" result="hardAlpha"/><feOffset dy="4"/><feGaussianBlur stdDeviation="11"/><feColorMatrix values="0 0 0 0 0.0925174 0 0 0 0 0.176063 0 0 0 0 0.304167 0 0 0 0.17 0"/><feBlend in2="BackgroundImageFix" result="effect1_dropShadow_7449_125557"/><feBlend in="SourceGraphic" in2="effect1_dropShadow_7449_125557" result="shape"/></filter><filter id="m" x="102.498" y="13.502" width="166.275" height="101.316" filterUnits="userSpaceOnUse" color-interpolation-filters="sRGB"><feFlood flood-opacity="0" result="BackgroundImageFix"/><feColorMatrix in="SourceAlpha" values="0 0 0 0 0 0 0 0 0 0 0 0 0 0 0 0 0 0 127 0" result="hardAlpha"/><feOffset dy="4"/><feGaussianBlur stdDeviation="11"/><feColorMatrix values="0 0 0 0 0.0925174 0 0 0 0 0.176063 0 0 0 0 0.304167 0 0 0 0.17 0"/><feBlend in2="BackgroundImageFix" result="effect1_dropShadow_7449_125557"/><feBlend in="SourceGraphic" in2="effect1_dropShadow_7449_125557" result="shape"/></filter><filter id="o" x="263.773" y="13.502" width="166.275" height="101.316" filterUnits="userSpaceOnUse" color-interpolation-filters="sRGB"><feFlood flood-opacity="0" result="BackgroundImageFix"/><feColorMatrix in="SourceAlpha" values="0 0 0 0 0 0 0 0 0 0 0 0 0 0 0 0 0 0 127 0" result="hardAlpha"/><feOffset dy="4"/><feGaussianBlur stdDeviation="11"/><feColorMatrix values="0 0 0 0 0.0925174 0 0 0 0 0.176063 0 0 0 0 0.304167 0 0 0 0.17 0"/><feBlend in2="BackgroundImageFix" result="effect1_dropShadow_7449_125557"/><feBlend in="SourceGraphic" in2="effect1_dropShadow_7449_125557" result="shape"/></filter><filter id="r" x="183.137" y=".374" width="166.275" height="101.316" filterUnits="userSpaceOnUse" color-interpolation-filters="sRGB"><feFlood flood-opacity="0" result="BackgroundImageFix"/><feColorMatrix in="SourceAlpha" values="0 0 0 0 0 0 0 0 0 0 0 0 0 0 0 0 0 0 127 0" result="hardAlpha"/><feOffset dy="4"/><feGaussianBlur stdDeviation="11"/><feColorMatrix values="0 0 0 0 0.0925174 0 0 0 0 0.176063 0 0 0 0 0.304167 0 0 0 0.17 0"/><feBlend in2="BackgroundImageFix" result="effect1_dropShadow_7449_125557"/><feBlend in="SourceGraphic" in2="effect1_dropShadow_7449_125557" result="shape"/></filter><linearGradient id="a" x1="218.1" y1="127.016" x2="288.469" y2="246.023" gradientUnits="userSpaceOnUse"><stop offset=".395" stop-color="#E35959"/><stop offset=".72" stop-color="#E26630"/><stop offset=".75" stop-color="#95DB24"/></linearGradient><linearGradient id="h" x1="92.233" y1="116.967" x2="92.233" y2="96.457" gradientUnits="userSpaceOnUse"><stop stop-color="#E09B3D"/><stop offset=".3" stop-color="#C74C4D"/><stop offset=".6" stop-color="#C21975"/><stop offset="1" stop-color="#7024C4"/></linearGradient><linearGradient id="i" x1="92.234" y1="116.967" x2="92.234" y2="96.457" gradientUnits="userSpaceOnUse"><stop stop-color="#E09B3D"/><stop offset=".3" stop-color="#C74C4D"/><stop offset=".6" stop-color="#C21975"/><stop offset="1" stop-color="#7024C4"/></linearGradient><linearGradient id="j" x1="97.62" y1="116.968" x2="97.62" y2="96.457" gradientUnits="userSpaceOnUse"><stop stop-color="#E09B3D"/><stop offset=".3" stop-color="#C74C4D"/><stop offset=".6" stop-color="#C21975"/><stop offset="1" stop-color="#7024C4"/></linearGradient><linearGradient id="q" x1="346.931" y1="42.324" x2="346.931" y2="78.909" gradientUnits="userSpaceOnUse"><stop stop-color="#111D2E"/><stop offset=".212" stop-color="#051839"/><stop offset=".407" stop-color="#0A1B48"/><stop offset=".581" stop-color="#132E62"/><stop offset=".738" stop-color="#144B7E"/><stop offset=".873" stop-color="#136497"/><stop offset="1" stop-color="#1387B8"/></linearGradient></defs></svg>