<svg width="86" height="31" fill="none" xmlns="http://www.w3.org/2000/svg"><g clip-path="url(#a)"><path d="M27.951 10.427c-.63-1.52-1.91-3.161-2.912-3.68a15.122 15.122 0 0 1 1.47 4.412l.003.024c-1.642-4.096-4.424-5.75-6.698-9.348a17.66 17.66 0 0 1-.342-.557 4.628 4.628 0 0 1-.16-.3 2.65 2.65 0 0 1-.216-.576.038.038 0 0 0-.033-.037.051.051 0 0 0-.028 0l-.007.004-.01.005.005-.01c-3.646 2.139-4.884 6.097-4.996 8.077-1.457.1-2.85.638-3.997 1.543a4.339 4.339 0 0 0-.375-.285 6.751 6.751 0 0 1-.04-3.554c-1.34.65-2.53 1.571-3.495 2.705h-.007c-.575-.73-.535-3.139-.502-3.642-.17.069-.333.155-.485.258-.507.363-.982.77-1.418 1.217A12.69 12.69 0 0 0 2.35 8.314v.002-.002a12.288 12.288 0 0 0-1.947 4.404l-.02.096c-.027.128-.126.769-.143.908l-.003.032a13.877 13.877 0 0 0-.236 2.004v.075a14.553 14.553 0 0 0 3.835 9.82 14.503 14.503 0 0 0 19.552 1.668 14.544 14.544 0 0 0 5.437-9.03c.025-.187.045-.372.066-.562.3-2.475-.024-4.986-.941-7.304l.001.002ZM11.22 21.81c.067.033.131.068.2.1l.01.006a7.838 7.838 0 0 1-.21-.106Zm15.293-10.622v-.013l.003.015-.003-.002Z" fill="url(#b)"/><path d="M27.951 10.427c-.63-1.52-1.91-3.161-2.912-3.68a15.122 15.122 0 0 1 1.47 4.412v.014l.003.015a13.186 13.186 0 0 1-.452 9.814c-1.664 3.575-5.69 7.24-11.994 7.06-6.81-.193-12.81-5.256-13.93-11.885-.205-1.045 0-1.575.102-2.425a10.85 10.85 0 0 0-.234 2.006v.076a14.553 14.553 0 0 0 3.835 9.819 14.504 14.504 0 0 0 19.552 1.668 14.544 14.544 0 0 0 5.437-9.029c.025-.187.044-.373.066-.563a14.974 14.974 0 0 0-.941-7.304l-.002.002Z" fill="url(#c)"/><path d="M27.951 10.427c-.63-1.52-1.91-3.161-2.912-3.68a15.122 15.122 0 0 1 1.47 4.412v.014l.003.015a13.186 13.186 0 0 1-.452 9.814c-1.664 3.575-5.69 7.24-11.994 7.06-6.81-.193-12.81-5.256-13.93-11.885-.205-1.045 0-1.575.102-2.425a10.85 10.85 0 0 0-.234 2.006v.076a14.553 14.553 0 0 0 3.835 9.819 14.504 14.504 0 0 0 19.552 1.668 14.544 14.544 0 0 0 5.437-9.029c.025-.187.044-.373.066-.563a14.974 14.974 0 0 0-.941-7.304l-.002.002Z" fill="url(#d)"/><path d="M20.894 12.134c.032.022.06.044.09.067a7.918 7.918 0 0 0-1.348-1.762C15.122 5.92 18.453.641 19.015.371l.005-.009c-3.646 2.139-4.884 6.096-4.997 8.077.17-.012.338-.026.51-.026a7.318 7.318 0 0 1 6.361 3.72v.001Z" fill="url(#e)"/><path d="M14.541 13.038c-.024.362-1.3 1.61-1.746 1.61-4.128 0-4.798 2.5-4.798 2.5.183 2.106 1.648 3.842 3.42 4.757a7.371 7.371 0 0 0 .671.292 6.45 6.45 0 0 0 1.889.365c7.236.34 8.637-8.666 3.415-11.28a5.006 5.006 0 0 1 3.5.85 7.332 7.332 0 0 0-6.36-3.72c-.172 0-.34.015-.51.026-1.456.1-2.85.638-3.996 1.543.22.187.47.438.997.957.985.972 3.512 1.98 3.517 2.097l.001.003Z" fill="url(#f)"/><path d="M14.541 13.038c-.024.362-1.3 1.61-1.746 1.61-4.128 0-4.798 2.5-4.798 2.5.183 2.106 1.648 3.842 3.42 4.757a7.371 7.371 0 0 0 .671.292 6.45 6.45 0 0 0 1.889.365c7.236.34 8.637-8.666 3.415-11.28a5.006 5.006 0 0 1 3.5.85 7.332 7.332 0 0 0-6.36-3.72c-.172 0-.34.015-.51.026-1.456.1-2.85.638-3.996 1.543.22.187.47.438.997.957.985.972 3.512 1.98 3.517 2.097l.001.003Z" fill="url(#g)"/><path d="M9.35 9.5c.117.076.214.141.3.2a6.751 6.751 0 0 1-.042-3.554 10.742 10.742 0 0 0-3.494 2.705c.07-.002 2.177-.04 3.236.65Z" fill="url(#h)"/><path d="M.133 16.178c1.12 6.629 7.12 11.693 13.93 11.885 6.304.178 10.331-3.487 11.994-7.06a13.183 13.183 0 0 0 .452-9.814v-.014c0-.01-.002-.017 0-.014l.003.024c.515 3.368-1.196 6.63-3.87 8.839l-.008.018c-5.21 4.25-10.196 2.564-11.204 1.876a7.417 7.417 0 0 1-.21-.105c-3.038-1.454-4.294-4.224-4.024-6.603a3.725 3.725 0 0 1-3.439-2.166 5.47 5.47 0 0 1 5.338-.215 7.22 7.22 0 0 0 5.45.215c-.006-.118-2.532-1.126-3.517-2.097-.527-.52-.777-.77-.998-.958a4.347 4.347 0 0 0-.374-.284 20.306 20.306 0 0 0-.3-.2c-1.059-.689-3.165-.651-3.235-.65h-.006c-.576-.73-.535-3.138-.502-3.641-.17.068-.333.155-.485.258-.508.363-.983.77-1.419 1.217a12.69 12.69 0 0 0-1.363 1.627v.002-.002A12.288 12.288 0 0 0 .4 12.72c-.008.03-.523 2.288-.269 3.459h.003Z" fill="url(#i)"/><path d="M19.636 10.439c.53.52.984 1.114 1.348 1.763.08.06.154.12.218.178 3.291 3.039 1.567 7.334 1.438 7.638 2.674-2.206 4.383-5.47 3.87-8.838-1.643-4.1-4.428-5.755-6.698-9.352a17.66 17.66 0 0 1-.342-.557 4.628 4.628 0 0 1-.16-.3 2.65 2.65 0 0 1-.216-.576.038.038 0 0 0-.033-.038.051.051 0 0 0-.028 0c-.002 0-.005.004-.007.005l-.01.005c-.562.267-3.892 5.549.622 10.065l-.002.007Z" fill="url(#j)"/><path d="M21.201 12.382a3.04 3.04 0 0 0-.218-.179c-.03-.022-.058-.044-.09-.066a5.006 5.006 0 0 0-3.5-.851c5.221 2.614 3.82 11.618-3.416 11.28a6.447 6.447 0 0 1-1.889-.365 7.574 7.574 0 0 1-.671-.292l.01.007c1.009.69 5.993 2.375 11.204-1.876l.008-.019c.13-.304 1.854-4.599-1.439-7.638l.001-.001Z" fill="url(#k)"/><path d="M7.997 17.146s.67-2.501 4.799-2.501c.446 0 1.723-1.247 1.746-1.609a7.22 7.22 0 0 1-5.45-.214 5.47 5.47 0 0 0-5.338.214 3.732 3.732 0 0 0 3.439 2.167c-.27 2.377.986 5.146 4.023 6.602.068.033.131.068.2.099-1.772-.917-3.236-2.652-3.419-4.757Z" fill="url(#l)"/><path d="M27.951 10.427c-.63-1.52-1.91-3.161-2.912-3.68a15.124 15.124 0 0 1 1.47 4.412l.003.024c-1.642-4.096-4.424-5.75-6.698-9.348a17.66 17.66 0 0 1-.342-.557 4.628 4.628 0 0 1-.16-.3 2.644 2.644 0 0 1-.216-.576.038.038 0 0 0-.033-.037.051.051 0 0 0-.028 0l-.007.004-.01.005.005-.01c-3.646 2.139-4.884 6.097-4.996 8.077.169-.011.337-.026.51-.026a7.319 7.319 0 0 1 6.36 3.72 5.006 5.006 0 0 0-3.5-.85c5.221 2.614 3.82 11.618-3.416 11.28a6.45 6.45 0 0 1-1.89-.365 7.727 7.727 0 0 1-.425-.175 5.421 5.421 0 0 1-.245-.117l.01.006a7.688 7.688 0 0 1-.212-.105c.068.033.132.068.202.1C9.648 20.99 8.184 19.255 8 17.15c0 0 .67-2.5 4.798-2.5.447 0 1.723-1.248 1.746-1.61-.005-.118-2.532-1.125-3.517-2.097-.526-.52-.776-.77-.998-.957a4.35 4.35 0 0 0-.374-.285 6.751 6.751 0 0 1-.041-3.554A10.745 10.745 0 0 0 6.12 8.852h-.007c-.576-.73-.535-3.139-.502-3.642-.17.069-.333.155-.485.258-.508.363-.983.77-1.419 1.217A12.69 12.69 0 0 0 2.35 8.316v.002-.002A12.288 12.288 0 0 0 .403 12.72l-.02.096c-.026.128-.149.778-.167.917-.112.67-.183 1.348-.214 2.027v.075a14.553 14.553 0 0 0 3.835 9.82 14.503 14.503 0 0 0 19.552 1.668 14.544 14.544 0 0 0 5.437-9.03c.024-.187.044-.372.066-.562a14.974 14.974 0 0 0-.942-7.304h.001Zm-1.44.747.003.016-.003-.016Z" fill="url(#m)"/></g><path d="M43.568 12.382v-1.82h-7.406v9.8h2.268v-3.57h4.536v-1.82H38.43v-2.59h5.138Zm2.337-.602c.812 0 1.358-.532 1.358-1.26 0-.672-.546-1.176-1.358-1.176s-1.358.532-1.358 1.218c0 .686.546 1.218 1.358 1.218Zm-1.092 8.582h2.184V12.83h-2.184v7.532Zm6.297-6.538v-.994h-2.086v7.532h2.184v-3.556c0-1.442.798-2.1 2.002-2.1.168 0 .308.014.49.028v-2.016c-1.162 0-2.058.378-2.59 1.106Zm11.198 2.8c0-2.422-1.708-3.906-3.92-3.906-2.296 0-4.018 1.624-4.018 3.878 0 2.24 1.694 3.878 4.298 3.878 1.358 0 2.408-.42 3.108-1.218l-1.162-1.26c-.518.49-1.092.728-1.89.728-1.148 0-1.946-.574-2.156-1.512h5.698c.014-.182.042-.42.042-.588Zm-3.906-2.254c.98 0 1.694.616 1.848 1.568h-3.71c.154-.966.868-1.568 1.862-1.568Zm7.754-1.694c0-.742.35-1.092.994-1.092.336 0 .644.098.882.266l.574-1.582c-.406-.28-1.05-.406-1.666-.406-1.876 0-2.912 1.106-2.912 2.8v.336h-1.162v1.68h1.162v5.684h2.184v-5.684h1.876v-1.68h-1.932v-.322Zm6.508 7.798c2.394 0 4.13-1.61 4.13-3.878s-1.736-3.878-4.13-3.878-4.144 1.61-4.144 3.878 1.75 3.878 4.144 3.878Zm0-1.792c-1.092 0-1.932-.784-1.932-2.086 0-1.302.84-2.086 1.932-2.086s1.918.784 1.918 2.086c0 1.302-.826 2.086-1.918 2.086Zm12.624 1.68-2.912-3.85 2.8-3.682h-2.324l-1.638 2.198-1.596-2.198h-2.45l2.8 3.738-2.898 3.794h2.38l1.708-2.31 1.652 2.31h2.478Z" fill="#5A78A6"/><defs><radialGradient id="c" cx="0" cy="0" r="1" gradientUnits="userSpaceOnUse" gradientTransform="matrix(30.2661 0 0 30.3114 25.097 3.739)"><stop offset=".129" stop-color="#FFBD4F"/><stop offset=".186" stop-color="#FFAC31"/><stop offset=".247" stop-color="#FF9D17"/><stop offset=".283" stop-color="#FF980E"/><stop offset=".403" stop-color="#FF563B"/><stop offset=".467" stop-color="#FF3750"/><stop offset=".71" stop-color="#F5156C"/><stop offset=".782" stop-color="#EB0878"/><stop offset=".86" stop-color="#E50080"/></radialGradient><radialGradient id="d" cx="0" cy="0" r="1" gradientUnits="userSpaceOnUse" gradientTransform="matrix(30.2661 0 0 30.3114 13.86 16.118)"><stop offset=".3" stop-color="#960E18"/><stop offset=".351" stop-color="#B11927" stop-opacity=".74"/><stop offset=".435" stop-color="#DB293D" stop-opacity=".343"/><stop offset=".497" stop-color="#F5334B" stop-opacity=".094"/><stop offset=".53" stop-color="#FF3750" stop-opacity="0"/></radialGradient><radialGradient id="e" cx="0" cy="0" r="1" gradientUnits="userSpaceOnUse" gradientTransform="matrix(21.9242 0 0 21.957 17.605 -3.014)"><stop offset=".132" stop-color="#FFF44F"/><stop offset=".252" stop-color="#FFDC3E"/><stop offset=".506" stop-color="#FF9D12"/><stop offset=".526" stop-color="#FF980E"/></radialGradient><radialGradient id="f" cx="0" cy="0" r="1" gradientUnits="userSpaceOnUse" gradientTransform="matrix(14.4101 0 0 14.4317 10.488 23.996)"><stop offset=".353" stop-color="#3A8EE6"/><stop offset=".472" stop-color="#5C79F0"/><stop offset=".669" stop-color="#9059FF"/><stop offset="1" stop-color="#C139E6"/></radialGradient><radialGradient id="g" cx="0" cy="0" r="1" gradientUnits="userSpaceOnUse" gradientTransform="matrix(7.42748 -1.7984 2.10829 8.7073 15.323 13.516)"><stop offset=".206" stop-color="#9059FF" stop-opacity="0"/><stop offset=".278" stop-color="#8C4FF3" stop-opacity=".064"/><stop offset=".747" stop-color="#7716A8" stop-opacity=".45"/><stop offset=".975" stop-color="#6E008B" stop-opacity=".6"/></radialGradient><radialGradient id="h" cx="0" cy="0" r="1" gradientUnits="userSpaceOnUse" gradientTransform="matrix(10.3684 0 0 10.3839 13.485 2.613)"><stop stop-color="#FFE226"/><stop offset=".121" stop-color="#FFDB27"/><stop offset=".295" stop-color="#FFC82A"/><stop offset=".502" stop-color="#FFA930"/><stop offset=".732" stop-color="#FF7E37"/><stop offset=".792" stop-color="#FF7139"/></radialGradient><radialGradient id="i" cx="0" cy="0" r="1" gradientUnits="userSpaceOnUse" gradientTransform="matrix(44.2379 0 0 44.3041 21.726 -4.14)"><stop offset=".113" stop-color="#FFF44F"/><stop offset=".456" stop-color="#FF980E"/><stop offset=".622" stop-color="#FF5634"/><stop offset=".716" stop-color="#FF3647"/><stop offset=".904" stop-color="#E31587"/></radialGradient><radialGradient id="j" cx="0" cy="0" r="1" gradientUnits="userSpaceOnUse" gradientTransform="matrix(3.40215 32.28745 -21.15896 2.22953 18.049 -1.683)"><stop stop-color="#FFF44F"/><stop offset=".06" stop-color="#FFE847"/><stop offset=".168" stop-color="#FFC830"/><stop offset=".304" stop-color="#FF980E"/><stop offset=".356" stop-color="#FF8B16"/><stop offset=".455" stop-color="#FF672A"/><stop offset=".57" stop-color="#FF3647"/><stop offset=".737" stop-color="#E31587"/></radialGradient><radialGradient id="k" cx="0" cy="0" r="1" gradientUnits="userSpaceOnUse" gradientTransform="matrix(27.6141 0 0 27.6554 13.485 6.365)"><stop offset=".137" stop-color="#FFF44F"/><stop offset=".48" stop-color="#FF980E"/><stop offset=".592" stop-color="#FF5634"/><stop offset=".655" stop-color="#FF3647"/><stop offset=".904" stop-color="#E31587"/></radialGradient><radialGradient id="l" cx="0" cy="0" r="1" gradientUnits="userSpaceOnUse" gradientTransform="matrix(30.2249 0 0 30.2701 20.602 7.865)"><stop offset=".094" stop-color="#FFF44F"/><stop offset=".231" stop-color="#FFE141"/><stop offset=".509" stop-color="#FFAF1E"/><stop offset=".626" stop-color="#FF980E"/></radialGradient><linearGradient id="b" x1="26.029" y1="5.009" x2="1.893" y2="28.261" gradientUnits="userSpaceOnUse"><stop offset=".048" stop-color="#FFF44F"/><stop offset=".111" stop-color="#FFE847"/><stop offset=".225" stop-color="#FFC830"/><stop offset=".368" stop-color="#FF980E"/><stop offset=".401" stop-color="#FF8B16"/><stop offset=".462" stop-color="#FF672A"/><stop offset=".534" stop-color="#FF3647"/><stop offset=".705" stop-color="#E31587"/></linearGradient><linearGradient id="m" x1="25.737" y1="4.885" x2="5.202" y2="25.393" gradientUnits="userSpaceOnUse"><stop offset=".167" stop-color="#FFF44F" stop-opacity=".8"/><stop offset=".266" stop-color="#FFF44F" stop-opacity=".634"/><stop offset=".489" stop-color="#FFF44F" stop-opacity=".217"/><stop offset=".6" stop-color="#FFF44F" stop-opacity="0"/></linearGradient><clipPath id="a"><path fill="#fff" transform="translate(0 .362)" d="M0 0h29v30H0z"/></clipPath></defs></svg>