<svg width="50" height="51" fill="none" xmlns="http://www.w3.org/2000/svg"><g clip-path="url(#a)" fill="#7791B8"><path d="M11.528 30.962v-.107a20.639 20.639 0 0 1 0-9.78v-.107c2.306-9.91 11.307-17.494 22.323-18.353A24.81 24.81 0 0 0 25 .965C11.219.965.006 12.18.006 25.965s11.213 25 24.994 25c3.118 0 6.092-.6 8.848-1.65-11.013-.856-20.014-8.444-22.32-18.353Z"/><path d="M40.006 6.018a23.59 23.59 0 0 0-4.071-.366A22.954 22.954 0 0 0 24.25 8.824c.25-.015.497-.047.75-.047 7.764 0 14.059 7.694 14.059 17.188s-6.295 17.187-14.06 17.187c-.252 0-.5-.03-.749-.047a22.946 22.946 0 0 0 11.685 3.172c1.39 0 2.75-.134 4.07-.365 6.052-4.569 9.989-11.797 9.989-19.947 0-8.15-3.937-15.378-9.988-19.947Z"/></g><defs><clipPath id="a"><path fill="#fff" transform="translate(.006 .965)" d="M0 0h49.988v50H0z"/></clipPath></defs></svg>