<svg width="16" height="16" fill="none" xmlns="http://www.w3.org/2000/svg"><path fill-rule="evenodd" clip-rule="evenodd" d="M10.75 7.574a4.287 4.287 0 0 0 1.304-3.1c0-2.33-1.815-4.22-4.053-4.22-2.239 0-4.054 1.89-4.054 4.22a4.29 4.29 0 0 0 1.305 3.1 7.532 7.532 0 0 0-2.597 1.803C1.458 10.65.705 12.303.498 14.07c-.063.545.387.99.935.99s.984-.446 1.07-.988a6.061 6.061 0 0 1 1.555-3.202C5.104 9.758 6.521 9.134 8 9.134c1.478 0 2.896.624 3.942 1.735a6.062 6.062 0 0 1 1.555 3.202c.086.542.522.989 1.07.989s.998-.446.935-.99c-.207-1.767-.96-3.42-2.157-4.693a7.532 7.532 0 0 0-2.596-1.803ZM8 7.004c-1.342 0-2.431-1.133-2.431-2.53 0-1.398 1.089-2.532 2.432-2.532s2.432 1.134 2.432 2.531c0 1.398-1.089 2.532-2.432 2.532Z" fill="#87AB49"/></svg>