<svg width="110" height="33" fill="none" xmlns="http://www.w3.org/2000/svg"><path d="M47.92 18.427h-4.654l-.888 2.152H40l4.469-10.044h2.291l4.483 10.044H48.81l-.889-2.152Zm-.73-1.765-1.59-3.846-1.59 3.846h3.18Zm9.49-3.918a3.84 3.84 0 0 1 1.949.503 3.476 3.476 0 0 1 1.389 1.391c.334.594.501 1.287.501 2.081s-.167 1.492-.501 2.095a3.602 3.602 0 0 1-1.39 1.392 3.927 3.927 0 0 1-1.947.488c-.984 0-1.757-.311-2.32-.933v3.602h-2.235V12.859h2.134v.89c.554-.67 1.36-1.005 2.42-1.005Zm-.386 6.113c.573 0 1.04-.191 1.404-.574.372-.392.558-.914.558-1.564s-.186-1.167-.558-1.55c-.363-.392-.831-.588-1.404-.588s-1.045.196-1.418.588c-.363.383-.544.9-.544 1.55s.181 1.172.544 1.564c.373.383.845.574 1.418.574Zm10.276-6.113c.716 0 1.365.168 1.948.503a3.476 3.476 0 0 1 1.389 1.391c.334.594.501 1.287.501 2.081s-.167 1.492-.501 2.095a3.602 3.602 0 0 1-1.39 1.392 3.927 3.927 0 0 1-1.947.488c-.984 0-1.757-.311-2.32-.933v3.602h-2.235V12.859h2.134v.89c.554-.67 1.36-1.005 2.42-1.005Zm-.387 6.113c.573 0 1.04-.191 1.404-.574.372-.392.558-.914.558-1.564s-.186-1.167-.558-1.55c-.363-.392-.831-.588-1.404-.588s-1.046.196-1.418.588c-.363.383-.544.9-.544 1.55s.181 1.172.544 1.564c.372.383.845.574 1.418.574Zm9.173 1.894a8.438 8.438 0 0 1-2.306-.316c-.736-.22-1.328-.502-1.776-.846l.787-1.75c.43.315.941.568 1.533.76a5.747 5.747 0 0 0 1.776.287c.659 0 1.146-.096 1.461-.287.315-.201.473-.464.473-.79a.721.721 0 0 0-.287-.588 1.962 1.962 0 0 0-.716-.387 13.44 13.44 0 0 0-1.174-.316 16.308 16.308 0 0 1-1.877-.545 3.103 3.103 0 0 1-1.26-.875c-.344-.402-.516-.938-.516-1.607 0-.584.158-1.11.473-1.579.315-.478.788-.856 1.418-1.133.64-.278 1.418-.416 2.335-.416.64 0 1.265.076 1.876.23a5.535 5.535 0 0 1 1.604.66l-.716 1.764c-.926-.526-1.853-.79-2.779-.79-.65 0-1.131.106-1.447.316-.305.211-.458.488-.458.833 0 .344.177.602.53.775.363.162.912.325 1.647.487.764.182 1.39.364 1.877.546.486.181.902.468 1.246.86.353.393.53.924.53 1.593 0 .574-.163 1.1-.487 1.579-.316.468-.793.841-1.433 1.119-.64.277-1.418.416-2.334.416Zm10.652-.545a2.4 2.4 0 0 1-.817.373c-.315.076-.65.115-1.002.115-.917 0-1.628-.235-2.135-.703-.496-.47-.744-1.158-.744-2.067v-3.17h-1.19V13.03h1.19v-1.88h2.234v1.88h1.92v1.722h-1.92v3.143c0 .325.081.578.243.76.172.172.411.258.717.258.353 0 .654-.095.902-.287l.602 1.579Zm4.682.488c-.811 0-1.541-.168-2.19-.503a3.845 3.845 0 0 1-1.505-1.42c-.363-.603-.544-1.287-.544-2.052 0-.765.181-1.45.544-2.052a3.744 3.744 0 0 1 1.504-1.406c.65-.344 1.38-.517 2.192-.517.811 0 1.537.173 2.177.517.64.335 1.14.804 1.504 1.406.362.603.544 1.287.544 2.052 0 .765-.181 1.45-.544 2.052a3.846 3.846 0 0 1-1.504 1.42c-.64.335-1.366.503-2.177.503Zm0-1.837c.574 0 1.041-.191 1.404-.574.373-.392.559-.914.559-1.564s-.186-1.167-.559-1.55c-.362-.392-.83-.588-1.403-.588-.573 0-1.046.196-1.418.588-.373.383-.559.9-.559 1.55s.186 1.172.559 1.564c.372.383.845.574 1.418.574Zm7.853-4.979a2.492 2.492 0 0 1 1.075-.847c.458-.191.983-.287 1.575-.287v2.067a8.057 8.057 0 0 0-.501-.03c-.64 0-1.141.183-1.504.546-.363.354-.544.89-.544 1.607v3.645h-2.235v-7.72h2.134v1.019ZM110 16.748c0 .028-.014.23-.043.602h-5.829c.105.479.353.856.744 1.134.392.277.879.416 1.461.416.401 0 .755-.057 1.06-.172.315-.125.607-.316.874-.574l1.189 1.291c-.726.832-1.786 1.249-3.18 1.249-.869 0-1.638-.168-2.306-.503-.668-.344-1.184-.817-1.547-1.42s-.544-1.287-.544-2.052c0-.756.177-1.435.53-2.038a3.762 3.762 0 0 1 1.475-1.42 4.319 4.319 0 0 1 2.106-.517c.754 0 1.437.163 2.048.488a3.5 3.5 0 0 1 1.432 1.406c.353.603.53 1.306.53 2.11Zm-3.996-2.31c-.506 0-.931.143-1.275.43-.344.287-.554.68-.63 1.177h3.796c-.077-.488-.287-.876-.631-1.163-.343-.296-.764-.444-1.26-.444Z" fill="#5A78A6"/><g clip-path="url(#a)"><path d="M25.53.652H6.954A6.294 6.294 0 0 0 .658 6.949v18.585a6.293 6.293 0 0 0 6.296 6.293h18.58a6.297 6.297 0 0 0 6.296-6.297V6.95a6.3 6.3 0 0 0-6.3-6.298Z" fill="url(#b)"/><path d="m16.11 7.814.63-1.09a1.42 1.42 0 1 1 2.463 1.418l-6.082 10.53h4.399c1.425 0 2.224 1.675 1.605 2.836H6.229A1.414 1.414 0 0 1 4.81 20.09c0-.788.631-1.419 1.418-1.419h3.615l4.629-8.024-1.446-2.51A1.422 1.422 0 0 1 15.49 6.72l.62 1.095ZM10.64 22.97l-1.364 2.365a1.42 1.42 0 1 1-2.463-1.419l1.013-1.753c1.146-.355 2.077-.082 2.813.806Z" fill="#fff"/><path d="M22.382 18.679h3.69c.786 0 1.417.631 1.417 1.419 0 .787-.63 1.418-1.418 1.418h-2.05l1.384 2.4a1.422 1.422 0 0 1-2.462 1.419c-2.33-4.041-4.08-7.065-5.24-9.08-1.189-2.05-.34-4.107.498-4.805.931 1.598 2.322 4.01 4.18 7.229Z" fill="#fff"/></g><defs><linearGradient id="b" x1="16.244" y1=".652" x2="16.244" y2="31.827" gradientUnits="userSpaceOnUse"><stop stop-color="#00BFFC"/><stop offset="1" stop-color="#0073F6"/></linearGradient><clipPath id="a"><path fill="#fff" transform="translate(.658 .65)" d="M0 0h31.172v31.18H0z"/></clipPath></defs></svg>