<svg width="50" height="51" fill="none" xmlns="http://www.w3.org/2000/svg"><g clip-path="url(#a)"><path d="M45.026 41.11c-1.466-.6-2.093-1.397-2.033-2.586.063-1.388-.725-2.404-1.099-2.806.226-.863.887-3.848.001-6.441-.951-2.775-3.856-7.014-6.854-11.181-1.227-1.711-1.285-3.571-1.352-5.725-.064-2.054-.137-4.383-1.282-6.971C31.16 2.58 28.662.965 25.549.965c-1.851 0-3.752.579-5.215 1.587-2.995 2.067-2.599 6.574-2.337 9.556.036.409.07.794.09 1.124.174 2.92.015 4.46-.192 4.928-.135.305-.796 1.176-1.495 2.097-.724.953-1.544 2.033-2.216 3.04-.802 1.21-1.45 3.061-2.076 4.851-.458 1.31-.891 2.547-1.312 3.287a4.475 4.475 0 0 0-.434 3.361c-.303.21-.74.623-1.108 1.403-.445.95-1.35 1.462-3.23 1.823-.864.177-1.46.54-1.77 1.08-.454.785-.207 1.772.018 2.447.333.991.125 1.619-.252 2.758-.086.263-.185.56-.285.889-.157.518-.1.99.168 1.4.71 1.086 2.782 1.469 4.915 1.72 1.274.151 2.667.66 4.015 1.154 1.321.482 2.687.981 3.928 1.133.189.024.376.036.556.036 1.875 0 2.721-1.244 2.99-1.755.673-.138 2.995-.578 5.389-.636 2.39-.069 4.701.403 5.356.55.206.394.749 1.294 1.614 1.758.476.26 1.137.409 1.815.409.724 0 2.102-.171 3.192-1.318 1.087-1.152 3.803-2.623 5.787-3.697.443-.24.857-.464 1.22-.666 1.114-.618 1.722-1.5 1.668-2.422-.045-.765-.552-1.436-1.322-1.751Zm-24.666-.22c-.139-.977-1.396-1.946-2.851-3.068-1.19-.918-2.54-1.958-2.911-2.838-.768-1.817-.163-5.011.893-6.656.521-.824.947-2.073 1.36-3.28.444-1.305.905-2.654 1.42-3.244.814-.922 1.567-2.715 1.7-4.128.764.728 1.948 1.653 3.041 1.653.169 0 .332-.022.488-.066.748-.216 1.849-.852 2.913-1.467.918-.53 2.05-1.184 2.475-1.244.73 1.049 4.972 10.436 5.405 13.45a14.287 14.287 0 0 1-.201 5.13 3.774 3.774 0 0 0-.505-.036c-1.182 0-1.494.645-1.576 1.03-.21 1-.231 4.2-.234 4.918-.427.543-2.587 3.099-5.69 3.559a24.633 24.633 0 0 1-3.506.276c-.909 0-1.489-.07-1.73-.106l-1.558-1.784c.614-.303 1.229-.944 1.067-2.1Zm1.978-29.408a2.539 2.539 0 0 0-.144.068 2.887 2.887 0 0 0-.033-.32c-.17-.98-.82-1.691-1.544-1.691a1.09 1.09 0 0 0-.166.013c-.431.072-.77.396-.955.855.163-1.007.733-1.753 1.41-1.753.796 0 1.467 1.071 1.467 2.34 0 .16-.011.318-.035.488Zm6.178.755a2.5 2.5 0 0 0 .112-.743c0-1.15-.73-2.05-1.661-2.05-.91 0-1.65.92-1.65 2.05 0 .077.003.155.01.232a25.472 25.472 0 0 0-.14-.054 3.134 3.134 0 0 1-.159-.986c0-1.375.88-2.494 1.96-2.494s1.959 1.119 1.959 2.494c0 .572-.158 1.118-.431 1.551Zm-.797 2.676c-.015.07-.049.1-.415.291a11.18 11.18 0 0 0-.703.392l-.192.116c-.774.47-2.585 1.567-3.077 1.632-.333.045-.54-.085-1.004-.4a13.922 13.922 0 0 0-.336-.224c-.837-.549-1.375-1.154-1.436-1.39.273-.212.95-.74 1.296-1.052.703-.654 1.41-1.093 1.76-1.093.02 0 .036 0 .053.004.412.073 1.427.478 2.168.774.343.136.639.254.847.33.656.224.998.513 1.04.62Zm5.893 30.553c.37-1.669.796-3.94.727-5.278-.016-.304-.043-.635-.069-.955-.048-.598-.12-1.488-.046-1.752a.318.318 0 0 1 .05-.017c.002.765.169 2.291 1.39 2.824a3.08 3.08 0 0 0 1.235.239c1.223 0 2.58-.6 3.135-1.156.328-.327.603-.727.795-1.045.043.124.069.285.055.493-.073 1.129.476 2.626 1.52 3.178l.152.08c.372.195 1.36.713 1.375.96 0 0-.008.028-.063.08-.248.226-1.118.67-1.96 1.1-1.494.763-3.187 1.627-3.947 2.427-1.07 1.126-2.282 1.883-3.013 1.883a.793.793 0 0 1-.24-.034c-.793-.247-1.447-1.393-1.096-3.027ZM6.544 41.207c-.081-.379-.145-.678-.077-.968.05-.215 1.11-.445 1.563-.543.637-.138 1.295-.28 1.726-.542.582-.353.897-1.003 1.175-1.577.201-.415.41-.844.657-.985a.14.14 0 0 1 .075-.017c.464 0 1.436.974 1.997 1.846.142.22.405.66.71 1.17.91 1.524 2.158 3.612 2.81 4.312.587.629 1.537 1.838 1.303 2.875-.171.805-1.082 1.46-1.297 1.604a1.33 1.33 0 0 1-.288.027c-1.247 0-3.715-1.037-5.041-1.595l-.197-.082c-.74-.31-1.949-.506-3.118-.695-.93-.151-2.204-.357-2.415-.543-.171-.192.027-.816.202-1.367.126-.396.257-.805.328-1.233.101-.684-.018-1.24-.113-1.687Z" fill="#1C2129"/></g><defs><clipPath id="a"><path fill="#fff" transform="translate(0 .965)" d="M0 0h50v50H0z"/></clipPath></defs></svg>