<svg width="73" height="26" fill="none" xmlns="http://www.w3.org/2000/svg"><path d="M23.564 18.737a9.172 9.172 0 0 1-1.03.46 9.947 9.947 0 0 1-3.506.631c-4.62 0-8.646-3.179-8.646-7.258a3.075 3.075 0 0 1 1.604-2.667c-4.18.176-5.254 4.532-5.254 7.083 0 7.215 6.65 7.947 8.083 7.947.772 0 1.937-.225 2.636-.446l.128-.043a12.533 12.533 0 0 0 6.504-5.156.391.391 0 0 0-.52-.55Z" fill="url(#a)"/><path opacity=".35" d="M23.564 18.737a9.172 9.172 0 0 1-1.03.46 9.947 9.947 0 0 1-3.506.631c-4.62 0-8.646-3.179-8.646-7.258a3.075 3.075 0 0 1 1.604-2.667c-4.18.176-5.254 4.532-5.254 7.083 0 7.215 6.65 7.947 8.083 7.947.772 0 1.937-.225 2.636-.446l.128-.043a12.533 12.533 0 0 0 6.504-5.156.391.391 0 0 0-.52-.55Z" fill="url(#b)"/><path d="M11.323 23.706a7.736 7.736 0 0 1-2.22-2.084 7.884 7.884 0 0 1 2.883-11.719c.305-.143.825-.403 1.518-.39a3.159 3.159 0 0 1 2.509 1.27 3.11 3.11 0 0 1 .62 1.822c0-.021 2.39-7.774-7.812-7.774-4.287 0-7.812 4.068-7.812 7.638a12.71 12.71 0 0 0 1.182 5.469 12.5 12.5 0 0 0 15.272 6.553 7.377 7.377 0 0 1-6.13-.781l-.01-.004Z" fill="url(#c)"/><path opacity=".41" d="M11.323 23.706a7.736 7.736 0 0 1-2.22-2.084 7.884 7.884 0 0 1 2.883-11.719c.305-.143.825-.403 1.518-.39a3.159 3.159 0 0 1 2.509 1.27 3.11 3.11 0 0 1 .62 1.822c0-.021 2.39-7.774-7.812-7.774-4.287 0-7.812 4.068-7.812 7.638a12.71 12.71 0 0 0 1.182 5.469 12.5 12.5 0 0 0 15.272 6.553 7.377 7.377 0 0 1-6.13-.781l-.01-.004Z" fill="url(#d)"/><path d="M15.874 14.667c-.08.103-.322.244-.322.553 0 .255.166.5.46.706 1.405.976 4.052.847 4.06.847a5.817 5.817 0 0 0 2.955-.815A5.993 5.993 0 0 0 26 10.794c.025-2.189-.781-3.644-1.107-4.288C22.822 2.458 18.355.13 13.498.13a12.5 12.5 0 0 0-12.5 12.324c.047-3.568 3.594-6.45 7.813-6.45.341 0 2.29.033 4.101.983 1.596.838 2.432 1.85 3.013 2.853.603 1.042.71 2.358.71 2.883 0 .524-.267 1.301-.761 1.944Z" fill="url(#e)"/><path d="M15.874 14.667c-.08.103-.322.244-.322.553 0 .255.166.5.46.706 1.405.976 4.052.847 4.06.847a5.817 5.817 0 0 0 2.955-.815A5.993 5.993 0 0 0 26 10.794c.025-2.189-.781-3.644-1.107-4.288C22.822 2.458 18.355.13 13.498.13a12.5 12.5 0 0 0-12.5 12.324c.047-3.568 3.594-6.45 7.813-6.45.341 0 2.29.033 4.101.983 1.596.838 2.432 1.85 3.013 2.853.603 1.042.71 2.358.71 2.883 0 .524-.267 1.301-.761 1.944Z" fill="url(#f)"/><path d="M38.416 16.042v-2.268h4.55V12.01h-4.55V9.882h5.152v-1.82h-7.406v9.8h7.588v-1.82h-5.334Zm12.418-8.568v3.654c-.546-.616-1.33-.91-2.254-.91-2.128 0-3.766 1.512-3.766 3.878s1.638 3.878 3.766 3.878c1.008 0 1.806-.322 2.352-.98v.868h2.086V7.474h-2.184Zm-1.876 8.708c-1.092 0-1.932-.784-1.932-2.086 0-1.302.84-2.086 1.932-2.086 1.078 0 1.918.784 1.918 2.086 0 1.302-.84 2.086-1.918 2.086Zm11.78-5.852v.966c-.575-.728-1.443-1.078-2.493-1.078-2.086 0-3.766 1.442-3.766 3.64 0 2.198 1.68 3.64 3.766 3.64.98 0 1.806-.308 2.38-.938v.322c0 1.358-.672 2.058-2.212 2.058-.966 0-2.016-.336-2.66-.854l-.868 1.568c.882.686 2.268 1.036 3.696 1.036 2.716 0 4.228-1.288 4.228-4.088V10.33h-2.072Zm-2.059 5.376c-1.148 0-1.988-.742-1.988-1.848s.84-1.848 1.988-1.848c1.148 0 1.974.742 1.974 1.848s-.826 1.848-1.974 1.848Zm13.541-1.582c0-2.422-1.708-3.906-3.92-3.906-2.296 0-4.018 1.624-4.018 3.878 0 2.24 1.694 3.878 4.298 3.878 1.358 0 2.408-.42 3.108-1.218l-1.162-1.26c-.518.49-1.092.728-1.89.728-1.148 0-1.946-.574-2.156-1.512h5.698c.014-.182.042-.42.042-.588Zm-3.906-2.254c.98 0 1.694.616 1.848 1.568h-3.71c.154-.966.868-1.568 1.862-1.568Z" fill="#5A78A6"/><defs><radialGradient id="b" cx="0" cy="0" r="1" gradientUnits="userSpaceOnUse" gradientTransform="matrix(9.31445 0 0 8.84873 16.352 17.557)"><stop offset=".72" stop-opacity="0"/><stop offset=".95" stop-opacity=".53"/><stop offset="1"/></radialGradient><radialGradient id="d" cx="0" cy="0" r="1" gradientUnits="userSpaceOnUse" gradientTransform="matrix(2.09824 -13.84845 11.1881 1.69516 7.892 19.564)"><stop offset=".76" stop-opacity="0"/><stop offset=".95" stop-opacity=".5"/><stop offset="1"/></radialGradient><radialGradient id="e" cx="0" cy="0" r="1" gradientUnits="userSpaceOnUse" gradientTransform="matrix(-.79074 19.7686 -42.10293 -1.68411 3.524 4.757)"><stop stop-color="#35C1F1"/><stop offset=".11" stop-color="#34C1ED"/><stop offset=".23" stop-color="#2FC2DF"/><stop offset=".31" stop-color="#2BC3D2"/><stop offset=".67" stop-color="#36C752"/></radialGradient><radialGradient id="f" cx="0" cy="0" r="1" gradientUnits="userSpaceOnUse" gradientTransform="matrix(2.66164 9.12563 -7.42095 2.16444 24.443 7.69)"><stop stop-color="#66EB6E"/><stop offset="1" stop-color="#66EB6E" stop-opacity="0"/></radialGradient><linearGradient id="a" x1="6.732" y1="17.42" x2="24.148" y2="17.42" gradientUnits="userSpaceOnUse"><stop stop-color="#0C59A4"/><stop offset="1" stop-color="#114A8B"/></linearGradient><linearGradient id="c" x1="15.914" y1="9.865" x2="5.036" y2="21.714" gradientUnits="userSpaceOnUse"><stop stop-color="#1B9DE2"/><stop offset=".16" stop-color="#1595DF"/><stop offset=".67" stop-color="#0680D7"/><stop offset="1" stop-color="#0078D4"/></linearGradient></defs></svg>