<svg width="354" height="415" fill="none" xmlns="http://www.w3.org/2000/svg"><rect x=".701" y="1.168" width="201" height="413" rx="22" stroke="#879EC1"/><rect x="4.701" y="5.168" width="193" height="404" rx="17" stroke="#879EC1"/><path stroke="#879EC1" d="M10.701 43.168h183v341h-183z"/><rect x="94.701" y="31.168" width="13" height="6" rx="3" stroke="#879EC1"/><rect x="31.701" y="14.168" width="8" height="8" rx="4" stroke="#879EC1"/><rect x="81.701" y="16.168" width="40" height="3" rx="1.5" stroke="#879EC1"/><g filter="url(#a)"><g clip-path="url(#b)"><path d="M54.701 96.168c0-11.046 8.955-20 20-20h128c11.046 0 20 8.954 20 20v240c0 11.046-8.954 20-20 20h-128c-11.045 0-20-8.954-20-20v-240Z" fill="#F1F4FB"/><g filter="url(#c)"><rect x="62.635" y="276.905" width="152.133" height="66.131" rx="8" fill="#fff"/><path d="M90.082 313.136c-.014-1.37 1.162-2.026 1.214-2.059-.66-.928-1.688-1.056-2.056-1.07-.874-.086-1.707.495-2.152.495-.443 0-1.129-.483-1.854-.471a2.77 2.77 0 0 0-2.326 1.355c-.991 1.655-.254 4.106.712 5.449.472.657 1.036 1.394 1.775 1.368.712-.027.98-.443 1.842-.443.86 0 1.102.443 1.855.43.767-.014 1.251-.67 1.72-1.328.542-.762.765-1.501.779-1.538-.018-.009-1.493-.552-1.508-2.188Zm-1.417-4.019c.392-.456.658-1.093.585-1.726-.566.022-1.25.361-1.656.818-.364.405-.68 1.052-.596 1.673.63.048 1.276-.309 1.667-.765Zm37.924 5.553-1.282-1.212-4.705 4.461 5.987-3.249Zm0-3.299-5.987-3.249 4.705 4.461 1.282-1.212Zm1.877 2.262c.383-.288.383-.937-.026-1.225l-1.256-.687-1.401 1.3 1.401 1.3 1.282-.688Zm-9.091 4.546 5.471-5.16-5.471-5.158v-.001c-.277.137-.463.387-.463.712v8.895c0 .325.186.574.463.712Zm31.545-31.867h1.491v1.434h-1.491v-1.434Zm1.491 0h1.49v1.434h-1.49v-1.434Zm1.49 0h1.491v1.434h-1.491v-1.434Zm1.491 0h1.491v1.434h-1.491v-1.434Zm1.491 0h1.49v1.434h-1.49v-1.434Zm1.49 0h1.491v1.434h-1.491v-1.434Zm1.491 0h1.491v1.434h-1.491v-1.434Zm4.472 0h1.491v1.434h-1.491v-1.434Zm1.491 0h1.49v1.434h-1.49v-1.434Zm2.981 0h1.491v1.434h-1.491v-1.434Zm1.491 0h1.49v1.434h-1.49v-1.434Zm1.49 0h1.491v1.434h-1.491v-1.434Zm1.491 0h1.491v1.434h-1.491v-1.434Zm4.472 0h1.491v1.434h-1.491v-1.434Zm1.491 0h1.491v1.434h-1.491v-1.434Zm4.472 0h1.491v1.434h-1.491v-1.434Zm1.491 0h1.49v1.434h-1.49v-1.434Zm4.472 0h1.49v1.434h-1.49v-1.434Zm1.49 0h1.491v1.434h-1.491v-1.434Zm1.491 0h1.491v1.434h-1.491v-1.434Zm1.491 0h1.49v1.434h-1.49v-1.434Zm1.49 0h1.491v1.434h-1.491v-1.434Zm1.491 0h1.491v1.434h-1.491v-1.434Zm1.491 0h1.49v1.434h-1.49v-1.434Zm-47.702 1.434h1.491v1.434h-1.491v-1.434Zm8.944 0h1.491v1.434h-1.491v-1.434Zm2.981 0h1.491v1.434h-1.491v-1.434Zm5.963 0h1.491v1.434h-1.491v-1.434Zm4.472 0h1.491v1.434h-1.491v-1.434Zm2.982 0h1.49v1.434h-1.49v-1.434Zm4.472 0h1.49v1.434h-1.49v-1.434Zm1.49 0h1.491v1.434h-1.491v-1.434Zm1.491 0h1.491v1.434h-1.491v-1.434Zm1.491 0h1.49v1.434h-1.49v-1.434Zm4.472 0h1.49v1.434h-1.49v-1.434Zm8.944 0h1.49v1.434h-1.49v-1.434Zm-47.702 1.434h1.491v1.434h-1.491v-1.434Zm2.981 0h1.491v1.434h-1.491v-1.434Zm1.491 0h1.491v1.434h-1.491v-1.434Zm1.491 0h1.49v1.434h-1.49v-1.434Zm2.981 0h1.491v1.434h-1.491v-1.434Zm2.981 0h1.491v1.434h-1.491v-1.434Zm2.982 0h1.49v1.434h-1.49v-1.434Zm1.49 0h1.491v1.434h-1.491v-1.434Zm2.982 0h1.49v1.434h-1.49v-1.434Zm2.981 0h1.491v1.434h-1.491v-1.434Zm4.472 0h1.491v1.434h-1.491v-1.434Zm1.491 0h1.491v1.434h-1.491v-1.434Zm1.491 0h1.49v1.434h-1.49v-1.434Zm4.472 0h1.49v1.434h-1.49v-1.434Zm1.49 0h1.491v1.434h-1.491v-1.434Zm2.982 0h1.49v1.434h-1.49v-1.434Zm2.981 0h1.491v1.434h-1.491v-1.434Zm1.491 0h1.49v1.434h-1.49v-1.434Zm1.49 0h1.491v1.434h-1.491v-1.434Zm2.982 0h1.49v1.434h-1.49v-1.434Zm-47.702 1.434h1.491v1.434h-1.491v-1.434Zm2.981 0h1.491v1.434h-1.491v-1.434Zm1.491 0h1.491v1.434h-1.491v-1.434Zm1.491 0h1.49v1.434h-1.49v-1.434Zm2.981 0h1.491v1.434h-1.491v-1.434Zm8.944 0h1.491v1.434h-1.491v-1.434Zm1.491 0h1.49v1.434h-1.49v-1.434Zm1.49 0h1.491v1.434h-1.491v-1.434Zm5.963 0h1.491v1.434h-1.491v-1.434Zm5.963 0h1.491v1.434h-1.491v-1.434Zm2.981 0h1.491v1.434h-1.491v-1.434Zm2.982 0h1.49v1.434h-1.49v-1.434Zm2.981 0h1.491v1.434h-1.491v-1.434Zm1.491 0h1.49v1.434h-1.49v-1.434Zm1.49 0h1.491v1.434h-1.491v-1.434Zm2.982 0h1.49v1.434h-1.49v-1.434Zm-47.702 1.434h1.491v1.434h-1.491v-1.434Zm2.981 0h1.491v1.434h-1.491v-1.434Zm1.491 0h1.491v1.434h-1.491v-1.434Zm1.491 0h1.49v1.434h-1.49v-1.434Zm2.981 0h1.491v1.434h-1.491v-1.434Zm5.963 0h1.49v1.434h-1.49v-1.434Zm1.49 0h1.491v1.434h-1.491v-1.434Zm2.982 0h1.49v1.434h-1.49v-1.434Zm2.981 0h1.491v1.434h-1.491v-1.434Zm1.491 0h1.491v1.434h-1.491v-1.434Zm2.981 0h1.491v1.434h-1.491v-1.434Zm5.963 0h1.491v1.434h-1.491v-1.434Zm2.981 0h1.491v1.434h-1.491v-1.434Zm2.982 0h1.49v1.434h-1.49v-1.434Zm2.981 0h1.491v1.434h-1.491v-1.434Zm1.491 0h1.49v1.434h-1.49v-1.434Zm1.49 0h1.491v1.434h-1.491v-1.434Zm2.982 0h1.49v1.434h-1.49v-1.434Zm-47.702 1.434h1.491v1.434h-1.491v-1.434Zm8.944 0h1.491v1.434h-1.491v-1.434Zm5.963 0h1.49v1.434h-1.49v-1.434Zm1.49 0h1.491v1.434h-1.491v-1.434Zm4.472 0h1.491v1.434h-1.491v-1.434Zm4.473 0h1.49v1.434h-1.49v-1.434Zm1.49 0h1.491v1.434h-1.491v-1.434Zm5.963 0h1.491v1.434h-1.491v-1.434Zm5.963 0h1.49v1.434h-1.49v-1.434Zm8.944 0h1.49v1.434h-1.49v-1.434Zm-47.702 1.434h1.491v1.433h-1.491v-1.433Zm1.491 0h1.49v1.433h-1.49v-1.433Zm1.49 0h1.491v1.433h-1.491v-1.433Zm1.491 0h1.491v1.433h-1.491v-1.433Zm1.491 0h1.49v1.433h-1.49v-1.433Zm1.49 0h1.491v1.433h-1.491v-1.433Zm1.491 0h1.491v1.433h-1.491v-1.433Zm2.981 0h1.491v1.433h-1.491v-1.433Zm2.982 0h1.49v1.433h-1.49v-1.433Zm2.981 0h1.491v1.433h-1.491v-1.433Zm2.981 0h1.491v1.433h-1.491v-1.433Zm2.982 0h1.491v1.433h-1.491v-1.433Zm2.981 0h1.491v1.433h-1.491v-1.433Zm2.982 0h1.49v1.433h-1.49v-1.433Zm2.981 0h1.491v1.433h-1.491v-1.433Zm2.981 0h1.491v1.433h-1.491v-1.433Zm2.982 0h1.49v1.433h-1.49v-1.433Zm1.49 0h1.491v1.433h-1.491v-1.433Zm1.491 0h1.491v1.433h-1.491v-1.433Zm1.491 0h1.49v1.433h-1.49v-1.433Zm1.49 0h1.491v1.433h-1.491v-1.433Zm1.491 0h1.491v1.433h-1.491v-1.433Zm1.491 0h1.49v1.433h-1.49v-1.433Zm-29.814 1.433h1.491v1.434h-1.491v-1.434Zm1.491 0h1.49v1.434h-1.49v-1.434Zm1.49 0h1.491v1.434h-1.491v-1.434Zm1.491 0h1.491v1.434h-1.491v-1.434Zm2.982 0h1.49v1.434h-1.49v-1.434Zm2.981 0h1.491v1.434h-1.491v-1.434Zm7.453 0h1.491v1.434h-1.491v-1.434Zm-34.285 1.434h1.49v1.434h-1.49v-1.434Zm1.49 0h1.491v1.434h-1.491v-1.434Zm1.491 0h1.491v1.434h-1.491v-1.434Zm2.981 0h1.491v1.434h-1.491v-1.434Zm1.491 0h1.491v1.434h-1.491v-1.434Zm5.963 0h1.49v1.434h-1.49v-1.434Zm5.962 0h1.491v1.434h-1.491v-1.434Zm1.491 0h1.491v1.434h-1.491v-1.434Zm2.982 0h1.49v1.434h-1.49v-1.434Zm1.49 0h1.491v1.434h-1.491v-1.434Zm2.982 0h1.49v1.434h-1.49v-1.434Zm1.49 0h1.491v1.434h-1.491v-1.434Zm4.472 0h1.491v1.434h-1.491v-1.434Zm8.944 0h1.491v1.434h-1.491v-1.434Zm1.491 0h1.491v1.434h-1.491v-1.434Zm-41.739 1.434h1.491v1.434h-1.491v-1.434Zm1.491 0h1.49v1.434h-1.49v-1.434Zm4.472 0h1.49v1.434h-1.49v-1.434Zm2.981 0h1.491v1.434h-1.491v-1.434Zm5.963 0h1.49v1.434h-1.49v-1.434Zm1.49 0h1.491v1.434h-1.491v-1.434Zm2.982 0h1.491v1.434h-1.491v-1.434Zm1.491 0h1.49v1.434h-1.49v-1.434Zm1.49 0h1.491v1.434h-1.491v-1.434Zm1.491 0h1.491v1.434h-1.491v-1.434Zm1.491 0h1.49v1.434h-1.49v-1.434Zm1.49 0h1.491v1.434h-1.491v-1.434Zm2.982 0h1.49v1.434h-1.49v-1.434Zm4.472 0h1.49v1.434h-1.49v-1.434Zm1.49 0h1.491v1.434h-1.491v-1.434Zm2.982 0h1.49v1.434h-1.49v-1.434Zm1.49 0h1.491v1.434h-1.491v-1.434Zm2.982 0h1.49v1.434h-1.49v-1.434Zm-47.702 1.434h1.491v1.434h-1.491v-1.434Zm1.491 0h1.49v1.434h-1.49v-1.434Zm2.981 0h1.491v1.434h-1.491v-1.434Zm1.491 0h1.49v1.434h-1.49v-1.434Zm1.49 0h1.491v1.434h-1.491v-1.434Zm1.491 0h1.491v1.434h-1.491v-1.434Zm5.963 0h1.49v1.434h-1.49v-1.434Zm1.49 0h1.491v1.434h-1.491v-1.434Zm2.982 0h1.49v1.434h-1.49v-1.434Zm4.472 0h1.491v1.434h-1.491v-1.434Zm2.981 0h1.491v1.434h-1.491v-1.434Zm4.472 0h1.491v1.434h-1.491v-1.434Zm2.982 0h1.49v1.434h-1.49v-1.434Zm1.49 0h1.491v1.434h-1.491v-1.434Zm1.491 0h1.491v1.434h-1.491v-1.434Zm2.981 0h1.491v1.434h-1.491v-1.434Zm1.491 0h1.491v1.434h-1.491v-1.434Zm1.491 0h1.49v1.434h-1.49v-1.434Zm4.472 0h1.49v1.434h-1.49v-1.434Zm-44.721 1.434h1.491v1.434h-1.491v-1.434Zm8.944 0h1.491v1.434h-1.491v-1.434Zm1.491 0h1.491v1.434h-1.491v-1.434Zm1.491 0h1.49v1.434h-1.49v-1.434Zm1.49 0h1.491v1.434h-1.491v-1.434Zm1.491 0h1.491v1.434h-1.491v-1.434Zm1.491 0h1.49v1.434h-1.49v-1.434Zm1.49 0h1.491v1.434h-1.491v-1.434Zm1.491 0h1.491v1.434h-1.491v-1.434Zm2.982 0h1.49v1.434h-1.49v-1.434Zm2.981 0h1.491v1.434h-1.491v-1.434Zm1.491 0h1.49v1.434h-1.49v-1.434Zm2.981 0h1.491v1.434h-1.491v-1.434Zm2.981 0h1.491v1.434h-1.491v-1.434Zm2.982 0h1.49v1.434h-1.49v-1.434Zm1.49 0h1.491v1.434h-1.491v-1.434Zm2.982 0h1.49v1.434h-1.49v-1.434Zm-43.23 1.434h1.491v1.433h-1.491v-1.433Zm1.491 0h1.49v1.433h-1.49v-1.433Zm1.49 0h1.491v1.433h-1.491v-1.433Zm4.472 0h1.491v1.433h-1.491v-1.433Zm1.491 0h1.491v1.433h-1.491v-1.433Zm1.491 0h1.49v1.433h-1.49v-1.433Zm2.981 0h1.491v1.433h-1.491v-1.433Zm1.491 0h1.49v1.433h-1.49v-1.433Zm7.453 0h1.491v1.433h-1.491v-1.433Zm7.454 0h1.49v1.433h-1.49v-1.433Zm2.981 0h1.491v1.433h-1.491v-1.433Zm2.981 0h1.491v1.433h-1.491v-1.433Zm1.491 0h1.491v1.433h-1.491v-1.433Zm2.981 0h1.491v1.433h-1.491v-1.433Zm1.491 0h1.491v1.433h-1.491v-1.433Zm1.491 0h1.49v1.433h-1.49v-1.433Zm2.981 0h1.491v1.433h-1.491v-1.433Zm1.491 0h1.49v1.433h-1.49v-1.433Zm-43.23 1.433h1.491v1.434h-1.491v-1.434Zm2.981 0h1.491v1.434h-1.491v-1.434Zm2.982 0h1.49v1.434h-1.49v-1.434Zm2.981 0h1.491v1.434h-1.491v-1.434Zm1.491 0h1.49v1.434h-1.49v-1.434Zm1.49 0h1.491v1.434h-1.491v-1.434Zm1.491 0h1.491v1.434h-1.491v-1.434Zm2.981 0h1.491v1.434h-1.491v-1.434Zm2.982 0h1.491v1.434h-1.491v-1.434Zm5.963 0h1.49v1.434h-1.49v-1.434Zm1.49 0h1.491v1.434h-1.491v-1.434Zm4.472 0h1.491v1.434h-1.491v-1.434Zm1.491 0h1.491v1.434h-1.491v-1.434Zm7.453 0h1.491v1.434h-1.491v-1.434Zm1.491 0h1.491v1.434h-1.491v-1.434Zm-44.72 1.434h1.49v1.434h-1.49v-1.434Zm1.49 0h1.491v1.434h-1.491v-1.434Zm5.963 0h1.491v1.434h-1.491v-1.434Zm5.963 0h1.49v1.434h-1.49v-1.434Zm2.981 0h1.491v1.434h-1.491v-1.434Zm1.491 0h1.49v1.434h-1.49v-1.434Zm2.981 0h1.491v1.434h-1.491v-1.434Zm2.982 0h1.49v1.434h-1.49v-1.434Zm2.981 0h1.491v1.434h-1.491v-1.434Zm1.491 0h1.49v1.434h-1.49v-1.434Zm1.49 0h1.491v1.434h-1.491v-1.434Zm7.454 0h1.49v1.434h-1.49v-1.434Zm1.49 0h1.491v1.434h-1.491v-1.434Zm2.982 0h1.49v1.434h-1.49v-1.434Zm1.49 0h1.491v1.434h-1.491v-1.434Zm-44.72 1.434h1.491v1.434h-1.491v-1.434Zm4.472 0h1.491v1.434h-1.491v-1.434Zm7.453 0h1.491v1.434h-1.491v-1.434Zm2.982 0h1.49v1.434h-1.49v-1.434Zm4.472 0h1.49v1.434h-1.49v-1.434Zm1.49 0h1.491v1.434h-1.491v-1.434Zm2.982 0h1.491v1.434h-1.491v-1.434Zm1.491 0h1.49v1.434h-1.49v-1.434Zm1.49 0h1.491v1.434h-1.491v-1.434Zm4.472 0h1.491v1.434h-1.491v-1.434Zm5.963 0h1.491v1.434h-1.491v-1.434Zm1.491 0h1.49v1.434h-1.49v-1.434Zm1.49 0h1.491v1.434h-1.491v-1.434Zm1.491 0h1.491v1.434h-1.491v-1.434Zm1.491 0h1.49v1.434h-1.49v-1.434Zm1.49 0h1.491v1.434h-1.491v-1.434Zm-43.229 1.434h1.49v1.434h-1.49v-1.434Zm1.49 0h1.491v1.434h-1.491v-1.434Zm1.491 0h1.491v1.434h-1.491v-1.434Zm2.981 0h1.491v1.434h-1.491v-1.434Zm1.491 0h1.491v1.434h-1.491v-1.434Zm1.491 0h1.49v1.434h-1.49v-1.434Zm1.49 0h1.491v1.434h-1.491v-1.434Zm1.491 0h1.491v1.434h-1.491v-1.434Zm1.491 0h1.49v1.434h-1.49v-1.434Zm1.49 0h1.491v1.434h-1.491v-1.434Zm1.491 0h1.491v1.434h-1.491v-1.434Zm1.491 0h1.49v1.434h-1.49v-1.434Zm2.981 0h1.491v1.434h-1.491v-1.434Zm1.491 0h1.491v1.434h-1.491v-1.434Zm5.963 0h1.49v1.434h-1.49v-1.434Zm1.49 0h1.491v1.434h-1.491v-1.434Zm1.491 0h1.491v1.434h-1.491v-1.434Zm1.491 0h1.49v1.434h-1.49v-1.434Zm2.981 0h1.491v1.434h-1.491v-1.434Zm1.491 0h1.49v1.434h-1.49v-1.434Zm2.981 0h1.491v1.434h-1.491v-1.434Zm1.491 0h1.49v1.434h-1.49v-1.434Zm1.49 0h1.491v1.434h-1.491v-1.434Zm-44.72 1.434h1.491v1.434h-1.491v-1.434Zm1.491 0h1.49v1.434h-1.49v-1.434Zm2.981 0h1.491v1.434h-1.491v-1.434Zm1.491 0h1.49v1.434h-1.49v-1.434Zm1.49 0h1.491v1.434h-1.491v-1.434Zm7.454 0h1.49v1.434h-1.49v-1.434Zm7.453 0h1.491v1.434h-1.491v-1.434Zm2.982 0h1.49v1.434h-1.49v-1.434Zm1.49 0h1.491v1.434h-1.491v-1.434Zm2.982 0h1.49v1.434h-1.49v-1.434Zm1.49 0h1.491v1.434h-1.491v-1.434Zm2.982 0h1.49v1.434h-1.49v-1.434Zm1.49 0h1.491v1.434h-1.491v-1.434Zm1.491 0h1.491v1.434h-1.491v-1.434Zm1.491 0h1.49v1.434h-1.49v-1.434Zm2.981 0h1.491v1.434h-1.491v-1.434Zm1.491 0h1.49v1.434h-1.49v-1.434Zm2.981 0h1.491v1.434h-1.491v-1.434Zm1.491 0h1.49v1.434h-1.49v-1.434Zm-47.702 1.434h1.491v1.433h-1.491v-1.433Zm1.491 0h1.49v1.433h-1.49v-1.433Zm1.49 0h1.491v1.433h-1.491v-1.433Zm1.491 0h1.491v1.433h-1.491v-1.433Zm2.981 0h1.491v1.433h-1.491v-1.433Zm1.491 0h1.491v1.433h-1.491v-1.433Zm8.944 0h1.491v1.433h-1.491v-1.433Zm2.981 0h1.491v1.433h-1.491v-1.433Zm1.491 0h1.491v1.433h-1.491v-1.433Zm1.491 0h1.491v1.433h-1.491v-1.433Zm1.491 0h1.49v1.433h-1.49v-1.433Zm5.962 0h1.491v1.433h-1.491v-1.433Zm1.491 0h1.491v1.433h-1.491v-1.433Zm7.453 0h1.491v1.433h-1.491v-1.433Zm1.491 0h1.491v1.433h-1.491v-1.433Zm2.981 0h1.491v1.433h-1.491v-1.433Zm1.491 0h1.491v1.433h-1.491v-1.433Zm-46.211 1.433h1.491v1.434h-1.491v-1.434Zm1.491 0h1.49v1.434h-1.49v-1.434Zm2.981 0h1.491v1.434h-1.491v-1.434Zm1.491 0h1.49v1.434h-1.49v-1.434Zm4.472 0h1.49v1.434h-1.49v-1.434Zm1.49 0h1.491v1.434h-1.491v-1.434Zm2.982 0h1.49v1.434h-1.49v-1.434Zm1.49 0h1.491v1.434h-1.491v-1.434Zm1.491 0h1.491v1.434h-1.491v-1.434Zm2.981 0h1.491v1.434h-1.491v-1.434Zm1.491 0h1.491v1.434h-1.491v-1.434Zm2.982 0h1.49v1.434h-1.49v-1.434Zm1.49 0h1.491v1.434h-1.491v-1.434Zm1.491 0h1.491v1.434h-1.491v-1.434Zm4.472 0h1.491v1.434h-1.491v-1.434Zm1.491 0h1.49v1.434h-1.49v-1.434Zm1.49 0h1.491v1.434h-1.491v-1.434Zm2.982 0h1.49v1.434h-1.49v-1.434Zm2.981 0h1.491v1.434h-1.491v-1.434Zm4.472 0h1.491v1.434h-1.491v-1.434Zm-44.72 1.434h1.49v1.434h-1.49v-1.434Zm2.981 0h1.491v1.434h-1.491v-1.434Zm4.472 0h1.491v1.434h-1.491v-1.434Zm4.472 0h1.491v1.434h-1.491v-1.434Zm7.453 0h1.491v1.434h-1.491v-1.434Zm4.473 0h1.49v1.434h-1.49v-1.434Zm7.453 0h1.491v1.434h-1.491v-1.434Zm2.981 0h1.491v1.434h-1.491v-1.434Zm7.454 0h1.49v1.434h-1.49v-1.434Zm1.49 0h1.491v1.434h-1.491v-1.434Zm2.982 0h1.49v1.434h-1.49v-1.434Zm-47.702 1.434h1.491v1.434h-1.491v-1.434Zm4.472 0h1.491v1.434h-1.491v-1.434Zm1.491 0h1.49v1.434h-1.49v-1.434Zm4.472 0h1.49v1.434h-1.49v-1.434Zm1.49 0h1.491v1.434h-1.491v-1.434Zm5.963 0h1.491v1.434h-1.491v-1.434Zm1.491 0h1.49v1.434h-1.49v-1.434Zm10.435 0h1.49v1.434h-1.49v-1.434Zm1.49 0h1.491v1.434h-1.491v-1.434Zm2.982 0h1.49v1.434h-1.49v-1.434Zm4.472 0h1.49v1.434h-1.49v-1.434Zm4.472 0h1.49v1.434h-1.49v-1.434Zm4.472 0h1.49v1.434h-1.49v-1.434Zm-44.721 1.434h1.491v1.434h-1.491v-1.434Zm1.491 0h1.491v1.434h-1.491v-1.434Zm4.472 0h1.491v1.434h-1.491v-1.434Zm1.491 0h1.49v1.434h-1.49v-1.434Zm8.944 0h1.49v1.434h-1.49v-1.434Zm2.981 0h1.491v1.434h-1.491v-1.434Zm5.963 0h1.491v1.434h-1.491v-1.434Zm1.491 0h1.49v1.434h-1.49v-1.434Zm4.472 0h1.49v1.434h-1.49v-1.434Zm1.49 0h1.491v1.434h-1.491v-1.434Zm1.491 0h1.491v1.434h-1.491v-1.434Zm1.491 0h1.49v1.434h-1.49v-1.434Zm2.981 0h1.491v1.434h-1.491v-1.434Zm1.491 0h1.49v1.434h-1.49v-1.434Zm2.981 0h1.491v1.434h-1.491v-1.434Zm1.491 0h1.49v1.434h-1.49v-1.434Zm-46.211 1.434h1.49v1.434h-1.49v-1.434Zm2.981 0h1.491v1.434h-1.491v-1.434Zm1.491 0h1.49v1.434h-1.49v-1.434Zm1.49 0h1.491v1.434h-1.491v-1.434Zm5.963 0h1.491v1.434h-1.491v-1.434Zm1.491 0h1.49v1.434h-1.49v-1.434Zm1.49 0h1.491v1.434h-1.491v-1.434Zm4.472 0h1.491v1.434h-1.491v-1.434Zm5.963 0h1.491v1.434h-1.491v-1.434Zm2.982 0h1.49v1.434h-1.49v-1.434Zm2.981 0h1.491v1.434h-1.491v-1.434Zm4.472 0h1.491v1.434h-1.491v-1.434Zm1.491 0h1.49v1.434h-1.49v-1.434Zm1.49 0h1.491v1.434h-1.491v-1.434Zm2.982 0h1.49v1.434h-1.49v-1.434Zm4.472 0h1.49v1.434h-1.49v-1.434Zm-47.702 1.434h1.491v1.433h-1.491v-1.433Zm4.472 0h1.491v1.433h-1.491v-1.433Zm1.491 0h1.49v1.433h-1.49v-1.433Zm1.49 0h1.491v1.433h-1.491v-1.433Zm1.491 0h1.491v1.433h-1.491v-1.433Zm2.981 0h1.491v1.433h-1.491v-1.433Zm2.982 0h1.49v1.433h-1.49v-1.433Zm5.962 0h1.491v1.433h-1.491v-1.433Zm1.491 0h1.491v1.433h-1.491v-1.433Zm1.491 0h1.491v1.433h-1.491v-1.433Zm1.491 0h1.49v1.433h-1.49v-1.433Zm1.49 0h1.491v1.433h-1.491v-1.433Zm1.491 0h1.491v1.433h-1.491v-1.433Zm4.472 0h1.491v1.433h-1.491v-1.433Zm2.981 0h1.491v1.433h-1.491v-1.433Zm1.491 0h1.491v1.433h-1.491v-1.433Zm1.491 0h1.49v1.433h-1.49v-1.433Zm1.49 0h1.491v1.433h-1.491v-1.433Zm1.491 0h1.491v1.433h-1.491v-1.433Zm4.472 0h1.491v1.433h-1.491v-1.433Zm-34.286 1.433h1.491v1.434h-1.491v-1.434Zm1.491 0h1.491v1.434h-1.491v-1.434Zm8.944 0h1.491v1.434h-1.491v-1.434Zm2.982 0h1.49v1.434h-1.49v-1.434Zm2.981 0h1.491v1.434h-1.491v-1.434Zm2.981 0h1.491v1.434h-1.491v-1.434Zm2.982 0h1.49v1.434h-1.49v-1.434Zm1.49 0h1.491v1.434h-1.491v-1.434Zm5.963 0h1.491v1.434h-1.491v-1.434Zm1.491 0h1.49v1.434h-1.49v-1.434Zm-43.23 1.434h1.491v1.434h-1.491v-1.434Zm1.491 0h1.49v1.434h-1.49v-1.434Zm1.49 0h1.491v1.434h-1.491v-1.434Zm1.491 0h1.491v1.434h-1.491v-1.434Zm1.491 0h1.49v1.434h-1.49v-1.434Zm1.49 0h1.491v1.434h-1.491v-1.434Zm1.491 0h1.491v1.434h-1.491v-1.434Zm8.944 0h1.491v1.434h-1.491v-1.434Zm1.491 0h1.49v1.434h-1.49v-1.434Zm1.49 0h1.491v1.434h-1.491v-1.434Zm7.454 0h1.491v1.434h-1.491v-1.434Zm1.491 0h1.49v1.434h-1.49v-1.434Zm1.49 0h1.491v1.434h-1.491v-1.434Zm2.982 0h1.49v1.434h-1.49v-1.434Zm1.49 0h1.491v1.434h-1.491v-1.434Zm2.982 0h1.49v1.434h-1.49v-1.434Zm2.981 0h1.491v1.434h-1.491v-1.434Zm-41.739 1.434h1.491v1.434h-1.491v-1.434Zm8.944 0h1.491v1.434h-1.491v-1.434Zm2.981 0h1.491v1.434h-1.491v-1.434Zm1.491 0h1.491v1.434h-1.491v-1.434Zm1.491 0h1.49v1.434h-1.49v-1.434Zm2.981 0h1.491v1.434h-1.491v-1.434Zm5.963 0h1.491v1.434h-1.491v-1.434Zm10.435 0h1.49v1.434h-1.49v-1.434Zm1.49 0h1.491v1.434h-1.491v-1.434Zm5.963 0h1.491v1.434h-1.491v-1.434Zm1.491 0h1.49v1.434h-1.49v-1.434Zm1.49 0h1.491v1.434h-1.491v-1.434Zm1.491 0h1.491v1.434h-1.491v-1.434Zm1.491 0h1.49v1.434h-1.49v-1.434Zm-47.702 1.434h1.491v1.434h-1.491v-1.434Zm2.981 0h1.491v1.434h-1.491v-1.434Zm1.491 0h1.491v1.434h-1.491v-1.434Zm1.491 0h1.49v1.434h-1.49v-1.434Zm2.981 0h1.491v1.434h-1.491v-1.434Zm10.435 0h1.49v1.434h-1.49v-1.434Zm1.49 0h1.491v1.434h-1.491v-1.434Zm11.926 0h1.491v1.434h-1.491v-1.434Zm1.491 0h1.49v1.434h-1.49v-1.434Zm1.49 0h1.491v1.434h-1.491v-1.434Zm1.491 0h1.491v1.434h-1.491v-1.434Zm1.491 0h1.49v1.434h-1.49v-1.434Zm1.49 0h1.491v1.434h-1.491v-1.434Zm1.491 0h1.491v1.434h-1.491v-1.434Zm2.981 0h1.491v1.434h-1.491v-1.434Zm2.982 0h1.49v1.434h-1.49v-1.434Zm-47.702 1.434h1.491v1.434h-1.491v-1.434Zm2.981 0h1.491v1.434h-1.491v-1.434Zm1.491 0h1.491v1.434h-1.491v-1.434Zm1.491 0h1.49v1.434h-1.49v-1.434Zm2.981 0h1.491v1.434h-1.491v-1.434Zm2.981 0h1.491v1.434h-1.491v-1.434Zm1.491 0h1.491v1.434h-1.491v-1.434Zm4.472 0h1.491v1.434h-1.491v-1.434Zm1.491 0h1.49v1.434h-1.49v-1.434Zm2.981 0h1.491v1.434h-1.491v-1.434Zm4.472 0h1.491v1.434h-1.491v-1.434Zm1.491 0h1.491v1.434h-1.491v-1.434Zm2.981 0h1.491v1.434h-1.491v-1.434Zm1.491 0h1.491v1.434h-1.491v-1.434Zm2.981 0h1.491v1.434h-1.491v-1.434Zm4.472 0h1.491v1.434h-1.491v-1.434Zm4.472 0h1.491v1.434h-1.491v-1.434Zm1.491 0h1.491v1.434h-1.491v-1.434Zm1.491 0h1.49v1.434h-1.49v-1.434Zm-47.702 1.434h1.491v1.433h-1.491v-1.433Zm2.981 0h1.491v1.433h-1.491v-1.433Zm1.491 0h1.491v1.433h-1.491v-1.433Zm1.491 0h1.49v1.433h-1.49v-1.433Zm2.981 0h1.491v1.433h-1.491v-1.433Zm2.981 0h1.491v1.433h-1.491v-1.433Zm1.491 0h1.491v1.433h-1.491v-1.433Zm1.491 0h1.49v1.433h-1.49v-1.433Zm1.49 0h1.491v1.433h-1.491v-1.433Zm1.491 0h1.491v1.433h-1.491v-1.433Zm1.491 0h1.49v1.433h-1.49v-1.433Zm1.49 0h1.491v1.433h-1.491v-1.433Zm1.491 0h1.491v1.433h-1.491v-1.433Zm2.982 0h1.49v1.433h-1.49v-1.433Zm1.49 0h1.491v1.433h-1.491v-1.433Zm2.982 0h1.49v1.433h-1.49v-1.433Zm1.49 0h1.491v1.433h-1.491v-1.433Zm1.491 0h1.491v1.433h-1.491v-1.433Zm2.981 0h1.491v1.433h-1.491v-1.433Zm1.491 0h1.491v1.433h-1.491v-1.433Zm1.491 0h1.49v1.433h-1.49v-1.433Zm1.49 0h1.491v1.433h-1.491v-1.433Zm2.982 0h1.49v1.433h-1.49v-1.433Zm1.49 0h1.491v1.433h-1.491v-1.433Zm-44.72 1.433h1.491v1.434h-1.491v-1.434Zm8.944 0h1.491v1.434h-1.491v-1.434Zm2.981 0h1.491v1.434h-1.491v-1.434Zm1.491 0h1.491v1.434h-1.491v-1.434Zm1.491 0h1.49v1.434h-1.49v-1.434Zm1.49 0h1.491v1.434h-1.491v-1.434Zm2.982 0h1.49v1.434h-1.49v-1.434Zm1.49 0h1.491v1.434h-1.491v-1.434Zm1.491 0h1.491v1.434h-1.491v-1.434Zm1.491 0h1.491v1.434h-1.491v-1.434Zm1.491 0h1.49v1.434h-1.49v-1.434Zm1.49 0h1.491v1.434h-1.491v-1.434Zm2.982 0h1.49v1.434h-1.49v-1.434Zm4.472 0h1.49v1.434h-1.49v-1.434Zm1.49 0h1.491v1.434h-1.491v-1.434Zm1.491 0h1.491v1.434h-1.491v-1.434Zm2.981 0h1.491v1.434h-1.491v-1.434Zm1.491 0h1.491v1.434h-1.491v-1.434Zm5.963 0h1.49v1.434h-1.49v-1.434Zm-47.702 1.434h1.491v1.434h-1.491v-1.434Zm1.491 0h1.49v1.434h-1.49v-1.434Zm1.49 0h1.491v1.434h-1.491v-1.434Zm1.491 0h1.491v1.434h-1.491v-1.434Zm1.491 0h1.49v1.434h-1.49v-1.434Zm1.49 0h1.491v1.434h-1.491v-1.434Zm1.491 0h1.491v1.434h-1.491v-1.434Zm4.472 0h1.491v1.434h-1.491v-1.434Zm1.491 0h1.49v1.434h-1.49v-1.434Zm1.49 0h1.491v1.434h-1.491v-1.434Zm1.491 0h1.491v1.434h-1.491v-1.434Zm4.472 0h1.491v1.434h-1.491v-1.434Zm1.491 0h1.491v1.434h-1.491v-1.434Zm1.491 0h1.49v1.434h-1.49v-1.434Zm2.981 0h1.491v1.434h-1.491v-1.434Zm2.981 0h1.491v1.434h-1.491v-1.434Zm2.982 0h1.49v1.434h-1.49v-1.434Zm2.981 0h1.491v1.434h-1.491v-1.434Zm4.472 0h1.491v1.434h-1.491v-1.434Zm2.981 0h1.491v1.434h-1.491v-1.434ZM81.647 294.807a3.85 3.85 0 0 1-1.052-.145 2.519 2.519 0 0 1-.81-.387l.36-.801c.196.144.428.26.699.348.27.087.54.131.81.131.3 0 .522-.044.666-.131.144-.092.216-.213.216-.361 0-.11-.044-.2-.131-.27a.903.903 0 0 0-.327-.177 5.892 5.892 0 0 0-.535-.144 7.616 7.616 0 0 1-.856-.25 1.42 1.42 0 0 1-.575-.4c-.157-.184-.235-.429-.235-.736 0-.267.072-.508.215-.722a1.45 1.45 0 0 1 .647-.519c.292-.127.647-.19 1.065-.19a3.5 3.5 0 0 1 .856.105c.279.07.523.171.732.302l-.327.807c-.423-.24-.845-.361-1.268-.361-.296 0-.516.048-.66.145a.442.442 0 0 0-.209.381c0 .157.081.275.242.354.166.075.416.149.752.223.348.084.633.167.855.25.223.083.412.214.569.394.161.179.242.422.242.729 0 .262-.075.503-.223.722-.143.215-.361.385-.653.512-.292.127-.647.191-1.065.191Zm4.853 0a2.66 2.66 0 0 1-1.268-.302 2.343 2.343 0 0 1-.889-.847 2.382 2.382 0 0 1-.32-1.228c0-.456.107-.863.32-1.222.218-.363.514-.645.889-.847a2.634 2.634 0 0 1 1.274-.308c.396 0 .754.07 1.071.21.323.14.593.341.81.604l-.679.63a1.457 1.457 0 0 0-1.15-.538 1.5 1.5 0 0 0-.758.19 1.332 1.332 0 0 0-.522.519 1.561 1.561 0 0 0-.183.762c0 .284.06.538.183.761.126.224.3.399.522.526.222.122.475.183.758.183.458 0 .84-.181 1.15-.544l.68.63a2.13 2.13 0 0 1-.81.611c-.323.14-.682.21-1.079.21Zm5.525-1.064H89.9l-.405.985h-1.084l2.038-4.596h1.046l2.045 4.596h-1.11l-.405-.985Zm-.333-.808-.726-1.759-.725 1.759h1.45Zm6.518-2.803v4.596h-.87l-2.28-2.791v2.791h-1.045v-4.596h.876l2.273 2.79v-2.79h1.046Zm7.877 5.088a1.458 1.458 0 0 1-.542.421 1.64 1.64 0 0 1-.692.144c-.34 0-.647-.074-.922-.223-.274-.145-.588-.403-.94-.775a2.59 2.59 0 0 1-1.111-.401 2.295 2.295 0 0 1-.758-.827 2.405 2.405 0 0 1-.268-1.129c0-.451.107-.856.32-1.215.218-.363.517-.648.895-.854a2.69 2.69 0 0 1 1.288-.308c.474 0 .901.103 1.28.308a2.312 2.312 0 0 1 1.222 2.069c0 .534-.15 1.002-.451 1.405-.296.403-.69.683-1.183.84.109.114.214.195.314.243a.729.729 0 0 0 .333.079c.283 0 .532-.114.745-.341l.47.564Zm-4.161-2.79c0 .284.061.538.183.761.126.224.298.399.516.526.218.122.462.183.732.183.27 0 .514-.061.731-.183.218-.127.388-.302.51-.526a1.52 1.52 0 0 0 .189-.761c0-.285-.063-.539-.189-.762a1.3 1.3 0 0 0-.51-.519 1.42 1.42 0 0 0-.731-.19c-.27 0-.514.063-.732.19a1.34 1.34 0 0 0-.516.519 1.562 1.562 0 0 0-.183.762Zm7.642 2.298-.882-1.281h-.973v1.281h-1.059v-4.596h1.98c.405 0 .756.067 1.052.203.3.136.531.328.692.578.161.249.242.545.242.886 0 .342-.083.637-.248.887a1.537 1.537 0 0 1-.693.564l1.026 1.478h-1.137Zm-.019-2.929c0-.258-.083-.455-.249-.591-.165-.14-.407-.21-.725-.21h-.862v1.602h.862c.318 0 .56-.07.725-.21.166-.14.249-.337.249-.591Zm7.954-1.667v4.596h-.869l-2.28-2.791v2.791h-1.045v-4.596h.875l2.274 2.79v-2.79h1.045Zm3.297 4.675c-.475 0-.904-.103-1.287-.309a2.324 2.324 0 0 1-.895-.847 2.358 2.358 0 0 1-.32-1.221c0-.451.106-.856.32-1.215.218-.363.516-.648.895-.854a2.684 2.684 0 0 1 1.287-.308c.475 0 .902.103 1.281.308a2.312 2.312 0 0 1 1.221 2.069c0 .451-.109.858-.326 1.221a2.324 2.324 0 0 1-.895.847 2.638 2.638 0 0 1-1.281.309Zm0-.907c.27 0 .514-.061.732-.183.218-.127.387-.302.509-.526a1.51 1.51 0 0 0 .19-.761c0-.285-.063-.539-.19-.762a1.297 1.297 0 0 0-.509-.519 1.427 1.427 0 0 0-.732-.19c-.27 0-.514.063-.732.19-.217.123-.39.296-.516.519a1.562 1.562 0 0 0-.183.762c0 .284.061.538.183.761.126.224.299.399.516.526.218.122.462.183.732.183Zm10.057-3.768-1.496 4.596h-1.137l-1.006-3.113-1.039 3.113h-1.13l-1.503-4.596h1.098l1.032 3.23 1.078-3.23h.98l1.045 3.256 1.065-3.256h1.013Z" fill="#879EC1"/></g><path fill-rule="evenodd" clip-rule="evenodd" d="M72.761 92.396h-5.124l2.352-2.364-.588-.59-3.36 3.376 3.36 3.377.588-.59-2.352-2.365h5.124v-.844Z" fill="#233654"/><path fill="#fff" d="M62.635 109.937h152.133v23.451H62.635z"/><g clip-path="url(#d)" fill="#C4D0EA"><path d="M71.034 117.91c-2.058 0-3.733 1.683-3.733 3.752s1.675 3.752 3.733 3.752c2.059 0 3.733-1.683 3.733-3.752s-1.674-3.752-3.733-3.752Zm0 6.822a3.066 3.066 0 0 1-3.054-3.07c0-1.693 1.37-3.07 3.054-3.07a3.066 3.066 0 0 1 3.055 3.07c0 1.693-1.37 3.07-3.055 3.07Z"/><path d="M71.035 120.866a.34.34 0 0 0-.34.341v2.274a.34.34 0 0 0 .34.341.34.34 0 0 0 .34-.341v-2.274a.34.34 0 0 0-.34-.341Zm0-1.364a.34.34 0 0 0-.34.341.343.343 0 0 0 .34.341.339.339 0 0 0 .34-.341.343.343 0 0 0-.34-.341Z"/></g><rect width="30.8" height="16.884" rx="8.442" transform="matrix(1 0 0 -1 179.301 130.104)" fill="#87AB49"/><rect width="12.133" height="12.194" rx="6.067" transform="matrix(1 0 0 -1 195.635 127.76)" fill="#fff"/><rect x="77.102" y="116.165" width="56.573" height="4.476" rx="2.238" fill="#E0E7F5"/><rect x="77.102" y="123.822" width="56.573" height="4.476" rx="2.238" fill="#E0E7F5"/><path fill="#fff" d="M62.635 133.856h152.133v23.451H62.635z"/><g clip-path="url(#e)" fill="#C4D0EA"><path d="M71.034 141.83c-2.058 0-3.733 1.683-3.733 3.752s1.675 3.752 3.733 3.752c2.059 0 3.733-1.683 3.733-3.752s-1.674-3.752-3.733-3.752Zm0 6.822a3.066 3.066 0 0 1-3.054-3.07c0-1.693 1.37-3.07 3.054-3.07a3.066 3.066 0 0 1 3.055 3.07c0 1.693-1.37 3.07-3.055 3.07Z"/><path d="M71.035 144.786a.34.34 0 0 0-.34.341v2.274a.34.34 0 0 0 .34.341.34.34 0 0 0 .34-.341v-2.274a.34.34 0 0 0-.34-.341Zm0-1.364a.34.34 0 0 0-.34.341.343.343 0 0 0 .34.341.339.339 0 0 0 .34-.341.343.343 0 0 0-.34-.341Z"/></g><rect width="30.8" height="16.884" rx="8.442" transform="matrix(1 0 0 -1 179.301 154.024)" fill="#87AB49"/><rect width="12.133" height="12.194" rx="6.067" transform="matrix(1 0 0 -1 195.635 151.68)" fill="#fff"/><rect x="77.102" y="143.763" width="73.25" height="4.476" rx="2.238" fill="#E0E7F5"/><path fill="#fff" d="M62.635 157.775h152.133v23.451H62.635z"/><g clip-path="url(#f)" fill="#C4D0EA"><path d="M71.034 165.749c-2.058 0-3.733 1.683-3.733 3.752s1.675 3.752 3.733 3.752c2.059 0 3.733-1.683 3.733-3.752s-1.674-3.752-3.733-3.752Zm0 6.822a3.066 3.066 0 0 1-3.054-3.07c0-1.693 1.37-3.07 3.054-3.07a3.066 3.066 0 0 1 3.055 3.07c0 1.693-1.37 3.07-3.055 3.07Z"/><path d="M71.035 168.705a.34.34 0 0 0-.34.341v2.274a.34.34 0 0 0 .34.341.34.34 0 0 0 .34-.341v-2.274a.34.34 0 0 0-.34-.341Zm0-1.364a.34.34 0 0 0-.34.341.343.343 0 0 0 .34.341.339.339 0 0 0 .34-.341.343.343 0 0 0-.34-.341Z"/></g><rect width="30.8" height="16.884" rx="8.442" transform="matrix(1 0 0 -1 179.301 177.943)" fill="#879EC1"/><rect width="12.133" height="12.194" rx="6.067" transform="matrix(1 0 0 -1 181.635 175.599)" fill="#fff"/><rect x="77.102" y="167.263" width="51.62" height="4.476" rx="2.238" fill="#E0E7F5"/><path fill="#fff" d="M62.635 181.695h152.133v23.451H62.635z"/><g clip-path="url(#g)" fill="#C4D0EA"><path d="M71.034 189.669c-2.058 0-3.733 1.683-3.733 3.752s1.675 3.752 3.733 3.752c2.059 0 3.733-1.683 3.733-3.752s-1.674-3.752-3.733-3.752Zm0 6.822a3.066 3.066 0 0 1-3.054-3.07c0-1.693 1.37-3.07 3.054-3.07a3.066 3.066 0 0 1 3.055 3.07c0 1.693-1.37 3.07-3.055 3.07Z"/><path d="M71.035 192.625a.34.34 0 0 0-.34.341v2.274a.34.34 0 0 0 .34.341.34.34 0 0 0 .34-.341v-2.274a.34.34 0 0 0-.34-.341Zm0-1.364a.34.34 0 0 0-.34.341.339.339 0 1 0 .679 0 .343.343 0 0 0-.34-.341Z"/></g><rect width="30.8" height="16.884" rx="8.442" transform="matrix(1 0 0 -1 179.301 201.863)" fill="#87AB49"/><rect width="12.133" height="12.194" rx="6.067" transform="matrix(1 0 0 -1 195.635 199.519)" fill="#fff"/><rect x="77.102" y="191.261" width="73.345" height="4.476" rx="2.238" fill="#E0E7F5"/><path fill="#fff" d="M62.635 205.615h152.133v23.451H62.635z"/><g clip-path="url(#h)" fill="#C4D0EA"><path d="M71.034 213.589c-2.058 0-3.733 1.683-3.733 3.752s1.675 3.752 3.733 3.752c2.059 0 3.733-1.683 3.733-3.752s-1.674-3.752-3.733-3.752Zm0 6.821a3.065 3.065 0 0 1-3.054-3.069c0-1.693 1.37-3.07 3.054-3.07a3.066 3.066 0 0 1 3.055 3.07 3.065 3.065 0 0 1-3.055 3.069Z"/><path d="M71.035 216.545a.34.34 0 0 0-.34.341v2.274a.34.34 0 0 0 .34.341.34.34 0 0 0 .34-.341v-2.274a.34.34 0 0 0-.34-.341Zm0-1.364a.343.343 0 0 0-.24.099.345.345 0 0 0 0 .483c.063.063.15.1.24.1a.343.343 0 0 0 .34-.341.347.347 0 0 0-.1-.242.342.342 0 0 0-.24-.099Z"/></g><rect width="30.8" height="16.884" rx="8.442" transform="matrix(1 0 0 -1 179.301 225.783)" fill="#87AB49"/><rect width="12.133" height="12.194" rx="6.067" transform="matrix(1 0 0 -1 195.635 223.438)" fill="#fff"/><rect x="77.102" y="215.103" width="75.028" height="4.476" rx="2.238" fill="#E0E7F5"/><path fill="#fff" d="M62.635 229.534h152.133v37.99H62.635z"/><rect width="30.8" height="16.884" rx="8.442" transform="matrix(1 0 0 -1 179.301 250.875)" fill="#879EC1"/><rect width="12.133" height="12.194" rx="6.067" transform="matrix(1 0 0 -1 181.635 248.53)" fill="#fff"/><rect x="67.301" y="240.845" width="83.316" height="4.476" rx="2.238" fill="#E0E7F5"/><rect x="67.301" y="257.186" width="29.104" height="4.476" rx="2.238" fill="#E0E7F5"/><rect x="180.531" y="257.186" width="29.104" height="4.476" rx="2.238" fill="#E0E7F5"/><rect x="109.045" y="323.679" width="29.104" height="4.476" rx="2.238" fill="#E0E7F5"/><rect x="72.461" y="323.679" width="29.104" height="4.476" rx="2.238" fill="#E0E7F5"/><rect x="95.768" y="89.067" width="85.867" height="7.501" rx="3.75" fill="#E0E7F5"/></g></g><g filter="url(#i)"><path d="M132.701 69.168c0-11.046 8.954-20 20-20h159c11.046 0 20 8.954 20 20v293c0 11.046-8.954 20-20 20h-159c-11.046 0-20-8.954-20-20v-293Z" fill="#F1F4FB"/><path d="M152.114 68.085c.42 0 .765-.341.713-.758a6.042 6.042 0 0 0-1.65-3.465 5.706 5.706 0 0 0-4.097-1.749 5.71 5.71 0 0 0-4.098 1.75 6.049 6.049 0 0 0-1.65 3.464c-.052.417.294.758.714.758s.754-.342.824-.757a4.45 4.45 0 0 1 1.188-2.357 4.21 4.21 0 0 1 3.022-1.29c1.133 0 2.22.464 3.021 1.29a4.444 4.444 0 0 1 1.188 2.357c.071.415.405.757.825.757Z" fill="#87AB49"/><path d="M150.187 60.217c0 1.732-1.391 3.136-3.107 3.136-1.716 0-3.107-1.404-3.107-3.136 0-1.731 1.391-3.135 3.107-3.135 1.716 0 3.107 1.404 3.107 3.135Zm-4.971 0c0 1.04.834 1.882 1.864 1.882a1.873 1.873 0 0 0 1.864-1.882 1.873 1.873 0 0 0-1.864-1.88c-1.03 0-1.864.841-1.864 1.88Z" fill="#87AB49"/><mask id="j" fill="#fff"><path d="M317.057 67.596c-.063.257-.321.415-.569.33a5.5 5.5 0 0 1-2.707-2.04 5.583 5.583 0 0 1 .675-7.209 5.463 5.463 0 0 1 7.164-.394 5.557 5.557 0 0 1 2.029 3.275 5.592 5.592 0 0 1-.582 3.817 5.518 5.518 0 0 1-2.471 2.325.443.443 0 0 1-.602-.266.524.524 0 0 1 .273-.638 4.559 4.559 0 0 0 1.97-1.887c.53-.96.701-2.08.481-3.158a4.594 4.594 0 0 0-1.677-2.709 4.52 4.52 0 0 0-5.927.326 4.606 4.606 0 0 0-1.377 2.877 4.624 4.624 0 0 0 .818 3.086 4.555 4.555 0 0 0 2.162 1.66c.247.09.403.348.34.605Z"/></mask><path d="m313.781 65.886-1.227.862 1.227-.862Zm9.286-.51-1.313-.726 1.313.725Zm-.83-.467-1.313-.725 1.313.725Zm-7.682.422 1.228-.862-1.228.862Zm2.162 1.66-.514 1.41.514-1.41Zm3.277.443 1.41-.512-1.41.512Zm.273-.638-.665-1.344.665 1.344Zm.329.904-.641-1.356.641 1.356Zm-4.108.226-.489 1.418.489-1.418Zm.488-1.419a4.002 4.002 0 0 1-1.968-1.484l-2.454 1.725a7.002 7.002 0 0 0 3.445 2.596l.977-2.837Zm-1.968-1.484a4.089 4.089 0 0 1-.723-2.728l-2.987-.28a7.083 7.083 0 0 0 1.256 4.733l2.454-1.725Zm-.723-2.728a4.067 4.067 0 0 1 1.215-2.54l-2.089-2.155a7.069 7.069 0 0 0-2.113 4.415l2.987.28Zm1.215-2.54a3.974 3.974 0 0 1 2.548-1.12l-.165-2.995a6.975 6.975 0 0 0-4.472 1.96l2.089 2.154Zm2.548-1.12a3.962 3.962 0 0 1 2.651.833l1.842-2.369a6.961 6.961 0 0 0-4.658-1.459l.165 2.996Zm2.651.833a4.057 4.057 0 0 1 1.48 2.39l2.939-.6a7.047 7.047 0 0 0-2.577-4.159l-1.842 2.369Zm1.48 2.39a4.093 4.093 0 0 1-.425 2.792l2.626 1.45a7.084 7.084 0 0 0 .738-4.841l-2.939.6Zm-.425 2.792a4.02 4.02 0 0 1-1.799 1.694l1.282 2.712a7.014 7.014 0 0 0 3.143-2.956l-2.626-1.45Zm-.822 3.49a6.067 6.067 0 0 0 2.619-2.506l-2.627-1.45a3.064 3.064 0 0 1-1.322 1.268l1.33 2.689Zm2.619-2.506a6.126 6.126 0 0 0 .637-4.182l-2.939.6a3.125 3.125 0 0 1-.325 2.132l2.627 1.45Zm.637-4.182a6.095 6.095 0 0 0-2.226-3.594l-1.842 2.368a3.1 3.1 0 0 1 1.129 1.825l2.939-.6Zm-2.226-3.594a6.022 6.022 0 0 0-4.027-1.26l.165 2.995a3.02 3.02 0 0 1 2.02.633l1.842-2.368Zm-4.027-1.26a6.031 6.031 0 0 0-3.866 1.693l2.089 2.154a3.026 3.026 0 0 1 1.942-.852l-.165-2.996Zm-3.866 1.693a6.104 6.104 0 0 0-1.825 3.814l2.987.28c.069-.74.399-1.428.927-1.94l-2.089-2.154Zm-1.825 3.814a6.117 6.117 0 0 0 1.084 4.089l2.455-1.725a3.118 3.118 0 0 1-.552-2.084l-2.987-.28Zm1.084 4.089a6.052 6.052 0 0 0 2.875 2.206l1.029-2.818a3.049 3.049 0 0 1-1.449-1.113l-2.455 1.725Zm2.875 2.206a.98.98 0 0 1-.603-1.162l2.914.715c.266-1.083-.401-2.049-1.282-2.37l-1.029 2.817Zm5.201-1.478a.978.978 0 0 1-.472 1.219l-1.33-2.689c-.839.415-1.399 1.446-1.018 2.495l2.82-1.025Zm-1.449-.578a1.057 1.057 0 0 1 1.449.578l-2.82 1.025c.358.984 1.528 1.64 2.653 1.11l-1.282-2.713Zm-3.956 3c1.176.405 2.266-.376 2.515-1.39l-2.914-.716c.123-.5.696-.965 1.376-.73l-.977 2.836Z" fill="#87AB49" mask="url(#j)"/><path d="M316.693 60.32a2.9 2.9 0 0 1 .335-.268 2.282 2.282 0 0 1 .849-.368c.168-.038.347-.057.539-.057.257 0 .492.038.706.115.216.073.402.18.557.32.158.137.28.304.367.501.087.195.13.413.13.655 0 .242-.034.452-.102.63a1.719 1.719 0 0 1-.26.46 2.23 2.23 0 0 1-.344.343l-.353.273a2.284 2.284 0 0 0-.283.253.512.512 0 0 0-.139.277l-.098.717h-.678l-.069-.789a.627.627 0 0 1 .069-.387c.062-.108.144-.21.246-.305.106-.096.22-.187.344-.273.127-.089.244-.188.353-.296.108-.108.199-.23.274-.363a.983.983 0 0 0 .111-.483.783.783 0 0 0-.069-.334.737.737 0 0 0-.195-.258.922.922 0 0 0-.293-.163 1.107 1.107 0 0 0-.362-.057c-.183 0-.338.022-.465.067a1.788 1.788 0 0 0-.325.148 2.119 2.119 0 0 0-.222.143c-.059.042-.109.063-.149.063a.229.229 0 0 1-.214-.13l-.26-.434Zm.892 5.671c0-.092.015-.178.046-.258a.71.71 0 0 1 .135-.215.637.637 0 0 1 .919 0 .669.669 0 0 1 .191.473.663.663 0 0 1-.191.473.579.579 0 0 1-.209.139.636.636 0 0 1-.845-.349.719.719 0 0 1-.046-.263Z" fill="#87AB49"/><path d="M204.164 59.543c.582 0 1.087.098 1.513.294.432.196.764.474.996.834.232.36.348.787.348 1.28 0 .487-.116.914-.348 1.28-.232.361-.564.64-.996.835-.426.19-.931.285-1.513.285h-1.325v1.83h-1.523v-6.638h2.848Zm-.085 3.556c.458 0 .805-.098 1.043-.294.238-.202.357-.487.357-.853 0-.373-.119-.658-.357-.854-.238-.202-.585-.303-1.043-.303h-1.24v2.304h1.24Zm4.028-3.556h1.523v5.386h3.298v1.252h-4.821v-6.638Zm10.059 5.215h-3.054l-.583 1.423h-1.56l2.932-6.638h1.504l2.941 6.638h-1.597l-.583-1.423Zm-.479-1.166-1.043-2.541-1.044 2.541h2.087Zm9.375-4.049v6.638h-1.25l-3.28-4.03v4.03h-1.503v-6.638h1.259l3.27 4.03v-4.03h1.504Zm6.649 5.405v1.233h-5.093v-6.638h4.971v1.233h-3.458v1.441h3.054v1.195h-3.054v1.536h3.58Zm2.574-4.153h-2.105v-1.252h5.732v1.252h-2.105v5.386h-1.522v-5.386Zm13.432-1.252-2.847 6.638h-1.504l-2.838-6.638h1.645l2.001 4.741 2.03-4.741h1.513Zm3.397 0c.582 0 1.087.098 1.513.294.432.196.764.474.996.834.232.36.348.787.348 1.28 0 .487-.116.914-.348 1.28-.232.361-.564.64-.996.835-.426.19-.931.285-1.513.285h-1.325v1.83h-1.523v-6.638h2.848Zm-.085 3.556c.457 0 .805-.098 1.043-.294.238-.202.357-.487.357-.853 0-.373-.119-.658-.357-.854-.238-.202-.586-.303-1.043-.303h-1.24v2.304h1.24Zm10.061-3.556v6.638h-1.249l-3.28-4.03v4.03h-1.504v-6.638h1.26l3.27 4.03v-4.03h1.503Z" fill="#3B577F"/><rect x="152.049" y="313.56" width="159.753" height="27.889" rx="8" fill="#87AB49"/><ellipse cx="232.201" cy="236.856" rx="48.982" ry="49.426" fill="url(#k)"/><path fill-rule="evenodd" clip-rule="evenodd" d="M176.911 254.438c.846-1.056 2.478-.896 3.147.279a2.015 2.015 0 0 1-.255 2.322c-3.33 3.791-4.767 6.742-3.81 8.422 3.07 5.395 29.638-4.336 59.342-21.734 1.024-.6 2.038-1.201 3.042-1.803.351-.21.553-.598.553-1.007 0-6.927 5.565-12.542 12.429-12.542.163 0 .325.003.486.01 3.377.131 7.026.204 9.748-1.798 15.048-11.071 24.019-20.525 21.966-24.132-.911-1.6-3.89-1.87-8.406-1.002-.827.159-1.673-.209-2.089-.94-.648-1.14.019-2.58 1.317-2.772 8.889-1.311 15.194-.215 17.405 3.67 4.141 7.276-7.252 22.286-27.085 37.549-.599.461-.913 1.201-.913 1.957 0 6.927-5.565 12.542-12.429 12.542-.342 0-.681-.014-1.016-.041-3.062-.25-6.326-.38-8.978 1.173-33.42 19.576-65.031 27.505-70.605 17.71-2.286-4.017.162-10.391 6.151-17.863Z" fill="#D7DEED"/><ellipse cx="251.359" cy="240.917" rx="6.215" ry="6.271" fill="#70AF09"/><path d="M207.099 219.953c-3.015 7.511-2.063 15.431-5.761 13.92-3.697-1.511-4.251-8.824-1.236-16.335 3.014-7.511 8.455-12.375 12.153-10.864 3.697 1.511-2.141 5.768-5.156 13.279Zm-2.321 21.382c.269 2.474-.866 4.629-2.535 4.814-1.669.185-3.241-1.67-3.51-4.144-.27-2.473.865-4.628 2.535-4.813 1.669-.185 3.241 1.67 3.51 4.143Z" opacity=".32" fill="#E5E5E5"/><path d="M217.739 274.511c-1.702-.993-.887-2.656 3.248-4.038 8.717-1.931 7.246 1.972 19.791.47s19.158-6.72 22.489-10.153c2.665-2.746 5.128-6.462 5.01-5.151-.567 2.789-5.145 10.141-18.923 17.235-17.223 8.868-29.005 3.158-31.615 1.637Z" fill="#080F1B" fill-opacity=".11"/><path d="M273.15 209.474c1.607-1.074 2.057-3.252.892-4.794-7.48-9.904-18.201-16.871-30.312-19.616a52.196 52.196 0 0 0-38.741 6.364c-11.617 7.085-20.069 18.427-23.591 31.654a53.523 53.523 0 0 0 3.102 36.155c.817 1.774 2.982 2.397 4.691 1.45 1.69-.937 2.296-3.057 1.503-4.82a46.38 46.38 0 0 1-2.515-30.946c3.052-11.462 10.377-21.29 20.442-27.429a45.237 45.237 0 0 1 33.57-5.514c10.324 2.339 19.482 8.22 25.947 16.58 1.196 1.547 3.387 2.004 5.012.916Zm-70.956 66.605c-1.183 1.546-.91 3.769.692 4.854a52.295 52.295 0 0 0 25.357 8.856 52.218 52.218 0 0 0 29.491-6.522 52.861 52.861 0 0 0 21.082-21.808 53.483 53.483 0 0 0 5.961-26.399c-.065-1.946-1.79-3.355-3.715-3.16-1.934.197-3.334 1.938-3.289 3.893a46.33 46.33 0 0 1-5.18 22.382 45.804 45.804 0 0 1-18.267 18.897 45.246 45.246 0 0 1-25.555 5.651 45.304 45.304 0 0 1-21.565-7.402c-1.621-1.072-3.825-.794-5.012.758Z" fill="#D7DEED"/><rect x="152.973" y="87.098" width="158.094" height="21.754" rx="10.877" fill="#D7DEED"/><rect x="181.621" y="121.123" width="101.158" height="11.714" rx="5.857" fill="#D7DEED"/><rect x="210.367" y="137.299" width="43.669" height="15.06" rx="7.53" fill="#87AB49"/></g><defs><clipPath id="b"><path d="M54.701 96.168c0-11.046 8.955-20 20-20h128c11.046 0 20 8.954 20 20v240c0 11.046-8.954 20-20 20h-128c-11.045 0-20-8.954-20-20v-240Z" fill="#fff"/></clipPath><clipPath id="d"><path fill="#fff" transform="translate(67.3 117.91)" d="M0 0h7.467v7.504H0z"/></clipPath><clipPath id="e"><path fill="#fff" transform="translate(67.3 141.83)" d="M0 0h7.467v7.504H0z"/></clipPath><clipPath id="f"><path fill="#fff" transform="translate(67.3 165.749)" d="M0 0h7.467v7.504H0z"/></clipPath><clipPath id="g"><path fill="#fff" transform="translate(67.3 189.669)" d="M0 0h7.467v7.504H0z"/></clipPath><clipPath id="h"><path fill="#fff" transform="translate(67.3 213.589)" d="M0 0h7.467v7.504H0z"/></clipPath><filter id="a" x="32.701" y="58.168" width="212" height="324" filterUnits="userSpaceOnUse" color-interpolation-filters="sRGB"><feFlood flood-opacity="0" result="BackgroundImageFix"/><feColorMatrix in="SourceAlpha" values="0 0 0 0 0 0 0 0 0 0 0 0 0 0 0 0 0 0 127 0" result="hardAlpha"/><feOffset dy="4"/><feGaussianBlur stdDeviation="11"/><feColorMatrix values="0 0 0 0 0.0925174 0 0 0 0 0.176063 0 0 0 0 0.304167 0 0 0 0.17 0"/><feBlend in2="BackgroundImageFix" result="effect1_dropShadow_8541_169093"/><feBlend in="SourceGraphic" in2="effect1_dropShadow_8541_169093" result="shape"/></filter><filter id="c" x="59.635" y="275.905" width="158.133" height="72.131" filterUnits="userSpaceOnUse" color-interpolation-filters="sRGB"><feFlood flood-opacity="0" result="BackgroundImageFix"/><feColorMatrix in="SourceAlpha" values="0 0 0 0 0 0 0 0 0 0 0 0 0 0 0 0 0 0 127 0" result="hardAlpha"/><feOffset dy="2"/><feGaussianBlur stdDeviation="1.5"/><feColorMatrix values="0 0 0 0 0.101961 0 0 0 0 0.211765 0 0 0 0 0.533333 0 0 0 0.09 0"/><feBlend in2="BackgroundImageFix" result="effect1_dropShadow_8541_169093"/><feBlend in="SourceGraphic" in2="effect1_dropShadow_8541_169093" result="shape"/></filter><filter id="i" x="110.701" y="31.168" width="243" height="377" filterUnits="userSpaceOnUse" color-interpolation-filters="sRGB"><feFlood flood-opacity="0" result="BackgroundImageFix"/><feColorMatrix in="SourceAlpha" values="0 0 0 0 0 0 0 0 0 0 0 0 0 0 0 0 0 0 127 0" result="hardAlpha"/><feOffset dy="4"/><feGaussianBlur stdDeviation="11"/><feColorMatrix values="0 0 0 0 0.0925174 0 0 0 0 0.176063 0 0 0 0 0.304167 0 0 0 0.17 0"/><feBlend in2="BackgroundImageFix" result="effect1_dropShadow_8541_169093"/><feBlend in="SourceGraphic" in2="effect1_dropShadow_8541_169093" result="shape"/></filter><linearGradient id="k" x1="180.256" y1="152.325" x2="255.355" y2="279.121" gradientUnits="userSpaceOnUse"><stop offset=".395" stop-color="#FF3A3A"/><stop offset=".72" stop-color="#D64D12"/><stop offset=".75" stop-color="#87AB49"/></linearGradient></defs></svg>