<svg width="217" height="392" fill="none" xmlns="http://www.w3.org/2000/svg"><rect x="13.072" y="1.453" width="189.806" height="390" rx="22" stroke="#879EC1"/><rect x="16.85" y="5.23" width="182.252" height="381.501" rx="17" stroke="#879EC1"/><path stroke="#879EC1" d="M22.516 41.114h172.809v322.01H22.516z"/><rect x="101.838" y="29.782" width="12.276" height="5.666" rx="2.833" stroke="#879EC1"/><rect x="42.346" y="13.729" width="7.554" height="7.554" rx="3.777" stroke="#879EC1"/><rect x="89.561" y="15.618" width="37.772" height="2.833" rx="1.416" stroke="#879EC1"/><g filter="url(#a)"><path fill="#F1F4FB" d="M22.77 41.584h171.864V327.71H22.77z"/><path d="M39.536 57.839c.362 0 .66-.296.616-.656a5.183 5.183 0 0 0-1.425-2.973 4.943 4.943 0 0 0-3.539-1.503c-1.327 0-2.6.54-3.539 1.503a5.184 5.184 0 0 0-1.425 2.973c-.045.36.254.656.616.656.363 0 .652-.297.713-.654a3.812 3.812 0 0 1 1.025-2.022 3.645 3.645 0 0 1 2.61-1.109c.979 0 1.918.399 2.61 1.109.54.553.895 1.26 1.025 2.022.061.357.35.654.713.654Z" fill="#87AB49"/><path d="M37.87 51.078a2.689 2.689 0 0 1-2.683 2.694 2.689 2.689 0 0 1-2.683-2.694 2.689 2.689 0 0 1 2.683-2.694 2.689 2.689 0 0 1 2.684 2.694Zm-4.293 0c0 .892.721 1.616 1.61 1.616.89 0 1.61-.724 1.61-1.616 0-.893-.72-1.617-1.61-1.617-.889 0-1.61.724-1.61 1.617Z" fill="#87AB49"/><mask id="b" fill="#fff"><path d="M181.986 57.417a.384.384 0 0 1-.492.284 4.75 4.75 0 0 1-2.338-1.753 4.78 4.78 0 0 1 .583-6.194 4.736 4.736 0 0 1 6.188-.338 4.772 4.772 0 0 1 1.249 6.093 4.748 4.748 0 0 1-2.134 1.998.384.384 0 0 1-.52-.228.449.449 0 0 1 .236-.548 3.934 3.934 0 0 0 1.702-1.622 3.958 3.958 0 0 0-1.034-5.04 3.917 3.917 0 0 0-5.119.279 3.952 3.952 0 0 0-.482 5.124 3.932 3.932 0 0 0 1.867 1.426.448.448 0 0 1 .294.52Z"/></mask><path d="m179.156 55.948-1.225.866 1.225-.866Zm8.02-.438-1.311-.728 1.311.728Zm-.716-.401-1.312-.728 1.312.728Zm-6.635.363 1.225-.866-1.225.866Zm1.867 1.426-.512 1.41.512-1.41Zm2.83.38 1.409-.514-1.409.515Zm.236-.547-.663-1.346.663 1.346Zm.284.776-.638-1.357.638 1.357Zm-3.548.194-.486 1.419.486-1.42Zm.487-1.419a3.253 3.253 0 0 1-1.6-1.2l-2.45 1.732a6.251 6.251 0 0 0 3.077 2.306l.973-2.838Zm-1.6-1.2a3.276 3.276 0 0 1-.585-2.199l-2.987-.28a6.276 6.276 0 0 0 1.122 4.21l2.45-1.73Zm-.585-2.199c.073-.78.423-1.507.985-2.05l-2.083-2.158a6.27 6.27 0 0 0-1.889 3.927l2.987.281Zm.985-2.05a3.237 3.237 0 0 1 2.071-.903l-.163-2.996a6.235 6.235 0 0 0-3.991 1.74l2.083 2.16Zm2.071-.903a3.236 3.236 0 0 1 2.157.672l1.836-2.372a6.233 6.233 0 0 0-4.156-1.296l.163 2.996Zm2.157.672a3.268 3.268 0 0 1 1.2 1.93l2.939-.603a6.268 6.268 0 0 0-2.303-3.7l-1.836 2.373Zm1.2 1.93a3.281 3.281 0 0 1-.344 2.25l2.623 1.455c.727-1.31.961-2.84.66-4.308l-2.939.602Zm-.344 2.25a3.256 3.256 0 0 1-1.461 1.368l1.276 2.714a6.254 6.254 0 0 0 2.808-2.627l-2.623-1.455Zm-.444 3.294a5.432 5.432 0 0 0 2.35-2.24l-2.623-1.455a2.432 2.432 0 0 1-1.053 1.004l1.326 2.691Zm2.35-2.24a5.457 5.457 0 0 0 .574-3.741l-2.939.602a2.455 2.455 0 0 1-.258 1.684l2.623 1.456Zm.574-3.741a5.446 5.446 0 0 0-2.001-3.213l-1.836 2.372c.461.357.78.869.898 1.443l2.939-.602Zm-2.001-3.213a5.417 5.417 0 0 0-3.611-1.126l.164 2.996a2.415 2.415 0 0 1 1.611.502l1.836-2.372Zm-3.611-1.126a5.42 5.42 0 0 0-3.467 1.513l2.083 2.159c.42-.405.969-.645 1.548-.676l-.164-2.996Zm-3.467 1.513a5.45 5.45 0 0 0-1.641 3.41l2.987.282a2.448 2.448 0 0 1 .737-1.533l-2.083-2.16Zm-1.641 3.41a5.456 5.456 0 0 0 .975 3.658l2.45-1.73a2.456 2.456 0 0 1-.438-1.646l-2.987-.282Zm.975 3.658a5.434 5.434 0 0 0 2.58 1.971l1.024-2.82a2.431 2.431 0 0 1-1.154-.882l-2.45 1.731Zm2.58 1.971a1.053 1.053 0 0 1-.65-1.25l2.912.719c.26-1.054-.393-1.982-1.238-2.289l-1.024 2.82Zm4.751-1.544a1.052 1.052 0 0 1-.51 1.312l-1.326-2.691c-.805.396-1.354 1.39-.981 2.409l2.817-1.03Zm-1.527-.614c.675-.318 1.335.088 1.527.614l-2.817 1.03c.348.952 1.481 1.58 2.566 1.07l-1.276-2.714Zm-3.396 2.97c1.134.389 2.192-.36 2.434-1.343l-2.912-.719a1.116 1.116 0 0 1 1.451-.776l-.973 2.838Z" fill="#87AB49" mask="url(#b)"/><path d="M181.672 51.166a2.372 2.372 0 0 1 .625-.42c.123-.054.256-.096.397-.126a2.1 2.1 0 0 1 .466-.05c.222 0 .425.033.609.099.187.063.348.155.481.275.137.118.242.261.317.43.075.168.112.355.112.563 0 .208-.029.389-.088.542-.059.15-.133.282-.224.394a1.91 1.91 0 0 1-.297.296l-.305.234a1.981 1.981 0 0 0-.244.218.445.445 0 0 0-.121.238l-.084.615h-.585l-.061-.677a.54.54 0 0 1 .061-.332 1.12 1.12 0 0 1 .212-.263c.091-.082.19-.16.297-.234a2.41 2.41 0 0 0 .305-.255c.093-.093.172-.197.236-.312a.84.84 0 0 0 .096-.414.666.666 0 0 0-.06-.288.621.621 0 0 0-.168-.221.788.788 0 0 0-.253-.14 1.228 1.228 0 0 0-.994.136 1.757 1.757 0 0 0-.193.123c-.051.035-.093.053-.128.053a.198.198 0 0 1-.185-.11l-.224-.374Zm.77 4.873a.599.599 0 0 1 .156-.407.546.546 0 0 1 .614-.123.567.567 0 0 1 .345.53.573.573 0 0 1-.165.406.516.516 0 0 1-.18.119.547.547 0 0 1-.437 0 .523.523 0 0 1-.293-.3.61.61 0 0 1-.04-.226Z" fill="#87AB49"/><path d="M84.486 50.498c.504 0 .94.084 1.307.253.373.168.66.407.86.717.2.31.3.676.3 1.1 0 .418-.1.784-.3 1.1-.2.31-.487.548-.86.717-.368.162-.803.244-1.307.244h-1.144V56.2h-1.315v-5.703h2.46Zm-.073 3.055c.395 0 .696-.084.901-.252.206-.174.309-.418.309-.733 0-.32-.103-.565-.309-.734-.205-.174-.506-.26-.9-.26h-1.072v1.98h1.071Zm3.479-3.055h1.315v4.628h2.849V56.2h-4.164v-5.703Zm8.688 4.482h-2.638l-.504 1.221h-1.347l2.532-5.703h1.299l2.54 5.703h-1.38l-.503-1.222Zm-.415-1.003-.9-2.183-.901 2.183h1.801Zm8.097-3.479v5.703h-1.08l-2.832-3.462V56.2h-1.298v-5.703h1.087l2.824 3.463v-3.463h1.299Zm5.743 4.644v1.06h-4.399v-5.704h4.293v1.06h-2.986v1.238h2.637v1.026h-2.637v1.32h3.092Zm2.223-3.568h-1.818v-1.076h4.95v1.076h-1.818V56.2h-1.314v-4.627Zm11.6-1.076-2.459 5.703h-1.298l-2.451-5.703h1.42l1.729 4.074 1.753-4.074h1.306Zm2.934 0c.503 0 .938.084 1.306.253.374.168.66.407.861.717.2.31.3.676.3 1.1 0 .418-.1.784-.3 1.1a1.95 1.95 0 0 1-.861.717c-.368.162-.803.244-1.306.244h-1.145V56.2h-1.314v-5.703h2.459Zm-.073 3.055c.395 0 .695-.084.9-.252.206-.174.309-.418.309-.733 0-.32-.103-.565-.309-.734-.205-.174-.505-.26-.9-.26h-1.072v1.98h1.072Zm8.689-3.055v5.703h-1.08l-2.832-3.462V56.2h-1.299v-5.703h1.088l2.824 3.463v-3.463h1.299Z" fill="#3B577F"/><rect x="39.478" y="268.76" width="137.969" height="23.964" rx="8" fill="#87AB49"/><ellipse cx="108.702" cy="202.853" rx="42.303" ry="42.469" fill="url(#c)"/><path fill-rule="evenodd" clip-rule="evenodd" d="M60.957 217.951c.73-.905 2.131-.768 2.708.241.368.644.27 1.45-.22 2.007-2.873 3.255-4.113 5.788-3.287 7.232 2.651 4.635 25.597-3.726 51.25-18.676.885-.515 1.762-1.032 2.629-1.55a.999.999 0 0 0 .476-.864c0-5.951 4.806-10.776 10.734-10.776 3.178 0 6.621.095 9.181-1.788 12.79-9.404 20.386-17.412 18.629-20.484-.788-1.376-3.364-1.607-7.27-.859a1.691 1.691 0 0 1-1.792-.805c-.56-.98.014-2.222 1.132-2.386 7.678-1.127 13.125-.185 15.035 3.153 3.576 6.252-6.264 19.15-23.394 32.266-.516.395-.786 1.03-.786 1.679 0 5.952-4.806 10.777-10.735 10.777-.296 0-.59-.012-.881-.036-2.643-.216-5.458-.327-7.75 1.008-28.863 16.821-56.164 23.634-60.978 15.218-1.975-3.453.142-8.933 5.319-15.357Z" fill="#D7DEED"/><ellipse cx="125.248" cy="206.341" rx="5.367" ry="5.388" fill="#70AF09"/><path d="M87.022 188.328c-2.603 6.454-1.782 13.259-4.975 11.961-3.193-1.298-3.671-7.582-1.068-14.036 2.604-6.454 7.303-10.633 10.496-9.335 3.193 1.298-1.85 4.956-4.453 11.41ZM85.018 206.7c.233 2.126-.748 3.978-2.19 4.137-1.441.159-2.798-1.435-3.031-3.561-.233-2.125.748-3.977 2.19-4.136 1.441-.159 2.798 1.435 3.03 3.56Z" opacity=".32" fill="#E5E5E5"/><path d="M96.21 235.206c-1.47-.853-.765-2.282 2.806-3.47 7.529-1.659 6.258 1.695 17.092.404 10.835-1.29 16.546-5.774 19.423-8.724 2.301-2.359 4.429-5.552 4.327-4.426-.49 2.397-4.444 8.714-16.343 14.81-14.874 7.619-25.05 2.713-27.304 1.406Z" fill="#080F1B" fill-opacity=".11"/><path d="M144.053 179.332c1.393-.926 1.782-2.811.77-4.143a45.415 45.415 0 0 0-26.167-16.839 45.28 45.28 0 0 0-33.458 5.468 45.592 45.592 0 0 0-20.374 27.199 45.776 45.776 0 0 0 2.68 31.069c.707 1.524 2.567 2.06 4.039 1.248 1.464-.807 1.988-2.643 1.3-4.167a39.666 39.666 0 0 1-2.162-26.57 39.504 39.504 0 0 1 17.654-23.568 39.23 39.23 0 0 1 28.992-4.738 39.347 39.347 0 0 1 22.414 14.253c1.032 1.328 2.913 1.719 4.312.788ZM82.789 236.55c-1.022 1.329-.785 3.246.603 4.18a45.325 45.325 0 0 0 21.891 7.604 45.294 45.294 0 0 0 25.47-5.604 45.53 45.53 0 0 0 18.207-18.738 45.77 45.77 0 0 0 5.149-22.673c-.057-1.676-1.551-2.893-3.215-2.725-1.669.169-2.874 1.663-2.835 3.344a39.655 39.655 0 0 1-4.473 19.232 39.462 39.462 0 0 1-15.777 16.237 39.247 39.247 0 0 1-22.07 4.855 39.25 39.25 0 0 1-18.625-6.36c-1.4-.921-3.3-.684-4.325.648Z" fill="#D7DEED"/><rect x="40.277" y="74.175" width="136.537" height="18.692" rx="9.346" fill="#D7DEED"/><rect x="65.019" y="103.41" width="87.364" height="10.065" rx="5.032" fill="#D7DEED"/><rect x="89.844" y="117.31" width="37.715" height="12.94" rx="6.47" fill="#87AB49"/></g><defs><linearGradient id="c" x1="63.84" y1="130.22" x2="128.208" y2="239.457" gradientUnits="userSpaceOnUse"><stop offset=".395" stop-color="#FF3A3A"/><stop offset=".72" stop-color="#D64D12"/><stop offset=".75" stop-color="#87AB49"/></linearGradient><filter id="a" x=".77" y="23.584" width="215.865" height="330.126" filterUnits="userSpaceOnUse" color-interpolation-filters="sRGB"><feFlood flood-opacity="0" result="BackgroundImageFix"/><feColorMatrix in="SourceAlpha" values="0 0 0 0 0 0 0 0 0 0 0 0 0 0 0 0 0 0 127 0" result="hardAlpha"/><feOffset dy="4"/><feGaussianBlur stdDeviation="11"/><feColorMatrix values="0 0 0 0 0.0925174 0 0 0 0 0.176063 0 0 0 0 0.304167 0 0 0 0.17 0"/><feBlend in2="BackgroundImageFix" result="effect1_dropShadow_8541_176857"/><feBlend in="SourceGraphic" in2="effect1_dropShadow_8541_176857" result="shape"/></filter></defs></svg>