<svg width="489" height="341" fill="none" xmlns="http://www.w3.org/2000/svg"><g filter="url(#a)"><path d="M134.853 88.576a5 5 0 0 1 5-5h145.805a5 5 0 0 1 5 5v63.886a5 5 0 0 1-5 5H139.853a5 5 0 0 1-5-5V88.576Z" fill="#fff"/><path d="M200.447 115.737c-.84 0-1.082.376-1.082 1.204v1.375h2.239l-.224 2.22h-2.014v6.74h-2.688v-6.74h-1.81v-2.22h1.81v-1.337c0-2.24.896-3.423 3.393-3.423.523-.002 1.046.03 1.566.094v2.09l-1.19-.003Zm1.342 6.776c0-2.504 1.175-4.389 3.638-4.389 1.343 0 2.164.697 2.556 1.562v-1.371h2.574v8.96h-2.574v-1.355c-.373.866-1.213 1.544-2.556 1.544-2.463 0-3.638-1.883-3.638-4.389v-.562Zm2.686.603c0 1.336.485 2.22 1.735 2.22 1.101 0 1.661-.809 1.661-2.089v-.899c0-1.28-.56-2.089-1.661-2.089-1.25 0-1.735.884-1.735 2.22v.637Zm11.68-4.99c1.044 0 2.033.226 2.574.602l-.597 1.921a4.194 4.194 0 0 0-1.791-.415c-1.455 0-2.088.847-2.088 2.297v.527c0 1.45.635 2.297 2.088 2.297a4.193 4.193 0 0 0 1.791-.414l.597 1.919c-.541.377-1.529.603-2.574.603-3.153 0-4.59-1.713-4.59-4.461v-.414c0-2.749 1.437-4.462 4.59-4.462Zm2.928 5.012v-.79c0-2.541 1.436-4.213 4.366-4.213 2.761 0 3.974 1.694 3.974 4.179v1.43h-5.655c.057 1.224.598 1.77 2.088 1.77 1.008 0 2.072-.207 2.855-.546l.492 1.856c-.709.378-2.165.66-3.451.66-3.401-.001-4.669-1.713-4.669-4.346Zm2.686-1.168h3.247v-.225c0-.979-.392-1.756-1.566-1.756-1.214.001-1.681.774-1.681 1.978v.003Zm15.611 1.108c0 2.503-1.193 4.389-3.653 4.389-1.344 0-2.276-.678-2.649-1.544v1.355h-2.537v-13.462l2.686-.246v5.986c.392-.789 1.25-1.43 2.5-1.43 2.463 0 3.654 1.882 3.654 4.388l-.001.564Zm-2.686-.622c0-1.261-.485-2.202-1.772-2.202-1.101 0-1.698.79-1.698 2.071v.941c0 1.28.597 2.07 1.698 2.07 1.287 0 1.772-.941 1.772-2.202v-.678Zm3.584.564v-.451c0-2.58 1.456-4.443 4.422-4.443 2.967 0 4.423 1.863 4.423 4.443v.451c0 2.579-1.456 4.443-4.422 4.443-2.966 0-4.423-1.864-4.423-4.443Zm6.158-.64c0-1.185-.486-2.126-1.74-2.126-1.255 0-1.736.941-1.736 2.126v.829c0 1.186.486 2.127 1.736 2.127s1.74-.941 1.74-2.127v-.829Zm3.583.64v-.451c0-2.58 1.455-4.443 4.421-4.443 2.967 0 4.422 1.863 4.422 4.443v.451c0 2.579-1.455 4.443-4.422 4.443-2.966 0-4.421-1.864-4.421-4.443Zm6.157-.64c0-1.185-.486-2.126-1.736-2.126s-1.734.941-1.734 2.126v.829c0 1.186.484 2.127 1.734 2.127s1.736-.941 1.736-2.127v-.829Zm6.379.208 2.649-4.273h2.854l-2.779 4.424 2.892 4.536h-2.855l-2.761-4.388v4.388h-2.687v-13.459l2.687-.246v9.018Z" fill="#D7DEED"/><g clip-path="url(#b)"><path d="M181.277 133.422c.783 0 1.408-.641 1.408-1.422v-22.96c0-.791-.635-1.422-1.408-1.422H158.53c-.774 0-1.409.641-1.409 1.422V132c0 .791.635 1.422 1.409 1.422h22.747Z" fill="#D7DEED"/><path d="M174.759 133.421v-9.993h3.324l.496-3.895h-3.82v-2.483c0-1.132.308-1.893 1.915-1.893h2.044v-3.494c-.358-.05-1.568-.15-2.977-.15-2.946 0-4.96 1.812-4.96 5.146v2.874h-3.333v3.895h3.333v9.993h3.978Z" fill="#fff"/></g></g><g filter="url(#c)"><g clip-path="url(#d)"><path d="M95.686 23.217a5 5 0 0 1 5.001-5h112.029a5 5 0 0 1 5 5v63.886a5 5 0 0 1-5 5H100.687a5 5 0 0 1-5-5V23.217Z" fill="#fff"/><path d="M143.64 49.763a2.823 2.823 0 0 0-1.963-2.008c-1.722-.48-8.651-.48-8.651-.48s-6.929.015-8.65.495a2.823 2.823 0 0 0-1.964 2.007c-.455 1.76-.455 5.44-.455 5.44s0 3.68.47 5.455a2.823 2.823 0 0 0 1.963 2.007c1.722.48 8.65.48 8.65.48s6.929 0 8.651-.48a2.823 2.823 0 0 0 1.963-2.007c.47-1.76.47-5.455.47-5.455s-.015-3.68-.484-5.454Z" fill="#D7DEED"/><path d="m130.821 58.62 5.748-3.403-5.748-3.404v6.808Z" fill="#fff"/><path d="M154.112 61.718c-.441-.305-.754-.77-.939-1.41-.185-.64-.271-1.484-.271-2.546v-1.44c0-1.062.1-1.934.313-2.574.214-.655.541-1.12.996-1.411.456-.291 1.039-.451 1.765-.451.711 0 1.294.145 1.721.45.427.306.754.772.953 1.412.199.64.299 1.498.299 2.56v1.44c0 1.061-.1 1.905-.299 2.545-.199.64-.512 1.105-.953 1.41-.441.292-1.039.452-1.778.452-.769.014-1.366-.146-1.807-.437Zm2.461-1.556c.128-.32.185-.858.185-1.585v-3.099c0-.712-.057-1.236-.185-1.556-.128-.334-.341-.494-.64-.494s-.498.16-.626.494c-.128.335-.185.844-.185 1.556v3.099c0 .727.057 1.265.171 1.585.113.32.327.48.64.48.299 0 .512-.16.64-.48Zm31.187-2.371v.51c0 .64.014 1.12.057 1.44.043.32.114.552.228.697.114.146.298.219.54.219.328 0 .555-.131.669-.393.128-.262.185-.698.199-1.295l1.892.117c.015.087.015.203.015.349 0 .916-.242 1.6-.74 2.05-.498.452-1.181.684-2.077.684-1.082 0-1.836-.349-2.263-1.032-.426-.684-.654-1.76-.654-3.2v-1.76c0-1.484.228-2.575.669-3.258.455-.684 1.223-1.033 2.305-1.033.754 0 1.323.145 1.721.422.398.276.683.712.854 1.309.17.596.242 1.41.242 2.458v1.702h-3.657v.014Zm.285-4.189c-.114.146-.185.364-.228.684-.043.32-.057.8-.057 1.454v.713h1.594v-.713c0-.64-.015-1.12-.057-1.454-.043-.335-.114-.568-.228-.698-.114-.131-.284-.204-.512-.204-.242.014-.413.087-.512.218Zm-39.254 4-2.49-9.193h2.177l.867 4.16c.228 1.033.385 1.906.498 2.618h.057c.072-.523.242-1.381.498-2.603l.897-4.175h2.177l-2.519 9.178v4.408h-2.148v-4.393h-.014Zm17.215-5.527v9.935h-1.707l-.185-1.222h-.043c-.469.916-1.167 1.382-2.091 1.382-.641 0-1.124-.218-1.423-.655-.313-.436-.455-1.105-.455-2.022v-7.418h2.191v7.287c0 .437.042.757.142.946a.489.489 0 0 0 .469.276.96.96 0 0 0 .541-.174 1.16 1.16 0 0 0 .384-.451v-7.884h2.177Zm11.226 0v9.935h-1.708l-.185-1.222h-.042c-.47.916-1.167 1.382-2.092 1.382-.64 0-1.124-.218-1.423-.655-.313-.436-.455-1.105-.455-2.022v-7.418h2.191v7.287c0 .437.043.757.142.946.1.189.257.276.47.276a.96.96 0 0 0 .541-.174c.17-.117.298-.277.384-.451v-7.884h2.177Z" fill="#D7DEED"/><path d="M171.954 50.213h-2.177v11.796h-2.134V50.213h-2.177v-1.804h6.473v1.804h.015Zm12.506 3.447c-.128-.625-.342-1.076-.641-1.367-.298-.276-.697-.422-1.223-.422-.398 0-.783.117-1.124.35a2.373 2.373 0 0 0-.811.916h-.014V47.9h-2.106v14.095h1.807l.228-.945h.042c.171.334.427.596.754.8.342.189.712.29 1.124.29.74 0 1.281-.349 1.636-1.047.342-.698.527-1.789.527-3.258v-1.571c0-1.105-.071-1.978-.199-2.604Zm-2.006 4.059c0 .727-.029 1.294-.086 1.701-.057.408-.156.699-.299.873a.68.68 0 0 1-.554.262.98.98 0 0 1-.498-.131.969.969 0 0 1-.37-.393v-5.643c.071-.277.199-.495.384-.67.185-.174.37-.261.583-.261.228 0 .399.087.512.262.128.174.2.48.256.901.043.422.072 1.019.072 1.804v1.295Z" fill="#D7DEED"/></g></g><g filter="url(#e)"><path d="M265.607 245.518a5 5 0 0 1 5-5h145.805a5 5 0 0 1 5 5v63.886a5 5 0 0 1-5 5H270.607a5 5 0 0 1-5-5v-63.886Z" fill="#fff"/><path d="M329.295 270.667c-1.358.574-2.852 2.195-3.324 4.23-.597 2.579 1.889 3.669 2.093 3.311.24-.42-.445-.562-.587-1.9-.182-1.727.614-3.658 1.616-4.505.186-.158.178.062.178.467 0 .724-.04 7.229-.04 8.586 0 1.837-.075 2.417-.21 2.99-.137.581-.357.974-.191 1.125.187.169.982-.233 1.442-.882.552-.777.745-1.711.78-2.725.042-1.222.04-3.162.042-4.268.002-1.015.017-3.986-.018-5.772-.008-.438-1.212-.898-1.781-.657Zm48.248 8.597c-.044.955-.253 1.701-.513 2.227-.503 1.02-1.548 1.336-1.991-.129-.242-.799-.253-2.133-.08-3.247.177-1.136.671-1.993 1.489-1.916.806.077 1.184 1.125 1.095 3.065Zm-13.598 5.924c-.011 1.587-.258 2.978-.789 3.382-.753.573-1.765.143-1.555-1.014.185-1.025 1.062-2.071 2.346-3.35 0 0 .003.292-.002.982Zm-.206-5.934c-.046.87-.269 1.744-.513 2.238-.503 1.019-1.555 1.337-1.991-.13-.298-1.002-.227-2.3-.079-3.118.191-1.06.655-2.044 1.488-2.044.81 0 1.21.896 1.095 3.054Zm-7.877-.013c-.049.921-.228 1.691-.513 2.251-.517 1.012-1.541 1.333-1.992-.13-.325-1.055-.214-2.493-.079-3.27.201-1.153.704-1.97 1.489-1.892.806.079 1.198 1.125 1.095 3.041Zm36.101 1.076c-.198 0-.287.205-.362.55-.258 1.2-.529 1.471-.879 1.471-.391 0-.742-.594-.832-1.784-.071-.935-.06-2.656.031-4.369.018-.352-.078-.7-1.013-1.043-.403-.147-.988-.364-1.279.345-.823 2.005-1.145 3.596-1.221 4.242-.004.034-.044.041-.052-.037-.048-.518-.156-1.459-.169-3.436-.003-.386-.084-.714-.506-.983-.273-.174-1.105-.482-1.404-.116-.259.301-.56 1.108-.872 2.066-.254.778-.43 1.304-.43 1.304s.003-2.099.006-2.896c.002-.3-.203-.4-.264-.419-.278-.081-.824-.216-1.056-.216-.286 0-.356.161-.356.396 0 .031-.045 2.764-.045 4.676l.001.27c-.158.878-.671 2.071-1.229 2.071-.559 0-.823-.499-.823-2.778 0-1.329.04-1.907.059-2.868.012-.554.034-.979.032-1.076-.004-.296-.511-.445-.747-.5a2.183 2.183 0 0 0-.604-.068c-.228.013-.389.164-.389.371l.001.323c-.293-.466-.765-.789-1.079-.883-.845-.253-1.727-.029-2.392.911-.529.746-.848 1.591-.974 2.806-.091.888-.061 1.789.102 2.55-.197.86-.563 1.212-.963 1.212-.582 0-1.003-.958-.954-2.614.032-1.089.248-1.853.484-2.959.101-.471.019-.718-.186-.955-.188-.216-.589-.327-1.166-.191-.41.097-.997.202-1.534.282 0 0 .032-.13.059-.36.14-1.207-1.159-1.109-1.574-.723-.247.23-.416.501-.479.988-.102.774.524 1.139.524 1.139-.205.948-.709 2.187-1.228 3.082-.278.48-.491.836-.766 1.213l-.002-.421a191 191 0 0 1 .031-4.127c.012-.554.034-.968.033-1.064-.004-.217-.129-.299-.389-.402a2.726 2.726 0 0 0-.786-.177c-.356-.028-.571.163-.566.388l.001.305c-.293-.465-.765-.789-1.079-.883-.845-.253-1.727-.029-2.393.911-.528.746-.875 1.794-.973 2.797-.091.935-.074 1.73.05 2.399-.134.671-.52 1.372-.957 1.372-.559 0-.877-.499-.877-2.778 0-1.329.04-1.907.059-2.868.011-.554.033-.979.032-1.076-.004-.296-.512-.445-.747-.5a2.151 2.151 0 0 0-.624-.067c-.216.017-.368.212-.368.357v.336c-.293-.465-.765-.789-1.079-.883-.845-.253-1.723-.025-2.393.911-.437.61-.791 1.286-.973 2.784a9.391 9.391 0 0 0-.073 1.216c-.174 1.076-.944 2.316-1.574 2.316-.368 0-.719-.722-.719-2.259 0-2.047.125-4.962.146-5.243 0 0 .796-.014.95-.015.397-.005.757.005 1.285-.023.265-.013.521-.973.247-1.092-.124-.054-1-.101-1.348-.108-.292-.007-1.106-.068-1.106-.068s.073-1.935.09-2.139c.015-.17-.204-.258-.329-.311a4.458 4.458 0 0 0-.9-.26c-.446-.093-.649-.002-.688.378-.06.577-.091 2.266-.091 2.266-.327 0-1.446-.064-1.774-.064-.304 0-.632 1.321-.212 1.337.485.019 1.328.035 1.888.052 0 0-.025 2.963-.025 3.878l.001.282c-.308 1.619-1.392 2.493-1.392 2.493.232-1.071-.243-1.875-1.1-2.556a81.268 81.268 0 0 0-1.636-1.246s.404-.402.762-1.21c.254-.572.265-1.227-.358-1.371-1.029-.239-1.878.524-2.131 1.338-.196.63-.091 1.098.293 1.584.028.036.058.072.09.109-.233.452-.552 1.06-.822 1.531-.75 1.31-1.317 2.346-1.745 2.346-.343 0-.338-1.052-.338-2.036 0-.849.062-2.125.112-3.447.016-.437-.201-.686-.564-.911-.22-.137-.691-.406-.963-.406-.409 0-1.586.056-2.698 3.302-.141.41-.416 1.155-.416 1.155l.024-3.904c0-.092-.049-.18-.159-.241-.188-.102-.688-.312-1.134-.312-.212 0-.318.099-.318.298l-.038 6.108c0 .464.012 1.006.057 1.242.045.237.119.43.21.545a.6.6 0 0 0 .369.238c.161.034 1.043.148 1.089-.192.055-.408.057-.849.521-2.494.721-2.561 1.661-3.81 2.104-4.254.077-.078.165-.082.161.045-.019.561-.085 1.964-.13 3.156-.12 3.19.455 3.781 1.277 3.781.629 0 1.515-.631 2.465-2.226a658.05 658.05 0 0 0 1.581-2.672c.288.269.611.558.934.867.75.719.997 1.402.833 2.05-.125.495-.596 1.005-1.434.509-.244-.145-.348-.256-.594-.419-.132-.088-.333-.114-.454-.023-.314.239-.493.543-.596.919-.099.365.264.559.64.728.324.145 1.02.277 1.465.292 1.73.059 3.116-.843 4.081-3.168.173 2.008.908 3.145 2.186 3.145.854 0 1.71-1.114 2.084-2.21.108.447.267.835.473 1.164.984 1.573 2.893 1.234 3.852-.102.297-.413.342-.561.342-.561.14 1.262 1.147 1.702 1.723 1.702.646 0 1.313-.308 1.78-1.369.055.115.115.225.18.329.984 1.574 2.894 1.235 3.853-.101l.119-.17.028.828-.883.817c-1.479 1.369-2.603 2.407-2.685 3.616-.106 1.542 1.133 2.115 2.07 2.19.996.079 1.848-.475 2.372-1.252.461-.684.763-2.155.741-3.608-.009-.582-.024-1.321-.035-2.114a16.955 16.955 0 0 0 1.644-2.279c.587-.982 1.217-2.3 1.539-3.326 0 0 .547.005 1.131-.034.187-.012.24.027.206.165-.042.167-.738 2.874-.103 4.678.435 1.235 1.415 1.632 1.996 1.632.68 0 1.33-.518 1.679-1.287.042.086.086.169.134.245.984 1.574 2.887 1.233 3.853-.101.218-.301.341-.561.341-.561.208 1.305 1.214 1.709 1.79 1.709.601 0 1.171-.249 1.633-1.352.019.486.05.883.098 1.008.029.077.2.173.324.22.549.205 1.109.108 1.317.066.143-.03.255-.146.27-.446.041-.788.016-2.112.253-3.096.397-1.652.768-2.292.944-2.609.098-.178.209-.207.213-.019.009.38.027 1.498.181 2.999.113 1.104.265 1.757.381 1.963.331.591.74.619 1.073.619.212 0 .656-.059.616-.435-.019-.183.014-1.316.406-2.943.256-1.062.683-2.022.837-2.373.056-.129.083-.027.082-.008-.033.732-.105 3.125.19 4.434.401 1.773 1.559 1.972 1.963 1.972.862 0 1.566-.662 1.804-2.402.057-.419-.028-.742-.281-.742" fill="#D7DEED"/><g clip-path="url(#f)" fill="#D7DEED"><path d="M307.575 264.099h-10.706c-4.351 0-7.89 3.571-7.89 7.961v10.802c0 4.39 3.539 7.961 7.89 7.961h10.706c4.351 0 7.89-3.571 7.89-7.961V272.06c0-4.39-3.539-7.961-7.89-7.961Zm5.226 18.763c0 2.912-2.34 5.273-5.226 5.273h-10.706c-2.886 0-5.226-2.361-5.226-5.273V272.06c0-2.912 2.34-5.273 5.226-5.273h10.706c2.886 0 5.226 2.361 5.226 5.273v10.802Z"/><path d="M302.222 270.549c-3.778 0-6.851 3.101-6.851 6.912s3.073 6.912 6.851 6.912c3.777 0 6.85-3.101 6.85-6.912 0-3.812-3.073-6.912-6.85-6.912Zm0 11.135c-2.312 0-4.186-1.891-4.186-4.223 0-2.333 1.874-4.224 4.186-4.224 2.311 0 4.185 1.891 4.185 4.224 0 2.332-1.874 4.223-4.185 4.223Zm6.864-9.427a1.65 1.65 0 0 0 1.641-1.656 1.65 1.65 0 0 0-1.641-1.657 1.65 1.65 0 0 0-1.642 1.657 1.65 1.65 0 0 0 1.642 1.656Z"/></g></g><g filter="url(#g)"><path d="M204.446 181.781a5 5 0 0 1 5-5h145.805a5 5 0 0 1 5 5v63.886a5 5 0 0 1-5 5H209.446a5 5 0 0 1-5-5v-63.886Z" fill="#fff"/><g clip-path="url(#h)" fill="#D7DEED"><path d="m328.691 222.118-6.391-8.494 5.84-7.712h-2.194l-4.75 6.291-4.75-6.291h-2.179l5.826 7.725-6.378 8.494h2.193l5.288-7.034 5.302 7.034h2.193m-43.543-.013-6.379-8.494 5.827-7.712h-2.18l-4.75 6.291-4.75-6.291h-2.193l5.84 7.725-6.392 8.494h2.193l5.302-7.034 5.288 7.034h2.194"/><path d="M292.804 220.419h-4.885v-5.893h4.885c1.857 0 4.064.491 4.064 2.814 0 2.681-2.557 3.079-4.064 3.079Zm-4.885-12.821h4.885c1.319 0 3.539.318 3.539 2.575 0 1.699-1.292 2.721-3.539 2.721h-4.885v-5.296Zm9.366 6.636a4.334 4.334 0 0 0-1.09-.677c1.197-.637 1.991-1.845 1.991-3.238 0-1.036-.39-4.407-5.395-4.407h-6.742v6.995h-2.247a54.4 54.4 0 0 0-1.211 1.619h3.458v7.592h6.742c3.66 0 5.934-1.818 5.934-4.738.013-1.274-.485-2.363-1.44-3.146m10.213 6.53c-3.566 0-6.056-2.774-6.056-6.756s2.49-6.756 6.056-6.756c3.552 0 6.028 2.774 6.028 6.756 0 3.969-2.476 6.756-6.028 6.756Zm0-15.224c-4.683 0-7.939 3.477-7.939 8.468s3.256 8.468 7.939 8.468c4.655 0 7.912-3.477 7.912-8.468s-3.257-8.468-7.912-8.468m-58.908 21.782c-2.151-.202-4.331-.966-6.206-2.174-1.57-1.012-1.924-1.426-1.924-2.257 0-1.665 1.856-4.585 5.027-7.909 1.803-1.889 4.313-4.104 4.583-4.045.529.116 4.748 4.183 6.327 6.093 2.5 3.03 3.65 5.508 3.066 6.612-.445.841-3.196 2.481-5.217 3.11-1.667.521-3.856.742-5.656.57Zm-10.248-6.161c-1.302-1.975-1.962-3.922-2.282-6.734-.106-.93-.068-1.46.24-3.368.382-2.376 1.75-5.124 3.398-6.817.703-.721.765-.739 1.62-.454 1.038.347 2.145 1.101 3.864 2.637l1.005.896-.547.665c-2.547 3.086-5.23 7.459-6.241 10.164-.55 1.469-.771 2.947-.534 3.56.158.414.012.261-.523-.549Zm22.884.335c.127-.62-.034-1.761-.417-2.911-.824-2.49-3.588-7.127-6.125-10.277l-.799-.99.864-.785c1.129-1.025 1.913-1.638 2.758-2.156.669-.411 1.62-.773 2.03-.773.252 0 1.142.911 1.86 1.908 1.113 1.539 1.931 3.41 2.344 5.354.267 1.258.289 3.947.044 5.198a16.457 16.457 0 0 1-1.048 3.27c-.314.677-1.092 1.993-1.434 2.422-.174.215-.174.215-.077-.26Zm-12.406-18.364c-1.172-.589-2.978-1.218-3.976-1.39a7.522 7.522 0 0 0-1.328-.073c-.824.04-.787 0 .535-.617 1.097-.512 2.014-.812 3.258-1.07 1.399-.291 4.027-.294 5.404-.006 1.486.31 3.237.954 4.222 1.552l.292.178-.671-.034c-1.337-.068-3.283.466-5.376 1.472-.631.304-1.178.546-1.219.537-.037-.006-.553-.255-1.141-.549Z"/></g></g><g filter="url(#i)"><path d="M342.72 110.439a5 5 0 0 1 5-5h114.208a5 5 0 0 1 5 5v48.675a5 5 0 0 1-5 5H347.72a5 5 0 0 1-5-5v-48.675Z" fill="#fff"/><path d="M376.908 144.02c-1.158.207-2.337.269-3.556.435l-3.72-11.109v11.586c-1.158.124-2.215.29-3.313.456v-21.223h3.09l4.227 12.042v-12.042h3.272v19.855Zm6.403-12.083c1.26 0 3.191-.062 4.349-.062v3.316c-1.443 0-3.13 0-4.349.062v4.933c1.91-.125 3.821-.291 5.751-.353v3.192l-9.003.725v-19.585h9.003v3.316h-5.751v4.456Zm17.844-4.456h-3.374v15.254c-1.097 0-2.195 0-3.251.041v-15.295h-3.374v-3.316h9.999v3.316Zm5.285 4.228h4.451v3.316h-4.451v7.523h-3.192v-18.383h9.086v3.316h-5.894v4.228Zm11.178 7.938c1.85.041 3.719.186 5.528.29v3.275c-2.906-.187-5.813-.373-8.78-.436v-18.611h3.252v15.482Zm8.272 3.793c1.037.062 2.134.124 3.191.248v-19.523h-3.191v19.275Zm17.438-19.275-4.126 10.093 4.126 11.13c-1.219-.166-2.439-.394-3.658-.601l-2.337-6.135-2.378 5.637c-1.179-.207-2.317-.269-3.496-.435l4.187-9.72-3.781-9.969h3.496l2.134 5.575 2.277-5.575h3.556Z" fill="#D7DEED"/></g><path d="M26.544 92.818a5 5 0 0 1 5-5h129.462a5 5 0 0 1 5 5v55.194a5 5 0 0 1-5 5H31.544a5 5 0 0 1-5-5V92.818Z" fill="#fff"/><g clip-path="url(#j)"><path d="M76.234 126.919c2.584 8.575 10.579 14.822 20.04 14.822 11.554 0 20.92-9.316 20.92-20.807 0-11.491-9.366-20.806-20.92-20.806-11.086 0-20.157 8.578-20.874 19.424 1.354 2.261 1.882 3.66.834 7.367Z" fill="#D7DEED"/><path d="M95.198 115.723c0 .035 0 .07.002.103l-5.12 7.396a5.76 5.76 0 0 0-2.45.431 5.697 5.697 0 0 0-.98.514l-11.24-4.602s-.26 4.256.824 7.427l7.946 3.262a5.772 5.772 0 0 0 3.427 4.077c2.953 1.227 6.357-.171 7.585-3.109.32-.768.47-1.574.448-2.377l7.324-5.207c.059.002.12.004.18.004 4.383 0 7.945-3.554 7.945-7.919s-3.562-7.915-7.945-7.915c-4.382 0-7.946 3.55-7.946 7.915Zm-1.228 14.988a4.488 4.488 0 0 1-5.853 2.402 4.44 4.44 0 0 1-2.304-2.186l2.586 1.066a3.3 3.3 0 0 0 4.31-1.768 3.276 3.276 0 0 0-1.775-4.292l-2.674-1.102a4.475 4.475 0 0 1 3.3.05 4.432 4.432 0 0 1 2.417 2.419 4.415 4.415 0 0 1-.007 3.411Zm9.174-9.712c-2.918 0-5.294-2.367-5.294-5.276 0-2.906 2.376-5.273 5.294-5.273 2.919 0 5.295 2.367 5.295 5.273 0 2.909-2.376 5.276-5.295 5.276Zm-3.967-5.284a3.97 3.97 0 0 1 3.975-3.963 3.971 3.971 0 0 1 3.978 3.963 3.97 3.97 0 0 1-3.978 3.962 3.969 3.969 0 0 1-3.975-3.962Z" fill="#fff"/></g><g filter="url(#k)"><rect x="252.439" y="27.922" width="140.551" height="67.367" rx="5" fill="#fff"/><path d="M355.162 36.706h-64.894v49.798h64.894V36.706Z" fill="#D7DEED"/><path d="M324.345 54.175a.851.851 0 0 1-.279.659c-.206.185-.563.326-1.155.326h-1.191v-1.948h1.138c.531 0 .907.11 1.143.281a.8.8 0 0 1 .344.682m-.965-2.332c.222-.163.329-.394.33-.739-.001-.237-.067-.44-.235-.592-.168-.152-.452-.26-.913-.26h-.842v1.846h.578c.501 0 .859-.091 1.082-.255Z" fill="#fff"/><path d="M325.63 54.318c.003-.9-.585-1.585-1.526-1.847.254-.133.455-.295.602-.492.196-.264.291-.589.289-.967a1.737 1.737 0 0 0-.562-1.292c-.385-.354-.969-.583-1.766-.583h-2.201v7.138h2.583c.922 0 1.569-.255 1.985-.633.417-.376.596-.87.596-1.324Zm2.453 3.34h-10.326v-9.91h10.326v9.91Zm-16.602-5.815c.222-.163.329-.394.331-.739-.001-.237-.068-.44-.235-.592-.168-.152-.453-.26-.914-.26h-.842v1.846h.578c.501 0 .859-.091 1.082-.255Zm.621 1.65c-.235-.171-.612-.281-1.143-.281h-1.138v1.948h1.191c.592 0 .948-.141 1.155-.326a.848.848 0 0 0 .279-.659.8.8 0 0 0-.344-.682" fill="#fff"/><path d="M313.732 54.318c.003-.9-.586-1.585-1.526-1.847.254-.133.454-.295.601-.492.198-.264.291-.589.29-.967a1.74 1.74 0 0 0-.562-1.292c-.385-.354-.969-.583-1.766-.583h-2.201v7.138h2.583c.922 0 1.569-.255 1.985-.633.416-.376.597-.87.596-1.324Zm2.453 3.34h-10.326v-9.91h10.326v9.91Zm21.745-3.294-.165.103c-.8.498-1.669.765-2.459.765-1.692-.007-2.805-1.029-2.809-2.516.001-1.455 1.164-2.532 2.766-2.535.815 0 1.554.215 2.432.706l.161.09V49.65l-.069-.028c-.99-.398-1.756-.575-2.513-.575-1.171 0-2.187.394-2.911 1.063-.723.669-1.153 1.614-1.152 2.698 0 .756.306 1.642.961 2.345.653.703 1.659 1.216 3.038 1.215h.005c1.144 0 1.937-.26 2.655-.62l.06-.03v-1.353Zm2.051 3.294h-10.326v-9.91h10.326v9.91Zm-31.449 5.508h1.56v11.701h-1.413l-7.671-9.012v9.012h-1.544V63.166h1.33l7.738 9.088v-9.088Zm4.521 0h6.505v1.49h-4.862v3.569h4.698v1.5h-4.698v3.635h5.018v1.49h-6.661V63.167Zm24.038 0h1.638l-4.639 11.752h-.361l-3.752-9.516-3.791 9.516h-.352l-4.625-11.752h1.655l3.162 8.066 3.184-8.066h1.553l3.198 8.066 3.13-8.066Zm6.089 6.799-1.248-.774c-.784-.488-1.341-.967-1.672-1.44a2.767 2.767 0 0 1-.497-1.629c0-.921.313-1.67.941-2.244.626-.575 1.441-.863 2.443-.863a4.56 4.56 0 0 1 2.637.823v1.901c-.827-.81-1.717-1.216-2.67-1.216-.536 0-.977.126-1.322.38-.345.252-.518.576-.518.971 0 .35.127.68.381.985.255.306.663.627 1.226.963l1.255.757c1.4.853 2.099 1.939 2.099 3.256 0 .939-.308 1.7-.923 2.287-.617.586-1.418.88-2.403.88-1.133 0-2.165-.355-3.097-1.066v-2.128c.887 1.146 1.914 1.72 3.081 1.72.514 0 .943-.147 1.285-.439.342-.292.514-.658.514-1.098 0-.712-.505-1.387-1.512-2.026" fill="#fff"/></g><g filter="url(#l)"><path d="M117.201 244.142a5 5 0 0 1 5-5h145.805a5 5 0 0 1 5 5v62.799a5 5 0 0 1-5 5H122.201a5 5 0 0 1-5-5v-62.799Z" fill="#fff"/><path d="M182.796 270.829c-.84 0-1.083.37-1.083 1.186v1.355h2.24l-.225 2.188h-2.014v6.64h-2.687v-6.64h-1.81v-2.188h1.81v-1.317c0-2.207.895-3.373 3.393-3.373.523-.001 1.046.029 1.566.092v2.059l-1.19-.002Zm1.342 6.677c0-2.467 1.175-4.324 3.638-4.324 1.343 0 2.163.686 2.556 1.539v-1.351h2.574v8.828h-2.574v-1.335c-.374.854-1.213 1.521-2.556 1.521-2.463 0-3.638-1.855-3.638-4.324v-.554Zm2.686.594c0 1.316.485 2.188 1.735 2.188 1.101 0 1.66-.797 1.66-2.058v-.887c0-1.261-.559-2.058-1.66-2.058-1.25 0-1.735.872-1.735 2.188v.627Zm11.68-4.916c1.044 0 2.033.223 2.574.593l-.597 1.892a4.25 4.25 0 0 0-1.791-.408c-1.455 0-2.088.834-2.088 2.263v.519c0 1.429.634 2.263 2.088 2.263a4.25 4.25 0 0 0 1.791-.408l.597 1.891c-.541.371-1.529.595-2.574.595-3.154 0-4.59-1.689-4.59-4.396v-.408c0-2.708 1.436-4.396 4.59-4.396Zm2.928 4.937v-.778c0-2.504 1.436-4.152 4.366-4.152 2.761 0 3.974 1.67 3.974 4.118v1.41h-5.655c.057 1.205.598 1.743 2.088 1.743 1.008 0 2.071-.204 2.855-.538l.491 1.829c-.709.372-2.164.65-3.45.65-3.401-.001-4.669-1.688-4.669-4.282Zm2.686-1.15h3.246v-.223c0-.964-.391-1.729-1.565-1.729-1.214.001-1.681.762-1.681 1.948v.004Zm15.611 1.091c0 2.467-1.194 4.324-3.654 4.324-1.343 0-2.275-.667-2.649-1.521v1.335h-2.536v-13.264l2.686-.242v5.898c.391-.778 1.25-1.409 2.5-1.409 2.463 0 3.654 1.855 3.654 4.324l-.001.555Zm-2.686-.612c0-1.243-.485-2.17-1.772-2.17-1.102 0-1.699.778-1.699 2.04v.927c0 1.261.597 2.04 1.699 2.04 1.287 0 1.772-.927 1.772-2.17v-.667Zm3.584.556v-.445c0-2.541 1.455-4.377 4.422-4.377 2.966 0 4.422 1.836 4.422 4.377v.445c0 2.541-1.455 4.378-4.421 4.378-2.967 0-4.423-1.837-4.423-4.378Zm6.157-.631c0-1.168-.485-2.095-1.74-2.095-1.254 0-1.735.927-1.735 2.095v.817c0 1.168.485 2.095 1.735 2.095s1.74-.927 1.74-2.095v-.817Zm3.583.631v-.445c0-2.541 1.456-4.377 4.422-4.377 2.966 0 4.422 1.836 4.422 4.377v.445c0 2.541-1.456 4.378-4.422 4.378-2.966 0-4.422-1.837-4.422-4.378Zm6.157-.631c0-1.168-.485-2.095-1.735-2.095s-1.735.927-1.735 2.095v.817c0 1.168.485 2.095 1.735 2.095s1.735-.927 1.735-2.095v-.817Zm6.38.205 2.649-4.21h2.854l-2.779 4.358 2.891 4.47h-2.854l-2.761-4.324v4.324h-2.687v-13.262l2.687-.242v8.886Z" fill="#D7DEED"/><g clip-path="url(#m)"><path d="M163.625 288.254c.784 0 1.409-.631 1.409-1.401v-22.622c0-.779-.635-1.401-1.409-1.401h-22.747a1.41 1.41 0 0 0-1.408 1.401v22.622c0 .78.635 1.401 1.408 1.401h22.747Z" fill="#D7DEED"/><path d="M157.108 288.254v-9.846h3.323l.496-3.838h-3.819v-2.446c0-1.115.308-1.865 1.915-1.865h2.043v-3.443c-.357-.049-1.567-.148-2.976-.148-2.946 0-4.96 1.786-4.96 5.071v2.831h-3.333v3.838h3.333v9.846h3.978Z" fill="#fff"/></g></g><g filter="url(#n)"><path d="M22.736 179.608a5 5 0 0 1 5-5h145.805a5 5 0 0 1 5 5v63.887a5 5 0 0 1-5 5H27.736a5 5 0 0 1-5-5v-63.887Z" fill="#fff"/><g clip-path="url(#o)" fill="#D7DEED"><path d="m83.165 218.929 1.203-3.03c1.3 1.052 3.026 1.599 4.733 1.599 1.26 0 2.056-.526 2.056-1.325-.02-2.231-7.546-.484-7.604-6.082-.02-2.841 2.308-5.029 5.606-5.029 1.959 0 3.918.526 5.315 1.726l-1.125 3.093c-1.28-.884-2.871-1.515-4.384-1.515-1.028 0-1.707.526-1.707 1.199.02 2.189 7.604.989 7.681 6.334 0 2.904-2.27 4.945-5.528 4.945-2.386 0-4.578-.61-6.246-1.915Zm46.146-4.124c-.601 1.136-1.726 1.915-3.026 1.915-1.92 0-3.472-1.684-3.472-3.767s1.552-3.767 3.472-3.767c1.3 0 2.425.779 3.026 1.915l3.317-1.999c-1.241-2.399-3.627-4.04-6.343-4.04-4.015 0-7.274 3.535-7.274 7.891s3.259 7.891 7.274 7.891c2.735 0 5.102-1.62 6.343-4.04l-3.317-1.999Zm-32.704-16.287h4.151v22.032h-4.15v-22.032Zm37.651 0v22.032h4.151v-6.608l4.927 6.608h5.315l-6.266-7.849 5.8-7.323h-5.082l-4.694 6.081v-12.941h-4.151Zm-21.163 16.329c-.601 1.073-1.843 1.873-3.239 1.873-1.92 0-3.472-1.684-3.472-3.767s1.552-3.767 3.472-3.767c1.396 0 2.638.842 3.239 1.936v3.725Zm0-9.469v1.788c-.679-1.241-2.366-2.104-4.131-2.104-3.647 0-6.518 3.493-6.518 7.87 0 4.377 2.871 7.912 6.518 7.912 1.765 0 3.452-.862 4.131-2.104v1.789h4.151v-15.151h-4.151Zm-55.592 9.449c0 1.536-1.145 2.777-2.56 2.777-1.417 0-2.561-1.241-2.561-2.777 0-1.537 1.144-2.778 2.56-2.778h2.56v2.778Zm1.28 0c0-1.537 1.144-2.778 2.56-2.778 1.416 0 2.56 1.241 2.56 2.778v6.944c0 1.536-1.143 2.777-2.56 2.777-1.416 0-2.56-1.241-2.56-2.777v-6.944Zm2.56-11.153c-1.416 0-2.56-1.242-2.56-2.778s1.144-2.778 2.56-2.778c1.416 0 2.56 1.242 2.56 2.778v2.778h-2.56Zm0 1.409c1.416 0 2.56 1.242 2.56 2.778s-1.144 2.778-2.56 2.778h-6.42c-1.416 0-2.56-1.242-2.56-2.778s1.144-2.778 2.56-2.778h6.42Zm10.261 2.778c0-1.536 1.145-2.778 2.56-2.778 1.417 0 2.561 1.242 2.561 2.778s-1.144 2.778-2.56 2.778h-2.56v-2.778Zm-1.28 0c0 1.536-1.144 2.778-2.56 2.778-1.416 0-2.56-1.242-2.56-2.778v-6.965c0-1.536 1.144-2.778 2.56-2.778 1.416 0 2.56 1.242 2.56 2.778v6.965Zm-2.56 11.132c1.416 0 2.56 1.242 2.56 2.778s-1.144 2.777-2.56 2.777c-1.416 0-2.56-1.241-2.56-2.777v-2.778h2.56Zm0-1.389c-1.416 0-2.56-1.241-2.56-2.777 0-1.537 1.144-2.778 2.56-2.778h6.42c1.416 0 2.56 1.241 2.56 2.778 0 1.536-1.144 2.777-2.56 2.777h-6.42Z"/></g></g><g filter="url(#p)"><path d="M287.252 195.906a5 5 0 0 1 5-5h146.894a5 5 0 0 1 5 5v63.886a5 5 0 0 1-5 5H292.252a5 5 0 0 1-5-5v-63.886Z" fill="#fff"/><g clip-path="url(#q)" fill="#D7DEED"><path d="m412.366 236.243-6.437-8.494 5.881-7.712h-2.209l-4.783 6.291-4.783-6.291h-2.195l5.867 7.725-6.423 8.494h2.209l5.325-7.034 5.339 7.034h2.209m-43.849-.013-6.423-8.494 5.867-7.712h-2.195l-4.783 6.291-4.783-6.291h-2.209l5.881 7.725-6.436 8.494h2.208l5.339-7.034 5.325 7.034h2.209"/><path d="M376.227 234.544h-4.919v-5.893h4.919c1.87 0 4.092.491 4.092 2.814 0 2.681-2.574 3.079-4.092 3.079Zm-4.919-12.821h4.919c1.328 0 3.564.318 3.564 2.575 0 1.699-1.301 2.721-3.564 2.721h-4.919v-5.296Zm9.431 6.636a4.37 4.37 0 0 0-1.097-.677c1.206-.637 2.005-1.845 2.005-3.238 0-1.036-.393-4.407-5.434-4.407h-6.788v6.995h-2.263a56.784 56.784 0 0 0-1.22 1.619h3.483v7.592h6.788c3.686 0 5.976-1.818 5.976-4.738.014-1.274-.488-2.363-1.45-3.146m10.285 6.53c-3.591 0-6.098-2.774-6.098-6.756s2.507-6.756 6.098-6.756c3.577 0 6.07 2.774 6.07 6.756 0 3.969-2.493 6.756-6.07 6.756Zm0-15.224c-4.716 0-7.995 3.477-7.995 8.468s3.279 8.468 7.995 8.468c4.688 0 7.967-3.477 7.967-8.468s-3.279-8.468-7.967-8.468m-59.32 21.782c-2.166-.202-4.361-.966-6.249-2.174-1.581-1.012-1.938-1.426-1.938-2.257 0-1.665 1.869-4.585 5.063-7.909 1.816-1.889 4.342-4.104 4.615-4.045.532.116 4.781 4.183 6.371 6.093 2.517 3.03 3.676 5.508 3.087 6.612-.447.841-3.218 2.481-5.253 3.11-1.679.521-3.883.742-5.696.57Zm-10.319-6.161c-1.312-1.975-1.976-3.922-2.298-6.734-.106-.93-.069-1.46.241-3.368.385-2.376 1.763-5.124 3.422-6.817.708-.721.77-.739 1.631-.454 1.046.347 2.161 1.101 3.892 2.637l1.011.896-.551.665c-2.564 3.086-5.266 7.459-6.283 10.164-.555 1.469-.777 2.947-.539 3.56.16.414.013.261-.526-.549Zm23.043.335c.129-.62-.034-1.761-.419-2.911-.83-2.49-3.613-7.127-6.168-10.277l-.805-.99.871-.785c1.136-1.025 1.925-1.638 2.777-2.156.673-.411 1.631-.773 2.044-.773.254 0 1.149.911 1.873 1.908 1.121 1.539 1.944 3.41 2.36 5.354.27 1.258.292 3.947.044 5.198a16.214 16.214 0 0 1-1.055 3.27c-.316.677-1.099 1.993-1.443 2.422-.176.215-.176.215-.079-.26Zm-12.492-18.364c-1.18-.589-2.999-1.218-4.004-1.39a7.619 7.619 0 0 0-1.337-.073c-.83.04-.792 0 .538-.617 1.106-.512 2.029-.812 3.282-1.07 1.408-.291 4.054-.294 5.441-.006 1.497.31 3.259.954 4.252 1.552l.294.178-.676-.034c-1.346-.068-3.306.466-5.413 1.472-.636.304-1.187.546-1.228.537-.037-.006-.557-.255-1.149-.549Z"/></g></g><path transform="scale(.99699 1.003) rotate(-45 388.578 -38.651)" fill="#FB1B43" stroke="#FB1B43" d="M.705 0h268.184v22.973H.705z"/><g filter="url(#r)"><rect x="146.727" y="111.626" width="187.402" height="119.522" rx="20" fill="#fff"/><path fill="#04518D" d="m231.953 155.594 7.748-7.748 7.749 7.748-7.749 7.748z"/><path d="m219.16 151.83 17.503-17.746h6.888l7.318 7.291-5.596 5.435-5.45-5.435-13.716 13.958 5.106 5.106-5.106 5.166-6.947-6.888v-6.887Z" fill="#01A0E3"/><path d="m261.08 159.335-17.504 17.745h-6.888l-7.318-7.291 5.596-5.435 5.45 5.435 13.716-13.958-5.106-5.106 5.106-5.166 6.948 6.888v6.888Zm-87.311 39.666h-2.892v-2.165h2.892c.394 0 .713-.066.958-.199s.423-.317.535-.551c.117-.24.176-.509.176-.807 0-.32-.059-.615-.176-.887a1.434 1.434 0 0 0-.535-.655c-.245-.17-.564-.255-.958-.255h-1.837v9.465h-2.804v-11.63h4.641c.932 0 1.733.171 2.404.511.676.341 1.195.81 1.557 1.406.363.591.544 1.267.544 2.029 0 .751-.181 1.406-.544 1.965-.362.559-.881.996-1.557 1.31-.671.309-1.472.463-2.404.463Zm16.591-2.101v.472c0 .889-.125 1.688-.376 2.396a5.183 5.183 0 0 1-1.046 1.805 4.635 4.635 0 0 1-1.605 1.142c-.618.261-1.3.392-2.045.392a5.282 5.282 0 0 1-2.061-.392 4.713 4.713 0 0 1-1.613-1.142 5.312 5.312 0 0 1-1.055-1.805c-.245-.708-.367-1.507-.367-2.396v-.472c0-.889.122-1.688.367-2.396.251-.708.599-1.31 1.047-1.805a4.487 4.487 0 0 1 1.605-1.142c.623-.266 1.31-.4 2.061-.4a5.12 5.12 0 0 1 2.045.4 4.473 4.473 0 0 1 1.613 1.142c.453.495.804 1.097 1.054 1.805.251.708.376 1.507.376 2.396Zm-2.844.472v-.488c0-.575-.05-1.081-.151-1.517-.096-.442-.24-.812-.432-1.11a1.91 1.91 0 0 0-1.661-.903c-.373 0-.698.077-.975.232a1.853 1.853 0 0 0-.694.671c-.187.298-.328.668-.424 1.11-.09.436-.136.942-.136 1.517v.488c0 .569.046 1.075.136 1.517.096.437.237.807.424 1.111.191.303.426.532.702.686.283.155.61.232.983.232.357 0 .673-.077.95-.232a1.9 1.9 0 0 0 .695-.686c.192-.304.336-.674.432-1.111a6.85 6.85 0 0 0 .151-1.517Zm11.647 1.637h2.796c-.037.809-.256 1.523-.655 2.141-.399.617-.953 1.099-1.661 1.445-.703.341-1.534.512-2.492.512-.778 0-1.473-.131-2.085-.392a4.25 4.25 0 0 1-1.55-1.126c-.42-.49-.743-1.084-.966-1.781-.219-.698-.328-1.483-.328-2.356v-.631c0-.874.115-1.659.344-2.357.234-.703.564-1.299.99-1.789a4.297 4.297 0 0 1 1.55-1.134c.601-.261 1.27-.392 2.005-.392 1.011 0 1.866.181 2.564.544.697.362 1.238.86 1.621 1.493.383.629.61 1.345.679 2.149h-2.796c-.01-.437-.085-.802-.223-1.094a1.382 1.382 0 0 0-.655-.671c-.298-.149-.695-.224-1.19-.224-.347 0-.647.064-.903.192-.256.127-.469.33-.639.607-.17.277-.298.636-.383 1.078-.08.437-.12.964-.12 1.582v.647c0 .617.037 1.144.112 1.581.074.437.194.793.359 1.07.165.277.378.482.639.615.266.128.591.192.975.192.426 0 .785-.066 1.078-.2.293-.138.519-.346.679-.623.16-.282.245-.641.255-1.078Zm7.638-7.692v11.63h-2.796v-11.63h2.796Zm6.709 0-4.177 7.029h-3.02l-.335-2.532h1.909l2.236-4.497h3.387Zm-2.907 11.63-2.724-5.088 2.037-1.877 3.994 6.965h-3.307Zm14.331-6.047v.472c0 .889-.126 1.688-.376 2.396a5.214 5.214 0 0 1-1.046 1.805 4.64 4.64 0 0 1-1.606 1.142 5.199 5.199 0 0 1-2.045.392c-.75 0-1.437-.131-2.06-.392a4.717 4.717 0 0 1-1.614-1.142 5.31 5.31 0 0 1-1.054-1.805c-.245-.708-.368-1.507-.368-2.396v-.472c0-.889.123-1.688.368-2.396.25-.708.599-1.31 1.046-1.805a4.5 4.5 0 0 1 1.606-1.142c.623-.266 1.31-.4 2.06-.4.746 0 1.428.134 2.045.4a4.486 4.486 0 0 1 1.614 1.142 5.216 5.216 0 0 1 1.054 1.805c.25.708.376 1.507.376 2.396Zm-2.844.472v-.488a6.77 6.77 0 0 0-.152-1.517c-.096-.442-.239-.812-.431-1.11a1.914 1.914 0 0 0-1.662-.903c-.372 0-.697.077-.974.232a1.848 1.848 0 0 0-.695.671c-.186.298-.327.668-.423 1.11a7.492 7.492 0 0 0-.136 1.517v.488c0 .569.045 1.075.136 1.517.096.437.237.807.423 1.111.192.303.426.532.703.686.282.155.61.232.982.232.357 0 .674-.077.951-.232a1.9 1.9 0 0 0 .695-.686c.192-.304.335-.674.431-1.111.101-.442.152-.948.152-1.517Zm6.423-6.055h2.285l2.596 8.091 2.595-8.091h2.285l-3.954 11.63h-1.853l-3.954-11.63Zm-1.39 0h2.365l.439 8.914v2.716h-2.804v-11.63Zm10.176 0h2.373v11.63h-2.812v-2.716l.439-8.914Zm12.742 4.617v2.157h-5.967v-2.157h5.967Zm-5.032-4.617v11.63h-2.804v-11.63h2.804Zm6.917 0v11.63h-2.796v-11.63h2.796Zm7.589 2.444-2.835 9.186h-3.012l4.274-11.63h1.909l-.336 2.444Zm2.348 9.186-2.843-9.186-.368-2.444h1.933l4.298 11.63h-3.02Zm-.111-4.337v2.164h-5.967v-2.164h5.967Zm14.147 2.18v2.157h-8.171v-2.157h8.171Zm-7.245 0v5.008h-2.596l-.192-5.008h2.788Zm9.154 0-.296 5.016h-2.516v-5.016h2.812Zm-3.131-9.473v2.165h-5.839v-2.165h5.839Zm1.885 0v11.63h-2.788v-11.63h2.788Zm-7.908 0h2.796l-.344 4.769a15.848 15.848 0 0 1-.279 2.124 9.48 9.48 0 0 1-.456 1.558 6.24 6.24 0 0 1-.575 1.126 5.508 5.508 0 0 1-.655.823 9.202 9.202 0 0 1-.671.639 14.63 14.63 0 0 0-.647.591h-1.701v-2.157h.559c.165-.117.33-.274.495-.471.171-.202.331-.477.48-.823.149-.346.279-.796.391-1.35.112-.553.197-1.24.256-2.06l.351-4.769Zm15.577 6.063h-2.005v-1.406h1.486c.346 0 .625-.056.838-.168.213-.117.371-.282.472-.495a1.81 1.81 0 0 0 .151-.767 1.12 1.12 0 0 0-.175-.607 1.175 1.175 0 0 0-.519-.447c-.235-.112-.533-.168-.895-.168-.277 0-.53.045-.759.136-.229.09-.41.223-.543.399a1.01 1.01 0 0 0-.2.639h-2.795c0-.522.114-.988.343-1.398a3.25 3.25 0 0 1 .935-1.046 4.413 4.413 0 0 1 1.374-.655 5.777 5.777 0 0 1 1.645-.232c.666 0 1.267.072 1.805.216a4.07 4.07 0 0 1 1.382.623c.389.277.687.623.895 1.038.207.41.311.887.311 1.43 0 .4-.09.775-.272 1.126a2.772 2.772 0 0 1-.758.927c-.33.266-.727.477-1.19.631a4.915 4.915 0 0 1-1.526.224Zm-2.005-.711h2.005c.623 0 1.177.066 1.661.199.485.134.895.328 1.23.584.341.255.599.572.775.95.176.373.264.801.264 1.286 0 .543-.115 1.028-.344 1.454-.223.42-.54.777-.95 1.07-.41.293-.895.514-1.454.663a7.028 7.028 0 0 1-1.829.224 6.853 6.853 0 0 1-1.606-.192 4.961 4.961 0 0 1-1.437-.607 3.195 3.195 0 0 1-1.039-1.046c-.255-.426-.383-.938-.383-1.534h2.812c0 .234.069.445.207.631.144.186.341.333.591.439.251.107.535.16.855.16.373 0 .69-.059.95-.176.267-.117.469-.277.607-.479.139-.202.208-.426.208-.671 0-.287-.034-.53-.104-.727a1.123 1.123 0 0 0-.311-.487 1.196 1.196 0 0 0-.519-.272 2.565 2.565 0 0 0-.703-.087h-1.486v-1.382Zm18.165.231v.472c0 .889-.125 1.688-.376 2.396a5.198 5.198 0 0 1-1.046 1.805 4.645 4.645 0 0 1-1.605 1.142c-.618.261-1.3.392-2.045.392a5.282 5.282 0 0 1-2.061-.392 4.713 4.713 0 0 1-1.613-1.142 5.295 5.295 0 0 1-1.055-1.805c-.245-.708-.367-1.507-.367-2.396v-.472c0-.889.122-1.688.367-2.396.25-.708.599-1.31 1.047-1.805a4.487 4.487 0 0 1 1.605-1.142c.623-.266 1.31-.4 2.061-.4a5.12 5.12 0 0 1 2.045.4c.623.261 1.16.641 1.613 1.142.453.495.804 1.097 1.054 1.805.251.708.376 1.507.376 2.396Zm-2.844.472v-.488c0-.575-.05-1.081-.151-1.517-.096-.442-.24-.812-.432-1.11a1.91 1.91 0 0 0-1.661-.903c-.373 0-.698.077-.975.232a1.856 1.856 0 0 0-.695.671c-.186.298-.327.668-.423 1.11-.09.436-.136.942-.136 1.517v.488c0 .569.046 1.075.136 1.517.096.437.237.807.423 1.111.192.303.426.532.703.686.283.155.61.232.983.232.357 0 .673-.077.95-.232a1.9 1.9 0 0 0 .695-.686c.192-.304.336-.674.432-1.111a6.85 6.85 0 0 0 .151-1.517Zm9.674 1.629h-2.891v-2.165h2.891c.394 0 .714-.066.959-.199s.423-.317.535-.551c.117-.24.176-.509.176-.807 0-.32-.059-.615-.176-.887a1.434 1.434 0 0 0-.535-.655c-.245-.17-.565-.255-.959-.255h-1.837v9.465h-2.803v-11.63h4.64c.932 0 1.734.171 2.405.511.676.341 1.195.81 1.557 1.406.362.591.543 1.267.543 2.029 0 .751-.181 1.406-.543 1.965-.362.559-.881.996-1.557 1.31-.671.309-1.473.463-2.405.463Z" fill="#04518D"/></g><path fill-rule="evenodd" clip-rule="evenodd" d="M119.307 171.891c0 66.551 54.193 121.326 120.55 121.326s120.55-54.775 120.55-121.326c0-66.55-54.193-121.325-120.55-121.325s-120.55 54.775-120.55 121.325Zm120.55-140.71c-77.323 0-140.006 63.676-140.006 140.71 0 77.035 62.683 140.71 140.006 140.71 77.324 0 140.007-63.675 140.007-140.71 0-77.034-62.683-140.71-140.007-140.71Z" fill="#FB1B43"/><defs><filter id="a" x="112.853" y="65.576" width="199.805" height="117.886" filterUnits="userSpaceOnUse" color-interpolation-filters="sRGB"><feFlood flood-opacity="0" result="BackgroundImageFix"/><feColorMatrix in="SourceAlpha" values="0 0 0 0 0 0 0 0 0 0 0 0 0 0 0 0 0 0 127 0" result="hardAlpha"/><feOffset dy="4"/><feGaussianBlur stdDeviation="11"/><feColorMatrix values="0 0 0 0 0.0925174 0 0 0 0 0.176063 0 0 0 0 0.304167 0 0 0 0.17 0"/><feBlend in2="BackgroundImageFix" result="effect1_dropShadow_7449_117010"/><feBlend in="SourceGraphic" in2="effect1_dropShadow_7449_117010" result="shape"/></filter><filter id="c" x="73.686" y=".217" width="166.029" height="117.886" filterUnits="userSpaceOnUse" color-interpolation-filters="sRGB"><feFlood flood-opacity="0" result="BackgroundImageFix"/><feColorMatrix in="SourceAlpha" values="0 0 0 0 0 0 0 0 0 0 0 0 0 0 0 0 0 0 127 0" result="hardAlpha"/><feOffset dy="4"/><feGaussianBlur stdDeviation="11"/><feColorMatrix values="0 0 0 0 0.0925174 0 0 0 0 0.176063 0 0 0 0 0.304167 0 0 0 0.17 0"/><feBlend in2="BackgroundImageFix" result="effect1_dropShadow_7449_117010"/><feBlend in="SourceGraphic" in2="effect1_dropShadow_7449_117010" result="shape"/></filter><filter id="e" x="243.607" y="222.518" width="199.805" height="117.886" filterUnits="userSpaceOnUse" color-interpolation-filters="sRGB"><feFlood flood-opacity="0" result="BackgroundImageFix"/><feColorMatrix in="SourceAlpha" values="0 0 0 0 0 0 0 0 0 0 0 0 0 0 0 0 0 0 127 0" result="hardAlpha"/><feOffset dy="4"/><feGaussianBlur stdDeviation="11"/><feColorMatrix values="0 0 0 0 0.0925174 0 0 0 0 0.176063 0 0 0 0 0.304167 0 0 0 0.17 0"/><feBlend in2="BackgroundImageFix" result="effect1_dropShadow_7449_117010"/><feBlend in="SourceGraphic" in2="effect1_dropShadow_7449_117010" result="shape"/></filter><filter id="g" x="182.446" y="158.781" width="199.805" height="117.886" filterUnits="userSpaceOnUse" color-interpolation-filters="sRGB"><feFlood flood-opacity="0" result="BackgroundImageFix"/><feColorMatrix in="SourceAlpha" values="0 0 0 0 0 0 0 0 0 0 0 0 0 0 0 0 0 0 127 0" result="hardAlpha"/><feOffset dy="4"/><feGaussianBlur stdDeviation="11"/><feColorMatrix values="0 0 0 0 0.0925174 0 0 0 0 0.176063 0 0 0 0 0.304167 0 0 0 0.17 0"/><feBlend in2="BackgroundImageFix" result="effect1_dropShadow_7449_117010"/><feBlend in="SourceGraphic" in2="effect1_dropShadow_7449_117010" result="shape"/></filter><filter id="i" x="320.72" y="87.439" width="168.208" height="102.675" filterUnits="userSpaceOnUse" color-interpolation-filters="sRGB"><feFlood flood-opacity="0" result="BackgroundImageFix"/><feColorMatrix in="SourceAlpha" values="0 0 0 0 0 0 0 0 0 0 0 0 0 0 0 0 0 0 127 0" result="hardAlpha"/><feOffset dy="4"/><feGaussianBlur stdDeviation="11"/><feColorMatrix values="0 0 0 0 0.0925174 0 0 0 0 0.176063 0 0 0 0 0.304167 0 0 0 0.17 0"/><feBlend in2="BackgroundImageFix" result="effect1_dropShadow_7449_117010"/><feBlend in="SourceGraphic" in2="effect1_dropShadow_7449_117010" result="shape"/></filter><filter id="k" x="230.439" y="9.922" width="184.552" height="111.367" filterUnits="userSpaceOnUse" color-interpolation-filters="sRGB"><feFlood flood-opacity="0" result="BackgroundImageFix"/><feColorMatrix in="SourceAlpha" values="0 0 0 0 0 0 0 0 0 0 0 0 0 0 0 0 0 0 127 0" result="hardAlpha"/><feOffset dy="4"/><feGaussianBlur stdDeviation="11"/><feColorMatrix values="0 0 0 0 0.0925174 0 0 0 0 0.176063 0 0 0 0 0.304167 0 0 0 0.17 0"/><feBlend in2="BackgroundImageFix" result="effect1_dropShadow_7449_117010"/><feBlend in="SourceGraphic" in2="effect1_dropShadow_7449_117010" result="shape"/></filter><filter id="l" x="95.201" y="221.142" width="199.805" height="116.8" filterUnits="userSpaceOnUse" color-interpolation-filters="sRGB"><feFlood flood-opacity="0" result="BackgroundImageFix"/><feColorMatrix in="SourceAlpha" values="0 0 0 0 0 0 0 0 0 0 0 0 0 0 0 0 0 0 127 0" result="hardAlpha"/><feOffset dy="4"/><feGaussianBlur stdDeviation="11"/><feColorMatrix values="0 0 0 0 0.0925174 0 0 0 0 0.176063 0 0 0 0 0.304167 0 0 0 0.17 0"/><feBlend in2="BackgroundImageFix" result="effect1_dropShadow_7449_117010"/><feBlend in="SourceGraphic" in2="effect1_dropShadow_7449_117010" result="shape"/></filter><filter id="n" x=".736" y="156.608" width="199.805" height="117.886" filterUnits="userSpaceOnUse" color-interpolation-filters="sRGB"><feFlood flood-opacity="0" result="BackgroundImageFix"/><feColorMatrix in="SourceAlpha" values="0 0 0 0 0 0 0 0 0 0 0 0 0 0 0 0 0 0 127 0" result="hardAlpha"/><feOffset dy="4"/><feGaussianBlur stdDeviation="11"/><feColorMatrix values="0 0 0 0 0.0925174 0 0 0 0 0.176063 0 0 0 0 0.304167 0 0 0 0.17 0"/><feBlend in2="BackgroundImageFix" result="effect1_dropShadow_7449_117010"/><feBlend in="SourceGraphic" in2="effect1_dropShadow_7449_117010" result="shape"/></filter><filter id="p" x="265.252" y="172.906" width="200.895" height="117.886" filterUnits="userSpaceOnUse" color-interpolation-filters="sRGB"><feFlood flood-opacity="0" result="BackgroundImageFix"/><feColorMatrix in="SourceAlpha" values="0 0 0 0 0 0 0 0 0 0 0 0 0 0 0 0 0 0 127 0" result="hardAlpha"/><feOffset dy="4"/><feGaussianBlur stdDeviation="11"/><feColorMatrix values="0 0 0 0 0.0925174 0 0 0 0 0.176063 0 0 0 0 0.304167 0 0 0 0.17 0"/><feBlend in2="BackgroundImageFix" result="effect1_dropShadow_7449_117010"/><feBlend in="SourceGraphic" in2="effect1_dropShadow_7449_117010" result="shape"/></filter><filter id="r" x="124.727" y="93.626" width="231.401" height="163.521" filterUnits="userSpaceOnUse" color-interpolation-filters="sRGB"><feFlood flood-opacity="0" result="BackgroundImageFix"/><feColorMatrix in="SourceAlpha" values="0 0 0 0 0 0 0 0 0 0 0 0 0 0 0 0 0 0 127 0" result="hardAlpha"/><feOffset dy="4"/><feGaussianBlur stdDeviation="11"/><feColorMatrix values="0 0 0 0 0.0925174 0 0 0 0 0.176063 0 0 0 0 0.304167 0 0 0 0.17 0"/><feBlend in2="BackgroundImageFix" result="effect1_dropShadow_7449_117010"/><feBlend in="SourceGraphic" in2="effect1_dropShadow_7449_117010" result="shape"/></filter><clipPath id="b"><path fill="#fff" transform="translate(156.665 107.157)" d="M0 0h26.487v26.725H0z"/></clipPath><clipPath id="d"><path d="M95.686 23.217a5 5 0 0 1 5.001-5h112.029a5 5 0 0 1 5 5v63.886a5 5 0 0 1-5 5H100.687a5 5 0 0 1-5-5V23.217Z" fill="#fff"/></clipPath><clipPath id="f"><path fill="#fff" transform="translate(288.979 264.099)" d="M0 0h26.487v26.725H0z"/></clipPath><clipPath id="h"><path fill="#fff" transform="translate(235.607 199.576)" d="M0 0h93.483v28.297H0z"/></clipPath><clipPath id="j"><path fill="#fff" transform="translate(75.356 100.128)" d="M0 0h41.839v41.613H0z"/></clipPath><clipPath id="m"><path fill="#fff" transform="translate(139.014 262.376)" d="M0 0h26.487v26.332H0z"/></clipPath><clipPath id="o"><path fill="#fff" transform="translate(52.227 197.992)" d="M0 0h96.599v26.725H0z"/></clipPath><clipPath id="q"><path fill="#fff" transform="translate(318.631 213.701)" d="M0 0h94.137v28.297H0z"/></clipPath></defs></svg>