<svg width="100" height="25" fill="none" xmlns="http://www.w3.org/2000/svg"><path d="M38.319 5.209c.823 0 1.566.08 2.228.243.677.147 1.295.36 1.854.64l-.618 2.073a9.76 9.76 0 0 0-1.721-.661 6.155 6.155 0 0 0-1.61-.221c-.75 0-1.34.154-1.766.463-.412.31-.618.728-.618 1.258 0 .515.17.912.508 1.191.353.265.912.522 1.677.772l1.346.442c1.147.382 2.022.912 2.625 1.588.603.677.905 1.479.905 2.405 0 .603-.118 1.155-.353 1.655a3.99 3.99 0 0 1-1.015 1.324c-.442.367-.986.654-1.633.86-.632.206-1.353.31-2.162.31-.794 0-1.567-.074-2.317-.221a9.419 9.419 0 0 1-2.162-.75l.618-2.052c.632.308 1.25.544 1.853.706a7.291 7.291 0 0 0 1.898.242c.794 0 1.412-.154 1.853-.463.456-.309.684-.758.684-1.346 0-.206-.037-.405-.11-.596a1.324 1.324 0 0 0-.398-.53c-.176-.176-.426-.338-.75-.485a7.949 7.949 0 0 0-1.213-.485l-1.236-.42c-1.015-.352-1.831-.816-2.449-1.39-.603-.588-.904-1.411-.904-2.47 0-1.221.426-2.207 1.28-2.957.852-.75 2.088-1.125 3.706-1.125Zm17.085 8.803c0 .868-.14 1.648-.42 2.339a4.758 4.758 0 0 1-1.124 1.743 5.003 5.003 0 0 1-1.7 1.081 5.767 5.767 0 0 1-2.095.375c-.75 0-1.45-.117-2.096-.353a4.878 4.878 0 0 1-1.655-1.015 4.76 4.76 0 0 1-1.103-1.677c-.265-.661-.397-1.419-.397-2.272 0-.883.132-1.67.397-2.36.28-.707.662-1.295 1.147-1.766a5.002 5.002 0 0 1 1.699-1.081 5.766 5.766 0 0 1 2.096-.375c.75 0 1.441.118 2.074.353.647.22 1.206.559 1.677 1.015a4.76 4.76 0 0 1 1.103 1.677c.265.662.397 1.434.397 2.316Zm-2.692.11c0-.632-.073-1.169-.22-1.61-.147-.456-.346-.824-.596-1.103a2.148 2.148 0 0 0-.839-.618 2.439 2.439 0 0 0-.97-.199c-.339 0-.662.06-.971.177a1.811 1.811 0 0 0-.816.574c-.236.264-.427.625-.574 1.08-.147.457-.22 1.023-.22 1.7 0 .617.073 1.147.22 1.588.147.427.338.787.574 1.081.25.28.53.486.838.618a2.6 2.6 0 0 0 1.942.022 2.04 2.04 0 0 0 .838-.574c.235-.264.427-.617.574-1.059.147-.456.22-1.014.22-1.676ZM61.73 3.554c.501 0 .994.066 1.48.199.484.132.918.301 1.3.507l-.507 1.721a5.735 5.735 0 0 0-.794-.287 2.882 2.882 0 0 0-.816-.11c-.574 0-1 .17-1.28.507-.265.339-.397.905-.397 1.7v1.058h2.824v1.898h-2.824v8.582h-2.581v-8.582h-1.567V8.849h1.567V7.151c0-1.162.323-2.052.97-2.67.648-.618 1.523-.927 2.626-.927Zm9.525 7.193h-2.89v5.251c0 .5.117.846.352 1.037.25.177.567.265.95.265.293 0 .602-.03.926-.088.323-.06.596-.14.816-.243l.397 1.853c-.28.118-.662.235-1.147.353a7.11 7.11 0 0 1-1.522.154c-1.192 0-2.052-.242-2.582-.728-.515-.485-.772-1.213-.772-2.184v-5.67h-1.589V8.849h1.589V5.584h2.581v3.265h2.89v1.898Zm2.36 8.583V3.62h2.56v15.71h-2.56Zm5.583-9.554a9.75 9.75 0 0 1 1.963-.816 7.326 7.326 0 0 1 2.184-.31c.618 0 1.177.074 1.677.221.5.133.934.354 1.302.662.368.31.647.714.838 1.214.206.485.31 1.081.31 1.787v6.795h-2.053l-.264-1.103h-.067c-.75.883-1.816 1.324-3.199 1.324-1.103 0-1.963-.287-2.581-.86-.618-.589-.927-1.346-.927-2.273 0-.588.125-1.096.375-1.522a3.18 3.18 0 0 1 1.015-1.06 4.848 4.848 0 0 1 1.567-.617 8.275 8.275 0 0 1 1.963-.22h1.545v-.729c0-.573-.17-.978-.508-1.213-.338-.25-.794-.375-1.368-.375-.412 0-.853.066-1.323.198-.456.133-.964.36-1.523.684l-.926-1.787Zm5.67 4.876-1.192.044c-.97.03-1.647.199-2.03.508-.382.294-.573.654-.573 1.08 0 .545.162.913.485 1.104a2.17 2.17 0 0 0 1.125.287c.427 0 .832-.103 1.214-.31.397-.22.72-.521.97-.904v-1.809Zm3.756-5.802h2.824l1.964 5.339.728 2.515h.066l.706-2.537 1.765-5.318h2.67l-3.905 11.032c-.427 1.221-1 2.273-1.721 3.155-.72.883-1.706 1.537-2.957 1.964l-1.103-2.052a5.682 5.682 0 0 0 1.986-1.236c.559-.53.963-1.206 1.213-2.03l.11-.374-4.346-10.459Z" fill="#5A78A6"/><path d="M11.299 1.204c.521-1.605 2.791-1.605 3.313 0l1.667 5.132a1.742 1.742 0 0 0 1.657 1.203h5.396c1.687 0 2.389 2.16 1.024 3.151l-4.366 3.172a1.742 1.742 0 0 0-.632 1.947l1.667 5.133c.522 1.604-1.315 2.939-2.68 1.947l-4.366-3.172a1.742 1.742 0 0 0-2.048 0L7.566 22.89c-1.365.992-3.202-.343-2.68-1.947l1.667-5.133a1.742 1.742 0 0 0-.633-1.947L1.555 10.69C.189 9.698.89 7.54 2.578 7.54h5.397c.754 0 1.423-.487 1.656-1.204L11.3 1.204Z" fill="#FFAC33"/></svg>