<svg width="50" height="51" fill="none" xmlns="http://www.w3.org/2000/svg"><g clip-path="url(#a)" fill="#87AB49"><path d="M6.94 17.16c-.861 0-1.592.3-2.193.901a2.95 2.95 0 0 0-.901 2.164v12.92c0 .863.3 1.593.901 2.194.6.601 1.332.902 2.193.902s1.588-.3 2.18-.902c.59-.6.886-1.331.886-2.194v-12.92c0-.842-.3-1.563-.902-2.164a2.952 2.952 0 0 0-2.164-.9ZM31.82 5.562l2.134-3.936c.14-.26.09-.46-.15-.6-.26-.122-.461-.06-.6.18L31.04 5.171A14.773 14.773 0 0 0 25 3.91a14.77 14.77 0 0 0-6.04 1.263l-2.163-3.967c-.14-.24-.341-.3-.601-.18-.24.141-.29.34-.15.601l2.134 3.936c-2.164 1.103-3.887 2.64-5.169 4.613-1.282 1.974-1.923 4.131-1.923 6.475h27.794c0-2.343-.642-4.5-1.924-6.475-1.282-1.973-2.995-3.51-5.138-4.613Zm-12.334 5.724a1.126 1.126 0 0 1-.827.347c-.32 0-.59-.115-.811-.347a1.15 1.15 0 0 1-.33-.826c0-.32.11-.595.33-.826.22-.23.49-.345.811-.345.32 0 .596.115.827.345.23.231.345.506.345.826 0 .321-.116.596-.345.826Zm12.665 0a1.077 1.077 0 0 1-.811.347c-.322 0-.597-.115-.827-.347a1.125 1.125 0 0 1-.346-.826c0-.32.115-.595.346-.826.23-.23.505-.345.827-.345.32 0 .59.115.81.345.221.231.331.506.331.826 0 .321-.11.596-.33.826ZM11.207 37.744c0 .922.32 1.703.961 2.343.641.641 1.422.961 2.344.961h2.223l.031 6.822c0 .862.3 1.593.901 2.194.601.6 1.323.901 2.164.901.86 0 1.592-.3 2.193-.901.6-.6.901-1.332.901-2.194v-6.82h4.147v6.82c0 .862.3 1.593.901 2.194.601.6 1.332.901 2.193.901s1.593-.3 2.194-.901c.6-.6.9-1.332.9-2.194v-6.82h2.255c.9 0 1.672-.321 2.313-.962.641-.64.962-1.422.962-2.344V17.731H11.207v20.013ZM43.059 17.16c-.842 0-1.563.296-2.164.887-.6.591-.9 1.317-.9 2.178v12.92c0 .863.3 1.593.9 2.194a2.95 2.95 0 0 0 2.164.902c.86 0 1.592-.3 2.193-.902.601-.6.901-1.331.901-2.194v-12.92c0-.86-.3-1.587-.9-2.178-.602-.59-1.333-.887-2.194-.887Z"/></g><defs><clipPath id="a"><path fill="#fff" transform="translate(0 .965)" d="M0 0h50v50H0z"/></clipPath></defs></svg>